<svg width="128" height="128" viewBox="0 0 128 128" fill="none" xmlns="http://www.w3.org/2000/svg">
<path d="M24.4022 103.598C46.2715 125.467 81.7287 125.467 103.598 103.598C125.467 81.7287 125.467 46.2715 103.598 24.4022C81.7287 2.53292 46.2715 2.53292 24.4022 24.4022C2.53292 46.2715 2.53271 81.7287 24.4022 103.598ZM88.4645 88.4645C84.198 92.731 77.2555 92.731 72.989 88.4645C68.7225 84.198 68.7225 77.2559 72.989 72.989C75.1222 70.8557 77.9247 69.7891 80.7266 69.7891C83.5286 69.7891 86.331 70.8557 88.4642 72.989C92.731 77.2559 92.731 84.198 88.4645 88.4645ZM39.5358 39.5358C41.669 37.4025 44.4715 36.3359 47.2734 36.3359C50.0754 36.3359 52.8778 37.4025 55.011 39.5358C59.2775 43.8023 59.2775 50.7443 55.011 55.0113C50.7445 59.2778 43.8021 59.2778 39.5356 55.0113C35.2691 50.7448 35.2693 43.8023 39.5358 39.5358ZM33.7323 89.7159L89.7159 33.7328C90.3446 33.1041 91.1682 32.79 91.9918 32.79C92.8154 32.79 93.639 33.1041 94.2677 33.7328C95.5246 34.9897 95.5246 37.0276 94.2677 38.2845L38.2845 94.2677C37.0274 95.5246 34.99 95.5246 33.7326 94.2677C32.4756 93.0107 32.4756 90.9731 33.7323 89.7159Z" fill="#F79C0A"/>
<path d="M77.5406 77.541C75.7838 79.2978 75.7838 82.1559 77.5406 83.9127C78.4189 84.791 79.5726 85.2305 80.7263 85.2305C81.8799 85.2305 83.0338 84.7912 83.9119 83.9127C85.6687 82.1559 85.6687 79.2978 83.9119 77.541C82.156 75.7844 79.2969 75.7844 77.5406 77.541Z" fill="#EE6F14"/>
<path d="M47.2741 51.7773C48.428 51.7773 49.5817 51.3381 50.4598 50.4596C52.2165 48.7028 52.2165 45.8444 50.4598 44.0878C48.7034 42.3311 45.8444 42.3311 44.088 44.0878C42.3312 45.8446 42.3312 48.703 44.088 50.4596C44.9665 51.3383 46.1204 51.7773 47.2741 51.7773Z" fill="#EE6F14"/>
<path d="M94.3709 103.598C84.6116 113.358 72.1448 118.759 59.3875 119.807C75.2152 121.107 91.4897 115.707 103.598 103.598C125.467 81.7276 125.467 46.272 103.598 24.402C91.4899 12.2925 75.2154 6.8922 59.3875 8.19289C72.1448 9.24113 84.6116 14.6416 94.3709 24.402C116.241 46.272 116.241 81.7274 94.3709 103.598Z" fill="#EE6F14"/>
</svg>
