<svg width="381" height="589" viewBox="0 0 381 589" fill="none" xmlns="http://www.w3.org/2000/svg">
<g clip-path="url(#clip0_49_3177)">
<path d="M221.187 505.647C221.187 505.647 218.83 479.264 223.657 482.955C226.865 485.41 238.812 508.632 229.27 519.079C219.728 529.526 175.609 547.5 165.265 529.719C157.567 516.495 172.674 478.028 185.216 486.838C210.234 504.443 214.484 500.495 221.187 505.647Z" fill="#F6BC9F"/>
<path d="M189.048 489.244C189.048 489.244 199.697 518.837 172.546 535.688C172.546 535.688 191.486 502.644 189.048 489.244Z" fill="#F69D81"/>
<path d="M184.686 425.566C184.686 425.566 170.253 395.909 191.278 395.604C202.6 395.443 217.403 411.106 194.966 429.177L184.686 425.566Z" fill="#F69D81"/>
<path d="M185.809 405.891H185.584C185.487 405.861 185.397 405.813 185.319 405.749C185.24 405.684 185.175 405.605 185.128 405.516C185.08 405.426 185.05 405.328 185.041 405.227C185.031 405.126 185.041 405.025 185.071 404.928L245.243 209.846C245.272 209.749 245.321 209.659 245.385 209.58C245.449 209.502 245.528 209.437 245.618 209.389C245.707 209.342 245.805 209.312 245.906 209.302C246.007 209.293 246.108 209.303 246.205 209.333C246.302 209.362 246.393 209.41 246.471 209.474C246.549 209.539 246.614 209.618 246.662 209.707C246.709 209.797 246.739 209.895 246.749 209.996C246.758 210.097 246.748 210.199 246.719 210.295L186.546 405.345C186.498 405.503 186.4 405.641 186.268 405.74C186.135 405.838 185.974 405.891 185.809 405.891Z" fill="#E6C06D"/>
<path d="M185.809 405.89C185.614 405.886 185.428 405.811 185.285 405.677C185.143 405.544 185.055 405.362 185.04 405.168L166.981 169.965C166.991 169.778 167.069 169.6 167.2 169.466C167.331 169.332 167.507 169.25 167.694 169.236C167.881 169.223 168.066 169.278 168.216 169.391C168.365 169.505 168.468 169.669 168.505 169.853L186.579 405.055C186.592 405.257 186.526 405.456 186.394 405.609C186.262 405.762 186.075 405.857 185.873 405.874L185.809 405.89Z" fill="#E6C06D"/>
<path d="M194.967 429.128C194.967 429.128 192.577 454.532 182.779 463.214C153.19 489.469 127.321 469.955 127.321 469.955L142.028 432.001C142.028 432.001 161.93 446.444 169.387 444.55C176.845 442.657 182.779 421.457 182.779 421.457L194.967 429.128Z" fill="#F69D81"/>
<path d="M187.509 87.1265C183.115 139.058 217.483 184.362 264.2 188.407C310.917 192.451 352.406 153.502 356.88 101.57C361.355 49.638 326.97 4.25377 280.238 0.289868C233.505 -3.67403 191.904 35.1946 187.509 87.1265Z" fill="#EE6F14"/>
<path d="M217.692 87.1265C222.086 139.058 187.718 184.362 140.937 188.326C94.1558 192.29 52.7313 153.422 48.2568 101.49C43.7824 49.5578 78.1665 4.25377 124.996 0.289868C171.825 -3.67403 213.265 35.1946 217.692 87.1265Z" fill="#EE6F14"/>
<path d="M151.938 341.986C157.172 356.146 158.092 371.542 154.583 386.226C151.073 400.91 143.291 414.222 132.221 424.481C121.151 434.739 107.29 441.483 92.3898 443.858C77.49 446.234 62.2207 444.135 48.5128 437.828C34.8048 431.52 23.2737 421.286 15.3776 408.421C7.48138 395.556 3.57469 380.637 4.15149 365.55C4.72829 350.463 9.76266 335.886 18.618 323.662C27.4734 311.438 39.7521 302.116 53.9016 296.875C63.2988 293.394 73.2891 291.799 83.3021 292.183C93.315 292.566 103.154 294.92 112.258 299.109C121.362 303.298 129.552 309.241 136.361 316.598C143.169 323.955 148.462 332.582 151.938 341.986Z" fill="#F6BC9F"/>
<path d="M178.448 480.691C189.209 509.77 169.98 524.647 143.166 534.581C116.351 544.515 92.0708 545.815 81.3097 516.671C70.5486 487.528 63.6685 450.151 106.119 434.44C152.195 417.365 167.687 451.596 178.448 480.691Z" fill="#F6BC9F"/>
<path d="M168.745 385.123C175.673 403.852 148.875 431.053 108.894 445.866C68.9124 460.678 30.8718 457.485 23.8955 438.74C16.9192 419.996 43.7498 392.811 83.747 377.998C123.744 363.186 161.817 366.379 168.745 385.123Z" fill="#F6BC9F"/>
<path d="M24.8417 418.215C24.8417 418.215 10.6486 395.844 3.07897 402.392C-4.49067 408.94 1.39507 452.655 25.9804 428.871C25.9804 428.871 29.8133 429.963 24.8417 418.215Z" fill="#F6BC9F"/>
<path d="M4.58691 413.224C4.58691 413.224 20.6243 406.805 23.3827 426.063C23.3827 426.095 19.7102 415.279 4.58691 413.224Z" fill="#E67F69"/>
<path d="M154.055 370.361C154.055 370.361 150.334 344.074 160.277 344.17C170.22 344.266 194.26 381.225 160.117 379.187C160.117 379.187 157.92 382.59 154.055 370.361Z" fill="#F6BC9F"/>
<path d="M166.18 353.381C166.18 353.381 149.902 358.966 160.278 375.383C160.278 375.383 156.044 364.791 166.18 353.381Z" fill="#E67F69"/>
<path d="M58.7612 426.496C60.3649 430.973 56.8206 436.43 50.7425 438.692C44.6643 440.955 38.3456 439.158 36.6937 434.68C35.0419 430.203 38.6343 424.73 44.7124 422.484C50.7906 420.237 57.1093 422.018 58.7612 426.496Z" fill="#F69D81"/>
<path d="M160.759 388.719C162.363 393.197 158.818 398.653 152.74 400.916C146.662 403.179 140.359 401.381 138.707 396.904C137.056 392.427 140.648 386.954 146.726 384.707C152.804 382.461 159.107 384.194 160.759 388.719Z" fill="#F69D81"/>
<path d="M87.8686 408.731C87.8686 408.731 85.3187 395.475 90.7233 391.078C97.5712 385.493 104.772 401.429 104.772 401.429C104.772 401.429 96.3363 392.811 92.8402 396.357C88.0931 401.188 87.8686 408.731 87.8686 408.731Z" fill="#3C2A34"/>
<path d="M80.4756 412.743C83.2305 416.064 86.9368 418.46 91.0949 419.608C95.253 420.756 99.6628 420.6 103.73 419.162C118.725 414.444 115.982 401.91 115.982 401.91C115.982 401.91 127.321 421.521 100.474 426.303C82.7369 429.449 80.4756 412.743 80.4756 412.743Z" fill="#3C2A34"/>
<path d="M86.3457 451.596C86.3457 451.596 117.073 442.673 132.229 434.601C132.229 434.536 117.121 464.177 86.3457 451.596Z" fill="#F69D81"/>
<path d="M82.625 453.601C82.625 453.601 163.277 442.255 174.423 411.876L182.778 429.176C182.778 429.176 163.999 507.042 90.9965 495.728L82.625 453.601Z" fill="#F6BC9F"/>
<path d="M86.3457 485.424C86.3457 485.424 134.458 502.499 169.387 459.378C169.387 459.378 143.631 515.563 86.3457 485.424Z" fill="#F69D81"/>
<path d="M73.1619 403.771C73.1619 403.771 64.614 385.46 52.9548 392.811C41.2956 400.161 47.6945 419.146 47.6945 419.146C47.6945 419.146 52.1209 403.771 59.1292 400.241C62.2565 398.636 73.1619 403.771 73.1619 403.771Z" fill="#3C2A34"/>
<path d="M140.92 377.084C140.92 377.084 132.373 358.789 120.713 366.123C109.054 373.457 115.485 392.474 115.485 392.474C115.485 392.474 119.911 377.084 126.936 373.554C130.031 371.997 140.92 377.084 140.92 377.084Z" fill="#3C2A34"/>
<path d="M83.6035 522.063C83.6035 522.063 145.62 528.739 176.62 475.876C176.62 475.876 182.073 474.881 189.033 489.244C189.033 489.244 192.802 522.239 166.164 540.951C139.526 559.664 95.4712 538.913 95.4712 538.913C89.8448 534.683 85.6926 528.787 83.6035 522.063Z" fill="#E6C06D"/>
<path d="M86.0248 574.684C86.0248 574.684 73.0185 551.318 70.677 556.919C68.3355 562.52 78.6155 590.957 92.6322 588.903C106.649 586.849 140.023 554.335 138.756 545.027C136.703 529.862 90.2105 518.997 90.5313 534.323C91.1407 564.927 85.4795 566.275 86.0248 574.684Z" fill="#F6BC9F"/>
<path d="M185.809 405.891C185.629 405.887 185.455 405.821 185.318 405.704C185.181 405.587 185.088 405.426 185.055 405.249L140.15 172.647C140.131 172.547 140.132 172.444 140.153 172.344C140.174 172.244 140.214 172.15 140.271 172.066C140.329 171.981 140.402 171.909 140.487 171.853C140.572 171.798 140.668 171.759 140.768 171.74C140.868 171.721 140.971 171.722 141.07 171.743C141.17 171.764 141.265 171.804 141.349 171.861C141.433 171.919 141.505 171.992 141.561 172.077C141.616 172.162 141.655 172.258 141.674 172.358L186.579 404.96C186.616 405.164 186.571 405.375 186.454 405.547C186.337 405.718 186.157 405.836 185.953 405.875L185.809 405.891Z" fill="#E6C06D"/>
<path d="M185.809 405.89C185.703 405.912 185.594 405.912 185.489 405.89C185.395 405.849 185.311 405.789 185.242 405.714C185.173 405.639 185.119 405.551 185.084 405.455C185.05 405.359 185.035 405.257 185.041 405.155C185.047 405.054 185.074 404.954 185.12 404.863L282.835 196.092C282.873 195.993 282.93 195.903 283.003 195.827C283.077 195.751 283.165 195.691 283.263 195.651C283.361 195.61 283.466 195.591 283.572 195.593C283.677 195.595 283.782 195.619 283.878 195.663C283.974 195.707 284.06 195.771 284.13 195.85C284.2 195.929 284.254 196.021 284.287 196.122C284.32 196.222 284.332 196.328 284.323 196.434C284.313 196.539 284.282 196.641 284.231 196.734L186.515 405.521C186.44 405.638 186.335 405.734 186.211 405.799C186.087 405.864 185.949 405.895 185.809 405.89Z" fill="#E6C06D"/>
<path d="M206.113 146.023C221.781 195.772 198.174 247.479 153.398 261.57C108.621 275.66 59.6111 246.869 43.9426 197.168C28.2741 147.467 51.9613 95.7277 96.6735 81.6214C141.386 67.515 190.428 96.3215 206.113 146.023Z" fill="#FFCC7B"/>
<path d="M213.987 144.322C198.319 194.071 221.926 245.762 266.718 259.868C311.51 273.975 360.489 245.168 376.157 195.467C391.826 145.766 368.219 94.0265 323.426 79.9202C278.634 65.8139 229.656 94.6203 213.987 144.322Z" fill="#FFCC7B"/>
<path d="M159.235 253.881L169.435 274.888L145.395 280.265L149.532 251.603L159.235 253.881Z" fill="#E2BC7E"/>
<path d="M56.9967 186.078C56.0889 186.075 55.2111 185.752 54.5186 185.165C53.826 184.577 53.3632 183.764 53.2119 182.868C40.9433 112.706 92.5035 95.839 93.0327 95.6785C93.516 95.5278 94.0243 95.4739 94.5285 95.5198C95.0326 95.5656 95.5229 95.7104 95.9711 95.9459C96.4194 96.1813 96.8169 96.5028 97.1409 96.892C97.465 97.2812 97.7094 97.7305 97.8599 98.2141C98.0105 98.6978 98.0644 99.2064 98.0186 99.7109C97.9727 100.215 97.828 100.706 97.5927 101.155C97.3574 101.603 97.0362 102.001 96.6472 102.325C96.2583 102.649 95.8094 102.894 95.326 103.045C93.4657 103.638 49.7478 118.258 60.8136 181.536C60.8983 182.04 60.8823 182.556 60.7666 183.054C60.6509 183.551 60.4378 184.021 60.1395 184.436C59.8413 184.851 59.4638 185.203 59.029 185.471C58.5942 185.739 58.1105 185.918 57.6061 185.998C57.406 186.044 57.2019 186.071 56.9967 186.078Z" fill="#FFE2B5"/>
<path d="M70.7408 222.107C69.9427 222.107 69.164 221.86 68.5116 221.4C58.1835 214.131 55.9222 201.757 55.826 201.244C55.7025 200.26 55.9617 199.266 56.5499 198.467C57.1381 197.669 58.0104 197.127 58.9865 196.954C59.9626 196.781 60.9678 196.99 61.7944 197.537C62.621 198.085 63.2057 198.929 63.4277 199.896C63.4277 199.992 65.2881 209.685 72.9539 215.094C73.6277 215.563 74.1339 216.235 74.3987 217.012C74.6635 217.79 74.673 218.632 74.4259 219.415C74.1787 220.198 73.6878 220.882 73.0248 221.366C72.3619 221.85 71.5616 222.11 70.7408 222.107Z" fill="#FFE2B5"/>
<path d="M185.809 405.89H185.729C185.628 405.88 185.531 405.85 185.442 405.801C185.353 405.753 185.275 405.687 185.212 405.608C185.149 405.528 185.103 405.437 185.076 405.339C185.049 405.242 185.042 405.14 185.055 405.039L213.923 165.922C213.954 165.72 214.062 165.538 214.223 165.413C214.383 165.288 214.586 165.229 214.789 165.248C214.99 165.272 215.174 165.375 215.301 165.534C215.427 165.693 215.485 165.896 215.462 166.098L186.595 405.216C186.568 405.404 186.473 405.577 186.329 405.701C186.184 405.825 186 405.892 185.809 405.89Z" fill="#E6C06D"/>
<path d="M295.072 109.769C295.072 161.894 257 204.132 210.074 204.132C163.149 204.132 125.076 161.894 125.076 109.769C125.076 57.6446 163.149 15.4219 210.074 15.4219C257 15.4219 295.072 57.6607 295.072 109.769Z" fill="#F79C0A"/>
<path d="M142.395 96.6899H141.898C141.395 96.6246 140.909 96.4607 140.469 96.2076C140.029 95.9545 139.643 95.6171 139.333 95.2147C139.024 94.8124 138.796 94.3529 138.664 93.8626C138.532 93.3722 138.497 92.8606 138.562 92.3569C147.591 21.745 201.83 20.8623 202.391 20.8623C203.416 20.8623 204.399 21.2698 205.124 21.9951C205.849 22.7204 206.256 23.7042 206.256 24.7299C206.256 25.7557 205.849 26.7394 205.124 27.4647C204.399 28.19 203.416 28.5975 202.391 28.5975C200.435 28.5975 154.359 29.6246 146.26 93.3359C146.139 94.2717 145.678 95.1302 144.965 95.7484C144.253 96.3667 143.338 96.7017 142.395 96.6899Z" fill="#F7B348"/>
<path d="M144.834 135.222C144.245 135.224 143.665 135.09 143.136 134.831C142.608 134.573 142.146 134.196 141.787 133.729C134.057 123.715 135.548 111.262 135.612 110.7C135.769 109.708 136.305 108.817 137.108 108.213C137.91 107.61 138.915 107.343 139.911 107.468C140.907 107.593 141.815 108.1 142.443 108.883C143.072 109.666 143.371 110.663 143.278 111.663C143.278 111.792 142.172 121.581 147.897 129.011C148.206 129.413 148.433 129.871 148.565 130.36C148.697 130.849 148.731 131.36 148.665 131.862C148.6 132.364 148.436 132.849 148.183 133.288C147.93 133.727 147.593 134.111 147.191 134.42C146.517 134.943 145.687 135.226 144.834 135.222Z" fill="#F7B348"/>
<path d="M260.703 249.677L258.089 272.786L235.749 262.371L256.501 242.198L260.703 249.677Z" fill="#E2BC7E"/>
<path d="M86.9228 315.042C86.9228 315.042 44.5841 292.574 23.3827 324.157C-6.35056 368.482 14.0169 406.099 14.0169 406.099C14.0169 406.099 -1.57141 388.221 5.62937 353.381C12.8302 318.54 45.1936 281.613 86.9228 315.042Z" fill="#F69D81"/>
<path d="M30.7119 310.516C30.7119 310.516 42.5314 275.772 66.8281 274.841L47.6955 292.109C47.6955 292.109 78.4712 275.772 90.6115 296.329C90.6115 296.329 69.5865 294.002 65.3847 295.399C65.3847 295.399 87.837 296.811 86.8908 315.041C86.9229 315.041 64.6791 291.114 30.7119 310.516Z" fill="#AA5C27"/>
<path opacity="0.3" d="M200.258 209.476L169.387 196.333C148.458 264.377 83.2979 245.264 83.2979 245.264C109.792 263.045 131.987 264.185 149.661 258.102V276.173L165.105 272.819L157.519 254.796C185.616 240.754 200.258 209.476 200.258 209.476Z" fill="#BE9047"/>
<path d="M212.752 199.11L217.579 221.866L193.106 219.073L203.9 198.179L212.752 199.11Z" fill="#F1B24D"/>
<path opacity="0.3" d="M331.669 242.199C331.669 242.199 270.471 264.377 249.542 196.333L218.67 209.476C218.67 209.476 229.896 235.154 252.83 249.452L241.235 261.473L255.38 268.165L259.966 253.32C277.88 261.617 301.712 262.323 331.669 242.199Z" fill="#BE9047"/>
<path d="M211.405 193.349L213.458 217.71L198.543 216.169L205.343 192.226L211.405 193.349Z" fill="#CF8B1D"/>
<path d="M136.799 146.167C136.799 146.167 187.124 212.189 269.62 171.619C269.62 171.619 251.129 208.851 193.106 198.452C150.014 190.733 136.799 146.167 136.799 146.167Z" fill="#CF8B1D"/>
<path d="M203.418 455.961H203.193C202.998 455.905 202.833 455.774 202.734 455.596C202.635 455.419 202.61 455.21 202.664 455.014C209.913 429.754 190.989 421.313 190.187 420.976C190.093 420.937 190.008 420.88 189.936 420.808C189.864 420.736 189.807 420.651 189.768 420.557C189.729 420.463 189.71 420.362 189.71 420.261C189.71 420.159 189.731 420.058 189.77 419.965C189.854 419.776 190.009 419.629 190.201 419.554C190.393 419.479 190.607 419.482 190.797 419.563C191.005 419.644 211.773 428.839 204.156 455.431C204.105 455.586 204.006 455.721 203.873 455.816C203.741 455.912 203.581 455.962 203.418 455.961Z" fill="#E6C06D"/>
<path d="M210.94 451.595C210.839 451.593 210.739 451.571 210.647 451.53C210.554 451.489 210.47 451.431 210.4 451.358C210.33 451.285 210.276 451.199 210.239 451.104C210.202 451.01 210.184 450.91 210.186 450.808C210.78 424.538 190.348 421.2 189.482 421.055C189.381 421.043 189.284 421.011 189.196 420.961C189.107 420.911 189.03 420.843 188.969 420.762C188.907 420.681 188.863 420.589 188.838 420.49C188.813 420.391 188.809 420.289 188.825 420.189C188.856 419.985 188.966 419.802 189.131 419.679C189.296 419.556 189.503 419.503 189.707 419.531C189.931 419.531 212.351 423.19 211.726 450.841C211.724 450.942 211.702 451.042 211.661 451.134C211.621 451.227 211.562 451.311 211.489 451.381C211.416 451.451 211.33 451.506 211.236 451.542C211.142 451.579 211.041 451.597 210.94 451.595Z" fill="#E6C06D"/>
<path d="M218.461 448.258C218.28 448.256 218.105 448.191 217.967 448.074C217.829 447.956 217.737 447.794 217.707 447.616C213.297 421.682 191.903 422.372 191.711 422.372C191.508 422.376 191.311 422.302 191.161 422.164C191.012 422.027 190.921 421.836 190.909 421.634C190.902 421.532 190.916 421.43 190.95 421.334C190.984 421.238 191.037 421.15 191.106 421.075C191.175 421 191.259 420.939 191.352 420.898C191.444 420.856 191.545 420.833 191.647 420.831C191.887 420.831 214.58 420.077 219.231 447.359C219.263 447.559 219.216 447.763 219.099 447.929C218.982 448.094 218.805 448.206 218.605 448.241L218.461 448.258Z" fill="#E6C06D"/>
<path d="M190.428 456.409C190.3 456.41 190.173 456.378 190.061 456.316C189.949 456.254 189.854 456.165 189.786 456.056C189.676 455.883 189.638 455.674 189.68 455.473C189.722 455.272 189.84 455.096 190.011 454.981C195.303 451.515 198.286 447.214 198.895 442.223C200.146 431.904 190.877 421.794 190.797 421.697C190.728 421.622 190.675 421.535 190.64 421.44C190.606 421.344 190.59 421.243 190.595 421.142C190.599 421.04 190.624 420.941 190.666 420.849C190.709 420.757 190.77 420.674 190.845 420.606C190.919 420.538 191.007 420.484 191.102 420.45C191.197 420.415 191.299 420.4 191.4 420.404C191.501 420.409 191.601 420.433 191.692 420.476C191.784 420.519 191.867 420.579 191.935 420.654C192.336 421.087 201.766 431.358 200.419 442.399C199.761 447.872 196.538 452.542 190.797 456.281C190.686 456.354 190.559 456.398 190.428 456.409Z" fill="#E6C06D"/>
<path d="M183.436 452.911C183.284 452.91 183.136 452.863 183.01 452.778C182.885 452.692 182.787 452.571 182.73 452.43C182.655 452.24 182.656 452.029 182.734 451.84C182.812 451.651 182.96 451.5 183.147 451.419C189.017 449.044 192.77 445.401 194.373 440.619C197.581 430.733 190.476 419.034 190.396 418.921C190.288 418.747 190.253 418.536 190.299 418.336C190.346 418.136 190.47 417.963 190.645 417.854C190.819 417.746 191.029 417.711 191.229 417.758C191.429 417.804 191.603 417.928 191.711 418.103C192.016 418.6 199.281 430.524 195.833 441.084C194.133 446.332 190.059 450.296 183.757 452.847C183.657 452.897 183.547 452.919 183.436 452.911Z" fill="#E6C06D"/>
<path d="M173.171 424.104C173.171 424.104 163.292 393.725 184.301 395.506C205.31 397.287 207.716 414.86 182.778 429.207L173.171 424.104Z" fill="#F6BC9F"/>
</g>
<defs>
<clipPath id="clip0_49_3177">
<rect width="381" height="589" fill="white"/>
</clipPath>
</defs>
</svg>
