<svg width="403" height="367" viewBox="0 0 403 367" fill="none" xmlns="http://www.w3.org/2000/svg">
<g clip-path="url(#clip0_34_4699)">
<path d="M161.081 129.943C160.111 129.254 159.199 128.594 158.335 128.002C147.662 120.763 141.529 120.103 141.529 120.103L25.2947 212.814C20.2927 209.695 15.9644 205.607 12.5641 200.791C3.89917 188.904 -1.02037 174.542 0.173122 160.694C18.1435 151.515 39.5294 141.345 44.2257 135.464C51.5516 126.216 74.5676 91.1656 81.2822 88.041C93.4306 82.3739 129.391 87.0707 134.194 88.4001C138.434 89.5452 152.873 98.9676 164.206 109.166C168.036 112.485 171.542 116.16 174.676 120.142C180.595 127.982 172.395 138.172 161.081 129.943Z" fill="#FFC6B0"/>
<path d="M257.026 69.7782L200.301 97.8032L164.458 115.532L113.914 140.539C113.308 140.828 112.644 140.974 111.973 140.966C109.373 140.966 106.918 138.705 105.695 136.114C104.181 132.893 104.637 128.652 107.859 127.138L147.943 109.244L253.233 62.2382C256.794 60.8312 262.033 59.1525 263.188 61.7046C264.343 64.2567 260.258 68.2644 257.026 69.7782Z" fill="#FC9F8F"/>
<path d="M188.427 103.625L164.46 115.523L151.399 118.434L147.867 110.923C148.304 110.69 176.666 105.421 188.427 103.625Z" fill="#EB6E57"/>
<path d="M293.193 146.323L239.883 30.1183L238.981 28.1775L237.04 29.0799L202.71 44.8295L200.77 45.7222L201.672 47.6629L254.991 163.868C256.105 166.437 257.72 168.758 259.742 170.695C261.765 172.631 264.153 174.145 266.768 175.147C269.383 176.148 272.171 176.618 274.97 176.527C277.769 176.437 280.521 175.789 283.066 174.621C285.611 173.453 287.897 171.789 289.79 169.726C291.684 167.663 293.146 165.243 294.092 162.607C295.038 159.972 295.448 157.173 295.299 154.377C295.149 151.581 294.443 148.843 293.222 146.323H293.193ZM281.956 172.261C277.405 174.347 272.212 174.54 267.518 172.799C262.824 171.058 259.013 167.524 256.922 162.975L203.554 46.7605L237.884 31.011L291.252 147.225C293.333 151.777 293.524 156.969 291.781 161.662C290.038 166.354 286.505 170.163 281.956 172.252V172.261Z" fill="#A1C8FA"/>
<path opacity="0.77" d="M292.969 155.056C292.974 159.367 291.504 163.549 288.803 166.909C286.102 170.268 282.334 172.603 278.123 173.524C273.913 174.446 269.514 173.899 265.657 171.974C261.8 170.05 258.718 166.864 256.921 162.946L211.316 63.6163C222.281 60.2199 239.184 61.2 250.566 58.5896L291.213 147.196C292.36 149.658 292.959 152.34 292.969 155.056Z" fill="#F6D39B"/>
<path d="M239.622 14L190.504 36.5422L200.508 58.3566L249.635 35.8144L239.622 14Z" fill="#EE6F14"/>
<path d="M241.854 35.436C241.776 35.4365 241.699 35.4137 241.633 35.3705C241.568 35.3274 241.516 35.2657 241.486 35.1934L234.878 20.3464C234.835 20.2484 234.832 20.1377 234.871 20.0378C234.909 19.938 234.984 19.8572 235.082 19.8127C235.13 19.7902 235.182 19.7775 235.235 19.7756C235.289 19.7737 235.342 19.7826 235.392 19.8016C235.441 19.8206 235.487 19.8494 235.525 19.8863C235.564 19.9232 235.594 19.9675 235.615 20.0165L242.223 34.8635C242.266 34.9614 242.269 35.0722 242.23 35.172C242.192 35.2718 242.117 35.3527 242.019 35.3972C241.968 35.4227 241.912 35.436 241.854 35.436Z" fill="#151F39"/>
<path d="M204.477 52.7865C204.4 52.7866 204.324 52.7649 204.259 52.7236C204.193 52.6824 204.141 52.6234 204.108 52.5537L197.51 37.6969C197.487 37.6486 197.475 37.5963 197.473 37.5431C197.471 37.4898 197.48 37.4367 197.499 37.3869C197.518 37.3372 197.547 37.2917 197.584 37.2533C197.62 37.2148 197.665 37.1842 197.714 37.1632C197.812 37.1205 197.922 37.1178 198.022 37.156C198.122 37.1941 198.203 37.2698 198.247 37.367L204.845 52.2238C204.868 52.2721 204.881 52.3244 204.883 52.3776C204.884 52.4309 204.876 52.484 204.857 52.5338C204.838 52.5835 204.809 52.629 204.772 52.6674C204.735 52.7058 204.691 52.7364 204.642 52.7574C204.589 52.7772 204.533 52.7871 204.477 52.7865Z" fill="#151F39"/>
<path d="M222.776 44.1889C222.698 44.1894 222.621 44.1666 222.555 44.1235C222.49 44.0803 222.438 44.0186 222.408 43.9463L215.8 29.0993C215.757 29.0014 215.754 28.8905 215.792 28.7907C215.831 28.6909 215.906 28.6101 216.003 28.5656C216.052 28.5431 216.104 28.5305 216.157 28.5286C216.211 28.5267 216.264 28.5355 216.313 28.5545C216.363 28.5735 216.409 28.6023 216.447 28.6392C216.486 28.6761 216.516 28.7204 216.537 28.7693L223.145 43.6163C223.188 43.7143 223.19 43.8251 223.152 43.9249C223.114 44.0247 223.038 44.1056 222.941 44.1501C222.891 44.1776 222.834 44.191 222.776 44.1889Z" fill="#151F39"/>
<path d="M232.199 39.861C232.121 39.8615 232.044 39.8387 231.978 39.7956C231.913 39.7524 231.861 39.6907 231.831 39.6184L225.233 24.7714C225.21 24.7231 225.197 24.6708 225.196 24.6175C225.194 24.5643 225.203 24.5112 225.222 24.4614C225.241 24.4116 225.269 24.3662 225.306 24.3278C225.343 24.2894 225.387 24.2587 225.436 24.2377C225.534 24.1949 225.645 24.1923 225.745 24.2304C225.845 24.2685 225.925 24.3444 225.97 24.4415L232.568 39.2982C232.591 39.3465 232.603 39.3989 232.605 39.4521C232.607 39.5054 232.598 39.5584 232.579 39.6082C232.56 39.6579 232.531 39.7034 232.495 39.7418C232.458 39.7803 232.413 39.8109 232.364 39.8319C232.312 39.8517 232.256 39.8616 232.199 39.861Z" fill="#151F39"/>
<path d="M213.296 48.5362C213.218 48.5366 213.141 48.5138 213.075 48.4707C213.009 48.4275 212.958 48.3659 212.927 48.2936L206.329 33.4466C206.301 33.3519 206.309 33.2502 206.35 33.1605C206.391 33.0708 206.463 32.9992 206.554 32.9589C206.644 32.9185 206.745 32.9123 206.84 32.9413C206.934 32.9703 207.015 33.0327 207.067 33.1167L213.665 47.9637C213.687 48.012 213.7 48.0643 213.702 48.1175C213.704 48.1708 213.695 48.2239 213.676 48.2737C213.657 48.3234 213.628 48.3688 213.591 48.4073C213.554 48.4457 213.51 48.4763 213.461 48.4973C213.411 48.5248 213.354 48.5383 213.296 48.5362Z" fill="#151F39"/>
<path d="M303.088 229.195H171.688V216.25H302.681C302.817 219.636 302.962 224.323 303.088 229.195Z" fill="#F79C0A"/>
<path d="M392 367H111.52C113.305 266.079 176.667 254.667 177.065 246.564C177.269 242.683 177.366 235.57 177.414 229.204H326.106C326.164 235.57 326.261 242.673 326.455 246.564C326.853 254.667 390.225 266.06 392 367Z" fill="#F6D39B"/>
<path d="M263.123 79.7345L111.569 128.487C108.202 129.652 107.3 133.815 108.464 137.221C109.609 140.588 112.743 143.645 116.11 142.49L266.054 87.6238C269.421 86.469 273.952 82.9562 273.069 80.2973C272.186 77.6384 266.82 78.7156 263.123 79.7345Z" fill="#FC9F8F"/>
<path d="M158.338 128.031C151.274 134.212 141.153 139.879 135.39 143.916C124.454 151.543 115.847 157.502 110.025 161.733C104.203 165.964 85.7674 178.132 78.0825 184.43C74.7252 187.147 51.4471 201.761 30.6046 215.56C28.7579 214.815 26.9816 213.906 25.297 212.843C20.295 209.724 15.9667 205.636 12.5664 200.82C34.0396 174.746 79.9843 124.295 84.3702 127.856C90.1921 132.563 99.4101 124.557 115.605 122.897C122.513 122.218 130.16 116.105 137.631 112.408C144.113 109.157 157.484 105.11 163.432 109.962C164.366 110.747 165.099 111.746 165.567 112.873C167.74 117.822 164.024 123.082 158.338 128.031Z" fill="#FFC6B0"/>
<path d="M151.477 133.853C151.422 133.854 151.367 133.841 151.318 133.815C151.269 133.79 151.227 133.753 151.196 133.708C151.17 133.672 151.152 133.631 151.143 133.588C151.133 133.544 151.132 133.5 151.141 133.456C151.149 133.413 151.166 133.372 151.19 133.335C151.214 133.298 151.246 133.266 151.283 133.242C164.479 124.062 166.527 117.958 165.915 114.455C165.343 111.204 162.315 109.283 159.899 108.633C150.972 106.236 141.143 111.195 129.751 116.949C122.445 120.637 114.158 124.819 104.921 127.623C104.878 127.638 104.833 127.644 104.788 127.641C104.743 127.638 104.699 127.625 104.659 127.604C104.619 127.584 104.584 127.555 104.555 127.519C104.527 127.484 104.506 127.444 104.494 127.4C104.469 127.314 104.479 127.222 104.52 127.142C104.562 127.063 104.632 127.002 104.717 126.973C113.906 124.149 122.183 119.986 129.441 116.299C140.959 110.477 150.914 105.469 160.074 107.934C162.684 108.642 165.964 110.729 166.585 114.3C167.206 117.871 165.158 124.373 151.671 133.708C151.626 133.778 151.557 133.83 151.477 133.853Z" fill="black"/>
<path d="M278.782 291.882C278.678 291.701 278.54 291.543 278.375 291.416C278.21 291.289 278.022 291.195 277.821 291.141C277.62 291.087 277.41 291.073 277.204 291.101C276.997 291.128 276.798 291.195 276.618 291.3L270.796 294.638V288.679C270.799 288.471 270.76 288.264 270.682 288.07C270.605 287.877 270.489 287.701 270.343 287.552C270.197 287.403 270.023 287.285 269.831 287.203C269.639 287.122 269.433 287.08 269.224 287.078C268.806 287.078 268.404 287.243 268.106 287.538C267.808 287.832 267.638 288.232 267.633 288.65L267.565 296.481L253.282 304.73V287.728L259.521 283.954C259.858 283.724 260.095 283.374 260.181 282.976C260.268 282.577 260.198 282.16 259.987 281.812C259.775 281.463 259.438 281.209 259.044 281.102C258.65 280.995 258.231 281.043 257.872 281.237L253.282 284.022V277.86C253.251 277.46 253.07 277.087 252.776 276.815C252.482 276.543 252.096 276.392 251.695 276.392C251.295 276.392 250.909 276.543 250.615 276.815C250.321 277.087 250.14 277.46 250.109 277.86V284.332L244.86 281.237C244.498 281.023 244.066 280.962 243.66 281.066C243.253 281.171 242.904 281.433 242.691 281.795C242.477 282.156 242.416 282.588 242.521 282.994C242.625 283.401 242.887 283.75 243.249 283.963L250.109 288.02V304.516L236.001 295.094L236.457 287.573C236.48 287.153 236.336 286.74 236.056 286.425C235.776 286.11 235.383 285.919 234.962 285.894C234.754 285.88 234.545 285.907 234.348 285.974C234.15 286.041 233.968 286.147 233.812 286.285C233.656 286.423 233.529 286.591 233.438 286.779C233.347 286.967 233.295 287.171 233.284 287.379L232.944 293.046L227.947 289.718C227.597 289.516 227.184 289.455 226.791 289.547C226.397 289.638 226.054 289.876 225.829 290.211C225.605 290.547 225.516 290.955 225.581 291.354C225.647 291.752 225.861 292.111 226.181 292.357L231.256 295.744L226.006 298.17C225.62 298.346 225.32 298.669 225.172 299.066C225.023 299.464 225.039 299.904 225.215 300.29C225.392 300.676 225.714 300.976 226.112 301.125C226.509 301.273 226.95 301.257 227.336 301.081L234.351 297.84L248.692 307.408L233.73 316.054L226.938 312.25C226.571 312.065 226.148 312.028 225.755 312.148C225.362 312.268 225.031 312.535 224.831 312.894C224.63 313.252 224.576 313.674 224.679 314.071C224.783 314.468 225.036 314.81 225.385 315.026L230.499 317.937L225.22 320.984C224.889 321.211 224.655 321.554 224.567 321.946C224.478 322.337 224.54 322.748 224.742 323.095C224.943 323.443 225.268 323.701 225.652 323.819C226.036 323.937 226.45 323.905 226.812 323.73L232.012 320.732L231.915 326.311C231.91 326.52 231.946 326.727 232.022 326.922C232.097 327.116 232.21 327.294 232.355 327.445C232.499 327.595 232.672 327.716 232.863 327.799C233.054 327.883 233.259 327.928 233.468 327.932C233.885 327.932 234.285 327.768 234.583 327.476C234.881 327.184 235.052 326.787 235.059 326.37L235.195 318.868L250.051 310.3V326.991L243.191 331.037C242.913 331.223 242.701 331.492 242.585 331.806C242.469 332.119 242.454 332.461 242.543 332.783C242.632 333.105 242.821 333.391 243.081 333.601C243.342 333.81 243.662 333.931 243.996 333.948C244.28 333.95 244.559 333.873 244.801 333.725L250.051 330.63V337.122C250.082 337.521 250.263 337.894 250.557 338.166C250.851 338.438 251.237 338.589 251.637 338.589C252.038 338.589 252.424 338.438 252.718 338.166C253.012 337.894 253.193 337.521 253.224 337.122V330.94L257.813 333.715C257.992 333.837 258.193 333.921 258.405 333.962C258.617 334.003 258.835 334 259.046 333.954C259.257 333.909 259.456 333.82 259.632 333.695C259.808 333.57 259.956 333.41 260.068 333.225C260.18 333.041 260.254 332.835 260.284 332.622C260.314 332.408 260.3 332.19 260.244 331.982C260.187 331.774 260.089 331.579 259.954 331.41C259.82 331.241 259.653 331.101 259.463 330.998L253.224 327.233V310.475L266.643 319.431L266.236 327.398C266.217 327.818 266.364 328.229 266.646 328.541C266.927 328.853 267.32 329.042 267.74 329.067H267.827C268.233 329.068 268.624 328.912 268.919 328.632C269.213 328.352 269.389 327.969 269.409 327.563L269.719 321.479L275.386 325.263C275.646 325.441 275.954 325.536 276.269 325.535C276.609 325.534 276.94 325.423 277.213 325.22C277.486 325.017 277.687 324.731 277.785 324.406C277.884 324.08 277.876 323.731 277.762 323.41C277.648 323.09 277.434 322.814 277.152 322.624L271.844 319.082L276.696 316.782C277.082 316.602 277.38 316.276 277.526 315.875C277.672 315.475 277.652 315.033 277.472 314.647C277.292 314.261 276.966 313.963 276.565 313.817C276.165 313.671 275.723 313.691 275.337 313.871L268.768 316.986L254.64 307.554L269.195 299.121L275.696 302.692C275.931 302.822 276.195 302.889 276.463 302.886C276.814 302.883 277.154 302.765 277.43 302.549C277.707 302.332 277.904 302.031 277.992 301.691C278.079 301.351 278.052 300.992 277.914 300.669C277.776 300.347 277.535 300.079 277.229 299.907L272.378 297.268L278.006 294.017C278.199 293.93 278.373 293.805 278.517 293.65C278.662 293.495 278.773 293.313 278.846 293.114C278.918 292.914 278.95 292.703 278.939 292.491C278.928 292.28 278.875 292.072 278.782 291.882Z" fill="#EE6F14"/>
<path d="M331.832 216.25V229.195H303.091C302.965 224.343 302.82 219.636 302.703 216.25H331.832Z" fill="#9D6812"/>
<path opacity="0.28" d="M392 366.99H351.81C348.52 286.807 302.537 257.074 303.177 251.921C303.468 249.592 303.381 241.354 303.177 232.882C303.177 231.65 303.177 230.417 303.09 229.195H326.106C326.106 235.57 326.261 242.673 326.455 246.565C326.853 254.658 390.215 266.05 392 366.99Z" fill="#C49955"/>
<path opacity="0.28" d="M133.932 114.164C133.932 114.164 123.743 108.41 117.436 108.672C111.711 109.01 106.046 110.013 100.553 111.66C95.8756 113.126 92.79 117.483 93.6245 121.238C95.7786 130.651 104.085 127.361 106.598 126.818C113.4 125.343 133.932 114.164 133.932 114.164Z" fill="#72511B"/>
<path d="M232.558 66.7506C231.286 65.8242 229.756 65.3187 228.182 65.3047C227.392 65.2972 226.608 65.4421 225.873 65.7316C225.291 65.969 224.751 66.2965 224.272 66.702C222.98 67.8708 222.154 69.466 221.944 71.195C221.733 72.9239 222.153 74.6706 223.127 76.1149C223.664 76.8243 224.34 77.4164 225.115 77.8553C225.889 78.2941 226.744 78.5704 227.629 78.6671C227.951 78.707 228.275 78.7264 228.599 78.7252C228.904 78.7255 229.209 78.7061 229.511 78.6671C230.103 78.5935 230.681 78.4367 231.229 78.2013C231.764 77.9825 232.262 77.6812 232.704 77.3085C233.494 76.6188 234.118 75.7598 234.529 74.7953C234.941 73.8309 235.129 72.7859 235.081 71.7384C235.07 70.7695 234.837 69.816 234.399 68.9513C233.962 68.0866 233.332 67.3337 232.558 66.7506Z" fill="white"/>
<path d="M221.088 69.3417C221.108 69.545 221.108 69.7497 221.088 69.953C221.023 70.1645 220.925 70.3642 220.797 70.5449C220.734 70.7173 220.734 70.9063 220.797 71.0786C220.874 71.2531 220.933 71.4353 220.972 71.6221C220.952 71.8674 220.872 72.104 220.739 72.311C220.575 72.527 220.502 72.7987 220.535 73.0679C220.535 73.2038 220.681 73.3203 220.72 73.4561C220.807 73.757 220.574 74.116 220.943 74.3101C221.079 74.3877 221.253 74.3974 221.331 74.5235C221.356 74.5871 221.365 74.656 221.356 74.7238C221.348 74.7917 221.322 74.8563 221.282 74.9117C221.244 74.9661 221.218 75.0277 221.204 75.0928C221.191 75.1579 221.191 75.2252 221.205 75.2902C221.205 75.4357 221.418 75.523 221.447 75.6782C221.477 75.8335 221.37 76.0665 221.661 76.2217C221.952 76.377 222.088 76.2218 222.243 76.3867C222.318 76.4714 222.369 76.5744 222.391 76.6851C222.413 76.7959 222.406 76.9105 222.369 77.0174C222.369 77.1824 222.369 77.3862 222.495 77.4639C222.622 77.5415 222.845 77.4639 223.01 77.4639C223.175 77.4639 223.242 77.8132 223.417 77.9393C223.592 78.0655 223.893 77.9393 224.077 78.1042C224.261 78.2692 224.242 78.4924 224.446 78.6089C224.679 78.7137 224.919 78.8044 225.164 78.8806C225.494 79.0359 225.523 79.4822 225.95 79.4434C226.105 79.4434 226.251 79.3755 226.406 79.3658C226.784 79.3658 226.842 79.6181 227.114 79.7443C227.386 79.8704 227.745 79.5987 228.084 79.5792C228.289 79.5898 228.492 79.629 228.686 79.6957C228.966 79.7036 229.247 79.6776 229.521 79.6181C229.899 79.6181 230.239 79.9868 230.588 79.8413C230.937 79.6957 230.976 79.1037 231.451 79.0843C231.609 79.1033 231.769 79.0834 231.917 79.0262C232.189 78.8806 232.169 78.4731 232.499 78.4245C232.556 78.4273 232.612 78.4173 232.664 78.3955C232.716 78.3737 232.763 78.3405 232.8 78.2984V78.1528C232.833 78.0883 232.882 78.0326 232.941 77.9904C233 77.9482 233.068 77.9207 233.14 77.9102C233.279 77.8892 233.412 77.836 233.528 77.7549C233.722 77.5705 233.654 77.2115 233.868 77.0563C234.081 76.901 234.11 77.0563 234.265 77.0563C234.466 77.0637 234.662 76.9978 234.817 76.871C234.973 76.7442 235.077 76.5652 235.11 76.3673C235.11 76.115 234.964 75.8335 235.11 75.5812C235.255 75.3289 235.75 75.2902 235.857 75.0379C235.963 74.7856 235.595 74.4168 235.711 74.1451C235.711 74.0577 235.818 73.9898 235.857 73.9025C235.892 73.8214 235.911 73.7338 235.911 73.6453C235.911 73.5568 235.892 73.4692 235.857 73.3881C235.774 73.2336 235.719 73.0663 235.692 72.8932C235.692 72.4954 236.235 72.2819 236.225 71.855C236.225 71.5929 235.944 71.36 235.915 71.1077C235.886 70.8554 236.216 70.477 235.915 70.1373C235.847 70.05 235.74 69.9918 235.701 69.8947C235.663 69.7977 235.701 69.5454 235.701 69.3707C235.696 69.297 235.674 69.2256 235.637 69.1617C235.6 69.0978 235.549 69.0431 235.488 69.0019C235.201 68.8285 234.953 68.5972 234.76 68.3227C234.634 68.0995 234.848 67.6531 234.692 67.4493C234.537 67.2455 234.265 67.1388 234.091 66.9447C233.916 66.7506 233.945 66.3431 233.635 66.2169C233.324 66.0908 233.285 66.1394 233.13 66.0617C232.8 65.8968 232.8 65.5183 232.48 65.3534C232.16 65.1884 231.927 65.3533 231.694 65.2757C231.461 65.198 231.471 64.9652 231.364 64.8293C231.319 64.7645 231.26 64.7108 231.191 64.6721C231.122 64.6335 231.045 64.611 230.966 64.6061C230.861 64.6303 230.751 64.6303 230.646 64.6061C230.549 64.6061 230.491 64.4799 230.413 64.4217C230.171 64.2179 229.899 64.3635 229.627 64.3441C229.356 64.3247 229.22 64.1306 228.977 64.0432C228.901 64.0096 228.818 63.9922 228.735 63.9922C228.651 63.9922 228.568 64.0096 228.492 64.0432C228.376 64.1015 228.288 64.218 228.152 64.2471C228.016 64.2762 227.813 64.121 227.638 64.1307C227.505 64.1721 227.383 64.2415 227.279 64.3344C226.881 64.6061 226.707 64.0142 226.309 64.1112C225.911 64.2083 225.93 64.5576 225.678 64.5479C225.594 64.5427 225.51 64.5427 225.426 64.5479C225.076 64.6061 225.076 65.0525 224.669 64.9652C224.523 64.927 224.369 64.927 224.223 64.9652C223.99 65.0428 223.951 65.3241 223.796 65.4794C223.64 65.6347 223.272 65.6154 223.155 65.8289C223.039 66.0423 223.155 66.3528 222.825 66.5275C222.495 66.7022 222.36 66.5954 222.224 66.8477C222.171 66.9802 222.129 67.1165 222.098 67.2553C221.991 67.5076 221.719 67.6725 221.651 67.9442C221.632 68.0827 221.632 68.2231 221.651 68.3616C221.651 68.7788 221.292 68.7594 221.117 69.0602C221.087 69.1507 221.077 69.2469 221.088 69.3417ZM222.622 69.5551C222.772 69.16 222.971 68.7851 223.213 68.4392C223.736 67.6451 224.437 66.9846 225.261 66.511C226.085 66.0374 227.009 65.764 227.958 65.7124C231.131 65.7124 234.828 68.381 234.489 72.3693C234.438 73.011 234.294 73.6419 234.062 74.2421C233.65 75.3258 232.936 76.2682 232.003 76.9565C231.07 77.6448 229.959 78.05 228.802 78.1237C227.63 78.1863 226.462 77.9287 225.424 77.3782C224.387 76.8278 223.519 76.0053 222.913 74.999C222.472 74.1619 222.217 73.2392 222.167 72.2944C222.117 71.3496 222.272 70.4051 222.622 69.526V69.5551Z" fill="#F79C0A"/>
<path d="M232.558 66.7506C231.286 65.8242 229.756 65.3187 228.182 65.3047C227.392 65.2972 226.608 65.4421 225.873 65.7316C225.291 65.969 224.751 66.2965 224.272 66.702C222.98 67.8708 222.154 69.466 221.944 71.195C221.733 72.9239 222.153 74.6706 223.127 76.1149C223.664 76.8243 224.34 77.4164 225.115 77.8553C225.889 78.2941 226.744 78.5704 227.629 78.6671C227.951 78.707 228.275 78.7264 228.599 78.7252C228.904 78.7255 229.209 78.7061 229.511 78.6671C230.103 78.5935 230.681 78.4367 231.229 78.2013C231.764 77.9825 232.262 77.6812 232.704 77.3085C233.494 76.6188 234.118 75.7598 234.529 74.7953C234.941 73.8309 235.129 72.7859 235.081 71.7384C235.07 70.7695 234.837 69.816 234.399 68.9513C233.962 68.0866 233.332 67.3337 232.558 66.7506ZM227.707 77.619C227.379 77.5771 227.055 77.5123 226.736 77.4249C225.592 77.1222 224.585 76.4374 223.884 75.4841C223.074 74.2552 222.727 72.7786 222.905 71.3177C223.083 69.8568 223.773 68.5066 224.854 67.5075C225.245 67.1736 225.687 66.9049 226.164 66.7117C227.108 66.3804 228.121 66.2886 229.11 66.4444C230.098 66.6002 231.033 66.9988 231.83 67.6046C232.467 68.0967 232.983 68.7274 233.339 69.4487C233.696 70.17 233.883 70.963 233.887 71.7676C233.91 72.3652 233.848 72.963 233.703 73.5434C233.417 74.6772 232.787 75.6944 231.898 76.4545C231.311 76.9146 230.638 77.2515 229.917 77.4449C229.197 77.6384 228.445 77.6844 227.707 77.5802V77.619Z" fill="#D1DEFF"/>
<path d="M233.781 73.5433C233.495 74.6772 232.865 75.6944 231.976 76.4545C231.381 76.9205 230.698 77.2599 229.967 77.4518C229.236 77.6437 228.473 77.6842 227.726 77.5705C227.399 77.5286 227.074 77.4637 226.756 77.3763C226.407 76.2701 227.328 74.6981 228.066 73.9994C229.079 73.1082 230.385 72.6213 231.734 72.6312C232.101 72.5889 232.473 72.6426 232.813 72.7872C233.153 72.9318 233.45 73.1623 233.674 73.456L233.781 73.5433Z" fill="#89A8F5"/>
<path d="M262.753 118.434C264.325 118.348 265.831 117.775 267.062 116.794C267.678 116.301 268.195 115.695 268.585 115.008C268.885 114.456 269.095 113.86 269.206 113.242C269.475 111.521 269.112 109.76 268.185 108.285C267.257 106.811 265.828 105.721 264.16 105.217C263.297 104.999 262.397 104.963 261.519 105.11C260.641 105.257 259.802 105.584 259.057 106.071C258.784 106.235 258.525 106.42 258.28 106.624C258.046 106.818 257.822 107.026 257.611 107.245C257.198 107.675 256.848 108.162 256.572 108.691C256.299 109.199 256.103 109.746 255.99 110.312C255.814 111.345 255.872 112.405 256.161 113.413C256.45 114.421 256.962 115.351 257.659 116.134C258.278 116.879 259.058 117.473 259.941 117.872C260.824 118.27 261.785 118.463 262.753 118.434Z" fill="white"/>
<path d="M269.961 109.176C269.845 109.011 269.68 108.875 269.573 108.701C269.499 108.493 269.451 108.278 269.427 108.06C269.379 107.885 269.268 107.734 269.117 107.633C268.947 107.549 268.787 107.445 268.641 107.323C268.498 107.122 268.408 106.888 268.38 106.643C268.379 106.508 268.35 106.374 268.295 106.25C268.24 106.127 268.16 106.016 268.059 105.925C267.943 105.838 267.797 105.818 267.671 105.731C267.545 105.644 267.37 105.129 266.953 105.217C266.808 105.217 266.662 105.343 266.526 105.294C266.467 105.261 266.416 105.213 266.379 105.155C266.342 105.098 266.319 105.033 266.313 104.965C266.302 104.83 266.239 104.705 266.138 104.615C266.012 104.528 265.818 104.615 265.701 104.479C265.585 104.343 265.517 104.12 265.197 104.188C264.877 104.256 264.838 104.421 264.634 104.421C264.43 104.421 264.256 104.208 264.139 104.023C264.023 103.839 263.926 103.722 263.761 103.752C263.596 103.781 263.508 103.994 263.344 104.052C263.179 104.111 262.946 103.926 262.732 103.946C262.519 103.965 262.354 104.237 262.111 104.227C261.869 104.217 261.742 104.033 261.51 104.072C261.263 104.139 261.02 104.22 260.782 104.314C260.433 104.402 260.122 104.072 259.812 104.373C259.695 104.479 259.618 104.615 259.501 104.722C259.229 104.974 259.006 104.8 258.715 104.867C258.424 104.935 258.317 105.392 258.094 105.595C257.924 105.711 257.742 105.809 257.551 105.886C257.329 106.058 257.128 106.253 256.949 106.469C256.677 106.731 256.163 106.643 255.979 106.973C255.794 107.303 256.144 107.788 255.785 108.099C255.668 108.206 255.523 108.293 255.465 108.438C255.406 108.584 255.62 109.03 255.387 109.273C255.319 109.36 255.222 109.448 255.241 109.564C255.257 109.614 255.276 109.663 255.3 109.71C255.311 109.781 255.307 109.853 255.287 109.922C255.267 109.991 255.231 110.054 255.183 110.108C255.089 110.214 255.019 110.34 254.979 110.476C254.979 110.738 255.222 110.981 255.154 111.233C255.086 111.486 254.989 111.408 254.863 111.505C254.704 111.627 254.594 111.802 254.555 111.998C254.516 112.195 254.549 112.399 254.649 112.572C254.766 112.796 255.096 112.902 255.154 113.174C255.212 113.446 254.844 113.805 254.931 114.067C255.018 114.329 255.523 114.377 255.6 114.659C255.6 114.756 255.6 114.853 255.6 114.95C255.668 115.111 255.792 115.242 255.95 115.319C256.112 115.389 256.262 115.484 256.396 115.6C256.668 115.901 256.396 116.415 256.639 116.745C256.881 117.075 257.163 116.939 257.347 117.124C257.531 117.308 257.512 117.803 257.89 117.871C258 117.857 258.111 117.857 258.22 117.871C258.375 117.958 258.395 118.172 258.511 118.307C258.563 118.36 258.625 118.4 258.694 118.425C258.763 118.45 258.836 118.46 258.909 118.453C259.235 118.414 259.564 118.44 259.88 118.531C260.122 118.618 260.239 119.093 260.491 119.161C260.743 119.229 261.015 119.161 261.267 119.161C261.519 119.161 261.772 119.53 262.092 119.443C262.25 119.367 262.412 119.299 262.577 119.239C262.936 119.161 263.169 119.452 263.547 119.375C263.926 119.297 263.965 119.016 264.207 118.938C264.45 118.861 264.566 119.045 264.741 119.084C264.816 119.106 264.896 119.11 264.973 119.097C265.05 119.083 265.124 119.052 265.187 119.006C265.274 118.928 265.323 118.822 265.43 118.783C265.536 118.744 265.624 118.783 265.721 118.783C266.041 118.783 266.157 118.502 266.381 118.346C266.604 118.191 266.837 118.259 267.079 118.172C267.237 118.119 267.369 118.008 267.448 117.861C267.473 117.728 267.519 117.601 267.584 117.483C267.7 117.356 267.923 117.366 268.05 117.25C268.132 117.135 268.186 117.002 268.205 116.862C268.341 116.405 268.855 116.745 269.078 116.444C269.301 116.143 269.078 115.852 269.282 115.707C269.357 115.664 269.428 115.615 269.495 115.561C269.728 115.29 269.495 114.95 269.816 114.756C269.958 114.71 270.086 114.626 270.184 114.513C270.32 114.3 270.184 114.057 270.184 113.834C270.184 113.611 270.514 113.407 270.466 113.164C270.417 112.922 270.116 112.776 270.281 112.417C270.446 112.058 270.602 112.068 270.543 111.786C270.485 111.505 270.427 111.524 270.388 111.389C270.349 111.253 270.388 110.826 270.301 110.583C270.23 110.458 270.142 110.344 270.039 110.243C269.777 109.923 270.039 109.71 270.039 109.37C270.025 109.301 269.998 109.236 269.961 109.176ZM268.641 109.972C268.776 110.374 268.86 110.791 268.894 111.214C268.991 112.157 268.866 113.11 268.529 113.996C268.192 114.883 267.652 115.678 266.953 116.318C264.518 118.346 259.938 118.589 257.687 115.28C257.326 114.749 257.042 114.171 256.842 113.562C256.472 112.46 256.427 111.274 256.713 110.147C256.999 109.02 257.603 107.999 258.453 107.206C259.222 106.47 260.169 105.944 261.2 105.681C262.232 105.418 263.315 105.426 264.343 105.704C265.371 105.982 266.309 106.522 267.067 107.269C267.826 108.017 268.378 108.948 268.671 109.972H268.641Z" fill="#F79C0A"/>
<path d="M262.753 118.434C264.325 118.348 265.831 117.775 267.062 116.794C267.678 116.301 268.195 115.695 268.585 115.008C268.885 114.456 269.095 113.86 269.206 113.242C269.475 111.521 269.112 109.76 268.185 108.285C267.257 106.811 265.828 105.721 264.16 105.217C263.297 104.999 262.397 104.963 261.519 105.11C260.641 105.257 259.802 105.584 259.057 106.071C258.786 106.239 258.527 106.423 258.28 106.624C258.046 106.818 257.822 107.026 257.611 107.245C257.198 107.675 256.848 108.162 256.572 108.691C256.299 109.199 256.103 109.746 255.99 110.312C255.814 111.345 255.872 112.405 256.161 113.413C256.45 114.421 256.962 115.351 257.659 116.134C258.278 116.879 259.058 117.473 259.941 117.872C260.824 118.27 261.785 118.463 262.753 118.434ZM259.619 106.973C259.889 106.813 260.168 106.667 260.454 106.537C261.533 106.056 262.742 105.95 263.889 106.236C265.288 106.682 266.485 107.608 267.268 108.851C268.051 110.094 268.37 111.574 268.168 113.029C268.073 113.534 267.899 114.022 267.654 114.475C267.134 115.333 266.408 116.049 265.543 116.557C264.677 117.066 263.698 117.35 262.695 117.386C261.888 117.409 261.087 117.245 260.354 116.909C259.62 116.572 258.974 116.071 258.465 115.445C258.071 115 257.744 114.5 257.494 113.96C256.986 112.895 256.827 111.696 257.038 110.535C257.198 109.794 257.509 109.096 257.954 108.482C258.398 107.869 258.965 107.355 259.619 106.973Z" fill="#D1DEFF"/>
<path d="M257.492 113.95C256.984 112.885 256.825 111.686 257.036 110.525C257.197 109.786 257.509 109.089 257.954 108.478C258.398 107.866 258.965 107.354 259.617 106.973C259.887 106.813 260.166 106.667 260.452 106.537C261.422 107.177 261.704 108.982 261.568 109.982C261.363 111.312 260.671 112.519 259.627 113.368C259.367 113.638 259.042 113.835 258.683 113.94C258.324 114.046 257.944 114.056 257.58 113.97L257.492 113.95Z" fill="#89A8F5"/>
<path d="M264.498 119.152C263.559 117.887 262.245 116.95 260.743 116.474C259.992 116.23 259.201 116.138 258.414 116.202C257.789 116.254 257.176 116.408 256.6 116.658C255.019 117.392 253.757 118.672 253.044 120.262C252.331 121.852 252.215 123.645 252.718 125.314C253.018 126.151 253.488 126.918 254.097 127.565C254.706 128.213 255.443 128.728 256.26 129.079C256.548 129.209 256.842 129.322 257.143 129.419C257.444 129.506 257.735 129.574 258.036 129.632C258.622 129.737 259.219 129.76 259.811 129.7C260.389 129.645 260.954 129.505 261.49 129.283C262.442 128.854 263.286 128.215 263.957 127.416C264.629 126.616 265.113 125.676 265.371 124.664C265.657 123.739 265.727 122.762 265.575 121.806C265.424 120.851 265.055 119.943 264.498 119.152Z" fill="white"/>
<path d="M252.798 118.259C252.753 118.458 252.692 118.653 252.614 118.841C252.507 119.064 252.323 119.142 252.168 119.317C252.049 119.458 251.984 119.637 251.983 119.821C252.003 120.012 252.003 120.204 251.983 120.394C251.891 120.623 251.745 120.826 251.556 120.986C251.445 121.061 251.35 121.158 251.279 121.272C251.207 121.385 251.159 121.513 251.139 121.646C251.139 121.791 251.197 121.927 251.197 122.073C251.197 122.393 250.867 122.665 251.197 122.956C251.304 123.062 251.469 123.13 251.498 123.276C251.506 123.343 251.496 123.411 251.471 123.474C251.445 123.537 251.405 123.592 251.353 123.635C251.243 123.717 251.17 123.839 251.149 123.975C251.149 124.13 251.295 124.256 251.285 124.411C251.275 124.567 251.091 124.761 251.285 124.994C251.479 125.226 251.673 125.158 251.789 125.323C251.834 125.427 251.851 125.54 251.839 125.653C251.827 125.765 251.787 125.872 251.721 125.964C251.653 126.11 251.595 126.304 251.721 126.43C251.848 126.556 252.061 126.507 252.197 126.614C252.333 126.721 252.323 127.012 252.449 127.177C252.575 127.342 252.905 127.332 253.031 127.536C253.157 127.74 253.031 127.953 253.235 128.128C253.43 128.297 253.634 128.456 253.846 128.603C254.108 128.836 254.011 129.283 254.419 129.37C254.574 129.37 254.729 129.37 254.885 129.428C255.244 129.516 255.224 129.797 255.438 130.001C255.651 130.205 256.098 130.001 256.408 130.117C256.598 130.197 256.78 130.294 256.951 130.408C257.216 130.496 257.489 130.555 257.766 130.583C258.135 130.67 258.349 131.146 258.737 131.107C259.125 131.068 259.319 130.525 259.775 130.651C259.923 130.709 260.082 130.736 260.241 130.729C260.542 130.67 260.639 130.272 260.969 130.331C261.085 130.331 261.211 130.331 261.298 130.331C261.331 130.291 261.36 130.249 261.386 130.205C261.437 130.153 261.5 130.114 261.569 130.092C261.638 130.07 261.712 130.065 261.784 130.078C261.921 130.109 262.063 130.109 262.201 130.078C262.444 129.962 262.482 129.603 262.735 129.516C262.987 129.428 262.977 129.516 263.123 129.603C263.307 129.657 263.504 129.646 263.68 129.571C263.857 129.497 264.003 129.364 264.093 129.195C264.209 128.972 264.093 128.642 264.306 128.438C264.52 128.235 265.005 128.351 265.18 128.138C265.354 127.924 265.112 127.468 265.296 127.245C265.364 127.177 265.451 127.128 265.519 127.051C265.622 126.908 265.664 126.73 265.636 126.556C265.602 126.383 265.602 126.205 265.636 126.032C265.733 125.644 266.325 125.605 266.451 125.197C266.519 124.945 266.325 124.644 266.364 124.392C266.402 124.14 266.839 123.878 266.694 123.528C266.694 123.422 266.567 123.334 266.558 123.227C266.548 123.121 266.703 122.907 266.752 122.742C266.768 122.671 266.767 122.598 266.75 122.527C266.734 122.457 266.701 122.391 266.655 122.335C266.432 122.082 266.267 121.784 266.17 121.461C266.102 121.209 266.441 120.85 266.354 120.607C266.224 120.38 266.082 120.159 265.927 119.947C265.791 119.666 265.927 119.326 265.704 119.113C265.481 118.899 265.393 118.938 265.267 118.812C265.141 118.686 265.112 118.21 264.86 117.948C264.607 117.686 264.326 117.803 264.132 117.648C263.938 117.492 264.015 117.289 263.947 117.114C263.925 117.04 263.885 116.972 263.831 116.916C263.777 116.86 263.711 116.818 263.637 116.794C263.53 116.794 263.414 116.794 263.326 116.716C263.252 116.647 263.195 116.56 263.162 116.464C262.987 116.202 262.686 116.26 262.424 116.163C262.162 116.066 262.104 115.833 261.9 115.678C261.836 115.625 261.761 115.586 261.681 115.564C261.601 115.542 261.516 115.538 261.434 115.552C261.298 115.552 261.182 115.658 261.046 115.639C260.91 115.62 260.765 115.416 260.59 115.387C260.45 115.379 260.31 115.406 260.183 115.464C259.727 115.61 259.727 114.989 259.358 114.969C258.989 114.95 258.853 115.29 258.62 115.212C258.547 115.17 258.469 115.137 258.388 115.115C258.029 115.115 257.902 115.484 257.534 115.29C257.416 115.197 257.275 115.14 257.126 115.125C256.874 115.125 256.757 115.387 256.563 115.484C256.369 115.581 256.03 115.484 255.845 115.629C255.661 115.775 255.719 116.134 255.331 116.202C255.088 116.202 254.856 116.124 254.652 116.328C254.448 116.532 254.506 116.57 254.419 116.677C254.332 116.784 253.934 116.968 253.788 117.201C253.723 117.326 253.677 117.46 253.652 117.599C253.526 117.997 253.196 117.871 252.934 118.104C252.88 118.147 252.834 118.2 252.798 118.259ZM254.196 118.919C254.453 118.584 254.753 118.284 255.088 118.026C255.825 117.424 256.691 117.002 257.62 116.793C258.548 116.584 259.511 116.594 260.435 116.823C263.472 117.735 266.257 121.413 264.704 125.12C264.46 125.715 264.133 126.274 263.734 126.779C263.022 127.698 262.061 128.392 260.964 128.778C259.868 129.163 258.683 129.224 257.553 128.953C256.513 128.722 255.551 128.227 254.759 127.514C253.968 126.801 253.374 125.896 253.036 124.886C252.698 123.876 252.627 122.795 252.83 121.75C253.034 120.704 253.504 119.729 254.196 118.919Z" fill="#F79C0A"/>
<path d="M264.498 119.152C263.559 117.887 262.245 116.95 260.743 116.474C259.992 116.23 259.201 116.138 258.414 116.202C257.789 116.254 257.176 116.408 256.6 116.658C255.019 117.392 253.757 118.672 253.044 120.262C252.331 121.852 252.215 123.645 252.718 125.314C253.018 126.151 253.488 126.918 254.097 127.565C254.706 128.213 255.443 128.728 256.26 129.079C256.548 129.209 256.842 129.322 257.143 129.419C257.444 129.506 257.735 129.574 258.036 129.632C258.622 129.737 259.219 129.76 259.811 129.7C260.389 129.645 260.954 129.505 261.49 129.283C262.442 128.854 263.286 128.215 263.957 127.416C264.629 126.616 265.113 125.676 265.371 124.664C265.657 123.739 265.727 122.762 265.575 121.806C265.424 120.851 265.055 119.943 264.498 119.152ZM256.736 128.109C256.449 127.978 256.174 127.825 255.911 127.653C254.91 127.025 254.151 126.078 253.757 124.965C253.349 123.552 253.456 122.04 254.058 120.698C254.66 119.356 255.719 118.272 257.046 117.638C257.522 117.436 258.026 117.309 258.54 117.26C259.54 117.222 260.534 117.434 261.432 117.876C262.329 118.318 263.103 118.977 263.683 119.792C264.149 120.45 264.459 121.206 264.586 122.001C264.714 122.797 264.657 123.612 264.42 124.382C264.27 124.958 264.035 125.507 263.722 126.013C263.116 127.027 262.206 127.825 261.121 128.293C260.41 128.569 259.65 128.694 258.888 128.659C258.126 128.624 257.379 128.43 256.697 128.089L256.736 128.109Z" fill="#D1DEFF"/>
<path d="M263.686 125.993C263.08 127.007 262.17 127.805 261.086 128.273C260.381 128.547 259.628 128.672 258.873 128.64C258.119 128.609 257.378 128.421 256.7 128.089C256.414 127.958 256.138 127.806 255.875 127.633C255.875 126.478 257.214 125.246 258.126 124.799C259.347 124.244 260.731 124.165 262.007 124.576C262.377 124.64 262.723 124.8 263.011 125.041C263.299 125.281 263.518 125.592 263.647 125.944C263.647 125.944 263.686 125.945 263.686 125.993Z" fill="#89A8F5"/>
<path d="M268.003 148.681C267.308 150.093 267.074 151.689 267.334 153.242C267.469 154.021 267.749 154.768 268.159 155.445C268.495 155.977 268.914 156.452 269.401 156.852C270.774 157.923 272.488 158.461 274.227 158.367C275.966 158.272 277.612 157.551 278.861 156.337C279.467 155.69 279.933 154.926 280.232 154.091C280.531 153.257 280.655 152.37 280.598 151.485C280.584 151.16 280.548 150.836 280.491 150.515C280.441 150.216 280.37 149.921 280.278 149.632C280.099 149.06 279.845 148.515 279.521 148.011C279.207 147.526 278.824 147.088 278.386 146.711C277.567 146.057 276.612 145.594 275.591 145.357C274.57 145.121 273.509 145.116 272.486 145.343C271.534 145.521 270.635 145.914 269.858 146.493C269.081 147.071 268.447 147.82 268.003 148.681Z" fill="white"/>
<path d="M272.572 159.491C272.774 159.441 272.978 159.406 273.184 159.384C273.402 159.413 273.615 159.475 273.814 159.569C273.992 159.61 274.178 159.586 274.339 159.501C274.523 159.413 274.649 159.268 274.843 159.229C275.087 159.207 275.334 159.243 275.561 159.336C275.68 159.402 275.811 159.442 275.947 159.453C276.082 159.465 276.219 159.448 276.347 159.404C276.473 159.346 276.57 159.229 276.696 159.161C276.978 159.025 277.375 159.161 277.502 158.783C277.502 158.647 277.502 158.472 277.647 158.375C277.705 158.344 277.77 158.327 277.836 158.327C277.903 158.327 277.968 158.344 278.026 158.375C278.154 158.423 278.295 158.423 278.424 158.375C278.559 158.307 278.608 158.113 278.753 158.065C278.899 158.016 279.151 158.065 279.258 157.754C279.365 157.444 279.258 157.337 279.316 157.153C279.374 156.968 279.695 156.929 279.918 156.92C280.141 156.91 280.277 156.871 280.335 156.716C280.393 156.561 280.248 156.376 280.277 156.211C280.306 156.046 280.578 155.92 280.665 155.726C280.752 155.532 280.597 155.251 280.723 155.047C280.849 154.843 281.063 154.824 281.15 154.6C281.237 154.377 281.228 154.086 281.296 153.843C281.364 153.601 281.82 153.378 281.713 152.97C281.713 152.825 281.587 152.689 281.558 152.533C281.47 152.174 281.723 152.068 281.81 151.777C281.897 151.485 281.548 151.175 281.47 150.874C281.451 150.671 281.451 150.466 281.47 150.263C281.437 149.983 281.365 149.708 281.257 149.448C281.16 149.088 281.49 148.681 281.257 148.361C281.024 148.04 280.471 148.108 280.374 147.643C280.356 147.485 280.307 147.334 280.228 147.196C280.034 146.954 279.646 147.041 279.539 146.731C279.539 146.624 279.462 146.498 279.355 146.459C279.303 146.453 279.251 146.453 279.2 146.459C279.132 146.436 279.07 146.398 279.02 146.348C278.969 146.297 278.931 146.236 278.909 146.168C278.865 146.031 278.789 145.908 278.686 145.809C278.472 145.653 278.132 145.809 277.938 145.595C277.744 145.382 277.87 145.362 277.841 145.207C277.813 145.009 277.714 144.828 277.562 144.698C277.41 144.567 277.216 144.497 277.016 144.499C276.764 144.499 276.512 144.731 276.25 144.654C275.988 144.576 275.842 144.072 275.58 144.023C275.318 143.975 275.008 144.382 274.736 144.314C274.643 144.285 274.553 144.249 274.465 144.207C274.285 144.185 274.104 144.233 273.96 144.343C273.821 144.447 273.667 144.528 273.504 144.586C273.116 144.673 272.805 144.159 272.388 144.246C272.136 144.246 271.951 144.605 271.709 144.683C271.466 144.761 271.039 144.499 270.739 144.79C270.685 144.885 270.62 144.973 270.545 145.052C270.389 145.149 270.185 145.052 270.011 145.052C269.941 145.069 269.877 145.103 269.823 145.15C269.769 145.198 269.727 145.257 269.7 145.323C269.572 145.635 269.384 145.918 269.147 146.158C268.953 146.323 268.478 146.158 268.303 146.381C268.162 146.598 268.033 146.821 267.915 147.051C267.721 147.303 267.342 147.313 267.265 147.633C267.256 147.809 267.236 147.984 267.207 148.157C267.1 148.506 266.731 148.574 266.624 148.924C266.518 149.273 266.731 149.457 266.683 149.71C266.634 149.962 266.421 149.981 266.295 150.107C266.239 150.162 266.198 150.23 266.174 150.304C266.151 150.379 266.145 150.458 266.159 150.534C266.159 150.641 266.246 150.748 266.227 150.855C266.207 150.961 266.13 151.029 266.081 151.117C265.926 151.388 266.081 151.631 266.149 151.903C266.217 152.174 266.003 152.339 265.955 152.592C265.927 152.757 265.961 152.926 266.052 153.067C266.139 153.174 266.265 153.242 266.314 153.368C266.362 153.494 266.246 153.727 266.314 153.892C266.373 154.019 266.463 154.129 266.576 154.212C266.916 154.552 266.362 154.833 266.518 155.183C266.673 155.532 267.022 155.474 267.061 155.726C267.057 155.81 267.057 155.894 267.061 155.978C267.187 156.318 267.614 156.24 267.604 156.648C267.57 156.795 267.57 156.947 267.604 157.094C267.731 157.308 268.012 157.298 268.187 157.424C268.361 157.55 268.41 157.919 268.643 157.997C268.875 158.074 269.157 157.88 269.39 158.201C269.623 158.521 269.535 158.647 269.807 158.744C270.079 158.841 270.088 158.744 270.224 158.744C270.36 158.744 270.709 159.045 270.981 159.064C271.123 159.061 271.263 159.038 271.398 158.996C271.806 158.928 271.854 159.278 272.175 159.404C272.293 159.478 272.434 159.509 272.572 159.491ZM272.572 157.948C272.157 157.87 271.752 157.74 271.369 157.56C270.497 157.181 269.726 156.604 269.116 155.874C268.506 155.145 268.075 154.284 267.857 153.358C267.275 150.243 269.293 146.129 273.281 145.77C273.929 145.7 274.584 145.733 275.221 145.867C276.365 146.077 277.424 146.615 278.269 147.414C279.115 148.212 279.711 149.239 279.986 150.369C280.248 151.512 280.197 152.705 279.836 153.82C279.476 154.936 278.82 155.933 277.938 156.706C277.19 157.284 276.326 157.695 275.405 157.909C274.484 158.124 273.528 158.137 272.602 157.948H272.572Z" fill="#F79C0A"/>
<path d="M268.003 148.681C267.308 150.093 267.074 151.689 267.334 153.242C267.469 154.021 267.749 154.768 268.159 155.445C268.495 155.977 268.914 156.452 269.401 156.852C270.774 157.923 272.488 158.461 274.227 158.367C275.966 158.272 277.612 157.551 278.861 156.337C279.467 155.69 279.933 154.926 280.232 154.091C280.531 153.257 280.655 152.37 280.598 151.485C280.584 151.16 280.548 150.836 280.491 150.515C280.44 150.216 280.369 149.921 280.278 149.632C280.099 149.06 279.845 148.515 279.521 148.011C279.207 147.526 278.824 147.088 278.386 146.711C277.567 146.057 276.612 145.594 275.591 145.357C274.57 145.121 273.509 145.116 272.486 145.343C271.535 145.523 270.637 145.917 269.86 146.495C269.084 147.074 268.449 147.821 268.003 148.681ZM279.531 151.524C279.552 151.847 279.552 152.171 279.531 152.495C279.43 153.674 278.934 154.785 278.124 155.648C277.052 156.655 275.658 157.251 274.19 157.329C272.721 157.407 271.272 156.963 270.099 156.075C269.697 155.75 269.353 155.36 269.081 154.92C268.592 154.047 268.326 153.067 268.308 152.066C268.289 151.066 268.518 150.076 268.974 149.185C269.347 148.471 269.879 147.852 270.528 147.375C271.177 146.897 271.926 146.574 272.719 146.43C273.302 146.305 273.9 146.265 274.495 146.313C275.675 146.382 276.803 146.824 277.716 147.575C278.271 148.076 278.717 148.684 279.029 149.363C279.341 150.042 279.512 150.777 279.531 151.524Z" fill="#D1DEFF"/>
<path d="M277.697 147.536C276.783 146.785 275.655 146.343 274.475 146.274C274.221 146.55 274.044 146.888 273.96 147.254C273.877 147.62 273.89 148.001 274 148.361C274.213 149.683 274.903 150.881 275.94 151.728C276.755 152.339 278.473 152.97 279.501 152.427C279.523 152.103 279.523 151.779 279.501 151.456C279.48 150.715 279.309 149.985 278.999 149.312C278.689 148.638 278.246 148.034 277.697 147.536Z" fill="#89A8F5"/>
</g>
<defs>
<clipPath id="clip0_34_4699">
<rect width="403" height="367" fill="white"/>
</clipPath>
</defs>
</svg>
