<svg width="128" height="128" viewBox="0 0 128 128" fill="none" xmlns="http://www.w3.org/2000/svg">
<path d="M97.5556 122.871H108.234V14.8809H19.7656V122.871H30.4436V30.9349H97.5556V122.871Z" fill="#EE6F14"/>
<path d="M83.0116 30.9349C81.1728 24.8358 77.8032 19.309 73.2236 14.8809H19.7656V122.411C25.4356 121.659 30.4436 120.455 30.4436 120.455V30.9349H83.0116Z" fill="#F79C0A"/>
<path d="M28.3384 26.9307C29.5015 26.9307 30.4444 25.9879 30.4444 24.8247C30.4444 23.6616 29.5015 22.7188 28.3384 22.7188C27.1753 22.7188 26.2324 23.6616 26.2324 24.8247C26.2324 25.9879 27.1753 26.9307 28.3384 26.9307Z" fill="#3D665B"/>
<path d="M28.2965 20.8977C29.1161 20.8977 29.7805 20.2333 29.7805 19.4137C29.7805 18.5941 29.1161 17.9297 28.2965 17.9297C27.4769 17.9297 26.8125 18.5941 26.8125 19.4137C26.8125 20.2333 27.4769 20.8977 28.2965 20.8977Z" fill="#3D665B"/>
<path d="M30.4434 30.9336H97.5554V122.87H30.4434V30.9336Z" fill="#CCD7DD"/>
<path d="M37.5361 13.2773H90.4641V22.4293H37.5361V13.2773Z" fill="#A24731"/>
<path d="M30.4434 120.454C46.1534 115.602 59.8965 105.846 69.6585 92.6157C79.4205 79.3851 84.6881 63.3757 84.6894 46.9336C84.6886 41.5564 84.1262 36.194 83.0114 30.9336H30.4434V120.454Z" fill="#E4EBEF"/>
<path d="M64 4.58398H57.442C55.1363 4.58398 52.9249 5.49996 51.2945 7.1304C49.664 8.76084 48.748 10.9722 48.748 13.278H64V4.58398Z" fill="#F98E5F"/>
<path d="M62.512 4.58398H57.442C55.1363 4.58398 52.9249 5.49996 51.2945 7.1304C49.664 8.76084 48.748 10.9722 48.748 13.278H53.818C53.8186 10.9724 54.7347 8.76131 56.365 7.13098C57.9954 5.50066 60.2064 4.58451 62.512 4.58398Z" fill="#FFFAF8"/>
<path d="M37.5361 13.2773H64.0001V22.4293H37.5361V13.2773Z" fill="#E47F53"/>
<path d="M37.5361 13.2773H42.5001V22.4293H37.5361V13.2773Z" fill="#FFB399"/>
<path d="M19.7656 14.9277H23.8556V122.87H19.7656V14.9277Z" fill="#EE6F14"/>
<path d="M44.7139 37.7148H48.7139V53.4288H44.7139V37.7148Z" fill="#8C9EA5"/>
<path d="M38.8574 43.5723H54.5714V47.5723H38.8574V43.5723Z" fill="#8C9EA5"/>
<path d="M61.3926 43.5723H66.1066V47.5723H61.3926V43.5723Z" fill="#8C9EA5"/>
<path d="M70.8682 43.5723H89.1442V47.5723H70.8682V43.5723Z" fill="#8C9EA5"/>
<path d="M38.2861 61.4297H89.1441V65.4297H38.2861V61.4297Z" fill="#8C9EA5"/>
<path d="M38.2861 74.8594H89.1441V78.8594H38.2861V74.8594Z" fill="#8C9EA5"/>
<path d="M38.2861 88.2871H89.1441V92.2871H38.2861V88.2871Z" fill="#8C9EA5"/>
<path d="M38.2861 101.715H63.7161V105.715H38.2861V101.715Z" fill="#8C9EA5"/>
</svg>
