<svg width="370" height="370" viewBox="0 0 370 370" fill="none" xmlns="http://www.w3.org/2000/svg">
<path d="M277.5 277.5C328.586 226.414 328.586 143.586 277.5 92.5C226.414 41.4136 143.586 41.4136 92.5 92.5C41.4137 143.586 41.4136 226.414 92.5 277.5C143.586 328.586 226.414 328.586 277.5 277.5Z" fill="#FF905F"/>
<path d="M185.003 304.6C251.055 304.6 304.601 251.054 304.601 185.002C304.601 118.95 251.055 65.4043 185.003 65.4043C118.951 65.4043 65.4053 118.95 65.4053 185.002C65.4053 251.054 118.951 304.6 185.003 304.6Z" fill="#FFC6B0"/>
<path d="M264.033 264.033C307.682 220.384 307.682 149.616 264.033 105.967C220.385 62.3184 149.616 62.3185 105.967 105.967C62.3188 149.616 62.3188 220.384 105.967 264.033C149.616 307.682 220.385 307.682 264.033 264.033Z" fill="#F78248"/>
<path d="M119.542 151.74C116.227 132.02 128.749 115.826 148.031 110.536C174.354 103.32 189.724 123.56 193.037 143.276C196.35 162.992 183.226 184.563 159.743 184.917C139.74 185.214 122.844 171.45 119.542 151.74Z" fill="#EA7147"/>
<path d="M137.77 136.382C136.603 129.441 141.013 123.74 147.792 121.88C157.055 119.338 162.467 126.462 163.633 133.403C164.8 140.343 160.178 147.935 151.913 148.061C144.877 148.166 138.936 143.322 137.77 136.382Z" fill="#FFA076"/>
<path d="M169.616 208.534C170.31 203.44 173.336 200.246 176.774 200.182C181.468 200.107 182.69 206.112 181.997 211.207C181.304 216.302 177.846 220.787 174.037 219.35C170.794 218.134 168.926 213.629 169.616 208.534Z" fill="#FFA076"/>
<path d="M196.256 203.354C194.652 196.881 196.851 191.561 201.075 189.821C206.838 187.446 211.245 194.088 212.848 200.561C214.452 207.034 212.342 214.119 206.941 214.239C202.341 214.342 197.859 209.826 196.256 203.354Z" fill="#FFA076"/>
<path d="M227.112 161.609C232.958 164.825 235.369 170.05 233.779 174.332C231.613 180.179 223.757 178.906 217.91 175.691C212.064 172.475 208.297 166.119 211.875 162.069C214.912 158.622 221.271 158.394 227.112 161.609Z" fill="#FFA076"/>
<path d="M245.887 195.501C251.733 198.716 254.144 203.939 252.569 208.224C250.4 214.07 242.529 212.798 236.7 209.582C230.87 206.367 227.087 200.008 230.664 195.96C233.687 192.511 240.046 192.285 245.887 195.501Z" fill="#FFA076"/>
<path d="M123.568 66.8694C122.814 62.376 125.913 58.4562 130.339 57.3648C135.42 56.112 139.086 59.6421 139.844 64.1355C140.601 68.6289 137.491 72.5293 133.073 73.6401C128.655 74.7509 124.323 71.3656 123.568 66.8694Z" fill="#F78248"/>
<path d="M127.236 66.2536C126.821 63.7842 128.572 61.7992 130.955 61.0309C133.338 60.2625 135.763 62.2809 136.178 64.7503C136.593 67.2197 134.861 69.2743 132.459 69.9731C130.056 70.6719 127.651 68.7231 127.236 66.2536Z" fill="#EA7147"/>
<path d="M89.3617 93.5533C88.8773 90.6663 90.8706 88.1468 93.7131 87.4452C96.9787 86.6406 99.3368 88.9096 99.8212 91.7966C100.306 94.6836 98.3095 97.1892 95.4698 97.9047C92.6301 98.6202 89.8489 96.4375 89.3617 93.5533Z" fill="#F78248"/>
<path d="M91.7169 93.1528C91.4385 91.5659 92.5771 90.2937 94.1083 89.7953C95.6395 89.297 97.1985 90.5999 97.4658 92.1868C97.7331 93.7737 96.6306 95.0933 95.0743 95.5443C93.5181 95.9953 91.9813 94.7397 91.7169 93.1528Z" fill="#EA7147"/>
<path d="M72.2698 113.225C71.6183 109.346 74.291 105.967 78.1162 105.026C82.501 103.945 85.6636 106.974 86.3151 110.872C86.9666 114.77 84.2883 118.11 80.4687 119.071C76.649 120.031 72.9212 117.1 72.2698 113.225Z" fill="#F78248"/>
<path d="M75.4328 112.693C75.0737 110.563 76.5854 108.854 78.64 108.189C80.6946 107.523 82.7854 109.266 83.1445 111.396C83.5036 113.526 82.0086 115.293 79.9373 115.9C77.866 116.507 75.7892 114.823 75.4328 112.693Z" fill="#EA7147"/>
<path d="M181.372 52.966C180.618 48.4698 183.719 44.5499 188.143 43.4586C193.226 42.2058 196.893 45.7359 197.647 50.2293C198.402 54.7227 195.298 58.623 190.877 59.7339C186.456 60.8447 182.126 57.4593 181.372 52.966Z" fill="#F78248"/>
<path d="M185.04 52.3511C184.626 49.8817 186.38 47.8967 188.76 47.1283C191.14 46.36 193.568 48.3811 193.983 50.8506C194.397 53.32 192.666 55.3718 190.263 56.0734C187.861 56.7749 185.455 54.8178 185.04 52.3511Z" fill="#EA7147"/>
<path d="M160.883 54.8317C160.26 51.1123 162.832 47.8717 166.485 46.9669C170.691 45.9313 173.723 48.8517 174.35 52.5683C174.976 56.285 172.401 59.5283 168.748 60.4331C165.096 61.3379 161.51 58.5511 160.883 54.8317Z" fill="#F78248"/>
<path d="M163.917 54.3226C163.572 52.2792 165.031 50.6422 166.979 50.0019C168.928 49.3615 170.958 51.0347 171.303 53.0782C171.648 55.1216 170.214 56.8199 168.224 57.4017C166.233 57.9836 164.259 56.3661 163.917 54.3226Z" fill="#EA7147"/>
<path d="M50.1441 179.828C49.5205 176.109 52.0929 172.868 55.7455 171.963C59.9522 170.927 62.9839 173.845 63.6103 177.565C64.2367 181.284 61.6615 184.525 58.0089 185.429C54.3563 186.334 50.7789 183.547 50.1441 179.828Z" fill="#F78248"/>
<path d="M53.1777 179.32C52.8325 177.276 54.2913 175.637 56.254 174.999C58.2168 174.362 60.2324 176.032 60.5776 178.061C60.9228 180.091 59.489 181.803 57.4985 182.385C55.5079 182.967 53.5201 181.363 53.1777 179.32Z" fill="#EA7147"/>
<path d="M212.596 61.6064C211.97 57.8898 214.545 54.6464 218.195 53.7444C222.398 52.7087 225.433 55.6264 226.057 59.343C226.68 63.0597 224.108 66.2863 220.455 67.205C216.803 68.1238 213.22 65.3231 212.596 61.6064Z" fill="#F78248"/>
<path d="M215.626 61.0979C215.284 59.0544 216.74 57.4174 218.689 56.7771C220.637 56.1368 222.664 57.8127 223.009 59.8534C223.355 61.8941 221.921 63.5951 219.947 64.1742C217.973 64.7533 215.969 63.1385 215.626 61.0979Z" fill="#EA7147"/>
<path d="M252.959 76.6508C252.201 72.1574 255.303 68.2375 259.727 67.1462C264.81 65.8934 268.477 69.4207 269.231 73.9169C269.986 78.4131 266.882 82.3107 262.463 83.4215C258.045 84.5323 253.713 81.1442 252.959 76.6508Z" fill="#F78248"/>
<path d="M256.621 76.0349C256.207 73.5655 257.961 71.5805 260.344 70.8121C262.727 70.0437 265.152 72.0621 265.567 74.5315C265.981 77.0009 264.25 79.0528 261.844 79.7543C259.439 80.4559 257.039 78.5043 256.621 76.0349Z" fill="#EA7147"/>
<path d="M263.665 90.5786C263.08 87.0986 265.483 84.0612 268.91 83.2149C272.847 82.2461 275.689 84.98 276.274 88.46C276.858 91.94 274.453 94.9634 271.029 95.8237C267.604 96.6839 264.25 94.0614 263.665 90.5786Z" fill="#F78248"/>
<path d="M266.504 90.102C266.184 88.1894 267.542 86.6554 269.385 86.0541C271.228 85.4527 273.11 87.0229 273.433 88.9383C273.756 90.8537 272.414 92.4406 270.552 92.9974C268.689 93.5542 266.816 92.0146 266.504 90.102Z" fill="#EA7147"/>
<path d="M109.654 73.3823C109.331 68.8388 111.931 64.6349 116.425 63.8777C118.583 63.5152 120.797 64.0249 122.579 65.2946C124.362 66.5644 125.567 68.4902 125.929 70.6484C126.684 75.1418 123.721 79.6686 119.158 80.153C114.595 80.6374 109.913 77.0043 109.654 73.3823Z" fill="#EA7147"/>
<path d="M112.83 72.8505C111.717 70.3087 114.222 67.5136 116.959 67.0542C118.275 66.8327 119.625 67.1431 120.713 67.9171C121.8 68.6911 122.535 69.8653 122.757 71.1815C122.978 72.4976 122.668 73.8478 121.894 74.9351C121.12 76.0224 119.946 76.7577 118.63 76.9792C115.884 77.4385 113.841 75.1334 112.83 72.8505Z" fill="#F78248"/>
<path d="M152.558 60.4245C152.335 57.2981 154.122 54.4055 157.213 53.8877C157.947 53.7636 158.7 53.7857 159.426 53.9525C160.152 54.1194 160.839 54.4278 161.446 54.8601C162.053 55.2924 162.569 55.8402 162.964 56.472C163.359 57.1039 163.626 57.8075 163.749 58.5425C164.27 61.6328 162.232 64.7481 159.095 65.0794C155.957 65.4107 152.733 62.9051 152.558 60.4245Z" fill="#EA7147"/>
<path d="M154.742 60.0482C153.968 58.2999 155.697 56.3789 157.582 56.0615C158.03 55.9862 158.489 55.9999 158.932 56.1019C159.374 56.2038 159.793 56.392 160.163 56.6557C160.533 56.9194 160.848 57.2534 161.089 57.6387C161.33 58.024 161.493 58.453 161.568 58.9012C161.644 59.3494 161.63 59.8081 161.528 60.251C161.426 60.6939 161.238 61.1125 160.974 61.4827C160.711 61.8529 160.377 62.1675 159.991 62.4086C159.606 62.6497 159.177 62.8126 158.729 62.8879C156.849 63.208 155.438 61.6184 154.742 60.0482Z" fill="#F78248"/>
<path d="M225.303 63.3662C225.025 59.3851 227.297 55.7046 231.23 55.0448C233.121 54.7314 235.058 55.1802 236.618 56.2928C238.178 57.4054 239.233 59.0911 239.552 60.9803C240.212 64.9141 237.62 68.8757 233.625 69.3017C229.63 69.7276 225.529 66.5483 225.303 63.3662Z" fill="#EA7147"/>
<path d="M228.086 62.8997C227.1 60.6725 229.3 58.2282 231.705 57.8245C232.857 57.631 234.039 57.9032 234.991 58.5812C235.942 59.2591 236.585 60.2873 236.779 61.4395C236.972 62.5918 236.7 63.7736 236.022 64.7252C235.344 65.6767 234.316 66.3199 233.164 66.5134C230.759 66.9171 228.971 64.8987 228.086 62.8997Z" fill="#F78248"/>
<path d="M56.1835 140.013C55.9246 136.333 58.0293 132.928 61.668 132.316C62.5338 132.17 63.4199 132.196 64.2755 132.392C65.1312 132.589 65.9398 132.953 66.655 133.462C67.3701 133.971 67.9779 134.617 68.4435 135.361C68.9091 136.105 69.2235 136.934 69.3686 137.8C69.981 141.439 67.5812 145.105 63.884 145.498C60.1869 145.89 56.3923 142.948 56.1835 140.013Z" fill="#EA7147"/>
<path d="M58.7575 139.582C57.8471 137.525 59.8711 135.262 62.0983 134.888C62.6308 134.788 63.178 134.796 63.7077 134.909C64.2375 135.023 64.7392 135.242 65.1835 135.552C65.6279 135.862 66.0059 136.258 66.2956 136.715C66.5852 137.173 66.7806 137.685 66.8704 138.219C66.9602 138.753 66.9425 139.3 66.8184 139.828C66.6943 140.355 66.4663 140.852 66.1476 141.291C65.829 141.729 65.4262 142.099 64.9627 142.38C64.4993 142.661 63.9845 142.846 63.4485 142.926C61.2325 143.299 59.5788 141.439 58.7575 139.582Z" fill="#F78248"/>
<path d="M94.8824 84.2335C93.0756 79.175 97.1569 75.4834 101.65 74.7289C106.144 73.9744 109.871 77.0591 111.155 81.4968C112.424 85.8761 108.822 89.8015 103.827 90.6423C99.334 91.3967 96.4136 88.5237 94.8824 84.2335Z" fill="#FFC6B0"/>
<path d="M98.9573 83.5488C98.5815 81.3049 100.255 79.7208 102.337 78.816C104.472 77.8778 106.544 79.0193 107.07 82.193C107.446 84.4369 106.31 86.4943 103.693 86.9258C102.617 87.1039 101.515 86.8485 100.628 86.2156C99.7399 85.5826 99.1394 84.6237 98.9573 83.5488Z" fill="#F78248"/>
<path d="M76.2787 101.136C74.4719 96.08 78.556 92.3856 83.0494 91.6312C87.5428 90.8767 91.2706 93.9642 92.554 98.4019C93.8207 102.778 90.2182 106.707 85.2237 107.545C80.7303 108.31 77.8127 105.429 76.2787 101.136Z" fill="#FFC6B0"/>
<path d="M80.3578 100.452C79.982 98.2243 81.6524 96.6235 83.7348 95.7187C85.8701 94.7805 87.9414 95.9192 88.4676 99.0957C88.8434 101.323 87.7104 103.397 85.0906 103.829C84.0154 104.007 82.9135 103.751 82.0263 103.118C81.1392 102.485 80.5392 101.526 80.3578 100.452Z" fill="#F78248"/>
<path d="M197.026 56.9595C195.219 51.901 199.303 48.2094 203.796 47.4522C208.29 46.6949 212.018 49.7852 213.301 54.2229C214.568 58.6021 210.968 62.5275 205.974 63.3655C201.477 64.1228 198.56 61.2608 197.026 56.9595Z" fill="#FFC6B0"/>
<path d="M201.115 56.2715C200.739 54.0304 202.412 52.4463 204.492 51.5387C206.63 50.6005 208.701 51.7419 209.224 54.9157C209.603 57.1596 208.467 59.217 205.847 59.6485C204.772 59.8273 203.67 59.5721 202.782 58.939C201.895 58.3058 201.295 57.3465 201.115 56.2715Z" fill="#F78248"/>
<path d="M170.894 57.5283C169.39 53.3189 172.787 50.2453 176.529 49.6161C180.27 48.987 183.372 51.5649 184.441 55.251C185.496 58.8952 182.492 62.1637 178.341 62.8624C174.599 63.4861 172.16 61.1002 170.894 57.5283Z" fill="#FFC6B0"/>
<path d="M174.287 56.9578C173.975 55.0925 175.367 53.7729 177.099 53.0101C178.878 52.2306 180.601 53.1799 181.047 55.822C181.358 57.6872 180.415 59.4022 178.235 59.7697C177.338 59.9196 176.419 59.7076 175.679 59.1804C174.939 58.6532 174.438 57.8539 174.287 56.9578Z" fill="#F78248"/>
<path d="M136.524 58.9854C134.717 53.9268 138.801 50.2353 143.294 49.4808C147.788 48.7263 151.516 51.8138 152.799 56.2487C154.066 60.6279 150.466 64.5534 145.469 65.3941C140.978 66.1486 138.058 63.2755 136.524 58.9854Z" fill="#FFC6B0"/>
<path d="M140.603 58.3011C140.227 56.0572 141.9 54.4731 143.98 53.5683C146.115 52.6301 148.189 53.7688 148.713 56.9453C149.091 59.1725 147.955 61.2466 145.336 61.6781C144.26 61.8562 143.159 61.6007 142.271 60.9677C141.384 60.3347 140.784 59.3758 140.603 58.3011Z" fill="#F78248"/>
<path d="M248.244 301.521C248.998 306.014 245.897 309.934 241.473 311.025C236.39 312.278 232.723 308.751 231.969 304.255C231.214 299.758 234.318 295.861 238.739 294.75C243.16 293.639 247.487 297.019 248.244 301.521Z" fill="#F78248"/>
<path d="M244.577 302.126C244.992 304.595 243.238 306.58 240.858 307.348C238.477 308.117 236.05 306.098 235.635 303.629C235.22 301.16 236.949 299.108 239.354 298.406C241.76 297.705 244.162 299.656 244.577 302.126Z" fill="#EA7147"/>
<path d="M190.438 315.419C191.195 319.912 188.094 323.832 183.67 324.924C178.586 326.176 174.92 322.646 174.163 318.153C173.405 313.659 176.515 309.759 180.933 308.648C185.351 307.537 189.683 310.923 190.438 315.419Z" fill="#F78248"/>
<path d="M186.773 316.033C187.188 318.502 185.434 320.487 183.051 321.256C180.668 322.024 178.243 320.006 177.828 317.536C177.413 315.067 179.145 313.012 181.548 312.314C183.95 311.615 186.358 313.564 186.773 316.033Z" fill="#EA7147"/>
<path d="M210.927 313.551C211.554 317.27 208.979 320.511 205.326 321.416C201.122 322.454 198.088 319.534 197.461 315.814C196.835 312.095 199.41 308.868 203.063 307.949C206.715 307.031 210.301 309.831 210.927 313.551Z" fill="#F78248"/>
<path d="M207.896 314.047C208.238 316.09 206.782 317.73 204.817 318.368C202.851 319.005 200.839 317.335 200.496 315.305C200.154 313.276 201.585 311.564 203.558 310.985C205.532 310.406 207.551 312.015 207.896 314.047Z" fill="#EA7147"/>
<path d="M159.218 306.773C159.842 310.492 157.27 313.733 153.617 314.635C149.413 315.67 146.379 312.753 145.758 309.036C145.137 305.319 147.706 302.093 151.356 301.174C155.006 300.255 158.592 303.056 159.218 306.773Z" fill="#F78248"/>
<path d="M156.185 307.282C156.528 309.325 155.072 310.962 153.106 311.603C151.141 312.243 149.13 310.567 148.788 308.54C148.446 306.513 149.877 304.798 151.85 304.219C153.824 303.64 155.84 305.241 156.185 307.282Z" fill="#EA7147"/>
<path d="M262.156 295C262.479 299.546 259.882 303.75 255.385 304.504C253.227 304.866 251.014 304.356 249.232 303.087C247.449 301.817 246.244 299.892 245.881 297.734C245.126 293.24 248.089 288.714 252.652 288.229C257.215 287.745 261.9 291.378 262.156 295Z" fill="#EA7147"/>
<path d="M258.982 295.535C260.096 298.074 257.59 300.869 254.853 301.328C254.202 301.438 253.535 301.418 252.891 301.27C252.247 301.122 251.639 300.849 251.101 300.466C250.563 300.082 250.105 299.597 249.754 299.037C249.404 298.477 249.167 297.854 249.057 297.202C248.947 296.551 248.967 295.884 249.115 295.24C249.263 294.596 249.537 293.988 249.92 293.45C250.303 292.911 250.788 292.454 251.348 292.103C251.908 291.753 252.532 291.516 253.183 291.406C255.925 290.941 257.969 293.249 258.982 295.535Z" fill="#F78248"/>
<path d="M219.254 307.966C219.474 311.092 217.687 313.985 214.597 314.503C213.862 314.626 213.11 314.604 212.384 314.437C211.657 314.27 210.971 313.962 210.364 313.529C209.757 313.097 209.241 312.549 208.846 311.918C208.45 311.286 208.183 310.583 208.06 309.848C207.542 306.758 209.577 303.642 212.718 303.311C215.858 302.98 219.076 305.477 219.254 307.966Z" fill="#EA7147"/>
<path d="M217.069 308.331C217.843 310.079 216.114 312 214.229 312.318C213.324 312.47 212.395 312.256 211.647 311.724C210.9 311.191 210.394 310.383 210.242 309.478C210.09 308.573 210.304 307.644 210.836 306.897C211.369 306.149 212.177 305.644 213.082 305.491C214.967 305.177 216.373 306.761 217.069 308.331Z" fill="#F78248"/>
<path d="M146.508 305.013C146.786 308.994 144.515 312.675 140.581 313.335C139.645 313.492 138.688 313.465 137.763 313.252C136.839 313.04 135.965 312.647 135.192 312.097C134.419 311.547 133.762 310.85 133.259 310.046C132.756 309.241 132.416 308.346 132.259 307.41C131.597 303.474 134.191 299.512 138.187 299.089C142.182 298.666 146.282 301.845 146.508 305.013Z" fill="#EA7147"/>
<path d="M143.727 305.482C144.713 307.709 142.513 310.154 140.108 310.557C139.537 310.653 138.954 310.636 138.39 310.506C137.826 310.377 137.293 310.137 136.822 309.802C136.351 309.466 135.95 309.041 135.643 308.551C135.336 308.06 135.129 307.514 135.033 306.944C134.937 306.373 134.954 305.789 135.084 305.225C135.213 304.662 135.453 304.129 135.788 303.658C136.124 303.186 136.549 302.786 137.039 302.479C137.53 302.172 138.076 301.964 138.646 301.868C141.052 301.465 142.842 303.483 143.727 305.482Z" fill="#F78248"/>
<path d="M276.931 284.151C278.738 289.207 274.654 292.898 270.16 293.656C265.667 294.413 261.939 291.323 260.656 286.885C259.389 282.508 262.992 278.58 267.986 277.742C272.479 276.985 275.397 279.858 276.931 284.151Z" fill="#FFC6B0"/>
<path d="M272.852 284.836C273.228 287.063 271.557 288.661 269.475 289.568C267.34 290.507 265.268 289.365 264.742 286.191C264.366 283.964 265.499 281.89 268.119 281.459C269.194 281.279 270.297 281.534 271.185 282.167C272.072 282.8 272.672 283.76 272.852 284.836Z" fill="#F78248"/>
<path d="M174.784 311.424C176.59 316.48 172.509 320.175 168.013 320.929C163.517 321.683 159.795 318.596 158.508 314.158C157.242 309.782 160.844 305.854 165.839 305.016C170.332 304.258 173.25 307.131 174.784 311.424Z" fill="#FFC6B0"/>
<path d="M170.704 312.099C171.083 314.326 169.41 315.927 167.327 316.832C165.192 317.77 163.121 316.628 162.595 313.455C162.219 311.227 163.355 309.153 165.972 308.722C167.047 308.543 168.149 308.798 169.037 309.431C169.924 310.064 170.524 311.024 170.704 312.099Z" fill="#F78248"/>
<path d="M200.919 310.851C202.422 315.06 199.023 318.134 195.281 318.763C191.539 319.392 188.441 316.814 187.369 313.128C186.317 309.484 189.318 306.215 193.472 305.516C197.216 304.887 199.641 307.279 200.919 310.851Z" fill="#FFC6B0"/>
<path d="M197.522 311.423C197.836 313.291 196.444 314.611 194.713 315.371C192.934 316.15 191.208 315.204 190.765 312.559C190.45 310.694 191.397 308.979 193.577 308.611C194.473 308.462 195.392 308.674 196.131 309.201C196.871 309.728 197.371 310.527 197.522 311.423Z" fill="#F78248"/>
<path d="M235.286 309.394C237.092 314.453 233.011 318.144 228.515 318.902C224.019 319.659 220.296 316.569 219.01 312.131C217.744 307.752 221.346 303.826 226.341 302.986C230.834 302.231 233.754 305.104 235.286 309.394Z" fill="#FFC6B0"/>
<path d="M231.206 310.084C231.585 312.311 229.912 313.909 227.829 314.816C225.694 315.755 223.623 314.613 223.097 311.439C222.721 309.195 223.857 307.138 226.474 306.707C227.549 306.527 228.652 306.782 229.539 307.415C230.427 308.048 231.026 309.008 231.206 310.084Z" fill="#F78248"/>
<path d="M319.371 174.257C323.781 175.401 326.094 179.825 325.284 184.315C324.354 189.469 319.636 191.376 315.223 190.229C310.81 189.082 308.522 184.661 309.31 180.17C310.098 175.679 314.958 173.11 319.371 174.257Z" fill="#F78248"/>
<path d="M318.435 177.853C320.86 178.483 321.952 180.893 321.684 183.382C321.417 185.871 318.58 187.26 316.158 186.631C313.736 186.002 312.567 183.583 312.909 181.102C313.252 178.622 316.013 177.224 318.435 177.853Z" fill="#EA7147"/>
<path d="M308.466 232.703C312.878 233.85 315.192 238.271 314.379 242.765C313.449 247.915 308.73 249.822 304.32 248.678C299.91 247.534 297.616 243.11 298.407 238.617C299.198 234.123 304.056 231.559 308.466 232.703Z" fill="#F78248"/>
<path d="M307.532 236.301C309.957 236.93 311.048 239.338 310.781 241.827C310.503 244.358 307.677 245.705 305.252 245.076C302.827 244.447 301.664 242.03 302.003 239.55C302.343 237.069 305.107 235.671 307.532 236.301Z" fill="#EA7147"/>
<path d="M315.128 213.235C318.777 214.182 320.696 217.848 320.019 221.559C319.251 225.822 315.345 227.406 311.695 226.451C308.045 225.496 306.149 221.841 306.803 218.127C307.458 214.413 311.478 212.286 315.128 213.235Z" fill="#F78248"/>
<path d="M314.352 216.212C316.36 216.733 317.262 218.718 317.042 220.786C316.822 222.855 314.472 223.996 312.468 223.476C310.463 222.955 309.497 220.953 309.778 218.901C310.06 216.85 312.348 215.691 314.352 216.212Z" fill="#EA7147"/>
<path d="M287.834 257.677C291.481 258.623 293.402 262.287 292.722 265.995C291.954 270.258 288.051 271.842 284.404 270.887C280.757 269.932 278.858 266.279 279.512 262.566C280.167 258.852 284.184 256.728 287.834 257.677Z" fill="#F78248"/>
<path d="M287.059 260.653C289.064 261.173 289.966 263.158 289.746 265.224C289.526 267.29 287.179 268.431 285.175 267.911C283.17 267.39 282.204 265.405 282.488 263.339C282.772 261.273 285.055 260.132 287.059 260.653Z" fill="#EA7147"/>
<path d="M319.107 158.897C323.389 160.459 326.164 164.546 325.02 168.955C324.748 170.005 324.272 170.99 323.619 171.855C322.966 172.72 322.149 173.448 321.215 173.997C320.28 174.546 319.247 174.906 318.173 175.055C317.1 175.205 316.007 175.142 314.959 174.869C310.549 173.724 307.625 169.173 309.045 164.81C310.465 160.448 315.696 157.652 319.107 158.897Z" fill="#EA7147"/>
<path d="M318.295 162.012C321.079 162.012 322.599 165.458 321.914 168.137C321.748 168.776 321.458 169.377 321.059 169.905C320.661 170.432 320.163 170.876 319.593 171.211C319.023 171.546 318.393 171.765 317.738 171.857C317.083 171.948 316.417 171.909 315.777 171.743C315.137 171.577 314.536 171.287 314.009 170.888C313.481 170.49 313.038 169.991 312.703 169.422C312.368 168.852 312.148 168.221 312.057 167.567C311.966 166.912 312.004 166.246 312.17 165.606C312.858 162.928 315.798 162.003 318.295 162.012Z" fill="#F78248"/>
<path d="M313.428 203.354C316.37 204.429 318.28 207.252 317.492 210.273C317.305 210.994 316.978 211.672 316.529 212.266C316.08 212.861 315.518 213.362 314.876 213.74C314.233 214.117 313.523 214.365 312.785 214.468C312.047 214.571 311.295 214.527 310.574 214.34C307.542 213.552 305.53 210.423 306.507 207.422C307.484 204.421 311.081 202.5 313.428 203.354Z" fill="#EA7147"/>
<path d="M312.872 205.5C314.782 205.5 315.832 207.869 315.35 209.721C315.111 210.6 314.535 211.35 313.747 211.807C312.959 212.264 312.022 212.393 311.14 212.163C310.258 211.934 309.502 211.367 309.036 210.583C308.57 209.8 308.432 208.865 308.652 207.981C309.133 206.129 311.154 205.494 312.872 205.5Z" fill="#F78248"/>
<path d="M281.036 268.561C284.784 269.928 287.217 273.508 286.212 277.369C285.973 278.287 285.557 279.149 284.985 279.906C284.414 280.663 283.699 281.3 282.881 281.781C282.063 282.262 281.159 282.576 280.219 282.707C279.28 282.838 278.324 282.783 277.406 282.545C273.545 281.542 270.986 277.559 272.23 273.739C273.475 269.919 278.052 267.472 281.036 268.561Z" fill="#EA7147"/>
<path d="M280.331 271.287C282.761 271.287 284.097 274.305 283.488 276.657C283.192 277.788 282.46 278.755 281.452 279.346C280.443 279.937 279.241 280.103 278.111 279.808C276.98 279.512 276.013 278.78 275.422 277.771C274.831 276.763 274.665 275.561 274.96 274.43C275.57 272.089 278.143 271.279 280.331 271.287Z" fill="#F78248"/>
<path d="M315.23 140.979C320.587 141.396 322.291 146.63 321.144 151.04C319.997 155.45 315.659 157.594 311.085 156.953C306.569 156.324 304.456 151.433 305.729 146.53C306.876 142.12 310.687 140.628 315.23 140.979Z" fill="#FFC6B0"/>
<path d="M314.192 144.984C316.392 145.54 317.157 147.729 317.143 149.995C317.127 152.328 315.239 153.753 312.132 152.943C309.933 152.386 308.513 150.496 309.184 147.932C309.458 146.877 310.14 145.975 311.079 145.422C312.018 144.87 313.137 144.712 314.192 144.984Z" fill="#F78248"/>
<path d="M298.432 245.364C303.785 245.778 305.489 251.012 304.345 255.425C303.201 259.838 298.86 261.976 294.284 261.338C289.771 260.709 287.658 255.818 288.93 250.915C290.074 246.502 293.888 245.005 298.432 245.364Z" fill="#FFC6B0"/>
<path d="M297.392 249.367C299.592 249.924 300.357 252.112 300.34 254.378C300.327 256.711 298.439 258.137 295.329 257.327C293.127 256.77 291.71 254.879 292.378 252.315C292.653 251.26 293.336 250.357 294.276 249.804C295.216 249.252 296.336 249.094 297.392 249.367Z" fill="#F78248"/>
<path d="M308.577 221.274C313.031 221.619 314.451 225.976 313.499 229.648C312.547 233.321 308.933 235.102 305.125 234.571C301.366 234.044 299.607 229.974 300.67 225.893C301.617 222.221 304.796 220.979 308.577 221.274Z" fill="#FFC6B0"/>
<path d="M307.713 224.604C309.545 225.08 310.18 226.89 310.169 228.78C310.169 230.729 308.585 231.91 305.993 231.236C304.161 230.76 302.983 229.198 303.537 227.06C303.767 226.181 304.335 225.43 305.118 224.97C305.901 224.51 306.834 224.378 307.713 224.604Z" fill="#F78248"/>
<path d="M321.28 189.303C326.634 189.718 328.338 194.952 327.194 199.365C326.049 203.777 321.706 205.915 317.132 205.278C312.619 204.646 310.504 199.757 311.779 194.855C312.923 190.436 316.737 188.953 321.28 189.303Z" fill="#FFC6B0"/>
<path d="M320.239 193.308C322.441 193.864 323.204 196.053 323.19 198.319C323.174 200.652 321.289 202.08 318.179 201.27C315.98 200.713 314.56 198.823 315.231 196.259C315.505 195.204 316.186 194.301 317.125 193.747C318.064 193.194 319.184 193.036 320.239 193.308Z" fill="#F78248"/>
<path d="M102.744 289.2C98.936 291.706 94.0973 290.448 91.3133 286.84C88.1173 282.697 89.8657 277.931 93.6742 275.425C97.4827 272.92 102.305 274.189 105.103 277.783C107.9 281.377 106.55 286.695 102.744 289.2Z" fill="#F78248"/>
<path d="M100.7 286.093C98.6065 287.468 96.087 286.663 94.4194 284.798C92.7518 282.933 93.6232 279.893 95.714 278.517C97.8048 277.142 100.383 277.897 101.995 279.812C103.607 281.727 102.791 284.717 100.7 286.093Z" fill="#EA7147"/>
<path d="M66.69 241.922C62.8843 244.428 58.0457 243.172 55.2617 239.564C52.0629 235.419 53.8112 230.655 57.6197 228.15C61.4282 225.644 66.2502 226.914 69.0481 230.508C71.846 234.102 70.4986 239.417 66.69 241.922Z" fill="#F78248"/>
<path d="M64.6475 238.816C62.5567 240.208 60.0372 239.39 58.3668 237.522C56.6964 235.654 57.5706 232.619 59.6642 231.241C61.7577 229.863 64.3329 230.62 65.9448 232.538C67.5568 234.457 66.7411 237.441 64.6475 238.816Z" fill="#EA7147"/>
<path d="M76.6685 259.914C73.517 261.988 69.5136 260.949 67.2028 257.965C64.558 254.538 66.0029 250.582 69.1516 248.499C72.3004 246.417 76.2898 247.475 78.6173 250.448C80.9447 253.422 79.8172 257.842 76.6685 259.914Z" fill="#F78248"/>
<path d="M74.9794 257.345C73.2478 258.484 71.1626 257.818 69.7817 256.273C68.4008 254.728 69.1219 252.217 70.8535 251.078C72.5852 249.94 74.7177 250.563 76.0513 252.15C77.3848 253.737 76.7083 256.206 74.9794 257.345Z" fill="#EA7147"/>
<path d="M61.9966 209.867C58.8479 211.942 54.8473 210.903 52.531 207.919C49.8862 204.489 51.3311 200.538 54.4798 198.453C57.6285 196.368 61.618 197.431 63.9454 200.402C66.2728 203.372 65.1453 207.796 61.9966 209.867Z" fill="#F78248"/>
<path d="M60.3068 207.299C58.5779 208.438 56.4927 207.773 55.1146 206.228C53.7365 204.683 54.4548 202.171 56.1837 201.033C57.9125 199.894 60.0451 200.52 61.3786 202.105C62.7121 203.689 62.0384 206.161 60.3068 207.299Z" fill="#EA7147"/>
<path d="M114.318 299.292C110.287 301.422 105.392 300.74 102.903 296.934C101.704 295.107 101.279 292.879 101.721 290.739C102.163 288.599 103.437 286.722 105.261 285.52C109.067 283.014 114.404 283.897 116.676 287.878C118.948 291.859 117.525 297.605 114.318 299.292Z" fill="#EA7147"/>
<path d="M112.546 296.611C110.675 298.666 107.103 297.494 105.585 295.172C104.888 294.057 104.655 292.713 104.935 291.429C105.216 290.144 105.988 289.02 107.086 288.297C108.185 287.575 109.522 287.31 110.813 287.561C112.104 287.812 113.245 288.558 113.993 289.64C115.51 291.962 114.227 294.762 112.546 296.611Z" fill="#F78248"/>
<path d="M85.1376 265.282C82.3536 266.746 78.9988 266.278 77.2783 263.659C76.8686 263.036 76.5855 262.339 76.4452 261.607C76.3049 260.875 76.3102 260.123 76.4606 259.393C76.6111 258.664 76.9038 257.971 77.3221 257.354C77.7404 256.737 78.2762 256.209 78.8986 255.799C81.5184 254.076 85.1877 254.686 86.7579 257.422C88.328 260.159 87.3453 264.115 85.1376 265.282Z" fill="#EA7147"/>
<path d="M83.9219 263.428C82.6357 264.843 80.1774 264.038 79.1278 262.44C78.6646 261.674 78.5165 260.757 78.7148 259.884C78.913 259.011 79.4421 258.248 80.1908 257.757C80.9396 257.265 81.8496 257.084 82.7297 257.249C83.6098 257.415 84.3914 257.915 84.9102 258.645C85.9598 260.232 85.0773 262.159 83.9219 263.428Z" fill="#F78248"/>
<path d="M58.4776 197.529C54.9502 199.395 50.6656 198.799 48.4718 195.466C47.9501 194.674 47.5897 193.786 47.4112 192.854C47.2327 191.923 47.2396 190.965 47.4314 190.036C47.6232 189.106 47.9963 188.224 48.5293 187.439C49.0622 186.654 49.7447 185.982 50.5376 185.461C53.8784 183.27 58.5416 184.041 60.5405 187.526C62.5394 191.012 61.2866 196.045 58.4776 197.529Z" fill="#EA7147"/>
<path d="M56.928 195.171C55.291 196.969 52.1646 195.942 50.8282 193.91C50.5103 193.427 50.2908 192.885 50.182 192.317C50.0733 191.749 50.0775 191.165 50.1945 190.598C50.3115 190.032 50.5389 189.494 50.8638 189.015C51.1887 188.537 51.6046 188.127 52.088 187.809C52.5713 187.491 53.1125 187.271 53.6807 187.162C54.2489 187.054 54.8329 187.058 55.3994 187.175C55.966 187.292 56.504 187.519 56.9826 187.844C57.4613 188.169 57.8712 188.585 58.1891 189.068C59.5254 191.106 58.4007 193.559 56.928 195.171Z" fill="#F78248"/>
<path d="M130.206 308.437C126.308 312.131 121.297 309.888 118.791 306.079C116.286 302.271 117.608 297.618 121.149 294.651C124.643 291.725 129.691 293.437 132.472 297.669C134.964 301.474 133.513 305.302 130.206 308.437Z" fill="#FFC6B0"/>
<path d="M127.933 304.986C126.034 306.233 123.907 305.345 122.231 303.808C120.511 302.232 120.717 299.877 123.406 298.106C125.307 296.856 127.649 297.065 129.108 299.284C129.708 300.196 129.921 301.309 129.701 302.378C129.48 303.447 128.844 304.385 127.933 304.986Z" fill="#F78248"/>
<path d="M64.027 225.988C60.1294 229.682 55.1015 227.438 52.5959 223.63C50.0903 219.821 51.4127 215.169 54.954 212.215C58.4479 209.289 63.4953 211.001 66.2793 215.23C68.7849 219.025 67.3344 222.853 64.027 225.988Z" fill="#FFC6B0"/>
<path d="M61.751 222.532C59.8523 223.782 57.7253 222.891 56.0494 221.357C54.3289 219.781 54.5377 217.426 57.227 215.655C59.1257 214.405 61.4671 214.614 62.9287 216.833C63.2255 217.284 63.4306 217.79 63.5321 218.321C63.6335 218.851 63.6295 219.397 63.5201 219.926C63.4108 220.455 63.1983 220.958 62.8947 221.405C62.5912 221.852 62.2026 222.235 61.751 222.532Z" fill="#F78248"/>
<path d="M75.0968 249.668C71.8534 252.731 67.6691 250.877 65.5839 247.72C63.4987 244.563 64.5983 240.676 67.5327 238.207C70.467 235.737 74.643 237.196 76.9593 240.712C79.0585 243.872 77.8502 247.06 75.0968 249.668Z" fill="#FFC6B0"/>
<path d="M73.2067 246.796C71.6254 247.834 69.8659 247.093 68.4739 245.816C67.0819 244.538 67.2127 242.542 69.4538 241.069C71.0351 240.03 72.9839 240.203 74.1866 242.049C74.434 242.425 74.6049 242.846 74.6895 243.288C74.7741 243.73 74.7708 244.184 74.6798 244.625C74.5888 245.066 74.4119 245.484 74.1591 245.857C73.9064 246.229 73.5827 246.548 73.2067 246.796Z" fill="#F78248"/>
<path d="M90.3112 280.526C86.4136 284.22 81.3857 281.976 78.8801 278.167C76.3745 274.359 77.6969 269.704 81.2382 266.753C84.7321 263.827 89.7795 265.536 92.5635 269.768C95.058 273.563 93.6075 277.391 90.3112 280.526Z" fill="#FFC6B0"/>
<path d="M88.0244 277.071C86.1258 278.321 84.0016 277.43 82.3228 275.896C80.6023 274.32 80.8111 271.965 83.5004 270.194C85.3991 268.944 87.7405 269.153 89.2021 271.369C89.8011 272.282 90.0134 273.395 89.7927 274.464C89.5719 275.533 88.9359 276.47 88.0244 277.071Z" fill="#F78248"/>
<path d="M304.221 126.938C308.692 126.067 312.69 129.068 313.893 133.464C315.285 138.511 311.841 142.267 307.367 143.138C302.893 144.009 298.917 141 297.692 136.61C296.467 132.219 299.747 127.798 304.221 126.938Z" fill="#F78248"/>
<path d="M304.926 130.582C307.384 130.106 309.408 131.807 310.243 134.168C311.079 136.529 309.113 139.007 306.658 139.485C304.202 139.964 302.103 138.283 301.34 135.9C300.577 133.516 302.468 131.064 304.926 130.582Z" fill="#EA7147"/>
<path d="M297.355 113.192C301.891 112.755 306.161 115.244 307.03 119.718C307.447 121.866 306.994 124.092 305.771 125.906C304.547 127.721 302.652 128.974 300.504 129.392C296.03 130.261 291.428 127.415 290.83 122.866C290.231 118.317 293.742 113.54 297.355 113.192Z" fill="#EA7147"/>
<path d="M297.968 116.354C300.474 115.165 303.336 117.606 303.868 120.335C304.008 120.989 304.017 121.665 303.894 122.323C303.77 122.981 303.516 123.608 303.147 124.167C302.778 124.726 302.302 125.205 301.745 125.577C301.189 125.95 300.563 126.207 299.906 126.335C299.249 126.462 298.573 126.458 297.917 126.321C297.262 126.184 296.64 125.917 296.089 125.537C295.538 125.157 295.068 124.671 294.707 124.107C294.346 123.543 294.102 122.913 293.987 122.253C293.458 119.524 295.71 117.425 297.968 116.354Z" fill="#F78248"/>
<path d="M286.132 98.6994C291.143 96.7506 294.938 100.751 295.806 105.225C296.675 109.699 293.685 113.502 289.28 114.9C284.937 116.292 280.928 112.778 279.954 107.806C279.083 103.332 281.881 100.342 286.132 98.6994Z" fill="#FFC6B0"/>
<path d="M286.919 102.759C289.146 102.328 290.781 103.959 291.747 106.016C292.738 108.127 291.652 110.226 288.492 110.841C286.265 111.275 284.171 110.192 283.665 107.587C283.456 106.515 283.682 105.404 284.292 104.499C284.903 103.594 285.847 102.968 286.919 102.759Z" fill="#F78248"/>
<path d="M279.846 86.8279C283.655 85.3579 286.528 88.3869 287.199 91.7889C287.87 95.191 285.587 98.078 282.24 99.1415C278.938 100.188 275.884 97.5268 275.149 93.7489C274.49 90.3496 276.617 88.0751 279.846 86.8279Z" fill="#FFC6B0"/>
<path d="M280.458 89.9125C282.153 89.584 283.389 90.8229 284.124 92.3875C284.859 93.9521 284.052 95.5891 281.649 96.0568C279.954 96.3854 278.367 95.5613 277.983 93.5819C277.904 93.1784 277.905 92.7633 277.987 92.3604C278.069 91.9575 278.229 91.5747 278.459 91.2339C278.689 90.893 278.984 90.6009 279.327 90.3742C279.67 90.1474 280.054 89.9906 280.458 89.9125Z" fill="#F78248"/>
<path d="M63.943 125.913C62.1334 120.855 66.2175 117.163 70.7109 116.409C75.2042 115.654 78.932 118.742 80.2154 123.179C81.4849 127.556 77.8825 131.481 72.888 132.322C68.3918 133.087 65.4742 130.203 63.943 125.913Z" fill="#FFC6B0"/>
<path d="M68.0189 125.229C67.643 123.002 69.3162 121.401 71.3959 120.496C73.534 119.558 75.6053 120.697 76.1287 123.873C76.5073 126.1 75.3714 128.174 72.7517 128.606C71.6765 128.784 70.5746 128.528 69.6874 127.895C68.8002 127.262 68.2002 126.304 68.0189 125.229Z" fill="#F78248"/>
<path d="M51.159 171.402C49.7253 168 50.6217 164.1 53.8707 162.346C54.6431 161.929 55.4901 161.669 56.3632 161.58C57.2363 161.49 58.1184 161.574 58.9592 161.826C59.7999 162.078 60.5828 162.493 61.2632 163.047C61.9435 163.602 62.5079 164.285 62.9242 165.057C64.6782 168.309 63.5868 172.552 60.2126 174.114C56.8384 175.675 52.3005 174.111 51.159 171.402Z" fill="#EA7147"/>
<path d="M53.4548 170.16C51.9264 168.506 53.1263 165.706 55.1058 164.639C55.577 164.383 56.0944 164.221 56.6281 164.165C57.1619 164.109 57.7014 164.158 58.2159 164.311C58.7304 164.464 59.2097 164.717 59.6262 165.055C60.0427 165.394 60.3883 165.811 60.6431 166.283C60.8979 166.756 61.0569 167.274 61.1109 167.808C61.165 168.342 61.1131 168.881 60.9581 169.395C60.8032 169.909 60.5483 170.387 60.208 170.802C59.8678 171.217 59.4489 171.561 58.9755 171.814C56.9933 172.897 54.8246 171.65 53.4548 170.16Z" fill="#F78248"/>
<path d="M52.6523 157.447C49.3115 153.243 51.9869 148.432 55.9931 146.269C59.9993 144.106 64.5289 145.829 67.1737 149.61C69.7823 153.343 67.6386 158.221 63.1786 160.626C59.1725 162.798 55.4864 161.016 52.6523 157.447Z" fill="#FFC6B0"/>
<path d="M56.2909 155.487C55.2135 153.486 56.2909 151.445 57.9613 149.919C59.6818 148.341 62.0093 148.753 63.5293 151.59C64.6095 153.591 64.1975 155.908 61.8589 157.158C60.8987 157.673 59.7734 157.786 58.7298 157.473C57.6861 157.16 56.8091 156.446 56.2909 155.487Z" fill="#F78248"/>
<path d="M159.281 293.8C159.281 293.8 186.487 295.994 198.834 282.775C211.181 269.557 232.798 258.232 249.341 256.906C265.884 255.581 267.715 255.581 277.613 247.58C277.613 247.58 278.988 259.217 269.595 265.453C260.201 271.69 226.76 293.447 226.76 293.447L190.289 299.571L159.281 293.8Z" fill="#FFC6B0"/>
<path d="M235.107 271.417C236.63 274.07 234.331 278.249 229.971 280.749C225.611 283.249 220.842 283.127 219.319 280.471C217.796 277.815 220.099 273.639 224.459 271.136C228.818 268.633 233.587 268.764 235.107 271.417Z" fill="#FFC6B0"/>
<path d="M212.322 256.667C212.261 256.305 212.309 255.933 212.459 255.598C212.609 255.263 212.856 254.98 213.167 254.785C213.478 254.59 213.84 254.492 214.207 254.503C214.574 254.514 214.93 254.633 215.229 254.846C215.528 255.059 215.758 255.355 215.888 255.698C216.019 256.042 216.045 256.416 215.963 256.774C215.881 257.132 215.694 257.457 215.427 257.709C215.16 257.961 214.825 258.129 214.463 258.19C214.222 258.23 213.976 258.223 213.738 258.169C213.5 258.114 213.275 258.013 213.076 257.872C212.878 257.731 212.709 257.551 212.579 257.345C212.45 257.138 212.362 256.908 212.322 256.667Z" fill="#EA7147"/>
<path d="M262.526 248.229C262.465 247.867 262.513 247.495 262.663 247.16C262.814 246.825 263.06 246.543 263.371 246.348C263.682 246.153 264.044 246.054 264.411 246.065C264.778 246.076 265.134 246.195 265.433 246.408C265.732 246.621 265.962 246.918 266.092 247.261C266.223 247.604 266.249 247.978 266.167 248.336C266.085 248.694 265.899 249.02 265.632 249.272C265.364 249.524 265.029 249.691 264.667 249.752C264.426 249.793 264.18 249.786 263.942 249.731C263.704 249.677 263.479 249.576 263.281 249.435C263.082 249.293 262.913 249.114 262.783 248.907C262.654 248.7 262.566 248.47 262.526 248.229Z" fill="#EA7147"/>
<path d="M128.533 270.747C128.472 270.385 128.519 270.013 128.67 269.678C128.82 269.343 129.067 269.06 129.378 268.865C129.689 268.67 130.051 268.572 130.418 268.583C130.785 268.594 131.141 268.713 131.44 268.926C131.739 269.139 131.969 269.435 132.099 269.779C132.23 270.122 132.256 270.496 132.174 270.854C132.092 271.212 131.905 271.537 131.638 271.789C131.371 272.041 131.036 272.209 130.673 272.27C130.188 272.351 129.69 272.236 129.289 271.95C128.888 271.665 128.616 271.232 128.533 270.747Z" fill="#EA7147"/>
<path d="M164.235 284.816C164.174 284.454 164.222 284.081 164.372 283.746C164.523 283.411 164.769 283.128 165.08 282.933C165.392 282.739 165.754 282.64 166.121 282.651C166.488 282.662 166.844 282.782 167.143 282.995C167.442 283.208 167.672 283.505 167.802 283.848C167.932 284.192 167.958 284.566 167.875 284.924C167.793 285.282 167.606 285.608 167.339 285.859C167.071 286.111 166.735 286.278 166.373 286.339C165.887 286.42 165.39 286.305 164.989 286.02C164.588 285.734 164.317 285.301 164.235 284.816Z" fill="#EA7147"/>
<path d="M282.21 212.136C282.149 211.774 282.197 211.402 282.348 211.067C282.498 210.732 282.745 210.449 283.056 210.254C283.367 210.059 283.73 209.961 284.097 209.972C284.464 209.982 284.82 210.102 285.119 210.315C285.418 210.528 285.647 210.825 285.778 211.169C285.908 211.512 285.934 211.887 285.851 212.244C285.769 212.602 285.582 212.928 285.314 213.18C285.047 213.431 284.711 213.598 284.348 213.659C283.863 213.74 283.365 213.626 282.964 213.34C282.563 213.055 282.292 212.622 282.21 212.136Z" fill="#EA7147"/>
<path d="M99.5287 242.835C99.4677 242.473 99.5155 242.101 99.666 241.766C99.8165 241.431 100.063 241.148 100.374 240.953C100.685 240.758 101.047 240.66 101.414 240.671C101.781 240.681 102.137 240.801 102.436 241.014C102.735 241.227 102.965 241.523 103.095 241.866C103.226 242.21 103.252 242.584 103.17 242.942C103.088 243.3 102.901 243.625 102.634 243.877C102.367 244.129 102.032 244.297 101.67 244.358C101.429 244.398 101.183 244.391 100.945 244.337C100.707 244.282 100.482 244.181 100.284 244.04C100.085 243.899 99.9157 243.719 99.7862 243.513C99.6566 243.306 99.5691 243.076 99.5287 242.835Z" fill="#EA7147"/>
<path d="M282.079 172.781C282.018 172.418 282.065 172.046 282.216 171.711C282.366 171.376 282.613 171.093 282.924 170.898C283.236 170.703 283.598 170.605 283.965 170.616C284.332 170.627 284.688 170.747 284.987 170.96C285.286 171.173 285.515 171.47 285.646 171.813C285.776 172.157 285.802 172.531 285.719 172.889C285.637 173.247 285.45 173.572 285.182 173.824C284.915 174.076 284.579 174.243 284.217 174.304C283.731 174.385 283.233 174.27 282.832 173.985C282.431 173.699 282.16 173.266 282.079 172.781Z" fill="#EA7147"/>
<path d="M83.4614 206.16C83.4003 205.797 83.4481 205.425 83.5986 205.09C83.7492 204.755 83.9957 204.472 84.307 204.277C84.6184 204.082 84.9805 203.984 85.3477 203.995C85.7149 204.006 86.0705 204.125 86.3697 204.339C86.6689 204.552 86.8982 204.849 87.0286 205.192C87.1589 205.536 87.1845 205.91 87.102 206.268C87.0196 206.626 86.8328 206.951 86.5653 207.203C86.2979 207.455 85.9617 207.622 85.5995 207.682C85.114 207.764 84.6161 207.649 84.2152 207.364C83.8143 207.078 83.5431 206.645 83.4614 206.16Z" fill="#EA7147"/>
<path d="M269.257 134.648C269.196 134.286 269.244 133.913 269.395 133.578C269.545 133.243 269.792 132.96 270.103 132.765C270.414 132.571 270.776 132.472 271.144 132.483C271.511 132.494 271.866 132.614 272.166 132.827C272.465 133.04 272.694 133.337 272.824 133.68C272.955 134.024 272.98 134.398 272.898 134.756C272.815 135.114 272.629 135.44 272.361 135.691C272.094 135.943 271.758 136.11 271.395 136.171C270.91 136.252 270.412 136.137 270.011 135.852C269.61 135.566 269.339 135.133 269.257 134.648Z" fill="#EA7147"/>
<path d="M82.516 166.027C82.455 165.665 82.5028 165.292 82.6533 164.957C82.8038 164.622 83.0504 164.339 83.3617 164.144C83.6731 163.949 84.0352 163.851 84.4024 163.862C84.7696 163.873 85.1252 163.993 85.4244 164.206C85.7236 164.419 85.9529 164.716 86.0833 165.059C86.2136 165.403 86.2392 165.777 86.1567 166.135C86.0742 166.493 85.8875 166.819 85.62 167.07C85.3526 167.322 85.0165 167.489 84.6542 167.55C84.1687 167.631 83.6708 167.516 83.2699 167.231C82.869 166.945 82.5978 166.512 82.516 166.027Z" fill="#EA7147"/>
<path d="M244.926 104.164C244.865 103.802 244.914 103.43 245.064 103.096C245.215 102.761 245.462 102.479 245.773 102.284C246.085 102.09 246.447 101.992 246.814 102.003C247.181 102.014 247.536 102.134 247.835 102.347C248.134 102.56 248.363 102.857 248.493 103.2C248.624 103.543 248.649 103.917 248.567 104.275C248.485 104.633 248.298 104.958 248.031 105.21C247.764 105.462 247.429 105.629 247.067 105.69C246.826 105.731 246.579 105.723 246.341 105.669C246.103 105.614 245.879 105.513 245.68 105.371C245.481 105.229 245.312 105.05 245.182 104.843C245.053 104.636 244.966 104.405 244.926 104.164Z" fill="#EA7147"/>
<path d="M95.8929 129.208C95.832 128.846 95.8798 128.474 96.0303 128.139C96.1808 127.804 96.4272 127.521 96.7384 127.326C97.0495 127.131 97.4115 127.033 97.7786 127.044C98.1456 127.055 98.5012 127.174 98.8005 127.387C99.0997 127.6 99.3291 127.896 99.4597 128.24C99.5902 128.583 99.6161 128.957 99.5341 129.315C99.452 129.673 99.2657 129.998 98.9987 130.25C98.7316 130.502 98.3959 130.67 98.0338 130.731C97.7932 130.772 97.547 130.764 97.3092 130.71C97.0713 130.655 96.8466 130.555 96.6478 130.413C96.4489 130.272 96.2799 130.092 96.1504 129.886C96.0209 129.679 95.9334 129.449 95.8929 129.208Z" fill="#EA7147"/>
<path d="M215.084 87.6396C215.023 87.2775 215.071 86.9055 215.222 86.5705C215.372 86.2356 215.619 85.9528 215.93 85.7578C216.241 85.5629 216.603 85.4646 216.97 85.4754C217.337 85.4862 217.693 85.6055 217.992 85.8184C218.291 86.0312 218.52 86.328 218.651 86.6712C218.782 87.0144 218.808 87.3886 218.725 87.7465C218.643 88.1044 218.457 88.4299 218.19 88.682C217.923 88.934 217.587 89.1012 217.225 89.1624C216.985 89.2031 216.738 89.196 216.501 89.1415C216.263 89.087 216.038 88.9861 215.839 88.8447C215.64 88.7033 215.471 88.524 215.342 88.3173C215.212 88.1105 215.125 87.8802 215.084 87.6396Z" fill="#EA7147"/>
<path d="M117.285 104.072C117.224 103.709 117.271 103.337 117.422 103.002C117.572 102.667 117.819 102.384 118.13 102.189C118.442 101.994 118.804 101.896 119.171 101.907C119.538 101.918 119.894 102.038 120.193 102.251C120.492 102.464 120.721 102.761 120.852 103.104C120.982 103.448 121.008 103.822 120.925 104.18C120.843 104.538 120.656 104.863 120.389 105.115C120.121 105.367 119.785 105.534 119.423 105.595C118.937 105.676 118.439 105.561 118.038 105.276C117.638 104.99 117.366 104.557 117.285 104.072Z" fill="#EA7147"/>
<path d="M167.984 82.5353C167.924 82.1732 167.972 81.8014 168.123 81.4667C168.274 81.1321 168.521 80.8496 168.832 80.6551C169.143 80.4606 169.505 80.3628 169.872 80.3739C170.239 80.385 170.595 80.5047 170.894 80.7177C171.193 80.9308 171.422 81.2277 171.552 81.5709C171.682 81.914 171.708 82.2882 171.626 82.6459C171.543 83.0037 171.357 83.3291 171.09 83.5809C170.823 83.8328 170.487 83.9999 170.125 84.061C169.884 84.1017 169.638 84.0944 169.4 84.0397C169.162 83.985 168.937 83.8839 168.738 83.7422C168.539 83.6005 168.37 83.421 168.241 83.2139C168.112 83.0068 168.024 82.7762 167.984 82.5353Z" fill="#EA7147"/>
</svg>
