<svg width="333" height="337" viewBox="0 0 333 337" fill="none" xmlns="http://www.w3.org/2000/svg">
<path d="M320.423 40.192C312.009 13.2108 288.075 19.9695 257.437 24.6094C226.799 29.2493 200.248 9 166.619 9C132.989 9 106.331 29.2493 75.8002 24.6094C45.2692 19.9695 21.0153 13.2108 12.6012 40.192C4.18717 67.1731 30.6581 97.5336 55.3394 100.484C80.0206 103.434 104.755 83.6407 108.602 78.1426C112.448 72.6444 117.069 69.2919 119.286 75.6215C121.503 81.9511 129.356 86.5105 132.642 92.0355C135.927 97.5604 124.629 109.013 132.215 133.205C139.801 157.396 142.712 179.255 142.712 186.335C142.712 193.416 154.465 192.719 157.831 191.109C160.593 190.036 163.503 189.394 166.458 189.205C169.414 189.394 172.324 190.036 175.086 191.109C178.425 192.719 190.205 193.443 190.205 186.335C190.205 179.228 193.143 157.396 200.702 133.205C208.262 109.013 196.909 97.5604 200.275 92.0355C203.641 86.5105 211.601 81.9511 213.631 75.6215C215.661 69.2919 220.335 72.6713 224.315 78.1426C228.295 83.6139 252.816 103.434 277.578 100.484C302.339 97.5336 328.81 67.1731 320.423 40.192ZM111.834 65.9126C94.8988 86.9933 85.1225 71.4375 67.5999 62.56C50.0772 53.6825 33.5963 69.2919 24.8617 54.514C20.9085 47.8625 23.9001 32.7896 35.3593 29.6248C55.5263 23.5098 59.72 38.4754 98.3446 39.3337C112.154 39.6555 116.722 57.491 111.834 65.9126ZM308.376 54.5408C299.561 69.2919 283.187 53.6826 265.638 62.5869C248.088 71.4912 238.365 87.0201 221.564 65.9394C216.516 57.5179 221.083 39.6823 234.92 39.3873C273.544 38.5291 277.658 23.5634 297.905 29.6784C309.204 32.8164 312.169 47.8894 308.242 54.5408H308.376Z" fill="#FFC6B0"/>
<path d="M205.778 34.7206C192.769 35.1497 182.512 30.6171 165.15 30.6171C147.787 30.6171 140.255 35.1497 127.22 34.7206C114.184 34.2914 110.017 35.9811 120.088 40.0846C130.158 44.1881 133.951 47.2724 136.462 56.1768C141.51 73.9318 158.953 74.3608 162.505 90.5066C164.455 99.411 161.811 101.583 161.25 112.392C161.036 116.442 162.879 122.181 163.12 125.48C163.36 128.779 163.52 131.139 161.65 132.507C159.315 133.799 156.617 134.271 153.984 133.848C152.366 133.661 150.767 133.338 149.203 132.883C146.772 132.293 142.605 130.415 140.816 132.883C139.533 134.653 142.044 137.388 143.487 139.078C146.065 142.77 148.377 146.642 150.405 150.665C154.251 156.86 152.595 161.688 152.328 171.048C152.088 179.962 153.104 188.865 155.347 197.493H177.65C179.932 188.862 180.975 179.948 180.749 171.021C180.455 161.661 178.799 156.833 182.672 150.638C184.681 146.61 186.985 142.737 189.564 139.051C190.979 137.362 193.49 134.626 192.235 132.856C190.472 130.469 186.278 132.346 183.848 132.856C182.293 133.314 180.702 133.637 179.093 133.821C176.451 134.244 173.745 133.773 171.4 132.48C169.53 131.113 169.691 129.047 169.958 125.453C170.225 121.86 172.041 116.415 171.827 112.365C171.266 101.637 168.622 99.3842 170.572 90.4799C174.098 74.3877 191.54 73.9049 196.589 56.1499C199.26 47.2992 202.893 44.349 212.963 40.0578C223.033 35.7665 218.813 34.2914 205.778 34.7206Z" fill="#F78248"/>
<path d="M166.512 61.7018V199.129" stroke="white" stroke-width="0.43" stroke-miterlimit="10"/>
<path d="M165.927 199.129H167.075C168.074 199.129 169.032 199.527 169.738 200.236C170.445 200.945 170.841 201.907 170.841 202.91V209.83H162.16V202.937C162.157 202.438 162.252 201.944 162.439 201.482C162.627 201.02 162.904 200.6 163.254 200.246C163.604 199.892 164.02 199.611 164.479 199.419C164.938 199.227 165.43 199.129 165.927 199.129Z" fill="#5089CD"/>
<path d="M161.624 207.792H171.267C171.848 207.792 172.405 208.023 172.816 208.436C173.226 208.848 173.457 209.408 173.457 209.991V215.194H159.434V209.991C159.434 209.408 159.664 208.848 160.075 208.436C160.486 208.023 161.043 207.792 161.624 207.792V207.792Z" fill="#AABBEE"/>
<path d="M158.047 214.792H174.955C175.522 214.788 176.084 214.897 176.609 215.113C177.134 215.328 177.611 215.646 178.013 216.047C178.415 216.448 178.734 216.925 178.952 217.451C179.17 217.977 179.282 218.54 179.282 219.11V311.532H153.746V219.11C153.746 217.965 154.199 216.866 155.006 216.056C155.812 215.247 156.906 214.792 158.047 214.792Z" fill="white"/>
<path d="M177.197 238.206H155.828V221.899C155.828 220.747 156.284 219.642 157.096 218.827C157.907 218.012 159.008 217.554 160.155 217.554H172.923C174.066 217.561 175.16 218.022 175.966 218.836C176.772 219.65 177.224 220.751 177.224 221.899L177.197 238.206Z" fill="#95AAEA"/>
<path d="M187.163 325.13H145.867V328H187.163V325.13Z" fill="#AABBEE"/>
<path d="M173.564 238.715H159.434V327.195H173.564V238.715Z" fill="#AABBEE"/>
<path d="M179.282 234.183H153.746V244.482H179.282V234.183Z" fill="#406578"/>
<path d="M164.535 221.363H175.14" stroke="#162640" stroke-width="0.43" stroke-miterlimit="10"/>
<path d="M169.852 225.895H175.14" stroke="#162640" stroke-width="0.43" stroke-miterlimit="10"/>
<path d="M169.852 230.428H175.14" stroke="#162640" stroke-width="0.43" stroke-miterlimit="10"/>
<path d="M164.535 234.961H175.14" stroke="#162640" stroke-width="0.43" stroke-miterlimit="10"/>
<path d="M169.852 239.493H175.14" stroke="#162640" stroke-width="0.43" stroke-miterlimit="10"/>
<path d="M169.852 243.999H175.14" stroke="#162640" stroke-width="0.43" stroke-miterlimit="10"/>
<path d="M164.535 248.532H175.14" stroke="#162640" stroke-width="0.43" stroke-miterlimit="10"/>
<path d="M169.852 253.064H175.14" stroke="#162640" stroke-width="0.43" stroke-miterlimit="10"/>
<path d="M169.852 257.597H175.14" stroke="#162640" stroke-width="0.43" stroke-miterlimit="10"/>
<path d="M164.535 262.13H175.14" stroke="#162640" stroke-width="0.43" stroke-miterlimit="10"/>
<path d="M169.852 266.662H175.14" stroke="#162640" stroke-width="0.43" stroke-miterlimit="10"/>
<path d="M169.852 271.195H175.14" stroke="#162640" stroke-width="0.43" stroke-miterlimit="10"/>
<path d="M164.535 275.727H175.14" stroke="#162640" stroke-width="0.43" stroke-miterlimit="10"/>
<path d="M169.852 280.233H175.14" stroke="#162640" stroke-width="0.43" stroke-miterlimit="10"/>
<path d="M169.852 284.766H175.14" stroke="#162640" stroke-width="0.43" stroke-miterlimit="10"/>
<path d="M164.535 289.298H175.14" stroke="#162640" stroke-width="0.43" stroke-miterlimit="10"/>
<path d="M169.852 293.831H175.14" stroke="#162640" stroke-width="0.43" stroke-miterlimit="10"/>
<path d="M169.852 298.364H175.14" stroke="#162640" stroke-width="0.43" stroke-miterlimit="10"/>
<path d="M164.535 302.896H175.14" stroke="#162640" stroke-width="0.43" stroke-miterlimit="10"/>
<path d="M187.163 309.467H145.867V312.337H187.163V309.467Z" fill="white"/>
<path d="M153.293 309.065H179.737" stroke="#162640" stroke-width="0.43" stroke-miterlimit="10"/>
<path d="M158.742 324.996H173.22" stroke="#162640" stroke-width="0.43" stroke-miterlimit="10"/>
<path d="M162.264 76.3188C156.762 75.5584 151.782 72.6453 148.41 68.2143C145.038 63.7833 143.546 58.1936 144.261 52.6634C144.984 47.0024 147.878 41.848 152.328 38.2967C156.778 34.7455 162.432 33.0775 168.087 33.6478C174.031 34.6288 179.425 37.7225 183.286 42.3644C185.302 44.5578 186.833 47.1535 187.782 49.9819C188.73 52.8103 189.073 55.8077 188.789 58.7784C187.159 70.6329 173.43 77.8744 162.264 76.3188Z" fill="white"/>
<path d="M187.053 53.012C188.389 63.5255 178.105 73.5027 167.634 74.8169C165.142 75.1325 162.612 74.952 160.189 74.2857C157.766 73.6195 155.498 72.4805 153.514 70.9339C151.529 69.3872 149.868 67.4632 148.624 65.2716C147.38 63.0801 146.579 60.664 146.265 58.1614C145.598 53.0106 146.94 47.8001 150.012 43.6208C153.084 39.4415 157.647 36.6174 162.746 35.7397C173.27 34.4255 185.745 42.4716 187.053 53.012Z" fill="#FEB8D0"/>
<path d="M158.579 51.4832C159.057 53.1102 158.91 54.8579 158.169 56.3819C157.427 57.9059 156.144 59.0958 154.572 59.7171C153.845 60.0577 153.057 60.2473 152.255 60.2746C151.453 60.3018 150.654 60.166 149.905 59.8755C149.157 59.5849 148.475 59.1456 147.899 58.5837C147.324 58.0219 146.868 57.3491 146.559 56.6059C145.945 55.1342 145.913 53.4832 146.469 51.9886C147.025 50.494 148.126 49.268 149.55 48.5598C151.147 47.8261 152.959 47.7193 154.63 48.2604C156.301 48.8015 157.71 49.9513 158.579 51.4832V51.4832Z" fill="#C94B20"/>
<path d="M149.657 55.5332C149.657 56.311 149.443 56.9547 148.989 57.0083C148.535 57.0619 148.081 56.4719 148.001 55.721C147.92 54.97 148.241 54.2995 148.695 54.2458C149.149 54.1922 149.577 54.7823 149.657 55.5332Z" fill="#EA7147"/>
<path d="M162.936 64.196C163.077 65.7188 162.649 67.2399 161.736 68.464C160.823 69.6881 159.489 70.5279 157.994 70.8206C157.297 70.9815 156.575 71.0003 155.871 70.8759C155.167 70.7514 154.494 70.4862 153.894 70.096C153.294 69.7058 152.777 69.1986 152.376 68.6044C151.974 68.0102 151.696 67.341 151.557 66.6367C151.248 65.195 151.507 63.6892 152.278 62.4345C153.05 61.1799 154.275 60.2735 155.697 59.9048C157.217 59.6188 158.788 59.8961 160.119 60.6853C161.45 61.4745 162.451 62.7219 162.936 64.196V64.196Z" fill="#C94B20"/>
<path d="M159.194 63.7133C159.354 63.0428 159.808 62.56 160.209 62.6405C160.61 62.7209 160.824 63.3646 160.663 64.0351C160.503 64.7056 160.049 65.1884 159.648 65.108C159.248 65.0275 159.034 64.3838 159.194 63.7133Z" fill="#EA7147"/>
<path d="M170.973 49.3644C171.033 50.9252 170.523 52.4542 169.539 53.6641C168.556 54.8741 167.166 55.6817 165.631 55.9354C164.903 56.0541 164.159 56.0275 163.441 55.8571C162.724 55.6867 162.046 55.3759 161.449 54.9424C160.851 54.509 160.344 53.9614 159.957 53.331C159.57 52.7006 159.311 51.9999 159.194 51.2687C158.95 49.7679 159.295 48.2304 160.157 46.9799C161.018 45.7293 162.33 44.8632 163.815 44.5637C165.382 44.3765 166.964 44.7572 168.277 45.6374C169.589 46.5175 170.545 47.8392 170.973 49.3644V49.3644Z" fill="#C94B20"/>
<path d="M161.011 47.5675C161.278 46.897 161.812 46.4947 162.213 46.6824C162.614 46.8702 162.721 47.5138 162.427 48.1843C162.133 48.8549 161.625 49.2304 161.225 49.0695C160.824 48.9085 160.717 48.238 161.011 47.5675Z" fill="#EA7147"/>
<path d="M164.135 61.9432C163.832 60.4825 164.075 58.9606 164.819 57.669C165.564 56.3774 166.756 55.4068 168.169 54.9431C169.494 54.505 170.937 54.6049 172.19 55.2213C173.443 55.8378 174.406 56.9219 174.873 58.242C175.338 59.5988 175.264 61.0832 174.667 62.3869C174.07 63.6905 172.996 64.7131 171.668 65.2421C170.227 65.6991 168.671 65.6169 167.286 65.0104C165.901 64.4039 164.782 63.3143 164.135 61.9432V61.9432Z" fill="#C94B20"/>
<path d="M173.7 59.127C173.7 59.8243 173.352 60.3607 172.952 60.3607C172.551 60.3607 172.23 59.7975 172.23 59.127C172.23 58.4565 172.578 57.8933 172.978 57.8933C173.379 57.8933 173.7 58.4565 173.7 59.127Z" fill="#EA7147"/>
<path d="M175.594 54.4335C175.113 53.0229 175.168 51.4833 175.75 50.1115C176.332 48.7397 177.4 47.6328 178.746 47.0043C180.01 46.4092 181.455 46.3342 182.773 46.7953C184.091 47.2564 185.177 48.2171 185.798 49.4717C186.433 50.7563 186.545 52.2385 186.112 53.6048C185.678 54.9712 184.732 56.1147 183.474 56.7937C182.1 57.4355 180.54 57.5497 179.088 57.1148C177.636 56.6799 176.393 55.7261 175.594 54.4335V54.4335Z" fill="#C94B20"/>
<path d="M178.104 53.4948C178.104 54.1653 177.677 54.7017 177.276 54.6749C176.876 54.6481 176.582 54.058 176.635 53.3875C176.689 52.717 177.063 52.1806 177.463 52.2074C177.864 52.2342 178.158 52.8243 178.104 53.4948Z" fill="#EA7147"/>
<path d="M179.708 43.5445C179.611 44.9223 179.014 46.2163 178.029 47.1806C177.044 48.1449 175.74 48.712 174.366 48.7744C173.717 48.8068 173.068 48.7104 172.456 48.4907C171.844 48.2709 171.281 47.9321 170.8 47.4936C170.318 47.0551 169.928 46.5257 169.651 45.9354C169.373 45.3452 169.215 44.7059 169.184 44.0541C169.13 42.7289 169.585 41.4336 170.455 40.4355C171.325 39.4374 172.543 38.8126 173.858 38.69C175.249 38.6689 176.602 39.1458 177.674 40.0354C178.746 40.9251 179.467 42.1692 179.708 43.5445V43.5445Z" fill="#C94B20"/>
<path d="M170.412 43.4907C170.625 42.9007 171.079 42.4985 171.427 42.6326C171.774 42.7667 171.907 43.3567 171.694 43.9467C171.48 44.5368 171.026 44.9123 170.679 44.805C170.331 44.6977 170.198 44.0808 170.412 43.4907Z" fill="#EA7147"/>
<path d="M169.184 37.9658C169.592 39.1055 169.565 40.3572 169.105 41.4775C168.646 42.5977 167.789 43.5065 166.699 44.0272C165.683 44.5413 164.504 44.6295 163.423 44.2725C162.341 43.9156 161.445 43.1426 160.93 42.123C160.403 41.0838 160.298 39.88 160.637 38.7647C160.975 37.6493 161.731 36.7092 162.746 36.1421C163.856 35.605 165.123 35.494 166.309 35.8299C167.495 36.1658 168.517 36.9255 169.184 37.9658V37.9658Z" fill="#C94B20"/>
<path d="M161.627 40.7552C161.627 40.1919 161.947 39.7628 162.268 39.7628C162.588 39.7628 162.829 40.2456 162.829 40.782C162.829 41.3184 162.508 41.7743 162.188 41.7743C161.867 41.7743 161.6 41.2916 161.627 40.7552Z" fill="#EA7147"/>
<path d="M151.902 46.1996C151.379 45.0172 151.298 43.6846 151.676 42.4474C152.054 41.2103 152.865 40.152 153.959 39.4677C154.472 39.1429 155.044 38.9234 155.642 38.8217C156.24 38.72 156.853 38.7382 157.444 38.8754C158.035 39.0125 158.593 39.2659 159.086 39.6207C159.579 39.9756 159.997 40.4249 160.316 40.9429C160.982 42.0017 161.212 43.2789 160.958 44.505C160.704 45.731 159.985 46.8098 158.954 47.5138C157.826 48.2122 156.479 48.4644 155.176 48.2216C153.872 47.9787 152.706 47.258 151.902 46.1996Z" fill="#C94B20"/>
<path d="M159.62 42.7398C159.62 43.3298 159.273 43.8126 158.925 43.7858C158.578 43.759 158.311 43.2762 158.338 42.6862C158.364 42.0961 158.685 41.6134 159.032 41.6402C159.38 41.667 159.647 42.1497 159.62 42.7398Z" fill="#EA7147"/>
<path d="M175.141 64.7057C174.783 63.4648 174.883 62.1359 175.423 60.9632C175.962 59.7905 176.906 58.8528 178.079 58.3224C179.195 57.8242 180.462 57.79 181.603 58.2273C182.745 58.6645 183.667 59.5377 184.169 60.6559C184.688 61.7897 184.746 63.0818 184.332 64.2583C183.918 65.4348 183.065 66.4033 181.952 66.9586C180.74 67.4983 179.373 67.5666 178.114 67.1503C176.855 66.7339 175.795 65.8626 175.141 64.7057Z" fill="#C94B20"/>
<path d="M177.598 64.2228C177.598 64.8129 177.384 65.3225 177.037 65.3493C176.69 65.3761 176.369 64.9202 176.316 64.3301C176.263 63.7401 176.503 63.2305 176.85 63.2036C177.197 63.1768 177.545 63.6328 177.598 64.2228Z" fill="#EA7147"/>
<path d="M162.16 72.3763C161.686 71.1221 161.697 69.7351 162.192 68.489C162.686 67.2429 163.628 66.228 164.831 65.6444C165.381 65.3552 165.983 65.1777 166.602 65.1223C167.221 65.0669 167.845 65.1344 168.438 65.3213C169.031 65.5081 169.581 65.8105 170.058 66.2111C170.534 66.6117 170.927 67.1027 171.215 67.6559C171.808 68.793 171.942 70.1161 171.589 71.35C171.236 72.5839 170.423 73.6335 169.318 74.2805C168.098 74.8905 166.699 75.0336 165.381 74.6831C164.064 74.3327 162.919 73.5127 162.16 72.3763V72.3763Z" fill="#C94B20"/>
<path d="M164.617 70.3111C164.617 70.928 164.19 71.3839 163.842 71.3303C163.495 71.2766 163.255 70.767 163.308 70.1502C163.362 69.5333 163.762 69.1042 164.11 69.1578C164.457 69.2115 164.697 69.721 164.617 70.3111Z" fill="#EA7147"/>
</svg>
