<svg width="423" height="339" viewBox="0 0 423 339" fill="none" xmlns="http://www.w3.org/2000/svg">
<path d="M295.276 109.187C291.306 111.26 289.085 113.796 287.067 116.103C286.637 116.593 286.233 117.056 285.814 117.511C282.832 120.759 275.574 124.791 275.502 124.831L275.913 125.529C276.215 125.361 283.437 121.349 286.559 117.949C286.987 117.482 287.397 117.015 287.829 116.52C290.525 113.442 293.311 110.258 299.969 108.126C302.837 107.206 304.962 107.097 307.015 106.99C310.632 106.803 314.048 106.627 320.749 102.39C314.346 106.438 310.761 106.327 307.319 106.505C305.185 106.615 302.831 106.351 299.801 107.322C298.241 107.814 296.727 108.438 295.276 109.187Z" fill="#FAB685"/>
<path d="M260.495 127.603C256.69 129.873 252.044 135.615 253.795 138.237C255.547 140.859 263.027 139.367 266.826 137.104C270.624 134.84 271.274 131.48 269.528 128.865C267.782 126.249 264.301 125.334 260.495 127.603Z" fill="#FAB685"/>
<path d="M278.036 125.304L276.747 122.902L265.947 129.345L267.46 131.613L278.036 125.304Z" fill="#FAB685"/>
<path d="M199.551 111.553C151.258 81.0962 87.0123 94.9774 56.0544 142.557C25.0964 190.137 39.1493 253.397 87.4424 283.854C135.735 314.31 199.981 300.429 230.939 252.849C261.897 205.27 247.844 142.009 199.551 111.553Z" fill="#FF905F"/>
<path d="M236.266 177.658C225.059 127.209 174.441 95.2865 123.207 106.356C71.9735 117.426 39.5251 167.296 50.7318 217.745C61.9386 268.193 112.557 300.116 163.791 289.046C215.024 277.976 247.473 228.106 236.266 177.658Z" fill="#FFC6B0"/>
<path d="M191.391 124.096C150.128 98.0742 95.2364 109.934 68.7856 150.587C42.3348 191.239 54.3418 245.29 95.6039 271.312C136.866 297.335 191.758 285.474 218.209 244.822C244.66 204.169 232.653 150.119 191.391 124.096Z" fill="#F78248"/>
<path d="M128.803 253.274C114.07 259.112 99.3844 252.261 92.01 238.421C81.9467 219.526 95.0379 204.394 109.769 198.56C124.5 192.725 143.458 199.134 147.716 217.01C151.341 232.238 143.532 247.449 128.803 253.274Z" fill="#EA7147"/>
<path d="M113.799 241.925C108.613 243.979 103.443 241.566 100.85 236.7C97.3067 230.051 101.914 224.724 107.1 222.67C112.286 220.615 118.958 222.873 120.458 229.165C121.734 234.521 118.984 239.87 113.799 241.925Z" fill="#FFA076"/>
<path d="M164.36 205.511C160.291 205.835 157.3 204.059 156.667 201.443C155.812 197.871 160.263 195.931 164.332 195.607C168.402 195.282 172.467 197.172 171.999 200.321C171.606 203.002 168.429 205.184 164.36 205.511Z" fill="#FFA076"/>
<path d="M155.82 186.033C151.072 188.343 146.572 187.555 144.505 184.621C141.686 180.617 146.09 176.138 150.839 173.828C155.588 171.518 161.441 171.943 162.451 176.048C163.311 179.544 160.569 183.724 155.82 186.033Z" fill="#FFA076"/>
<path d="M118.208 169.464C119.71 164.46 123.354 161.743 126.945 162.239C131.847 162.914 132.193 169.128 130.691 174.132C129.189 179.136 124.898 183.078 121.149 181.025C117.96 179.283 116.704 174.464 118.208 169.464Z" fill="#FFA076"/>
<path d="M141.312 149.441C142.814 144.437 146.456 141.72 150.047 142.206C154.949 142.882 155.298 149.107 153.793 154.099C152.288 159.09 147.998 163.046 144.251 160.992C141.062 159.26 139.809 154.442 141.312 149.441Z" fill="#FFA076"/>
<path d="M62.2895 264.42C58.9322 265.75 55.366 264.04 53.7684 260.842C51.9346 257.171 54.0507 253.779 57.4075 252.448C60.7644 251.116 64.3173 252.838 65.9286 256.026C67.5399 259.215 65.649 263.091 62.2895 264.42Z" fill="#F78248"/>
<path d="M61.1897 261.724C59.3447 262.455 57.5079 261.45 56.5075 259.759C55.5072 258.067 56.6614 255.877 58.5064 255.146C60.3514 254.415 62.2389 255.394 63.1886 257.112C64.1382 258.83 63.0348 260.993 61.1897 261.724Z" fill="#EA7147"/>
<path d="M88.7921 286.077C86.635 286.931 84.3425 285.831 83.316 283.777C82.1378 281.418 83.4977 279.236 85.6548 278.382C87.812 277.529 90.0942 278.633 91.1309 280.682C92.1677 282.731 90.9466 285.221 88.7921 286.077Z" fill="#F78248"/>
<path d="M88.0802 284.342C86.8965 284.821 85.7165 284.164 85.0701 283.078C84.4238 281.992 85.1699 280.583 86.3554 280.113C87.541 279.643 88.7516 280.264 89.3655 281.377C89.9794 282.49 89.2662 283.874 88.0802 284.342Z" fill="#EA7147"/>
<path d="M106.947 295.832C104.049 296.98 100.974 295.505 99.5954 292.741C98.0136 289.573 99.8265 286.65 102.739 285.499C105.652 284.348 108.698 285.834 110.091 288.59C111.484 291.347 109.842 294.685 106.947 295.832Z" fill="#F78248"/>
<path d="M106 293.509C104.409 294.14 102.826 293.272 101.962 291.814C101.097 290.356 102.094 288.467 103.685 287.836C105.276 287.205 106.901 288.05 107.723 289.531C108.545 291.011 107.591 292.88 106 293.509Z" fill="#EA7147"/>
<path d="M41.6989 222.602C38.3394 223.931 34.7727 222.219 33.1756 219.024C31.3414 215.351 33.4574 211.959 36.8147 210.629C40.1721 209.3 43.7241 211.017 45.3359 214.208C46.9476 217.398 45.0562 221.272 41.6989 222.602Z" fill="#F78248"/>
<path d="M40.5998 219.906C38.7547 220.637 36.9175 219.63 35.9176 217.94C34.9177 216.251 36.0736 214.058 37.9186 213.327C39.7636 212.597 41.649 213.575 42.6008 215.293C43.5526 217.01 42.4426 219.176 40.5998 219.906Z" fill="#EA7147"/>
<path d="M46.6213 237.941C43.8421 239.04 40.8921 237.618 39.5705 234.98C38.0535 231.941 39.8043 229.136 42.5809 228.034C45.3575 226.933 48.3101 228.356 49.6317 230.995C50.9533 233.633 49.4 236.839 46.6213 237.941Z" fill="#F78248"/>
<path d="M45.7111 235.706C44.1846 236.312 42.6673 235.472 41.84 234.091C41.0127 232.71 41.9662 230.879 43.4926 230.273C45.0191 229.667 46.5796 230.478 47.3687 231.9C48.1577 233.323 47.238 235.102 45.7111 235.706Z" fill="#EA7147"/>
<path d="M162.365 301.569C159.585 302.669 156.635 301.247 155.314 298.609C153.797 295.57 155.545 292.765 158.324 291.663C161.103 290.562 164.053 291.985 165.375 294.624C166.697 297.262 165.142 300.461 162.365 301.569Z" fill="#F78248"/>
<path d="M161.455 299.339C159.928 299.945 158.409 299.106 157.581 297.713C156.754 296.321 157.707 294.502 159.223 293.898C160.739 293.294 162.31 294.102 163.099 295.525C163.888 296.948 162.981 298.735 161.455 299.339Z" fill="#EA7147"/>
<path d="M43.1045 197.306C40.3279 198.407 37.3753 196.984 36.0563 194.347C34.5398 191.31 36.288 188.503 39.065 187.404C41.842 186.305 44.7813 187.729 46.1137 190.365C47.446 193 45.8815 196.206 43.1045 197.306Z" fill="#F78248"/>
<path d="M42.1935 195.078C40.6665 195.682 39.1498 194.844 38.3224 193.463C37.4951 192.082 38.4512 190.253 39.9755 189.647C41.4998 189.041 43.0625 189.851 43.8465 191.262C44.6306 192.673 43.7182 194.474 42.1935 195.078Z" fill="#EA7147"/>
<path d="M47.9233 163.959C44.5665 165.29 40.9997 163.578 39.4027 160.382C37.5684 156.71 39.6823 153.318 43.0418 151.988C46.4012 150.658 49.9511 152.376 51.5624 155.565C53.1736 158.753 51.2806 162.63 47.9233 163.959Z" fill="#F78248"/>
<path d="M46.8235 161.265C44.9785 161.996 43.1412 160.989 42.1409 159.298C41.1405 157.606 42.2947 155.416 44.1397 154.685C45.9848 153.954 47.8701 154.933 48.8224 156.653C49.7747 158.372 48.6681 160.532 46.8235 161.265Z" fill="#EA7147"/>
<path d="M56.9104 153.449C54.3103 154.479 51.5467 153.153 50.3088 150.677C48.8894 147.833 50.5277 145.203 53.1278 144.174C55.7279 143.144 58.4811 144.474 59.7294 146.946C60.9777 149.417 59.5127 152.419 56.9104 153.449Z" fill="#F78248"/>
<path d="M56.059 151.36C54.6298 151.925 53.2095 151.144 52.4303 149.837C51.6512 148.53 52.5498 146.83 53.9807 146.262C55.4116 145.694 56.8701 146.453 57.618 147.783C58.3659 149.112 57.4897 150.801 56.059 151.36Z" fill="#EA7147"/>
<path d="M69.7013 273.957C66.2319 274.965 62.53 273.684 61.1802 270.379C60.5328 268.791 60.5525 267.015 61.235 265.44C61.9175 263.866 63.2068 262.623 64.8193 261.985C68.1766 260.655 72.1905 262.159 73.3404 265.563C74.4903 268.967 72.4668 273.152 69.7013 273.957Z" fill="#EA7147"/>
<path d="M68.7502 271.621C66.9676 272.897 64.3744 271.452 63.5538 269.438C63.1586 268.47 63.1703 267.387 63.5862 266.427C64.0021 265.467 64.7881 264.708 65.7714 264.319C66.7547 263.929 67.8547 263.94 68.8294 264.349C69.8041 264.758 70.5736 265.531 70.9687 266.499C71.7908 268.519 70.3495 270.466 68.7502 271.621Z" fill="#F78248"/>
<path d="M52.3717 243.359C49.9844 244.053 47.4375 243.173 46.5116 240.9C46.2907 240.359 46.1801 239.781 46.1863 239.198C46.1925 238.615 46.3153 238.039 46.5476 237.503C46.7799 236.967 47.1172 236.481 47.5403 236.073C47.9633 235.666 48.4638 235.344 49.013 235.127C51.3217 234.211 54.0838 235.246 54.8732 237.587C55.6625 239.927 54.266 242.81 52.3717 243.359Z" fill="#EA7147"/>
<path d="M51.7106 241.757C50.4858 242.642 48.7024 241.643 48.1365 240.257C48.002 239.927 47.9348 239.574 47.9387 239.219C47.9427 238.863 48.0176 238.512 48.1593 238.185C48.3011 237.858 48.5068 237.562 48.7647 237.313C49.0227 237.065 49.3278 236.868 49.6627 236.736C49.9976 236.603 50.3557 236.537 50.7165 236.54C51.0774 236.544 51.4339 236.618 51.7658 236.757C52.0977 236.896 52.3984 237.099 52.6508 237.353C52.9032 237.606 53.1023 237.907 53.2368 238.236C53.804 239.618 52.8104 240.963 51.7106 241.757Z" fill="#F78248"/>
<path d="M42.3125 187.306C39.2717 188.186 36.0315 187.067 34.8522 184.173C34.2884 182.782 34.3078 181.227 34.9062 179.849C35.5045 178.472 36.633 177.383 38.0443 176.823C40.9836 175.66 44.4962 176.975 45.5045 179.955C46.5127 182.935 44.7424 186.6 42.3125 187.306Z" fill="#EA7147"/>
<path d="M41.4781 185.262C39.9177 186.388 37.6486 185.117 36.9273 183.348C36.5818 182.5 36.5924 181.552 36.9568 180.712C37.3212 179.871 38.0096 179.208 38.8705 178.867C39.7314 178.526 40.6943 178.536 41.5474 178.894C42.4005 179.252 43.0739 179.93 43.4194 180.778C44.1407 182.547 42.8783 184.25 41.4781 185.262Z" fill="#F78248"/>
<path d="M130.457 303.629C127.646 304.444 124.648 303.407 123.556 300.73C123.296 300.093 123.166 299.412 123.173 298.726C123.18 298.039 123.325 297.361 123.599 296.729C123.873 296.098 124.27 295.525 124.768 295.045C125.267 294.564 125.856 294.185 126.503 293.929C129.222 292.852 132.473 294.07 133.405 296.828C134.337 299.586 132.698 302.978 130.457 303.629Z" fill="#EA7147"/>
<path d="M129.686 301.738C128.244 302.778 126.145 301.612 125.478 299.973C125.31 299.583 125.223 299.164 125.221 298.74C125.22 298.317 125.304 297.897 125.469 297.505C125.634 297.114 125.877 296.759 126.183 296.461C126.489 296.163 126.852 295.928 127.252 295.77C127.651 295.612 128.078 295.534 128.508 295.54C128.938 295.546 129.363 295.637 129.757 295.807C130.151 295.977 130.507 296.223 130.803 296.53C131.099 296.837 131.331 297.199 131.483 297.595C132.149 299.225 130.987 300.8 129.686 301.738Z" fill="#F78248"/>
<path d="M80.6254 283.421C77.0083 285.648 73.4524 283.15 72.1048 279.844C70.7572 276.539 72.5173 273.174 75.7417 271.45C78.9231 269.747 82.5792 271.841 84.0787 275.514C85.4263 278.82 83.6933 281.532 80.6254 283.421Z" fill="#FFC6B0"/>
<path d="M79.4009 280.424C77.7241 281.087 76.2115 280.074 75.1564 278.635C74.0664 277.162 74.6003 275.388 76.9728 274.454C78.6495 273.791 80.4381 274.314 81.2168 276.241C81.5374 277.032 81.5263 277.917 81.186 278.701C80.8456 279.485 80.2037 280.104 79.4009 280.424Z" fill="#F78248"/>
<path d="M96.891 294.798C93.276 297.025 89.7175 294.525 88.3699 291.219C87.0223 287.914 88.7846 284.549 92.009 282.825C95.1887 281.124 98.8469 283.217 100.344 286.892C101.701 290.195 99.9606 292.907 96.891 294.798Z" fill="#FFC6B0"/>
<path d="M95.6668 291.798C94.003 292.459 92.4779 291.451 91.4227 290.012C90.3327 288.539 90.8645 286.766 93.2391 285.831C94.9029 285.171 96.7039 285.689 97.4831 287.618C97.8037 288.409 97.7925 289.293 97.452 290.077C97.1115 290.861 96.4695 291.48 95.6668 291.798Z" fill="#F78248"/>
<path d="M42.1388 209.981C38.5217 212.209 34.9653 209.708 33.6156 206.403C32.2658 203.098 34.0303 199.732 37.2546 198.008C40.4365 196.307 44.0921 198.399 45.5895 202.073C46.9397 205.38 45.2149 208.088 42.1388 209.981Z" fill="#FFC6B0"/>
<path d="M40.9116 206.97C39.237 207.633 37.7244 206.621 36.6676 205.184C35.5771 203.708 36.111 201.935 38.484 201.003C40.1602 200.338 41.9488 200.861 42.728 202.79C43.0491 203.581 43.0382 204.466 42.6977 205.249C42.3572 206.033 41.7148 206.652 40.9116 206.97Z" fill="#F78248"/>
<path d="M47.0149 229.841C44.0049 231.694 41.0446 229.615 39.9217 226.863C38.7988 224.11 40.2723 221.31 42.95 219.875C45.5976 218.459 48.6425 220.205 49.8888 223.259C51.0074 226.012 49.5705 228.275 47.0149 229.841Z" fill="#FFC6B0"/>
<path d="M45.9967 227.347C44.6028 227.897 43.3431 227.055 42.4576 225.86C41.5511 224.632 41.995 223.157 43.9688 222.374C45.3627 221.823 46.8531 222.257 47.508 223.86C47.7763 224.52 47.7678 225.257 47.4845 225.911C47.2012 226.564 46.6661 227.081 45.9967 227.347Z" fill="#F78248"/>
<path d="M53.975 255.85C50.3579 258.078 46.8015 255.578 45.4539 252.272C44.1063 248.966 45.8686 245.602 49.0908 243.878C52.2727 242.177 55.9283 244.268 57.4283 247.944C58.7755 251.248 57.0424 253.96 53.975 255.85Z" fill="#FFC6B0"/>
<path d="M52.7527 252.847C51.076 253.51 49.5634 252.498 48.5087 251.061C47.4186 249.587 47.9499 247.812 50.3251 246.88C51.9884 246.218 53.7899 246.738 54.5691 248.666C54.8896 249.458 54.8784 250.342 54.5379 251.126C54.1975 251.91 53.5555 252.529 52.7527 252.847Z" fill="#F78248"/>
<path d="M223.145 129.873C226.502 128.543 230.069 130.255 231.666 133.451C233.5 137.124 231.387 140.516 228.027 141.846C224.668 143.175 221.118 141.458 219.506 138.267C217.894 135.076 219.782 131.206 223.145 129.873Z" fill="#F78248"/>
<path d="M224.237 132.573C226.082 131.842 227.919 132.849 228.919 134.539C229.919 136.228 228.765 138.42 226.92 139.151C225.075 139.882 223.19 138.905 222.238 137.186C221.286 135.466 222.392 133.304 224.237 132.573Z" fill="#EA7147"/>
<path d="M243.731 171.693C247.088 170.361 250.654 172.073 252.251 175.269C254.086 178.942 251.97 182.334 248.613 183.665C245.256 184.997 241.703 183.275 240.092 180.087C238.48 176.898 240.371 173.022 243.731 171.693Z" fill="#F78248"/>
<path d="M244.833 174.391C246.678 173.661 248.515 174.668 249.515 176.359C250.516 178.051 249.361 180.241 247.516 180.972C245.671 181.702 243.784 180.724 242.834 179.006C241.884 177.288 242.987 175.122 244.833 174.391Z" fill="#EA7147"/>
<path d="M238.806 156.358C241.585 155.256 244.536 156.68 245.857 159.318C247.376 162.355 245.626 165.162 242.847 166.264C240.068 167.366 237.128 165.94 235.796 163.304C234.464 160.668 236.028 157.46 238.806 156.358Z" fill="#F78248"/>
<path d="M239.707 158.589C241.234 157.985 242.753 158.822 243.581 160.216C244.409 161.611 243.455 163.428 241.938 164.03C240.422 164.631 238.851 163.825 238.067 162.415C237.283 161.004 238.189 159.193 239.707 158.589Z" fill="#EA7147"/>
<path d="M242.325 196.987C245.104 195.887 248.054 197.309 249.374 199.948C250.89 202.985 249.142 205.792 246.364 206.889C243.587 207.986 240.648 206.564 239.316 203.93C237.984 201.296 239.548 198.088 242.325 196.987Z" fill="#F78248"/>
<path d="M243.234 199.218C244.761 198.614 246.278 199.451 247.108 200.845C247.938 202.239 246.979 204.055 245.465 204.656C243.951 205.258 242.378 204.452 241.594 203.042C240.81 201.631 241.71 199.823 243.234 199.218Z" fill="#EA7147"/>
<path d="M215.727 120.341C219.198 119.333 222.9 120.612 224.248 123.92C224.895 125.508 224.875 127.284 224.192 128.858C223.51 130.432 222.221 131.675 220.609 132.314C217.252 133.644 213.238 132.14 212.088 128.736C210.938 125.332 212.961 121.144 215.727 120.341Z" fill="#EA7147"/>
<path d="M216.679 122.676C218.46 121.4 221.053 122.845 221.874 124.858C222.069 125.337 222.167 125.85 222.162 126.367C222.156 126.883 222.047 127.394 221.841 127.869C221.635 128.344 221.337 128.775 220.962 129.137C220.587 129.498 220.144 129.784 219.657 129.977C219.17 130.17 218.65 130.267 218.125 130.261C217.6 130.256 217.082 130.149 216.6 129.947C216.117 129.745 215.68 129.451 215.313 129.082C214.946 128.713 214.656 128.276 214.461 127.797C213.635 125.78 215.078 123.833 216.679 122.676Z" fill="#F78248"/>
<path d="M233.061 150.933C235.449 150.241 237.996 151.122 238.922 153.395C239.143 153.936 239.253 154.514 239.247 155.097C239.24 155.679 239.117 156.255 238.885 156.791C238.653 157.327 238.316 157.813 237.893 158.221C237.47 158.629 236.97 158.951 236.421 159.168C234.111 160.082 231.35 159.049 230.56 156.706C229.77 154.363 231.161 151.487 233.061 150.933Z" fill="#EA7147"/>
<path d="M233.719 152.542C234.944 151.658 236.727 152.657 237.293 154.043C237.565 154.709 237.556 155.454 237.27 156.114C236.984 156.775 236.443 157.296 235.767 157.564C235.09 157.832 234.334 157.824 233.664 157.543C232.993 157.261 232.464 156.729 232.193 156.063C231.629 154.676 232.619 153.337 233.719 152.542Z" fill="#F78248"/>
<path d="M243.116 206.988C246.156 206.108 249.396 207.227 250.576 210.121C250.857 210.809 250.998 211.545 250.99 212.287C250.982 213.028 250.826 213.761 250.53 214.444C250.235 215.126 249.805 215.745 249.267 216.264C248.728 216.783 248.091 217.193 247.392 217.469C244.451 218.635 240.938 217.317 239.932 214.337C238.926 211.357 240.696 207.691 243.116 206.988Z" fill="#EA7147"/>
<path d="M243.95 209.036C245.511 207.91 247.78 209.18 248.501 210.95C248.672 211.37 248.758 211.818 248.753 212.271C248.748 212.723 248.653 213.17 248.473 213.586C248.292 214.003 248.031 214.38 247.702 214.696C247.374 215.013 246.986 215.263 246.559 215.432C246.133 215.601 245.677 215.686 245.218 215.681C244.759 215.676 244.305 215.583 243.882 215.405C243.46 215.228 243.077 214.971 242.756 214.648C242.434 214.324 242.181 213.942 242.01 213.522C241.288 211.753 242.55 210.047 243.95 209.036Z" fill="#F78248"/>
<path d="M204.805 110.875C208.42 108.648 211.976 111.149 213.326 114.454C214.676 117.759 212.912 121.124 209.687 122.848C206.507 124.549 202.849 122.456 201.352 118.782C200.002 115.476 201.736 112.766 204.805 110.875Z" fill="#FFC6B0"/>
<path d="M206.029 113.874C207.693 113.214 209.216 114.222 210.273 115.66C211.363 117.134 210.829 118.907 208.457 119.841C206.793 120.501 204.992 119.984 204.213 118.055C203.891 117.264 203.901 116.379 204.242 115.595C204.583 114.811 205.225 114.192 206.029 113.874Z" fill="#F78248"/>
<path d="M243.291 184.321C246.906 182.093 250.464 184.591 251.813 187.899C253.161 191.207 251.397 194.567 248.173 196.293C244.994 197.994 241.336 195.901 239.838 192.227C238.488 188.922 240.222 186.212 243.291 184.321Z" fill="#FFC6B0"/>
<path d="M244.506 187.323C246.17 186.661 247.695 187.671 248.75 189.11C249.84 190.583 249.306 192.357 246.934 193.29C245.27 193.951 243.469 193.431 242.69 191.504C242.369 190.713 242.38 189.828 242.72 189.044C243.061 188.26 243.703 187.642 244.506 187.323Z" fill="#F78248"/>
<path d="M238.413 164.455C241.423 162.601 244.383 164.683 245.506 167.435C246.629 170.188 245.155 172.986 242.478 174.423C239.83 175.837 236.786 174.093 235.539 171.037C234.415 168.283 235.859 166.03 238.413 164.455Z" fill="#FFC6B0"/>
<path d="M239.431 166.956C240.827 166.402 242.087 167.244 242.97 168.44C243.876 169.668 243.435 171.145 241.459 171.926C240.065 172.479 238.574 172.043 237.919 170.44C237.651 169.781 237.66 169.044 237.943 168.39C238.227 167.737 238.762 167.221 239.431 166.956Z" fill="#F78248"/>
<path d="M231.453 138.45C235.07 136.222 238.626 138.721 239.976 142.028C241.326 145.335 239.561 148.696 236.337 150.422C233.155 152.123 229.499 150.03 228 146.356C226.652 143.05 228.385 140.338 231.453 138.45Z" fill="#FFC6B0"/>
<path d="M232.677 141.448C234.341 140.786 235.864 141.796 236.921 143.234C238.011 144.708 237.478 146.482 235.105 147.415C233.428 148.078 231.64 147.556 230.861 145.629C230.539 144.838 230.55 143.953 230.89 143.169C231.231 142.385 231.874 141.766 232.677 141.448Z" fill="#F78248"/>
<path d="M112.365 96.8789C112.504 93.3189 115.543 90.8105 119.164 90.6767C123.319 90.5232 125.598 93.8079 125.457 97.3705C125.316 100.933 122.276 103.422 118.659 103.573C115.042 103.724 112.224 100.441 112.365 96.8789Z" fill="#F78248"/>
<path d="M115.313 96.9885C115.389 95.031 117.074 93.7933 119.05 93.5803C121.026 93.3674 122.585 95.3014 122.508 97.2568C122.431 99.2122 120.752 100.511 118.77 100.665C116.788 100.819 115.235 98.9439 115.313 96.9885Z" fill="#EA7147"/>
<path d="M159.548 95.4099C159.689 91.8473 162.726 89.3394 166.349 89.2072C170.502 89.0543 172.782 92.3389 172.642 95.8989C172.503 99.4589 169.461 101.952 165.842 102.102C162.222 102.251 159.409 98.9699 159.548 95.4099Z" fill="#F78248"/>
<path d="M162.498 95.52C162.574 93.5625 164.257 92.3254 166.233 92.1124C168.243 91.9009 169.768 93.8334 169.691 95.7909C169.614 97.7484 167.938 99.0423 165.956 99.1986C163.974 99.3549 162.421 97.4776 162.498 95.52Z" fill="#EA7147"/>
<path d="M143.318 93.5849C143.433 90.6385 145.952 88.5589 148.945 88.4537C152.381 88.3263 154.273 91.0442 154.151 93.9919C154.03 96.9397 151.516 99.0004 148.525 99.1231C145.533 99.2458 143.201 96.5317 143.318 93.5849Z" fill="#F78248"/>
<path d="M145.758 93.6794C145.822 92.0591 147.208 91.0374 148.85 90.8588C150.492 90.6801 151.776 92.2835 151.712 93.9017C151.648 95.52 150.26 96.5933 148.621 96.7224C146.981 96.8515 145.695 95.2977 145.758 93.6794Z" fill="#EA7147"/>
<path d="M182.421 106.984C182.537 104.039 185.053 101.958 188.044 101.855C191.481 101.728 193.372 104.444 193.25 107.389C193.128 110.335 190.617 112.397 187.625 112.52C184.633 112.643 182.304 109.93 182.421 106.984Z" fill="#F78248"/>
<path d="M184.861 107.077C184.925 105.459 186.312 104.437 187.951 104.259C189.591 104.081 190.874 105.682 190.811 107.3C190.747 108.919 189.371 109.989 187.721 110.119C186.07 110.248 184.797 108.695 184.861 107.077Z" fill="#EA7147"/>
<path d="M100.496 99.6531C100.981 96.1209 103.68 93.316 107.295 93.4509C108.155 93.4828 109 93.6813 109.782 94.0351C110.563 94.3888 111.267 94.8908 111.851 95.5125C112.436 96.1341 112.89 96.8632 113.188 97.658C113.486 98.4528 113.622 99.2978 113.589 100.145C113.449 103.705 110.415 106.7 106.79 106.347C103.165 105.994 100.11 102.467 100.496 99.6531Z" fill="#EA7147"/>
<path d="M103.051 99.7512C102.578 97.6248 104.994 95.8862 107.187 95.9604C107.712 95.9801 108.227 96.1013 108.704 96.3172C109.181 96.533 109.609 96.8393 109.966 97.2185C110.322 97.5976 110.6 98.0423 110.781 98.527C110.963 99.0117 111.046 99.5271 111.026 100.044C111.006 100.56 110.882 101.068 110.663 101.537C110.443 102.007 110.132 102.43 109.747 102.781C109.362 103.132 108.91 103.405 108.418 103.585C107.925 103.764 107.402 103.847 106.878 103.827C104.684 103.751 103.468 101.66 103.051 99.7512Z" fill="#F78248"/>
<path d="M135.943 96.5383C136.277 94.1106 138.143 92.1788 140.619 92.2743C141.211 92.2963 141.792 92.4328 142.329 92.676C142.867 92.9192 143.35 93.2644 143.752 93.6918C144.154 94.1192 144.467 94.6204 144.672 95.1669C144.877 95.7134 144.971 96.2944 144.948 96.8768C144.851 99.3245 142.766 101.386 140.272 101.143C137.778 100.899 135.678 98.4741 135.943 96.5383Z" fill="#EA7147"/>
<path d="M137.7 96.6048C137.376 95.1461 139.036 93.9474 140.554 94.005C141.276 94.0399 141.955 94.3542 142.444 94.8795C142.932 95.4049 143.191 96.0989 143.163 96.8109C143.135 97.523 142.822 98.1955 142.294 98.6827C141.766 99.1698 141.064 99.4321 140.34 99.4127C138.823 99.3551 137.987 97.9177 137.7 96.6048Z" fill="#F78248"/>
<path d="M192.014 110.351C192.438 107.26 194.803 104.802 197.968 104.922C198.721 104.95 199.46 105.124 200.144 105.434C200.829 105.744 201.444 106.183 201.955 106.727C202.467 107.271 202.865 107.909 203.126 108.605C203.387 109.3 203.506 110.04 203.477 110.781C203.355 113.898 200.699 116.52 197.525 116.21C194.351 115.899 191.676 112.813 192.014 110.351Z" fill="#EA7147"/>
<path d="M194.251 110.433C193.839 108.577 195.953 107.051 197.881 107.122C198.808 107.158 199.683 107.555 200.312 108.227C200.941 108.898 201.274 109.788 201.237 110.701C201.2 111.614 200.796 112.476 200.114 113.096C199.432 113.716 198.528 114.045 197.6 114.009C195.681 113.935 194.616 112.106 194.251 110.433Z" fill="#F78248"/>
<path d="M87.2566 105.617C86.6716 101.456 90.4423 99.2777 94.0575 99.4147C97.6726 99.5517 100.071 102.505 100.351 106.106C100.629 109.661 97.1933 112.095 93.1747 111.944C89.5595 111.807 87.7554 109.146 87.2566 105.617Z" fill="#FFC6B0"/>
<path d="M90.5362 105.74C90.5949 103.967 92.1623 103.015 93.9225 102.646C95.7349 102.268 97.1608 103.471 97.0596 105.979C97.0008 107.753 95.7755 109.154 93.6728 109.071C92.8084 109.038 91.9928 108.669 91.4048 108.045C90.8168 107.42 90.5044 106.591 90.5362 105.74Z" fill="#F78248"/>
<path d="M171.071 100.953C170.484 96.7943 174.255 94.6158 177.871 94.7502C181.488 94.8846 183.883 97.8414 184.165 101.444C184.443 104.996 181.007 107.43 176.989 107.28C173.372 107.146 171.563 104.483 171.071 100.953Z" fill="#FFC6B0"/>
<path d="M174.353 101.074C174.412 99.3009 175.98 98.3495 177.74 97.9824C179.552 97.6021 180.978 98.8049 180.877 101.316C180.819 103.091 179.593 104.49 177.491 104.41C176.626 104.376 175.81 104.007 175.221 103.381C174.633 102.756 174.321 101.926 174.353 101.074Z" fill="#F78248"/>
<path d="M150.664 97.2397C150.176 93.7796 153.315 91.9649 156.325 92.0767C159.335 92.1886 161.33 94.65 161.564 97.648C161.793 100.607 158.934 102.633 155.588 102.505C152.579 102.397 151.077 100.177 150.664 97.2397Z" fill="#FFC6B0"/>
<path d="M153.394 97.3414C153.452 95.8624 154.748 95.0743 156.217 94.766C157.728 94.4394 158.913 95.4515 158.83 97.5441C158.771 99.023 157.76 100.184 156.007 100.119C155.287 100.091 154.608 99.7829 154.118 99.2622C153.628 98.7415 153.368 98.0509 153.394 97.3414Z" fill="#F78248"/>
<path d="M123.713 92.8958C123.126 88.7372 126.897 86.5587 130.513 86.6931C134.13 86.8275 136.526 89.7864 136.807 93.3869C137.083 96.9397 133.65 99.3751 129.631 99.2229C126.009 99.0894 124.211 96.4249 123.713 92.8958Z" fill="#FFC6B0"/>
<path d="M126.993 93.0192C127.051 91.2439 128.619 90.2945 130.379 89.9253C132.192 89.5471 133.619 90.7473 133.519 93.2583C133.46 95.0314 132.235 96.4327 130.132 96.35C129.267 96.3176 128.451 95.9487 127.863 95.3243C127.274 94.6998 126.961 93.8708 126.993 93.0192Z" fill="#F78248"/>
<path d="M238.276 243.066C240.866 245.555 240.711 249.462 238.384 252.193C235.713 255.328 231.72 254.792 229.13 252.303C226.54 249.814 226.707 245.918 229.02 243.179C231.333 240.439 235.687 240.579 238.276 243.066Z" fill="#F78248"/>
<path d="M236.213 245.147C237.635 246.515 237.438 248.575 236.274 250.161C235.11 251.747 232.604 251.591 231.183 250.225C229.761 248.858 229.909 246.763 231.121 245.211C232.334 243.658 234.791 243.78 236.213 245.147Z" fill="#EA7147"/>
<path d="M207.72 278.524C210.309 281.011 210.156 284.917 207.83 287.648C205.158 290.786 201.166 290.249 198.576 287.76C195.987 285.271 196.153 281.376 198.466 278.636C200.78 275.897 205.131 276.035 207.72 278.524Z" fill="#F78248"/>
<path d="M205.657 280.605C207.091 281.968 206.884 284.03 205.718 285.619C204.553 287.208 202.051 287.049 200.626 285.681C199.202 284.312 199.353 282.219 200.567 280.666C201.781 279.113 204.235 279.236 205.657 280.605Z" fill="#EA7147"/>
<path d="M219.986 267.889C222.129 269.948 222.003 273.18 220.08 275.445C217.871 278.04 214.557 277.599 212.407 275.543C210.258 273.487 210.402 270.263 212.313 267.987C214.224 265.711 217.845 265.831 219.986 267.889Z" fill="#F78248"/>
<path d="M218.278 269.612C219.455 270.743 219.293 272.448 218.329 273.761C217.365 275.075 215.294 274.945 214.117 273.813C212.94 272.681 213.062 270.948 214.067 269.664C215.072 268.379 217.102 268.482 218.278 269.612Z" fill="#EA7147"/>
<path d="M183.655 287.482C185.798 289.54 185.671 292.769 183.749 295.039C181.538 297.634 178.228 297.192 176.077 295.137C173.925 293.081 174.073 289.856 175.982 287.58C177.891 285.305 181.514 285.425 183.655 287.482Z" fill="#F78248"/>
<path d="M181.95 289.203C183.126 290.332 182.964 292.037 181.999 293.348C181.035 294.66 178.965 294.532 177.788 293.402C176.612 292.273 176.736 290.539 177.738 289.255C178.741 287.971 180.773 288.071 181.95 289.203Z" fill="#EA7147"/>
<path d="M244.138 232.533C246.474 235.255 246.776 239.108 244.246 241.647C243.032 242.869 241.376 243.567 239.641 243.588C237.906 243.609 236.234 242.951 234.992 241.759C232.403 239.272 232.182 235.047 234.885 232.645C237.587 230.243 242.286 230.366 244.138 232.533Z" fill="#EA7147"/>
<path d="M242.36 234.338C244.272 235.423 243.968 238.347 242.425 239.895C241.679 240.615 240.676 241.018 239.632 241.019C238.588 241.02 237.585 240.619 236.838 239.901C236.091 239.183 235.659 238.206 235.635 237.178C235.61 236.15 235.995 235.153 236.708 234.401C238.251 232.853 240.641 233.364 242.36 234.338Z" fill="#F78248"/>
<path d="M222.709 260.523C224.318 262.404 224.524 265.044 222.784 266.797C222.371 267.215 221.878 267.548 221.334 267.778C220.79 268.007 220.206 268.129 219.614 268.137C219.023 268.144 218.436 268.037 217.886 267.821C217.337 267.604 216.836 267.284 216.413 266.877C214.632 265.165 214.482 262.26 216.338 260.602C218.195 258.944 221.43 259.032 222.709 260.523Z" fill="#EA7147"/>
<path d="M221.478 261.761C222.794 262.507 222.587 264.519 221.525 265.589C221.009 266.071 220.324 266.337 219.613 266.332C218.902 266.327 218.22 266.051 217.712 265.562C217.204 265.072 216.908 264.407 216.888 263.707C216.867 263.007 217.122 262.327 217.601 261.808C218.653 260.74 220.298 261.092 221.478 261.761Z" fill="#F78248"/>
<path d="M174.681 292.238C176.726 294.62 176.991 297.992 174.779 300.226C174.252 300.758 173.625 301.182 172.933 301.474C172.24 301.767 171.496 301.922 170.743 301.931C169.989 301.94 169.242 301.803 168.542 301.528C167.843 301.252 167.206 300.844 166.667 300.325C164.401 298.141 164.208 294.45 166.572 292.339C168.937 290.228 173.053 290.341 174.681 292.238Z" fill="#EA7147"/>
<path d="M173.114 293.819C174.787 294.768 174.52 297.328 173.171 298.689C172.85 299.013 172.467 299.271 172.045 299.45C171.623 299.628 171.169 299.723 170.71 299.728C170.25 299.734 169.794 299.65 169.368 299.482C168.942 299.314 168.553 299.065 168.224 298.75C167.896 298.434 167.634 298.057 167.453 297.641C167.272 297.226 167.176 296.779 167.171 296.326C167.166 295.874 167.251 295.425 167.422 295.005C167.592 294.585 167.845 294.202 168.166 293.878C169.52 292.516 171.614 292.964 173.114 293.819Z" fill="#F78248"/>
<path d="M248.538 218.866C252.064 221.224 251.174 225.427 248.645 227.979C246.116 230.531 242.283 230.301 239.381 228.094C236.518 225.915 236.99 221.773 239.8 218.94C242.33 216.399 245.545 216.865 248.538 218.866Z" fill="#FFC6B0"/>
<path d="M246.246 221.183C247.536 222.424 247.208 224.197 246.3 225.735C245.37 227.313 243.508 227.55 241.678 225.793C240.386 224.55 240.151 222.727 241.625 221.241C242.23 220.63 243.057 220.28 243.924 220.269C244.791 220.258 245.626 220.587 246.246 221.183Z" fill="#F78248"/>
<path d="M195.811 283.23C199.338 285.588 198.451 289.805 195.922 292.357C193.393 294.909 189.56 294.678 186.668 292.469C183.805 290.29 184.277 286.148 187.085 283.313C189.603 280.763 192.818 281.23 195.811 283.23Z" fill="#FFC6B0"/>
<path d="M193.518 285.545C194.81 286.786 194.479 288.56 193.574 290.097C192.644 291.675 190.781 291.91 188.952 290.153C187.66 288.912 187.425 287.089 188.898 285.601C189.198 285.298 189.555 285.057 189.949 284.891C190.344 284.724 190.768 284.636 191.197 284.631C191.626 284.625 192.052 284.704 192.45 284.86C192.848 285.017 193.211 285.25 193.518 285.545Z" fill="#F78248"/>
<path d="M212.302 270.808C215.227 272.772 214.499 276.279 212.404 278.4C210.309 280.522 207.108 280.334 204.695 278.506C202.281 276.679 202.704 273.245 205.039 270.886C207.133 268.753 209.811 269.142 212.302 270.808Z" fill="#FFC6B0"/>
<path d="M210.394 272.732C211.468 273.765 211.192 275.233 210.437 276.511C209.682 277.788 208.112 278.023 206.589 276.558C205.515 275.524 205.318 274.007 206.546 272.779C206.796 272.527 207.093 272.326 207.422 272.187C207.75 272.048 208.103 271.974 208.461 271.97C208.818 271.966 209.173 272.031 209.505 272.161C209.836 272.292 210.139 272.486 210.394 272.732Z" fill="#F78248"/>
<path d="M233.655 254.017C237.182 256.375 236.295 260.592 233.766 263.144C231.237 265.696 227.402 265.466 224.512 263.256C221.65 261.077 222.119 256.936 224.929 254.1C227.449 251.559 230.665 252.025 233.655 254.017Z" fill="#FFC6B0"/>
<path d="M231.364 256.34C232.655 257.581 232.325 259.353 231.42 260.892C230.489 262.47 228.627 262.705 226.797 260.948C225.506 259.707 225.27 257.884 226.741 256.396C227.348 255.786 228.175 255.437 229.041 255.426C229.908 255.416 230.743 255.745 231.364 256.34Z" fill="#F78248"/>
<path d="M78.2319 116.38C76.7974 113.111 78.447 109.555 81.6527 107.9C85.3315 105.991 88.829 107.992 90.2639 111.263C91.6989 114.534 90.0391 118.075 86.8415 119.746C83.6439 121.417 79.6583 119.653 78.2319 116.38Z" fill="#F78248"/>
<path d="M80.9394 115.228C80.153 113.43 81.129 111.599 82.8185 110.566C84.508 109.532 86.7634 110.618 87.5514 112.414C88.3395 114.209 87.3914 116.094 85.6723 117.076C83.9532 118.058 81.7301 117.025 80.9394 115.228Z" fill="#EA7147"/>
<path d="M68.7342 123.925C67.6256 120.534 68.8316 116.855 72.1544 115.442C73.7499 114.763 75.5535 114.736 77.1684 115.367C78.7833 115.997 80.0773 117.234 80.7657 118.805C82.1985 122.077 80.7724 126.068 77.3454 127.288C73.9185 128.507 69.6172 126.627 68.7342 123.925Z" fill="#EA7147"/>
<path d="M71.0819 122.926C69.7347 121.212 71.1429 118.616 73.1689 117.753C73.6528 117.536 74.1757 117.416 74.7071 117.4C75.2385 117.384 75.7677 117.473 76.2637 117.661C76.7597 117.849 77.2125 118.133 77.5957 118.496C77.9789 118.858 78.2846 119.293 78.4952 119.773C78.7057 120.254 78.8166 120.771 78.8216 121.295C78.8266 121.818 78.7254 122.338 78.5241 122.822C78.3228 123.307 78.0253 123.747 77.6491 124.117C77.2729 124.488 76.8256 124.78 76.3332 124.978C74.3067 125.839 72.2964 124.471 71.0819 122.926Z" fill="#F78248"/>
<path d="M59.3974 134.927C57.0356 131.426 59.4948 127.857 62.8177 126.444C66.1405 125.031 69.5976 126.677 71.4289 129.807C73.2455 132.891 71.2005 136.541 67.5091 138.119C64.1868 139.534 61.3928 137.898 59.3974 134.927Z" fill="#FFC6B0"/>
<path d="M62.4129 133.646C61.7002 132.017 62.6884 130.495 64.1203 129.413C65.589 128.302 67.4014 128.78 68.4148 131.09C69.1296 132.718 68.6448 134.499 66.7095 135.323C65.9136 135.661 65.0138 135.675 64.2081 135.361C63.4023 135.046 62.7566 134.429 62.4129 133.646Z" fill="#F78248"/>
<path d="M51.2563 141.718C49.4699 139.056 51.3319 136.354 53.8569 135.271C56.3819 134.188 59.0085 135.448 60.4012 137.826C61.7734 140.172 60.2272 142.951 57.4215 144.145C54.8968 145.219 52.7716 143.976 51.2563 141.718Z" fill="#FFC6B0"/>
<path d="M53.5451 140.732C53.0026 139.492 53.7538 138.341 54.8427 137.517C55.9316 136.693 57.3383 137.036 58.1088 138.792C58.6512 140.032 58.2813 141.382 56.8111 142.008C56.5115 142.135 56.1893 142.204 55.863 142.209C55.5366 142.214 55.2124 142.156 54.9091 142.037C54.6057 141.919 54.329 141.742 54.095 141.519C53.8609 141.295 53.6741 141.027 53.5451 140.732Z" fill="#F78248"/>
<path d="M118.203 300.066C114.587 302.296 111.03 299.796 109.683 296.49C108.335 293.184 110.097 289.82 113.322 288.096C116.501 286.393 120.157 288.486 121.657 292.16C123.013 295.466 121.271 298.178 118.203 300.066Z" fill="#FFC6B0"/>
<path d="M116.981 297.07C115.317 297.73 113.792 296.721 112.737 295.284C111.647 293.808 112.178 292.035 114.554 291.103C116.217 290.441 118.018 290.961 118.798 292.889C119.118 293.681 119.107 294.565 118.766 295.349C118.426 296.132 117.784 296.751 116.981 297.07Z" fill="#F78248"/>
<path d="M155.656 302.208C153.26 303.874 150.083 303.843 148.171 301.655C147.717 301.135 147.371 300.532 147.154 299.88C146.936 299.228 146.852 298.54 146.904 297.856C146.957 297.171 147.146 296.504 147.461 295.891C147.775 295.279 148.209 294.733 148.738 294.286C150.963 292.401 154.439 292.523 156.223 294.839C158.007 297.154 157.563 300.883 155.656 302.208Z" fill="#EA7147"/>
<path d="M154.304 300.663C153.28 302.108 150.904 301.661 149.742 300.328C149.462 300.011 149.25 299.642 149.115 299.244C148.981 298.846 148.928 298.426 148.959 298.007C148.99 297.588 149.105 297.18 149.297 296.805C149.489 296.43 149.754 296.096 150.077 295.823C150.4 295.549 150.775 295.341 151.18 295.21C151.585 295.079 152.012 295.028 152.437 295.061C152.862 295.093 153.276 295.207 153.656 295.398C154.036 295.588 154.373 295.85 154.65 296.17C155.826 297.502 155.227 299.367 154.304 300.663Z" fill="#F78248"/>
<path d="M144.58 303.406C141.886 306.663 137.7 305.425 135.343 302.728C132.985 300.031 133.553 296.282 136.037 293.628C138.49 291.01 142.637 291.83 145.26 294.834C147.624 297.53 146.867 300.644 144.58 303.406Z" fill="#FFC6B0"/>
<path d="M142.439 300.955C141.069 302.113 139.304 301.632 137.837 300.612C136.321 299.562 136.245 297.716 138.188 296.079C139.557 294.919 141.424 294.845 142.79 296.422C143.353 297.069 143.631 297.909 143.566 298.759C143.5 299.609 143.095 300.398 142.439 300.955Z" fill="#F78248"/>
<path d="M231.867 211.571C231.867 211.571 231.924 190.225 220.701 181.362C209.477 172.498 199.18 156.295 197.11 143.469C195.04 130.644 194.927 129.215 187.984 121.96C187.984 121.96 197.109 120.212 202.624 127.177C208.14 134.141 227.423 158.961 227.423 158.961L234.521 187.051L231.867 211.571Z" fill="#FFC6B0"/>
<path d="M202.027 144.951C203.826 143.343 207.458 144.399 210.136 147.31C212.815 150.221 213.53 153.884 211.728 155.493C209.926 157.101 206.296 156.042 203.615 153.132C200.934 150.221 200.226 146.557 202.027 144.951Z" fill="#FFC6B0"/>
<path d="M194.448 164.826C194.178 164.934 193.881 164.96 193.596 164.901C193.31 164.842 193.049 164.701 192.845 164.496C192.641 164.291 192.504 164.031 192.45 163.749C192.396 163.467 192.428 163.175 192.542 162.911C192.657 162.647 192.848 162.422 193.092 162.265C193.336 162.107 193.622 162.025 193.913 162.027C194.205 162.03 194.489 162.118 194.73 162.28C194.971 162.441 195.157 162.67 195.266 162.936C195.339 163.113 195.375 163.302 195.373 163.493C195.371 163.684 195.331 163.872 195.255 164.048C195.179 164.224 195.069 164.383 194.93 164.516C194.792 164.65 194.628 164.755 194.448 164.826Z" fill="#EA7147"/>
<path d="M179.388 127.897C179.117 128.004 178.821 128.03 178.535 127.971C178.25 127.912 177.989 127.771 177.785 127.566C177.581 127.361 177.443 127.101 177.389 126.819C177.335 126.537 177.368 126.246 177.482 125.981C177.596 125.717 177.787 125.492 178.031 125.335C178.276 125.178 178.561 125.095 178.853 125.098C179.144 125.1 179.429 125.188 179.669 125.35C179.91 125.512 180.097 125.74 180.206 126.006C180.278 126.183 180.314 126.373 180.312 126.563C180.311 126.754 180.27 126.943 180.195 127.118C180.119 127.294 180.008 127.453 179.87 127.587C179.731 127.72 179.568 127.826 179.388 127.897Z" fill="#EA7147"/>
<path d="M219.588 226.461C219.317 226.568 219.021 226.594 218.735 226.536C218.45 226.477 218.189 226.336 217.985 226.131C217.781 225.926 217.643 225.666 217.589 225.384C217.535 225.102 217.568 224.81 217.682 224.546C217.796 224.282 217.988 224.057 218.232 223.899C218.476 223.742 218.762 223.66 219.053 223.662C219.345 223.665 219.629 223.753 219.87 223.914C220.11 224.076 220.297 224.305 220.406 224.571C220.551 224.928 220.546 225.328 220.393 225.682C220.24 226.036 219.95 226.316 219.588 226.461Z" fill="#EA7147"/>
<path d="M224.44 196.836C224.169 196.943 223.873 196.969 223.587 196.911C223.302 196.852 223.04 196.711 222.836 196.506C222.632 196.301 222.495 196.04 222.441 195.758C222.387 195.476 222.419 195.184 222.534 194.92C222.648 194.656 222.84 194.431 223.084 194.274C223.329 194.117 223.615 194.034 223.906 194.037C224.198 194.04 224.482 194.128 224.723 194.29C224.963 194.453 225.15 194.681 225.258 194.948C225.404 195.305 225.399 195.704 225.246 196.059C225.092 196.413 224.803 196.692 224.44 196.836Z" fill="#EA7147"/>
<path d="M148.051 118.91C147.781 119.018 147.484 119.044 147.198 118.985C146.913 118.926 146.652 118.785 146.448 118.58C146.244 118.375 146.106 118.115 146.052 117.832C145.998 117.55 146.031 117.258 146.145 116.994C146.26 116.73 146.451 116.505 146.696 116.348C146.94 116.191 147.226 116.108 147.518 116.111C147.809 116.114 148.093 116.203 148.334 116.365C148.575 116.527 148.761 116.756 148.87 117.022C149.015 117.379 149.011 117.779 148.857 118.133C148.704 118.487 148.414 118.767 148.051 118.91Z" fill="#EA7147"/>
<path d="M202.858 253.291C202.587 253.399 202.29 253.424 202.005 253.366C201.72 253.307 201.458 253.166 201.255 252.961C201.051 252.756 200.913 252.496 200.859 252.214C200.805 251.932 200.837 251.64 200.952 251.376C201.066 251.112 201.257 250.887 201.501 250.729C201.745 250.572 202.031 250.49 202.323 250.492C202.614 250.495 202.898 250.583 203.139 250.744C203.38 250.906 203.567 251.135 203.676 251.401C203.748 251.578 203.784 251.767 203.782 251.958C203.78 252.149 203.74 252.337 203.664 252.513C203.588 252.688 203.478 252.848 203.34 252.981C203.201 253.115 203.037 253.22 202.858 253.291Z" fill="#EA7147"/>
<path d="M117.547 125.606C117.277 125.713 116.98 125.739 116.695 125.68C116.409 125.621 116.148 125.48 115.944 125.275C115.74 125.07 115.602 124.81 115.548 124.528C115.494 124.245 115.527 123.954 115.641 123.689C115.756 123.425 115.947 123.2 116.192 123.043C116.436 122.886 116.722 122.804 117.014 122.807C117.305 122.81 117.589 122.898 117.83 123.06C118.071 123.222 118.257 123.451 118.366 123.717C118.511 124.075 118.507 124.474 118.353 124.828C118.2 125.182 117.91 125.462 117.547 125.606Z" fill="#EA7147"/>
<path d="M177.135 271.709C176.865 271.816 176.568 271.842 176.282 271.784C175.997 271.725 175.736 271.584 175.532 271.379C175.328 271.174 175.19 270.913 175.136 270.631C175.082 270.349 175.115 270.057 175.229 269.793C175.344 269.529 175.535 269.304 175.78 269.147C176.024 268.99 176.31 268.907 176.602 268.91C176.893 268.913 177.177 269.001 177.418 269.163C177.659 269.326 177.845 269.554 177.954 269.821C178.099 270.178 178.095 270.578 177.941 270.932C177.788 271.286 177.498 271.565 177.135 271.709Z" fill="#EA7147"/>
<path d="M90.1421 141.791C89.8715 141.899 89.5747 141.924 89.2892 141.866C89.0038 141.807 88.7425 141.666 88.5385 141.461C88.3345 141.256 88.1968 140.995 88.143 140.713C88.0892 140.431 88.1216 140.139 88.2361 139.875C88.3506 139.611 88.5421 139.386 88.7864 139.229C89.0307 139.072 89.3167 138.989 89.6084 138.992C89.9 138.995 90.1842 139.083 90.4248 139.246C90.6655 139.408 90.8519 139.636 90.9605 139.903C91.106 140.26 91.1015 140.66 90.9481 141.014C90.7946 141.368 90.5047 141.647 90.1421 141.791Z" fill="#EA7147"/>
<path d="M146.167 279.16C145.897 279.268 145.6 279.294 145.315 279.235C145.029 279.176 144.768 279.035 144.564 278.83C144.36 278.625 144.222 278.365 144.168 278.082C144.115 277.8 144.147 277.508 144.262 277.244C144.376 276.98 144.568 276.755 144.812 276.598C145.056 276.441 145.342 276.358 145.634 276.361C145.925 276.364 146.21 276.453 146.45 276.615C146.691 276.777 146.877 277.006 146.986 277.272C147.131 277.629 147.127 278.029 146.973 278.383C146.82 278.737 146.53 279.017 146.167 279.16Z" fill="#EA7147"/>
<path d="M70.627 165.484C70.3564 165.59 70.0598 165.616 69.7746 165.557C69.4894 165.497 69.2285 165.356 69.0248 165.151C68.8211 164.946 68.6838 164.686 68.6301 164.404C68.5765 164.122 68.609 163.83 68.7236 163.566C68.8381 163.302 69.0295 163.077 69.2736 162.92C69.5177 162.763 69.8035 162.681 70.095 162.684C70.3864 162.687 70.6704 162.774 70.9111 162.936C71.1518 163.098 71.3383 163.326 71.4471 163.593C71.5195 163.77 71.5558 163.959 71.5537 164.15C71.5517 164.341 71.5114 164.53 71.4352 164.705C71.359 164.881 71.2484 165.04 71.1098 165.174C70.9711 165.307 70.807 165.413 70.627 165.484Z" fill="#EA7147"/>
<path d="M115.339 275.114C115.068 275.221 114.772 275.247 114.486 275.188C114.201 275.129 113.94 274.988 113.736 274.783C113.532 274.578 113.394 274.318 113.34 274.036C113.286 273.754 113.319 273.462 113.433 273.198C113.547 272.934 113.739 272.709 113.983 272.552C114.227 272.394 114.513 272.312 114.804 272.315C115.096 272.317 115.38 272.405 115.621 272.567C115.861 272.728 116.048 272.957 116.157 273.223C116.229 273.4 116.266 273.589 116.264 273.78C116.262 273.971 116.222 274.16 116.146 274.335C116.07 274.511 115.959 274.67 115.821 274.803C115.683 274.937 115.519 275.042 115.339 275.114Z" fill="#EA7147"/>
<path d="M62.8722 191.045C62.6017 191.152 62.305 191.178 62.0196 191.119C61.7343 191.061 61.4731 190.92 61.2691 190.715C61.0651 190.51 60.9275 190.25 60.8736 189.968C60.8197 189.686 60.8519 189.394 60.9662 189.13C61.0805 188.865 61.2718 188.641 61.5158 188.483C61.7599 188.326 62.0457 188.244 62.3373 188.246C62.6288 188.249 62.913 188.337 63.1538 188.498C63.3946 188.66 63.5812 188.889 63.6902 189.155C63.7625 189.332 63.7988 189.521 63.7969 189.712C63.7949 189.903 63.7548 190.091 63.6789 190.267C63.6029 190.442 63.4926 190.601 63.3541 190.735C63.2157 190.869 63.052 190.974 62.8722 191.045Z" fill="#EA7147"/>
<path d="M92.2134 262.987C91.9428 263.094 91.646 263.12 91.3605 263.061C91.0751 263.002 90.8138 262.861 90.6098 262.656C90.4057 262.451 90.2681 262.191 90.2143 261.909C90.1605 261.626 90.1929 261.335 90.3074 261.07C90.4219 260.806 90.6134 260.581 90.8577 260.424C91.102 260.267 91.388 260.185 91.6796 260.188C91.9713 260.191 92.2554 260.279 92.4961 260.441C92.7368 260.603 92.9232 260.832 93.0318 261.098C93.1773 261.455 93.1728 261.855 93.0193 262.209C92.8659 262.563 92.576 262.843 92.2134 262.987Z" fill="#EA7147"/>
<path d="M66.9044 227.874C66.6337 227.981 66.3371 228.006 66.0519 227.947C65.7667 227.888 65.5058 227.747 65.3021 227.542C65.0984 227.337 64.9611 227.076 64.9075 226.794C64.8539 226.512 64.8864 226.221 65.0009 225.957C65.1154 225.693 65.3068 225.468 65.5509 225.311C65.795 225.154 66.0808 225.072 66.3723 225.074C66.6638 225.077 66.9478 225.165 67.1884 225.327C67.4291 225.489 67.6157 225.717 67.7245 225.983C67.7969 226.16 67.8331 226.35 67.831 226.541C67.829 226.732 67.7887 226.92 67.7126 227.096C67.6364 227.272 67.5258 227.431 67.3871 227.564C67.2484 227.698 67.0844 227.803 66.9044 227.874Z" fill="#EA7147"/>
<path opacity="0.8" d="M140 192L358.684 69.3662L368.68 87.6802L165 192L140 192Z" fill="url(#paint0_linear_103_4883)"/>
<path d="M165 191.999H140C140 191.999 177.5 169.001 180 177.5C182.098 184.631 165 191.999 165 191.999Z" fill="url(#paint1_linear_103_4883)" fill-opacity="0.8"/>
<path d="M305 71L426.981 0.574102L438.394 20.3413C450.04 40.5132 443.129 66.3069 422.957 77.9531L337.5 127.292L305 71Z" fill="#A9E7EC"/>
<rect x="327.99" y="80.8203" width="7" height="45.0844" transform="rotate(-30 327.99 80.8203)" fill="white" fill-opacity="0.5"/>
<rect x="374.756" y="53.8203" width="7" height="45.0844" transform="rotate(-30 374.756 53.8203)" fill="white" fill-opacity="0.5"/>
<rect x="421.521" y="26.8203" width="7" height="45.0844" transform="rotate(-30 421.521 26.8203)" fill="white" fill-opacity="0.5"/>
<rect x="361.373" y="84.6406" width="7" height="25" transform="rotate(-30 361.373 84.6406)" fill="white" fill-opacity="0.5"/>
<rect x="408.139" y="57.6406" width="7" height="25" transform="rotate(-30 408.139 57.6406)" fill="white" fill-opacity="0.5"/>
<defs>
<linearGradient id="paint0_linear_103_4883" x1="248.769" y1="129.762" x2="262.57" y2="153.666" gradientUnits="userSpaceOnUse">
<stop stop-color="#D7D8DA"/>
<stop offset="1" stop-color="#B4CBFF" stop-opacity="0.52"/>
</linearGradient>
<linearGradient id="paint1_linear_103_4883" x1="179" y1="176.5" x2="160.089" y2="191.999" gradientUnits="userSpaceOnUse">
<stop stop-color="#898888"/>
<stop offset="1" stop-color="#D9D9D9"/>
</linearGradient>
</defs>
</svg>
