<svg width="412" height="350" viewBox="0 0 412 350" fill="none" xmlns="http://www.w3.org/2000/svg">
<path fill-rule="evenodd" clip-rule="evenodd" d="M193.218 328.297C142.481 329.865 83.7188 350.224 48.1386 300.913C-21.2694 204.681 36.0876 -35.2235 150.09 20.2216C198.676 43.8291 263.746 22.9246 303.377 25.8788C425.483 34.9579 409.65 273.822 341.213 319.426C313.45 337.957 279.553 340.123 245.014 333.175C244.277 333.027 243.279 332.941 242.333 332.785C230.907 330.775 206.762 327.881 193.218 328.297V328.297Z" fill="#FFE6BB"/>
<path d="M266.066 63.8672C269.059 64.8318 272.296 64.73 275.223 63.5789C278.15 62.4279 280.586 60.2989 282.117 57.5549C283.648 54.8108 284.179 51.6215 283.619 48.5305C283.059 45.4395 281.442 42.6382 279.045 40.6039C276.648 38.5696 273.619 37.4282 270.474 37.3744C267.329 37.3205 264.262 38.3575 261.796 40.3086C259.331 42.2596 257.62 45.004 256.954 48.074C256.288 51.144 256.709 54.3496 258.144 57.1444C258.957 58.7305 260.075 60.1408 261.434 61.2944C262.793 62.448 264.367 63.3224 266.066 63.8672V63.8672ZM277.431 64.9501C274.191 66.607 270.475 67.0909 266.918 66.3195C263.36 65.548 260.18 63.5688 257.92 60.719C255.66 57.8692 254.459 54.3251 254.522 50.6905C254.585 47.0558 255.908 43.5553 258.265 40.7852C260.623 38.0152 263.869 36.147 267.452 35.4988C271.034 34.8506 274.73 35.4626 277.911 37.2304C281.092 38.9982 283.561 41.8126 284.898 45.1941C286.234 48.5756 286.355 52.3151 285.24 55.7756C284.608 57.7434 283.593 59.567 282.253 61.1415C280.913 62.716 279.274 64.0104 277.431 64.9501V64.9501Z" fill="#E95E19"/>
<path d="M276.214 37.4874C276.179 37.6329 276.114 37.7696 276.024 37.8889C275.934 38.0083 275.82 38.1077 275.689 38.1808C275.559 38.254 275.415 38.2994 275.265 38.3141C275.116 38.3289 274.966 38.3126 274.824 38.2664C274.681 38.2202 274.55 38.145 274.438 38.0457C274.326 37.9463 274.236 37.8249 274.173 37.689C274.111 37.5532 274.077 37.4059 274.074 37.2563C274.072 37.1068 274.1 36.9584 274.157 36.8203L280.691 16.5829C280.734 16.4481 280.803 16.3231 280.895 16.2151C280.987 16.1071 281.099 16.0181 281.225 15.9534C281.351 15.8886 281.488 15.8493 281.63 15.8376C281.771 15.826 281.913 15.8422 282.048 15.8855C282.183 15.9287 282.308 15.9981 282.417 16.0896C282.525 16.1811 282.614 16.293 282.679 16.4189C282.744 16.5448 282.783 16.6823 282.795 16.8234C282.806 16.9645 282.79 17.1065 282.747 17.2413L276.214 37.4874Z" fill="#E95E19"/>
<path d="M287.581 26.5977C287.853 26.685 288.08 26.8769 288.211 27.1311C288.342 27.3854 288.367 27.6812 288.279 27.9535C288.192 28.2258 288 28.4522 287.745 28.583C287.49 28.7138 287.194 28.7382 286.921 28.6509L270.637 23.4096C270.385 23.305 270.182 23.1096 270.068 22.8624C269.954 22.6151 269.938 22.3341 270.022 22.0752C270.106 21.8164 270.285 21.5987 270.523 21.4655C270.76 21.3323 271.039 21.2933 271.305 21.3564L287.581 26.5977Z" fill="#E95E19"/>
<path d="M251.609 75.2508C254.664 74.5153 257.37 72.7448 259.264 70.241C261.159 67.7371 262.126 64.6548 262 61.519C261.874 58.3833 260.664 55.388 258.575 53.0435C256.485 50.6989 253.647 49.1502 250.542 48.661C247.438 48.1718 244.26 48.7725 241.549 50.3606C238.838 51.9488 236.763 54.4263 235.676 57.371C234.589 60.3157 234.558 63.5456 235.589 66.5103C236.62 69.4751 238.648 71.9915 241.328 73.6307C242.849 74.5653 244.541 75.1897 246.306 75.4678C248.07 75.7458 249.873 75.6721 251.609 75.2508V75.2508ZM261.864 70.2694C259.96 73.3733 257.037 75.7222 253.594 76.9157C250.15 78.1092 246.399 78.0735 242.979 76.8148C239.559 75.5561 236.681 73.1521 234.837 70.0126C232.993 66.873 232.296 63.1921 232.865 59.597C233.434 56.0018 235.234 52.7149 237.958 50.2963C240.682 47.8777 244.161 46.477 247.803 46.3328C251.446 46.1886 255.025 47.3099 257.932 49.5057C260.839 51.7015 262.894 54.8358 263.746 58.3747C264.232 60.3835 264.316 62.4683 263.993 64.5095C263.67 66.5506 262.946 68.508 261.864 70.2694V70.2694Z" fill="#E4A745"/>
<path d="M246.515 47.4675C246.57 47.7423 246.517 48.0277 246.365 48.2636C246.214 48.4996 245.977 48.6677 245.704 48.7328C245.431 48.7978 245.143 48.7547 244.901 48.6125C244.66 48.4702 244.483 48.2399 244.407 47.97L239.427 27.2907C239.372 27.0159 239.426 26.7306 239.578 26.4946C239.729 26.2587 239.966 26.0905 240.239 26.0254C240.512 25.9604 240.799 26.0035 241.041 26.1458C241.283 26.288 241.46 26.5183 241.535 26.7882L246.515 47.4675Z" fill="#E4A745"/>
<path d="M251.35 32.3847C251.569 32.5449 251.719 32.7809 251.772 33.0463C251.825 33.3117 251.777 33.5872 251.636 33.8187C251.496 34.0502 251.274 34.2208 251.014 34.2969C250.754 34.373 250.475 34.3492 250.231 34.23L240.844 28.5209L235.083 37.8686C235.008 37.9898 234.911 38.0951 234.795 38.1785C234.68 38.2619 234.549 38.3218 234.411 38.3548C234.272 38.3878 234.128 38.3932 233.988 38.3707C233.847 38.3482 233.712 38.2983 233.591 38.2238C233.469 38.1493 233.364 38.0516 233.28 37.9364C233.197 37.8212 233.137 37.6907 233.104 37.5523C233.071 37.414 233.065 37.2704 233.088 37.13C233.11 36.9895 233.16 36.8549 233.235 36.7337L239.56 26.4764C239.633 26.3548 239.729 26.2488 239.844 26.1646C239.958 26.0804 240.088 26.0197 240.226 25.9858C240.364 25.952 240.507 25.9458 240.647 25.9675C240.788 25.9893 240.922 26.0385 241.043 26.1125L251.35 32.3847V32.3847Z" fill="#E4A745"/>
<path fill-rule="evenodd" clip-rule="evenodd" d="M344.182 37.6607C348.598 36.1273 352.52 36.881 355.652 40.8661C360.085 41.0394 363.582 42.7461 365.135 47.3896C369.221 48.8277 371.763 51.7213 372.075 56.6333C373.391 57.5479 374.397 58.8413 374.958 60.3411C375.519 61.8409 375.609 63.4759 375.216 65.0281C376.342 66.7975 377 68.8235 377.127 70.9161C377.255 73.0088 376.848 75.0994 375.945 76.9921C376.708 81.3931 375.789 84.8411 373.273 87.2494C372.561 91.815 370.67 94.9251 367.599 96.3719C365.525 100.756 362.471 103.147 358.723 103.857C355.912 107.184 352.546 108.57 348.711 107.946C346.906 109.063 344.854 109.718 342.735 109.853C340.616 109.987 338.496 109.597 336.565 108.717C332.712 109.298 329.433 108.527 326.865 106.283C322.527 105.893 318.857 104.55 317.391 100.582C313.139 98.789 309.357 96.4672 309.313 90.9314C305.999 88.471 304.056 85.2915 305.374 80.6913C302.945 76.6369 302.694 72.8251 304.793 69.3771C303.813 65.4786 303.136 61.8313 307.925 58.1148C308.194 54.0777 308.975 50.3178 313.816 49.2522C317.052 41.9404 319.69 42.6161 322.917 42.0184C324.757 39.6793 326.804 37.6867 331.498 38.553C334.968 35.0011 339.306 34.9664 344.182 37.6867V37.6607Z" fill="#F7D39B"/>
<path fill-rule="evenodd" clip-rule="evenodd" d="M342.169 54.4589C374.539 58.0195 366.904 98.5031 338.586 96.0427C311.595 93.7123 315.161 51.4787 342.169 54.4589Z" fill="#E95E19"/>
<path fill-rule="evenodd" clip-rule="evenodd" d="M361.09 78.2136C368.439 79.0193 366.703 88.2197 360.275 87.6653C354.141 87.1368 354.948 77.5379 361.09 78.2136Z" fill="#F1AD96"/>
<path fill-rule="evenodd" clip-rule="evenodd" d="M359.851 81.3931C368.414 82.3287 366.392 93.0366 358.905 92.3955C351.765 91.7804 352.702 80.6047 359.851 81.3931V81.3931Z" fill="#F1AD96"/>
<path fill-rule="evenodd" clip-rule="evenodd" d="M351.964 87.6999C359.321 88.5143 357.586 97.7061 351.157 97.1516C345.023 96.6231 345.822 87.0242 351.964 87.6999Z" fill="#F1AD96"/>
<path fill-rule="evenodd" clip-rule="evenodd" d="M334.058 45.0678C342.621 46.0121 340.608 56.7199 333.112 56.0701C325.972 55.4551 326.909 44.2794 334.058 45.0678Z" fill="#F1AD96"/>
<path fill-rule="evenodd" clip-rule="evenodd" d="M325.842 81.8002C334.64 82.7618 332.566 93.7729 324.87 93.1058C317.53 92.4734 318.494 80.9772 325.842 81.8002V81.8002Z" fill="#F1AD96"/>
<path fill-rule="evenodd" clip-rule="evenodd" d="M325.519 87.4747C325.717 87.4775 325.913 87.5211 326.095 87.6028C326.276 87.6845 326.438 87.8026 326.572 87.9497C326.705 88.0968 326.807 88.2698 326.871 88.4579C326.935 88.6459 326.959 88.8451 326.942 89.0429C326.925 89.2408 326.868 89.433 326.774 89.6078C326.679 89.7826 326.55 89.9361 326.394 90.0588C326.237 90.1815 326.057 90.2707 325.865 90.321C325.673 90.3712 325.472 90.3814 325.276 90.3509C323.41 90.1863 323.653 87.2668 325.519 87.4747Z" fill="#E95E19"/>
<path fill-rule="evenodd" clip-rule="evenodd" d="M350.031 46.5232C358.195 47.3896 356.269 57.6296 349.164 57.0145C342.362 56.4254 343.255 45.7522 350.031 46.5232Z" fill="#F1AD96"/>
<path fill-rule="evenodd" clip-rule="evenodd" d="M320.686 62.6457C329.484 63.616 327.41 74.6184 319.706 73.908C312.375 73.2756 313.329 61.7794 320.686 62.6457Z" fill="#F1AD96"/>
<path fill-rule="evenodd" clip-rule="evenodd" d="M320.366 68.3202C320.565 68.3243 320.76 68.369 320.94 68.4516C321.121 68.5342 321.282 68.6528 321.414 68.8002C321.547 68.9476 321.648 69.1207 321.711 69.3085C321.773 69.4964 321.797 69.6952 321.78 69.8925C321.762 70.0898 321.705 70.2815 321.61 70.4557C321.516 70.6299 321.386 70.7828 321.23 70.9051C321.074 71.0273 320.895 71.1162 320.703 71.1663C320.511 71.2164 320.311 71.2267 320.115 71.1964C318.249 71.0318 318.492 68.1122 320.366 68.3202Z" fill="#E95E19"/>
<path fill-rule="evenodd" clip-rule="evenodd" d="M320.245 72.2532C329.042 73.2149 326.969 84.2259 319.264 83.5155C311.933 82.8831 312.888 71.3869 320.245 72.2532Z" fill="#F1AD96"/>
<path fill-rule="evenodd" clip-rule="evenodd" d="M319.94 77.9277C320.139 77.9318 320.334 77.9765 320.514 78.0591C320.695 78.1417 320.856 78.2604 320.989 78.4078C321.121 78.5552 321.222 78.7282 321.285 78.9161C321.348 79.104 321.371 79.3027 321.354 79.5001C321.337 79.6974 321.279 79.8891 321.184 80.0632C321.09 80.2374 320.961 80.3904 320.805 80.5126C320.648 80.6348 320.469 80.7238 320.277 80.7739C320.085 80.824 319.885 80.8342 319.689 80.8039C317.823 80.6393 318.066 77.7198 319.94 77.9277Z" fill="#E95E19"/>
<path fill-rule="evenodd" clip-rule="evenodd" d="M333.709 88.4277C342.515 89.398 340.442 100.4 332.738 99.69C325.398 99.0576 326.361 87.5614 333.709 88.4277V88.4277Z" fill="#F1AD96"/>
<path fill-rule="evenodd" clip-rule="evenodd" d="M333.39 94.1021C333.588 94.1049 333.785 94.1485 333.966 94.2303C334.147 94.312 334.309 94.4301 334.443 94.5772C334.576 94.7243 334.678 94.8972 334.742 95.0853C334.806 95.2734 334.83 95.4725 334.813 95.6704C334.796 95.8682 334.739 96.0605 334.645 96.2352C334.55 96.41 334.421 96.5635 334.265 96.6862C334.108 96.8089 333.929 96.8982 333.736 96.9484C333.544 96.9987 333.343 97.0089 333.147 96.9784C331.281 96.8138 331.524 93.8942 333.39 94.1021Z" fill="#E95E19"/>
<path fill-rule="evenodd" clip-rule="evenodd" d="M343.627 88.9388C352.425 89.9091 350.351 100.911 342.656 100.201C335.316 99.5687 336.279 88.0725 343.627 88.9388V88.9388Z" fill="#F1AD96"/>
<path fill-rule="evenodd" clip-rule="evenodd" d="M343.306 94.6132C343.505 94.616 343.701 94.6596 343.882 94.7413C344.064 94.823 344.226 94.9411 344.36 95.0882C344.493 95.2353 344.595 95.4083 344.659 95.5964C344.722 95.7844 344.747 95.9836 344.73 96.1814C344.713 96.3793 344.656 96.5716 344.561 96.7463C344.467 96.9211 344.338 97.0746 344.181 97.1973C344.025 97.32 343.845 97.4092 343.653 97.4595C343.46 97.5098 343.26 97.5199 343.063 97.4894C341.189 97.3335 341.432 94.4053 343.306 94.6132Z" fill="#E95E19"/>
<path fill-rule="evenodd" clip-rule="evenodd" d="M353.03 78.7854C361.827 79.747 359.754 90.758 352.05 90.0476C344.718 89.4152 345.673 77.919 353.03 78.7854Z" fill="#F1AD96"/>
<path fill-rule="evenodd" clip-rule="evenodd" d="M352.71 84.4512C352.908 84.4553 353.104 84.5 353.284 84.5826C353.464 84.6651 353.626 84.7838 353.758 84.9312C353.891 85.0786 353.991 85.2516 354.054 85.4395C354.117 85.6274 354.141 85.8262 354.123 86.0235C354.106 86.2208 354.048 86.4125 353.954 86.5867C353.859 86.7609 353.73 86.9138 353.574 87.036C353.418 87.1583 353.238 87.2472 353.046 87.2973C352.855 87.3474 352.654 87.3577 352.458 87.3274C350.593 87.1714 350.836 84.2519 352.71 84.4512Z" fill="#E95E19"/>
<path fill-rule="evenodd" clip-rule="evenodd" d="M346.108 81.9129C354.906 82.8745 352.832 93.8856 345.128 93.2185C337.797 92.5861 338.751 81.0899 346.108 81.9129V81.9129Z" fill="#F1AD96"/>
<path fill-rule="evenodd" clip-rule="evenodd" d="M345.788 87.5786C345.992 87.5756 346.194 87.6153 346.382 87.6951C346.569 87.775 346.738 87.8933 346.877 88.0424C347.016 88.1914 347.122 88.3679 347.188 88.5605C347.254 88.753 347.28 88.9573 347.262 89.1601C347.244 89.363 347.184 89.5598 347.085 89.738C346.987 89.9162 346.852 90.0718 346.689 90.1946C346.527 90.3174 346.34 90.4048 346.141 90.4511C345.943 90.4975 345.737 90.5017 345.536 90.4635C343.671 90.2989 343.914 87.3793 345.788 87.5786Z" fill="#E95E19"/>
<path fill-rule="evenodd" clip-rule="evenodd" d="M337.295 80.1282C346.101 81.0985 344.019 92.1009 336.323 91.4338C328.984 90.8014 329.947 79.3052 337.295 80.1282V80.1282Z" fill="#F1AD96"/>
<path fill-rule="evenodd" clip-rule="evenodd" d="M336.999 85.8027C337.198 85.8055 337.394 85.8491 337.575 85.9308C337.756 86.0125 337.919 86.1306 338.052 86.2777C338.186 86.4248 338.288 86.5978 338.351 86.7859C338.415 86.9739 338.439 87.1731 338.423 87.3709C338.406 87.5688 338.349 87.761 338.254 87.9358C338.16 88.1106 338.03 88.2641 337.874 88.3868C337.718 88.5095 337.538 88.5987 337.346 88.649C337.153 88.6992 336.953 88.7094 336.756 88.6789C334.891 88.5143 335.134 85.5948 336.999 85.8027Z" fill="#E95E19"/>
<path fill-rule="evenodd" clip-rule="evenodd" d="M329.901 68.1728C338.707 69.1344 336.625 80.1455 328.929 79.4351C321.589 78.8027 322.552 67.3065 329.901 68.1728Z" fill="#F1AD96"/>
<path fill-rule="evenodd" clip-rule="evenodd" d="M329.581 73.8386C329.785 73.8344 329.988 73.8732 330.176 73.9523C330.364 74.0314 330.534 74.1491 330.674 74.2978C330.813 74.4465 330.92 74.6228 330.987 74.8154C331.055 75.008 331.08 75.2125 331.063 75.4157C331.046 75.6189 330.986 75.8162 330.888 75.9949C330.79 76.1736 330.655 76.3296 330.492 76.4529C330.33 76.5762 330.143 76.664 329.944 76.7106C329.745 76.7572 329.539 76.7616 329.338 76.7235C327.473 76.5589 327.716 73.6393 329.581 73.8386Z" fill="#E95E19"/>
<path fill-rule="evenodd" clip-rule="evenodd" d="M328.671 59.2583C337.468 60.2199 335.395 71.2309 327.69 70.5205C320.359 69.8881 321.313 58.3919 328.671 59.2583Z" fill="#F1AD96"/>
<path fill-rule="evenodd" clip-rule="evenodd" d="M328.351 64.9327C328.549 64.9368 328.744 64.9816 328.925 65.0641C329.105 65.1467 329.266 65.2654 329.399 65.4128C329.531 65.5602 329.632 65.7332 329.695 65.9211C329.758 66.109 329.781 66.3077 329.764 66.5051C329.747 66.7024 329.689 66.8941 329.595 67.0683C329.5 67.2424 329.371 67.3954 329.215 67.5176C329.059 67.6398 328.879 67.7288 328.687 67.7789C328.495 67.829 328.295 67.8392 328.099 67.8089C326.234 67.6443 326.477 64.7248 328.351 64.9327Z" fill="#E95E19"/>
<path fill-rule="evenodd" clip-rule="evenodd" d="M331.35 49.9193C340.147 50.8809 338.074 61.8919 330.378 61.1816C323.038 60.5491 324.001 49.0529 331.35 49.9193Z" fill="#F1AD96"/>
<path fill-rule="evenodd" clip-rule="evenodd" d="M331.03 55.5937C331.229 55.5965 331.425 55.6401 331.606 55.7218C331.787 55.8036 331.95 55.9216 332.083 56.0687C332.217 56.2158 332.318 56.3888 332.382 56.5769C332.446 56.765 332.47 56.9641 332.453 57.1619C332.437 57.3598 332.379 57.5521 332.285 57.7268C332.191 57.9016 332.061 58.0551 331.905 58.1778C331.749 58.3005 331.569 58.3897 331.376 58.44C331.184 58.4903 330.983 58.5004 330.787 58.4699C328.913 58.3053 329.164 55.3858 331.03 55.5937Z" fill="#E95E19"/>
<path fill-rule="evenodd" clip-rule="evenodd" d="M323.264 53.1074C332.07 54.0777 329.997 65.0801 322.292 64.3697C314.952 63.7372 315.915 52.241 323.264 53.1074Z" fill="#F1AD96"/>
<path fill-rule="evenodd" clip-rule="evenodd" d="M322.952 58.7905C323.15 58.7946 323.346 58.8393 323.526 58.9219C323.706 59.0045 323.868 59.1232 324 59.2706C324.133 59.418 324.234 59.591 324.296 59.7789C324.359 59.9668 324.383 60.1655 324.365 60.3629C324.348 60.5602 324.291 60.7519 324.196 60.926C324.102 61.1002 323.972 61.2531 323.816 61.3754C323.66 61.4976 323.481 61.5866 323.289 61.6367C323.097 61.6868 322.897 61.697 322.701 61.6667C320.835 61.5021 321.078 58.5826 322.952 58.7905Z" fill="#E95E19"/>
<path fill-rule="evenodd" clip-rule="evenodd" d="M341.381 48.2819C350.179 49.2522 348.105 60.2633 340.409 59.5962C333.07 58.9551 334.033 47.4676 341.381 48.2819Z" fill="#F1AD96"/>
<path fill-rule="evenodd" clip-rule="evenodd" d="M341.057 53.9564C341.256 53.9592 341.452 54.0028 341.633 54.0845C341.814 54.1662 341.977 54.2843 342.11 54.4314C342.244 54.5785 342.346 54.7515 342.409 54.9396C342.473 55.1276 342.497 55.3268 342.481 55.5246C342.464 55.7225 342.407 55.9147 342.312 56.0895C342.218 56.2643 342.089 56.4178 341.932 56.5405C341.776 56.6632 341.596 56.7524 341.404 56.8027C341.211 56.8529 341.011 56.8631 340.814 56.8326C338.94 56.6767 339.192 53.7571 341.057 53.9564Z" fill="#E95E19"/>
<path fill-rule="evenodd" clip-rule="evenodd" d="M355.819 52.3017C364.625 53.272 362.543 64.2744 354.847 63.564C347.507 62.9316 348.47 51.4354 355.819 52.3017Z" fill="#F1AD96"/>
<path fill-rule="evenodd" clip-rule="evenodd" d="M355.515 57.9762C355.713 57.9789 355.91 58.0226 356.091 58.1043C356.272 58.186 356.434 58.3041 356.568 58.4512C356.701 58.5983 356.803 58.7713 356.867 58.9593C356.931 59.1474 356.955 59.3466 356.938 59.5444C356.921 59.7422 356.864 59.9345 356.77 60.1093C356.675 60.284 356.546 60.4375 356.39 60.5602C356.233 60.6829 356.054 60.7722 355.861 60.8224C355.669 60.8727 355.468 60.8829 355.272 60.8524C353.406 60.6878 353.649 57.7683 355.515 57.9762Z" fill="#E95E19"/>
<path fill-rule="evenodd" clip-rule="evenodd" d="M360.432 60.5838C369.23 61.5541 367.156 72.5651 359.452 71.898C352.121 71.2656 353.075 59.7694 360.432 60.5838Z" fill="#F1AD96"/>
<path fill-rule="evenodd" clip-rule="evenodd" d="M360.112 66.2583C360.311 66.2624 360.506 66.3071 360.686 66.3897C360.867 66.4723 361.028 66.5909 361.161 66.7384C361.293 66.8858 361.394 67.0588 361.457 67.2467C361.519 67.4345 361.543 67.6333 361.526 67.8306C361.508 68.028 361.451 68.2196 361.356 68.3938C361.262 68.568 361.132 68.7209 360.976 68.8432C360.82 68.9654 360.641 69.0543 360.449 69.1044C360.257 69.1546 360.057 69.1648 359.861 69.1345C357.995 68.9786 358.238 66.059 360.112 66.2583Z" fill="#E95E19"/>
<path fill-rule="evenodd" clip-rule="evenodd" d="M360.893 69.2817C369.691 70.252 367.617 81.2544 359.913 80.544C352.582 79.9116 353.536 68.4154 360.893 69.2817Z" fill="#F1AD96"/>
<path fill-rule="evenodd" clip-rule="evenodd" d="M360.573 74.9562C360.772 74.9603 360.967 75.005 361.147 75.0876C361.328 75.1701 361.489 75.2888 361.621 75.4362C361.754 75.5836 361.855 75.7566 361.918 75.9445C361.98 76.1324 362.004 76.3312 361.987 76.5285C361.969 76.7258 361.912 76.9175 361.817 77.0917C361.723 77.2659 361.593 77.4188 361.437 77.541C361.281 77.6633 361.102 77.7522 360.91 77.8023C360.718 77.8524 360.518 77.8627 360.322 77.8324C358.456 77.6678 358.699 74.7482 360.573 74.9562Z" fill="#E95E19"/>
<path fill-rule="evenodd" clip-rule="evenodd" d="M351.174 69.6543C359.972 70.6245 357.898 81.6269 350.202 80.9165C342.863 80.2841 343.826 68.7879 351.174 69.6543Z" fill="#F1AD96"/>
<path fill-rule="evenodd" clip-rule="evenodd" d="M350.847 75.3287C351.045 75.3328 351.24 75.3775 351.421 75.4601C351.601 75.5427 351.762 75.6614 351.895 75.8088C352.027 75.9562 352.128 76.1292 352.191 76.3171C352.254 76.505 352.277 76.7037 352.26 76.9011C352.243 77.0984 352.185 77.2901 352.091 77.4642C351.996 77.6384 351.867 77.7914 351.711 77.9136C351.555 78.0358 351.375 78.1248 351.183 78.1749C350.991 78.225 350.791 78.2352 350.595 78.2049C348.73 78.0403 348.973 75.1208 350.847 75.3287Z" fill="#E95E19"/>
<path fill-rule="evenodd" clip-rule="evenodd" d="M339.132 70.6332C347.929 71.6035 345.855 82.6059 338.151 81.9475C330.82 81.3064 331.774 69.8189 339.132 70.6332Z" fill="#F1AD96"/>
<path fill-rule="evenodd" clip-rule="evenodd" d="M338.812 76.3077C339.01 76.3118 339.205 76.3565 339.386 76.4391C339.566 76.5217 339.727 76.6403 339.86 76.7878C339.992 76.9352 340.093 77.1082 340.156 77.2961C340.219 77.4839 340.242 77.6827 340.225 77.88C340.208 78.0774 340.15 78.269 340.055 78.4432C339.961 78.6174 339.832 78.7703 339.676 78.8926C339.52 79.0148 339.34 79.1037 339.148 79.1538C338.956 79.204 338.756 79.2142 338.56 79.1839C336.695 79.028 336.938 76.0998 338.812 76.3077Z" fill="#E95E19"/>
<path fill-rule="evenodd" clip-rule="evenodd" d="M341.908 57.2051C350.706 58.1754 348.632 69.1865 340.937 68.5194C333.597 67.8783 334.56 56.3908 341.908 57.2051Z" fill="#F1AD96"/>
<path fill-rule="evenodd" clip-rule="evenodd" d="M341.632 62.8796C341.83 62.8837 342.026 62.9285 342.206 63.011C342.386 63.0936 342.548 63.2123 342.68 63.3597C342.813 63.5071 342.913 63.6801 342.976 63.868C343.039 64.0559 343.062 64.2546 343.045 64.452C343.028 64.6493 342.97 64.841 342.876 65.0152C342.781 65.1893 342.652 65.3423 342.496 65.4645C342.34 65.5867 342.16 65.6757 341.968 65.7258C341.776 65.7759 341.576 65.7861 341.38 65.7558C339.515 65.5999 339.758 62.6804 341.632 62.8796Z" fill="#E95E19"/>
<path fill-rule="evenodd" clip-rule="evenodd" d="M347.756 59.9947C356.562 60.965 354.48 71.9674 346.784 71.309C339.445 70.6679 340.408 59.1803 347.756 59.9947Z" fill="#F1AD96"/>
<path fill-rule="evenodd" clip-rule="evenodd" d="M347.437 65.6691C347.635 65.6719 347.831 65.7155 348.013 65.7972C348.194 65.879 348.356 65.997 348.49 66.1441C348.623 66.2912 348.725 66.4642 348.789 66.6523C348.852 66.8404 348.877 67.0395 348.86 67.2373C348.843 67.4352 348.786 67.6275 348.692 67.8022C348.597 67.977 348.468 68.1305 348.312 68.2532C348.155 68.3759 347.975 68.4651 347.783 68.5154C347.591 68.5657 347.39 68.5759 347.194 68.5453C345.328 68.3894 345.571 65.4612 347.437 65.6691Z" fill="#E95E19"/>
<path fill-rule="evenodd" clip-rule="evenodd" d="M44.9111 56.9365L62.0896 59.3189L53.9342 118.16C53.7125 119.717 52.8827 121.123 51.6261 122.071C50.3694 123.019 48.7881 123.432 47.2276 123.219L42.0914 122.509C40.4623 122.279 38.9905 121.415 37.9973 120.105C37.0041 118.795 36.5703 117.146 36.7904 115.518L44.9111 56.9365Z" fill="#F7D39B"/>
<path fill-rule="evenodd" clip-rule="evenodd" d="M45.8595 98.5724C45.3091 98.4973 44.7487 98.5867 44.2492 98.8294C43.7496 99.0721 43.3333 99.4572 43.0527 99.936C42.7722 100.415 42.64 100.966 42.6729 101.52C42.7058 102.073 42.9023 102.605 43.2375 103.047C43.5728 103.49 44.0318 103.823 44.5566 104.005C45.0814 104.187 45.6484 104.21 46.1861 104.07C46.7238 103.931 47.208 103.635 47.5776 103.221C47.9472 102.807 48.1857 102.292 48.2628 101.743C48.3142 101.377 48.2927 101.005 48.1996 100.647C48.1065 100.29 47.9437 99.9541 47.7204 99.6595C47.4972 99.3649 47.2179 99.1173 46.8985 98.9307C46.5792 98.7441 46.2261 98.6224 45.8595 98.5724V98.5724Z" fill="#F78248"/>
<path fill-rule="evenodd" clip-rule="evenodd" d="M50.9338 85.6467C50.3833 85.5716 49.8229 85.661 49.3234 85.9037C48.8238 86.1464 48.4075 86.5315 48.1269 87.0103C47.8464 87.4891 47.7142 88.0402 47.7471 88.594C47.78 89.1477 47.9765 89.6793 48.3118 90.1217C48.647 90.564 49.106 90.8972 49.6308 91.0793C50.1556 91.2613 50.7227 91.284 51.2603 91.1444C51.798 91.0049 52.2822 90.7094 52.6518 90.2952C53.0215 89.8811 53.2599 89.3668 53.337 88.8175C53.3896 88.4514 53.3689 88.0787 53.2763 87.7206C53.1838 87.3626 53.021 87.0265 52.7976 86.7317C52.5741 86.4368 52.2943 86.1891 51.9744 86.0029C51.6545 85.8167 51.3008 85.6956 50.9338 85.6467V85.6467Z" fill="#F78248"/>
<path fill-rule="evenodd" clip-rule="evenodd" d="M49.9025 104.862C49.3521 104.787 48.7917 104.876 48.2921 105.119C47.7926 105.362 47.3762 105.747 47.0957 106.226C46.8151 106.704 46.683 107.255 46.7159 107.809C46.7488 108.363 46.9452 108.895 47.2805 109.337C47.6158 109.779 48.0748 110.112 48.5996 110.294C49.1244 110.476 49.6914 110.499 50.2291 110.36C50.7668 110.22 51.251 109.925 51.6206 109.51C51.9902 109.096 52.2286 108.582 52.3058 108.033C52.3583 107.667 52.3377 107.294 52.2451 106.936C52.1525 106.578 51.9898 106.242 51.7663 105.947C51.5428 105.652 51.2631 105.404 50.9432 105.218C50.6232 105.032 50.2696 104.911 49.9025 104.862V104.862Z" fill="#F78248"/>
<path d="M62.3433 57.6036C62.8035 57.6667 63.2198 57.9099 63.5004 58.2795C63.7811 58.6491 63.9032 59.1149 63.84 59.5745C63.7767 60.034 63.5332 60.4496 63.163 60.7299C62.7929 61.0101 62.3264 61.1321 61.8662 61.0689L44.6964 58.6518C44.2362 58.5898 43.8195 58.3477 43.538 57.9789C43.2565 57.6101 43.1333 57.1448 43.1954 56.6853C43.2576 56.2257 43.5 55.8097 43.8693 55.5286C44.2387 55.2475 44.7047 55.1245 45.1649 55.1865L62.3433 57.5602V57.6036Z" fill="#444642"/>
<path fill-rule="evenodd" clip-rule="evenodd" d="M66.2812 49.9019L83.2515 46.35L95.3024 103.692C95.6652 105.439 95.3215 107.258 94.3463 108.753C93.3711 110.248 91.8436 111.297 90.0968 111.671L85.5333 112.633C83.9942 112.951 82.3917 112.647 81.0762 111.788C79.7608 110.93 78.8397 109.585 78.5144 108.05L66.2812 49.9019Z" fill="#F7D39B"/>
<path fill-rule="evenodd" clip-rule="evenodd" d="M79.1827 85.0836C77.0744 85.5255 78.1589 89.6752 80.0503 89.2767C81.9417 88.8782 81.2736 84.6418 79.1827 85.0836Z" fill="#EE6F14"/>
<path d="M79.4867 89.5625C79.4496 89.4863 79.428 89.4036 79.423 89.319C79.418 89.2344 79.4297 89.1497 79.4575 89.0696C79.4853 88.9896 79.5286 88.9158 79.585 88.8525C79.6413 88.7891 79.7096 88.7375 79.786 88.7005C79.8623 88.6636 79.9452 88.642 80.0299 88.637C80.1146 88.632 80.1994 88.6437 80.2796 88.6715C80.3598 88.6992 80.4337 88.7425 80.4971 88.7987C80.5605 88.855 80.6122 88.9232 80.6492 88.9994C81.2728 90.1574 81.5156 91.4819 81.3433 92.7853C81.2652 93.5996 81.2132 94.1194 82.931 95.1071C83.0045 95.1492 83.069 95.2053 83.1207 95.2723C83.1725 95.3392 83.2105 95.4157 83.2327 95.4974C83.2549 95.579 83.2607 95.6642 83.2499 95.7481C83.239 95.832 83.2118 95.913 83.1696 95.9864C83.1275 96.0598 83.0712 96.1241 83.0042 96.1758C82.9371 96.2275 82.8605 96.2655 82.7787 96.2876C82.6969 96.3097 82.6116 96.3156 82.5276 96.3048C82.4436 96.2939 82.3625 96.2667 82.289 96.2246C79.8424 94.8212 79.9205 93.9808 80.0506 92.664C80.1982 91.5966 80.0006 90.51 79.4867 89.5625V89.5625Z" fill="#EE6F14"/>
<path fill-rule="evenodd" clip-rule="evenodd" d="M84.5808 79.9116C86.316 78.6728 83.7132 75.2768 82.1169 76.3943C80.5205 77.5119 82.8109 81.1418 84.5808 79.9116Z" fill="#EE6F14"/>
<path d="M82.5411 75.9005C82.606 75.9574 82.6591 76.0265 82.6973 76.1039C82.7355 76.1812 82.7581 76.2654 82.7637 76.3514C82.7693 76.4375 82.7579 76.5239 82.7302 76.6055C82.7024 76.6872 82.6588 76.7626 82.6018 76.8275C82.5448 76.8923 82.4756 76.9453 82.3981 76.9835C82.3207 77.0216 82.2364 77.0442 82.1502 77.0498C82.064 77.0554 81.9775 77.044 81.8957 77.0163C81.8139 76.9886 81.7384 76.945 81.6735 76.8881C80.6398 76.0669 79.8952 74.938 79.5479 73.6654C79.3049 72.8943 79.1401 72.4005 77.1706 72.1666C77.0858 72.1564 77.0037 72.1295 76.9292 72.0877C76.8547 72.0458 76.7892 71.9896 76.7365 71.9225C76.6837 71.8553 76.6447 71.7784 76.6217 71.6962C76.5987 71.6139 76.5921 71.528 76.6024 71.4432C76.6126 71.3585 76.6395 71.2766 76.6814 71.2022C76.7234 71.1278 76.7796 71.0624 76.8469 71.0097C76.9142 70.957 76.9912 70.9181 77.0735 70.8951C77.1558 70.8721 77.2419 70.8655 77.3268 70.8758C80.1205 71.2137 80.3807 72.0193 80.7972 73.2755C81.086 74.3032 81.6935 75.213 82.5324 75.8745L82.5411 75.9005Z" fill="#EE6F14"/>
<path fill-rule="evenodd" clip-rule="evenodd" d="M85.8649 100.626C83.748 100.21 84.7891 96.0427 86.7325 96.4239C88.6759 96.8051 88.0079 101.05 85.8649 100.626Z" fill="#EE6F14"/>
<path d="M87.288 96.7011C87.2515 96.7773 87.2004 96.8456 87.1375 96.9021C87.0746 96.9586 87.0012 97.0022 86.9214 97.0303C86.7603 97.0872 86.5832 97.0778 86.4291 97.0043C86.2749 96.9308 86.1563 96.7991 86.0993 96.6383C86.0424 96.4774 86.0518 96.3006 86.1254 96.1466C86.6293 95.1928 86.8147 94.1031 86.6546 93.0365C86.5158 91.7284 86.4291 90.888 88.8583 89.4586C89.0043 89.3779 89.1757 89.3563 89.3372 89.3982C89.4986 89.4401 89.6378 89.5424 89.7259 89.6838C89.8046 89.83 89.8251 90.0005 89.7833 90.1612C89.7414 90.3218 89.6404 90.4607 89.5004 90.5502C87.7652 91.5551 87.8432 92.0749 87.93 92.8806C88.119 94.1833 87.888 95.5122 87.2706 96.6751L87.288 96.7011Z" fill="#EE6F14"/>
<path d="M82.9032 44.652C83.341 44.5881 83.7867 44.6936 84.1492 44.9469C84.5117 45.2003 84.7636 45.5823 84.8533 46.015C84.9431 46.4476 84.8639 46.8981 84.6321 47.2744C84.4002 47.6507 84.0331 47.9244 83.6059 48.0394L66.601 51.5913C66.3726 51.6528 66.1341 51.667 65.9001 51.6331C65.666 51.5992 65.4414 51.5179 65.24 51.3941C65.0385 51.2704 64.8646 51.1068 64.7287 50.9135C64.5929 50.7201 64.4981 50.5011 64.4501 50.2699C64.4022 50.0386 64.402 49.8 64.4498 49.5688C64.4975 49.3375 64.5921 49.1183 64.7277 48.9249C64.8633 48.7314 65.0371 48.5676 65.2384 48.4437C65.4397 48.3197 65.6642 48.2381 65.8982 48.204L82.8685 44.652H82.9032Z" fill="#444642"/>
<path fill-rule="evenodd" clip-rule="evenodd" d="M225.295 179.592C231.29 185.803 218.285 194.259 214.884 196.996C212.03 206.985 226.041 197.325 228.61 197.862C230.596 198.452 260.338 217.164 250.759 230.904C247.194 236.024 233.034 247.174 219.187 247.105C200.829 256.045 171.869 268.416 157.839 269.144C149.242 269.586 161.874 230.523 168.528 228.427L196.899 219.321C195.554 214.661 196.413 200.6 202.764 192.465C206.078 188.22 217.808 183.941 225.321 179.678L225.295 179.592Z" fill="#FFC6B0"/>
<path fill-rule="evenodd" clip-rule="evenodd" d="M228.254 191.928L247.853 235.123L239.29 239.013L219.699 195.818L228.254 191.928Z" fill="#EE6F14"/>
<path d="M255.073 260.949C255.127 261.102 255.123 261.27 255.059 261.42C254.996 261.57 254.878 261.691 254.73 261.758C254.581 261.826 254.413 261.836 254.258 261.785C254.103 261.734 253.972 261.628 253.893 261.486L236.376 222.769C236.329 222.691 236.3 222.603 236.289 222.512C236.279 222.421 236.288 222.329 236.316 222.242C236.343 222.155 236.389 222.074 236.45 222.006C236.511 221.938 236.586 221.883 236.67 221.846C236.753 221.808 236.844 221.789 236.935 221.789C237.027 221.789 237.118 221.808 237.201 221.845C237.285 221.883 237.36 221.937 237.421 222.005C237.482 222.074 237.528 222.154 237.556 222.241L255.073 260.949Z" fill="#EE6F14"/>
<path d="M217.972 198.495C217.564 198.637 217.117 198.623 216.72 198.454C216.322 198.285 216.002 197.974 215.822 197.581C215.642 197.189 215.615 196.744 215.746 196.333C215.877 195.922 216.157 195.574 216.532 195.359L229.971 189.294C230.18 189.174 230.412 189.098 230.652 189.072C230.892 189.046 231.135 189.071 231.365 189.144C231.596 189.217 231.808 189.338 231.989 189.498C232.17 189.658 232.315 189.853 232.416 190.073C232.516 190.292 232.57 190.53 232.573 190.771C232.577 191.012 232.53 191.251 232.435 191.473C232.34 191.695 232.201 191.895 232.024 192.06C231.848 192.225 231.639 192.351 231.411 192.431L217.972 198.495Z" fill="#EE6F14"/>
<path fill-rule="evenodd" clip-rule="evenodd" d="M245.572 236.882L242.102 238.467L244.496 243.726C244.668 243.971 244.929 244.141 245.223 244.199C245.517 244.257 245.822 244.199 246.075 244.038L247.116 243.57C247.802 243.258 248.175 242.6 247.984 242.106L245.607 236.908L245.572 236.882Z" fill="#EE6F14"/>
<path fill-rule="evenodd" clip-rule="evenodd" d="M234.552 199.136L250.013 233.226C250.881 235.149 237.433 241.621 236.426 239.403L220.957 205.313L234.552 199.136Z" fill="#F2C9FF"/>
<path d="M221.833 206.803C221.421 206.96 220.965 206.954 220.558 206.787C220.15 206.62 219.821 206.305 219.638 205.904C219.454 205.504 219.43 205.049 219.571 204.632C219.711 204.215 220.005 203.867 220.393 203.658L233.832 197.551C234.041 197.43 234.273 197.354 234.514 197.328C234.754 197.302 234.997 197.327 235.227 197.4C235.457 197.473 235.669 197.594 235.85 197.754C236.031 197.914 236.176 198.11 236.277 198.329C236.378 198.548 236.432 198.786 236.435 199.027C236.438 199.268 236.391 199.507 236.296 199.729C236.202 199.951 236.062 200.151 235.886 200.316C235.709 200.481 235.5 200.607 235.272 200.687L221.833 206.803Z" fill="#F5E7DF"/>
<path d="M235.144 198.85L250.613 232.923C251.107 234.014 249.268 235.669 246.691 237.142C245.824 237.636 244.861 238.121 243.889 238.563C242.955 238.996 242 239.381 241.026 239.715C238.501 240.581 236.358 240.78 235.82 239.637L220.082 204.984L234.918 198.27L235.187 198.859L235.144 198.85ZM249.424 233.503L234.233 200.002L221.817 205.642L237.018 239.143C237.191 239.524 238.709 239.186 240.601 238.537C241.468 238.225 242.431 237.844 243.351 237.428C244.271 237.012 245.208 236.561 246.049 236.059C248.053 234.915 249.58 233.85 249.424 233.503V233.503Z" fill="#F5E7DF"/>
<path fill-rule="evenodd" clip-rule="evenodd" d="M250.914 210.598C254.315 211.706 256.571 218.282 253.344 221.531C255.947 227.231 255.547 232.334 239.592 232.455C228.938 231.649 229.632 227.136 231.446 224.398C228.99 226.044 221.711 221.201 227.741 214.869C223.767 216.844 220.54 206.907 227.992 204.091C227.012 202.809 226.474 200.496 227.125 199.405C230.595 190.915 248.286 188.004 249.301 200.6C253.309 201.683 254.385 207.6 250.949 210.58L250.914 210.598Z" fill="#FFC6B0"/>
<path d="M249.354 200.002C249.438 200.013 249.52 200.04 249.594 200.083C249.668 200.125 249.733 200.182 249.784 200.25C249.836 200.318 249.874 200.395 249.895 200.477C249.916 200.56 249.921 200.646 249.909 200.73C249.897 200.815 249.869 200.897 249.825 200.97C249.782 201.044 249.724 201.109 249.656 201.16C249.587 201.212 249.509 201.249 249.426 201.271C249.343 201.292 249.256 201.297 249.172 201.284C245.866 200.818 242.507 200.877 239.22 201.458C235.557 202.136 231.974 203.196 228.531 204.62C228.451 204.655 228.364 204.673 228.276 204.674C228.188 204.674 228.101 204.657 228.02 204.623C227.939 204.589 227.865 204.539 227.804 204.476C227.743 204.413 227.695 204.338 227.664 204.256C227.627 204.176 227.607 204.09 227.606 204.002C227.604 203.914 227.62 203.827 227.653 203.746C227.687 203.664 227.736 203.591 227.799 203.53C227.862 203.468 227.937 203.421 228.02 203.39C231.549 201.932 235.221 200.849 238.977 200.158C242.396 199.553 245.89 199.491 249.328 199.976L249.354 200.002Z" fill="#181F39"/>
<path d="M250.949 209.956C251.108 209.981 251.252 210.063 251.354 210.187C251.456 210.311 251.508 210.469 251.501 210.629C251.493 210.789 251.426 210.941 251.313 211.055C251.2 211.169 251.049 211.238 250.889 211.247C246.902 211.057 242.907 211.401 239.011 212.269C235.269 213.115 231.583 214.194 227.975 215.501C227.813 215.556 227.636 215.545 227.482 215.469C227.328 215.393 227.211 215.26 227.156 215.098C227.1 214.936 227.112 214.759 227.187 214.605C227.263 214.452 227.397 214.334 227.559 214.279C231.224 212.956 234.968 211.859 238.768 210.996C242.773 210.109 246.878 209.759 250.975 209.956H250.949Z" fill="#181F39"/>
<path d="M253.474 220.898C253.565 220.906 253.654 220.934 253.734 220.978C253.814 221.023 253.883 221.084 253.938 221.158C253.992 221.231 254.031 221.315 254.051 221.405C254.071 221.494 254.071 221.586 254.053 221.676C254.034 221.766 253.997 221.85 253.944 221.925C253.89 221.999 253.822 222.061 253.742 222.107C253.663 222.153 253.575 222.182 253.484 222.191C253.393 222.201 253.301 222.191 253.214 222.163C249.978 221.48 246.654 221.317 243.366 221.678C239.332 222.173 235.398 223.289 231.706 224.987C231.549 225.056 231.372 225.06 231.212 224.998C231.053 224.937 230.925 224.814 230.856 224.658C230.787 224.502 230.783 224.325 230.844 224.165C230.906 224.006 231.029 223.878 231.185 223.809C234.995 222.037 239.058 220.868 243.228 220.344C246.649 219.974 250.107 220.146 253.474 220.855V220.898Z" fill="#181F39"/>
<path fill-rule="evenodd" clip-rule="evenodd" d="M125.601 233.521C144.601 231.234 178.238 225.239 190.67 221.253L209.654 258.558C186.541 274.212 134.476 284.911 112.109 278.215L125.601 233.521Z" fill="#F4A46A"/>
<path fill-rule="evenodd" clip-rule="evenodd" d="M235.223 258.583H293.933V264.994H235.223V258.583Z" fill="#F5E7DF"/>
<path fill-rule="evenodd" clip-rule="evenodd" d="M197.984 105.027L211.736 87.726L271.774 135.331L258.014 152.623L197.984 105.027Z" fill="#F6D39B"/>
<path d="M198.825 105.694C198.646 105.923 198.384 106.073 198.095 106.11C197.806 106.146 197.515 106.067 197.285 105.889C197.055 105.711 196.905 105.448 196.868 105.16C196.831 104.872 196.911 104.581 197.089 104.351L210.841 87.0242C211.019 86.7945 211.282 86.6449 211.57 86.6083C211.859 86.5718 212.151 86.6513 212.381 86.8293C212.611 87.0074 212.761 87.2694 212.797 87.5578C212.834 87.8462 212.754 88.1373 212.576 88.3671L198.816 105.694H198.825Z" fill="#181F39"/>
<path fill-rule="evenodd" clip-rule="evenodd" d="M261.656 148.975L277.671 149.053L277.246 235.79L261.23 235.712L261.656 148.975Z" fill="#F6D39B"/>
<path fill-rule="evenodd" clip-rule="evenodd" d="M256.598 153.55L282.452 153.671L282.175 210.45L256.32 210.32L256.598 153.55Z" fill="#F6D39B"/>
<path d="M261.224 236.795C260.939 236.791 260.667 236.675 260.465 236.473C260.264 236.27 260.151 235.997 260.148 235.712C260.151 235.427 260.266 235.153 260.469 234.952C260.672 234.751 260.947 234.638 261.233 234.638L277.249 234.716C277.519 234.74 277.77 234.864 277.952 235.064C278.135 235.264 278.236 235.524 278.236 235.795C278.236 236.065 278.135 236.326 277.952 236.525C277.77 236.725 277.519 236.849 277.249 236.873L261.233 236.795H261.224Z" fill="#181F39"/>
<path d="M256.31 211.403C256.024 211.401 255.75 211.286 255.549 211.083C255.347 210.88 255.234 210.606 255.234 210.32C255.234 210.178 255.262 210.038 255.317 209.907C255.372 209.776 255.452 209.657 255.553 209.558C255.653 209.458 255.773 209.379 255.905 209.325C256.036 209.272 256.177 209.245 256.319 209.246L282.173 209.367C282.323 209.354 282.474 209.372 282.617 209.42C282.76 209.468 282.891 209.545 283.002 209.647C283.113 209.748 283.202 209.872 283.263 210.009C283.323 210.147 283.355 210.295 283.355 210.446C283.355 210.596 283.323 210.745 283.263 210.883C283.202 211.02 283.113 211.144 283.002 211.245C282.891 211.347 282.76 211.424 282.617 211.472C282.474 211.52 282.323 211.538 282.173 211.524L256.319 211.403H256.31Z" fill="#181F39"/>
<path fill-rule="evenodd" clip-rule="evenodd" d="M341.207 319.435C312.472 339.005 277.812 340.062 242.301 332.785C260.382 309.151 311.127 305.929 341.207 319.435Z" fill="#EE6F14"/>
<path fill-rule="evenodd" clip-rule="evenodd" d="M320.706 264.977H209.758C209.758 279.843 232.098 288.74 310.581 287.969C317.678 287.9 320.741 268.564 320.741 264.977H320.706Z" fill="#EE6F14"/>
<path fill-rule="evenodd" clip-rule="evenodd" d="M254.127 123.765L285.404 124.12C286.559 124.131 287.7 124.369 288.762 124.821C289.824 125.274 290.786 125.932 291.593 126.757C292.399 127.583 293.034 128.559 293.461 129.631C293.888 130.702 294.098 131.847 294.08 133L293.421 170.253C293.364 172.579 292.395 174.79 290.722 176.41C289.049 178.03 286.806 178.93 284.476 178.916L253.138 178.604C251.983 178.593 250.843 178.354 249.781 177.901C248.719 177.448 247.758 176.79 246.951 175.965C246.145 175.14 245.51 174.163 245.083 173.092C244.656 172.021 244.445 170.877 244.462 169.724L245.121 132.472C245.178 130.146 246.147 127.934 247.82 126.314C249.493 124.694 251.736 123.794 254.066 123.809L254.127 123.765Z" fill="#EE6F14"/>
<path fill-rule="evenodd" clip-rule="evenodd" d="M293.385 170.279C353.9 157.89 354.325 241.049 297.315 313.275L341.216 319.426C404.23 164.977 348.591 133.745 293.923 140.096C290.323 147.719 285.586 166.085 293.385 170.296V170.279Z" fill="#EE6F14"/>
<path fill-rule="evenodd" clip-rule="evenodd" d="M280.465 155.542C281.815 155.542 283.135 155.942 284.258 156.691C285.381 157.44 286.256 158.505 286.773 159.751C287.29 160.997 287.425 162.368 287.162 163.69C286.898 165.013 286.248 166.228 285.293 167.181C284.338 168.135 283.121 168.784 281.797 169.047C280.472 169.31 279.099 169.175 277.852 168.659C276.604 168.143 275.538 167.269 274.787 166.148C274.037 165.027 273.637 163.709 273.637 162.36C273.637 161.465 273.813 160.578 274.156 159.751C274.5 158.924 275.003 158.172 275.637 157.539C276.271 156.906 277.023 156.404 277.852 156.061C278.68 155.719 279.568 155.542 280.465 155.542V155.542Z" fill="#181F39"/>
<path fill-rule="evenodd" clip-rule="evenodd" d="M326.882 261.945C331.057 261.945 335.139 263.181 338.61 265.498C342.082 267.814 344.787 271.107 346.385 274.959C347.982 278.81 348.4 283.049 347.585 287.138C346.769 291.227 344.758 294.983 341.805 297.93C338.852 300.877 335.09 302.884 330.995 303.697C326.9 304.509 322.655 304.09 318.798 302.494C314.941 300.897 311.645 298.194 309.327 294.727C307.008 291.259 305.772 287.183 305.773 283.014C305.773 280.246 306.319 277.506 307.38 274.949C308.441 272.392 309.996 270.069 311.957 268.113C313.917 266.156 316.244 264.604 318.805 263.546C321.366 262.488 324.11 261.944 326.882 261.945V261.945Z" fill="#181F39"/>
<path fill-rule="evenodd" clip-rule="evenodd" d="M180.988 320.509C172.876 320.777 179.877 328.254 172.017 329.77C133.487 333.382 88.3977 342.236 56.7998 311.464C43.2826 193.219 70.7941 137.54 120.638 121.166L158.17 141.421C192.544 201.051 185.282 261.737 181.717 312.166C181.534 314.904 181.283 317.685 180.988 320.474V320.509Z" fill="#F28058"/>
<path fill-rule="evenodd" clip-rule="evenodd" d="M139.61 97.4808C121.485 98.7456 127.758 20.9492 162.167 31.1979C178.27 17.1546 199.248 61.5714 204.549 63.9884C205.209 66.0936 203.925 69.4463 199.691 68.0342C197.088 75.0082 197.088 77.7111 190.815 80.1628C177.515 85.3608 146.03 109.956 139.627 97.4894L139.61 97.4808Z" fill="#181F39"/>
<path fill-rule="evenodd" clip-rule="evenodd" d="M180.501 90.3248C178.202 84.1479 153.553 74.2804 149.424 76.7321C145.554 91.1305 129.668 113.889 120.637 121.166C128.792 132.983 151.41 140.494 158.169 141.421C159.297 128.045 169.031 106.768 180.501 90.3075V90.3248Z" fill="#FFC6B0"/>
<path fill-rule="evenodd" clip-rule="evenodd" d="M170.438 52.5183C166.967 56.3562 163.132 63.6853 154.422 64.0405C149.129 52.2844 133.877 68.2075 149.424 76.7322C142.423 93.1925 150.37 101.986 163.306 107.617C179.339 114.548 187.998 103.97 199.658 67.9996C184.545 62.6457 180.259 54.8054 170.438 52.5183Z" fill="#FFC6B0"/>
<path d="M179.522 80.2322C179.511 80.1479 179.517 80.0623 179.54 79.9803C179.563 79.8984 179.601 79.8217 179.654 79.7548C179.706 79.6879 179.771 79.6321 179.846 79.5906C179.92 79.5491 180.002 79.5228 180.086 79.5131C180.259 79.4935 180.432 79.5426 180.568 79.6496C180.705 79.7566 180.793 79.913 180.815 80.0849C181.275 83.8968 181.11 86.617 180.555 88.4883C180.267 89.6772 179.593 90.7373 178.637 91.5031C177.837 92.0769 176.844 92.3163 175.87 92.1702C174.959 92.031 174.092 91.6842 173.336 91.1566C173.199 91.0647 173.102 90.9226 173.068 90.7606C173.034 90.5986 173.065 90.4298 173.154 90.2903C173.249 90.1561 173.391 90.0627 173.552 90.029C173.713 89.9952 173.881 90.0236 174.022 90.1084C174.612 90.5205 175.289 90.793 176 90.9054C176.646 91.008 177.307 90.8523 177.839 90.4722C178.563 89.8765 179.067 89.0562 179.271 88.1418C179.783 86.4091 179.93 83.8881 179.488 80.2582L179.522 80.2322Z" fill="#181F39"/>
<path d="M194.018 74.9649C192.273 73.8426 190.293 73.1343 188.231 72.8944H188.11C187.944 72.8757 187.777 72.9189 187.641 73.0157V73.0157C186.262 74.0119 186.123 74.9216 186.774 75.7879C187.424 76.6542 189.324 77.4339 191.25 78.1443C192.677 78.589 194.041 79.2119 195.311 79.9983C195.446 80.0886 195.609 80.1253 195.77 80.1013C195.93 80.0772 196.076 79.9941 196.178 79.8683C196.248 79.7805 196.293 79.6759 196.309 79.5651V79.5651V79.5131C196.402 78.6157 196.236 77.7104 195.83 76.9044C195.424 76.0983 194.795 75.4253 194.018 74.9649V74.9649Z" fill="#181F39"/>
<path d="M163.609 75.8658C163.482 75.7649 163.397 75.6199 163.371 75.4596C163.346 75.2992 163.381 75.1351 163.471 74.9995C163.57 74.8706 163.716 74.7845 163.877 74.7588C164.038 74.733 164.203 74.7695 164.338 74.8609C165.862 75.9442 167.51 76.84 169.249 77.5292C171.058 78.2579 172.944 78.7782 174.871 79.0799C175.042 79.104 175.197 79.1952 175.301 79.3333C175.405 79.4714 175.45 79.6451 175.426 79.8163C175.402 79.9875 175.311 80.142 175.172 80.246C175.034 80.35 174.86 80.3949 174.689 80.3708C172.656 80.0519 170.668 79.4995 168.763 78.7247C166.918 78.0016 165.169 77.053 163.557 75.9005L163.609 75.8658Z" fill="#181F39"/>
<path fill-rule="evenodd" clip-rule="evenodd" d="M167.191 77.3906C168.571 77.5119 173.143 79.1233 173.959 79.4352C173.619 79.8881 173.183 80.2599 172.682 80.5236C172.181 80.7874 171.627 80.9364 171.061 80.9599C170.571 80.9831 170.082 80.9089 169.621 80.7414C169.16 80.5739 168.738 80.3166 168.378 79.9844C168.017 79.6522 167.727 79.2518 167.523 78.8065C167.32 78.3612 167.207 77.8799 167.191 77.3906V77.3906Z" fill="#181F39"/>
<path d="M182.706 83.4722C182.569 83.3807 182.473 83.2412 182.435 83.0816C182.398 82.9219 182.422 82.754 182.503 82.6115C182.584 82.469 182.717 82.3625 182.873 82.3132C183.03 82.264 183.199 82.2757 183.348 82.346C184.926 83.2664 186.584 84.0434 188.302 84.6677C189.908 85.3106 191.646 85.5572 193.368 85.3868C193.454 85.3703 193.542 85.3711 193.627 85.3892C193.712 85.4073 193.793 85.4423 193.864 85.4921C193.936 85.5419 193.996 85.6055 194.043 85.6791C194.089 85.7528 194.12 85.8349 194.134 85.9208C194.148 86.0066 194.145 86.0944 194.124 86.1788C194.103 86.2633 194.066 86.3428 194.014 86.4126C193.962 86.4823 193.896 86.541 193.821 86.585C193.746 86.6291 193.663 86.6576 193.577 86.669C191.639 86.8707 189.682 86.6064 187.868 85.8979C186.063 85.2482 184.32 84.4363 182.662 83.4722H182.706Z" fill="#181F39"/>
<path fill-rule="evenodd" clip-rule="evenodd" d="M185.828 84.7197C188.074 85.0134 190.297 85.4592 192.483 86.0539C192.203 86.5163 191.825 86.9115 191.375 87.211C190.925 87.5105 190.415 87.7071 189.88 87.7865C189.414 87.8535 188.939 87.8273 188.484 87.7093C188.028 87.5913 187.6 87.384 187.226 87.0994C186.851 86.8148 186.537 86.4586 186.301 86.0515C186.066 85.6444 185.914 85.1947 185.854 84.7284L185.828 84.7197Z" fill="#181F39"/>
<path d="M180.988 70.5119C180.95 70.3575 180.861 70.2203 180.736 70.1221C178.81 68.6299 176.621 67.5131 174.281 66.83C171.988 66.2203 169.561 66.3414 167.34 67.1766C167.239 67.2144 167.148 67.277 167.077 67.3587C167.006 67.4405 166.956 67.5386 166.933 67.6444C166.912 67.7269 166.909 67.8128 166.922 67.8967C166.936 67.9807 166.966 68.0611 167.011 68.133C167.057 68.205 167.116 68.2671 167.186 68.3156C167.256 68.3642 167.335 68.3981 167.418 68.4154C169.25 68.9724 171.027 69.6944 172.728 70.5726C175.548 71.8981 178.359 73.2235 179.842 72.903C180.823 72.6518 181.3 71.9674 180.988 70.5119Z" fill="#181F39"/>
<path fill-rule="evenodd" clip-rule="evenodd" d="M161.23 78.6381C166.67 84.6157 175.815 85.3781 180.907 87.6132C185.445 89.6058 186.339 92.3001 190.008 93.1058C188.985 96.1119 186.009 102.358 182.139 105.815C171.954 114.92 157.586 108.015 148.997 96.3545C147.904 91.581 155.79 82.4932 161.23 78.6381V78.6381Z" fill="#FAF5F2"/>
<path d="M161.586 79.3918C161.697 79.5236 161.752 79.6935 161.739 79.8651C161.726 80.0368 161.646 80.1965 161.517 80.3101C161.453 80.3658 161.378 80.4082 161.297 80.4349C161.217 80.4616 161.131 80.472 161.047 80.4655C160.962 80.4591 160.879 80.4359 160.804 80.3973C160.728 80.3588 160.661 80.3056 160.606 80.2408C159.044 78.4562 157.734 74.4971 156.537 70.8931C155.582 68.0083 154.697 65.3659 153.934 64.465C153.877 64.4007 153.833 64.3258 153.805 64.2447C153.777 64.1635 153.766 64.0777 153.771 63.992C153.776 63.9063 153.798 63.8225 153.836 63.7453C153.873 63.6682 153.926 63.5992 153.99 63.5423C154.055 63.4854 154.13 63.4418 154.211 63.4138C154.292 63.3859 154.378 63.3742 154.464 63.3794C154.55 63.3846 154.634 63.4067 154.711 63.4443C154.788 63.4819 154.857 63.5344 154.914 63.5986C155.851 64.6902 156.762 67.4538 157.769 70.46C158.923 73.9253 160.198 77.7718 161.586 79.3658V79.3918Z" fill="#FAF5F2"/>
<path d="M162.844 106.846C162.975 106.906 163.076 107.016 163.127 107.15C163.177 107.285 163.172 107.434 163.113 107.565C163.083 107.629 163.041 107.688 162.988 107.736C162.936 107.784 162.874 107.821 162.807 107.845C162.74 107.869 162.669 107.88 162.598 107.876C162.527 107.873 162.457 107.855 162.393 107.825C161.525 107.426 160.658 107.01 159.894 106.595C152.823 102.835 148.711 98.2951 146.984 93.3224C145.258 88.3497 145.926 82.9265 148.442 77.5292C148.711 76.9488 148.997 76.377 149.31 75.7966C149.378 75.6693 149.494 75.5741 149.632 75.5319C149.77 75.4897 149.919 75.5039 150.047 75.5713C150.11 75.604 150.166 75.649 150.211 75.7037C150.256 75.7583 150.29 75.8214 150.31 75.8893C150.33 75.9572 150.336 76.0284 150.329 76.0988C150.321 76.1692 150.299 76.2373 150.264 76.299C149.969 76.8621 149.691 77.4166 149.44 77.9624C147.045 83.1604 146.386 88.2544 148.017 92.9499C149.648 97.6454 153.604 102.003 160.424 105.624C161.204 106.04 162.02 106.439 162.861 106.828L162.844 106.846Z" fill="#181F39"/>
<path d="M148.156 63.9885C148.099 63.9459 148.052 63.8926 148.016 63.8316C147.98 63.7707 147.957 63.7033 147.947 63.6332C147.937 63.5632 147.942 63.492 147.96 63.4236C147.978 63.3552 148.009 63.2911 148.052 63.2348C148.139 63.1203 148.269 63.0451 148.412 63.0256C148.555 63.0062 148.7 63.044 148.815 63.1308C149.88 63.9235 150.628 65.0691 150.923 66.3623C151.2 67.7909 151.08 69.2679 150.576 70.6333C150.533 70.7688 150.437 70.8814 150.31 70.9464C150.183 71.0114 150.035 71.0234 149.9 70.9798C149.816 70.9519 149.74 70.9043 149.678 70.841C149.616 70.7777 149.57 70.7005 149.544 70.6159V70.6159C149.351 69.8892 149.06 69.1925 148.676 68.5454C148.349 68.0009 147.925 67.5197 147.427 67.1246C147.371 67.0814 147.324 67.0276 147.289 66.9663C147.254 66.9051 147.232 66.8375 147.223 66.7675C147.214 66.6975 147.219 66.6265 147.238 66.5584C147.256 66.4904 147.288 66.4267 147.332 66.3709C147.374 66.3135 147.427 66.2652 147.488 66.2287C147.549 66.1923 147.616 66.1685 147.687 66.1588C147.757 66.1491 147.829 66.1537 147.898 66.1723C147.966 66.1908 148.031 66.223 148.086 66.267C148.691 66.7484 149.202 67.3355 149.596 67.9996C149.73 68.2092 149.851 68.4262 149.96 68.6494C150.055 67.9743 150.028 67.288 149.882 66.6222C149.635 65.576 149.019 64.6535 148.147 64.0232L148.156 63.9885Z" fill="#181F39"/>
<path d="M151.324 90.6021C151.428 90.74 151.472 90.9133 151.448 91.0839C151.424 91.2545 151.332 91.4084 151.194 91.5118C151.056 91.6152 150.883 91.6596 150.712 91.6352C150.541 91.6108 150.387 91.5197 150.283 91.3818C149.771 90.7061 148.939 87.6826 148.34 84.3992C147.842 81.9441 147.592 79.4452 147.594 76.9401C147.603 76.7693 147.679 76.6089 147.806 76.4937C147.932 76.3786 148.099 76.3179 148.27 76.325C148.442 76.334 148.604 76.4097 148.721 76.5359C148.837 76.6622 148.9 76.829 148.895 77.0008C148.894 79.4099 149.136 81.813 149.615 84.174C150.179 87.2754 150.917 90.065 151.35 90.6021H151.324Z" fill="#FAF5F2"/>
<path fill-rule="evenodd" clip-rule="evenodd" d="M153.857 15.2054C207.406 6.75006 218.867 38.7956 204.551 63.9885C195.667 57.3177 143.325 49.7893 129.599 73.3535C118.65 66.3016 100.327 23.6955 153.892 15.2401L153.857 15.2054Z" fill="#F7D39B"/>
<path d="M130.129 73.6567C130.038 73.7951 129.898 73.8942 129.738 73.9343C129.577 73.9744 129.407 73.9526 129.261 73.8733C129.121 73.7839 129.021 73.6443 128.98 73.4832C128.94 73.3221 128.963 73.1517 129.045 73.0069C129.515 72.2338 130.025 71.4849 130.572 70.7631C139.248 59.2323 155.619 56.0355 170.854 56.3474C186.089 56.6593 200.153 60.5058 204.37 63.0788C204.578 63.2059 204.769 63.3358 204.942 63.4686C205.07 63.5696 205.154 63.7153 205.179 63.8762C205.203 64.037 205.165 64.201 205.072 64.335C204.97 64.4608 204.824 64.5439 204.664 64.5679C204.503 64.5919 204.339 64.5552 204.205 64.4649C204.077 64.3725 203.921 64.2686 203.736 64.153C199.641 61.6494 185.82 57.9241 170.872 57.6123C155.923 57.3004 140.028 60.3845 131.647 71.4735C131.144 72.1493 130.658 72.8597 130.198 73.6134L130.129 73.6567Z" fill="#181F39"/>
<path d="M133.956 67.757C134.071 67.8703 134.14 68.0224 134.149 68.1836C134.158 68.3449 134.107 68.5037 134.005 68.6292C133.903 68.7547 133.758 68.8378 133.598 68.8623C133.438 68.8869 133.275 68.8511 133.14 68.7619C131.826 67.6822 130.646 66.449 129.626 65.0887C128.639 63.831 127.841 62.4359 127.258 60.9476C127.223 60.8655 127.206 60.7771 127.207 60.688C127.208 60.5989 127.228 60.511 127.264 60.4298C127.301 60.3485 127.354 60.2757 127.42 60.2157C127.486 60.1558 127.564 60.11 127.648 60.0813C127.731 60.0483 127.82 60.0326 127.909 60.0349C127.998 60.0372 128.086 60.0577 128.167 60.0949C128.249 60.1322 128.321 60.1855 128.381 60.2517C128.441 60.3178 128.487 60.3955 128.516 60.4798C129.058 61.8414 129.791 63.119 130.693 64.2744C131.652 65.5553 132.758 66.7185 133.99 67.7397L133.956 67.757Z" fill="#181F39"/>
<path d="M145.764 60.5232C145.879 60.6564 145.936 60.8299 145.923 61.0054C145.91 61.1808 145.828 61.3439 145.694 61.4588C145.561 61.5737 145.387 61.6309 145.211 61.6179C145.036 61.6049 144.872 61.5228 144.757 61.3895C144.12 60.6005 143.54 59.7667 143.022 58.8945C142.556 58.1472 142.166 57.3548 141.86 56.5294C141.824 56.4476 141.805 56.3593 141.805 56.27C141.804 56.1807 141.823 56.0923 141.858 56.0103C141.894 55.9284 141.946 55.8546 142.011 55.7936C142.076 55.7326 142.154 55.6857 142.238 55.6559C142.322 55.626 142.412 55.6139 142.501 55.6201C142.59 55.6264 142.677 55.6509 142.756 55.6923C142.836 55.7336 142.906 55.7908 142.962 55.8603C143.018 55.9298 143.059 56.0101 143.083 56.0962C143.361 56.8368 143.713 57.5478 144.133 58.2187C144.625 59.0217 145.17 59.7916 145.764 60.5232V60.5232Z" fill="#181F39"/>
<path d="M197.845 61.6667C197.787 61.7299 197.718 61.7812 197.64 61.8175C197.563 61.8539 197.479 61.8747 197.394 61.8787C197.308 61.8827 197.223 61.8699 197.143 61.841C197.062 61.812 196.988 61.7676 196.925 61.7101C196.805 61.5871 196.738 61.4224 196.738 61.2509C196.738 61.0794 196.805 60.9147 196.925 60.7917C197.996 59.6079 198.92 58.2989 199.675 56.8933C200.403 55.6206 200.941 54.249 201.272 52.8215C201.285 52.7346 201.315 52.6511 201.361 52.5763C201.408 52.5015 201.468 52.4367 201.54 52.3861C201.612 52.3354 201.694 52.2999 201.78 52.2816C201.866 52.2633 201.955 52.2626 202.041 52.2796C202.128 52.2966 202.21 52.331 202.282 52.3805C202.355 52.4301 202.417 52.4939 202.464 52.5681C202.512 52.6422 202.543 52.7252 202.557 52.8119C202.572 52.8987 202.568 52.9874 202.547 53.0727C202.186 54.6299 201.602 56.1268 200.812 57.517C200.003 59.0119 199.019 60.405 197.879 61.6667H197.845Z" fill="#181F39"/>
<path d="M188.796 59.1543C188.676 59.2556 188.522 59.3097 188.365 59.3067C188.207 59.3037 188.056 59.2437 187.94 59.1379C187.823 59.032 187.749 58.8876 187.731 58.7313C187.713 58.575 187.752 58.4175 187.842 58.288C188.496 57.5849 189.102 56.8382 189.655 56.0529C190.114 55.4079 190.509 54.7204 190.835 53.9997C190.868 53.9192 190.917 53.8461 190.979 53.7848C191.041 53.7236 191.114 53.6753 191.195 53.643C191.276 53.6107 191.363 53.5949 191.45 53.5967C191.537 53.5984 191.623 53.6176 191.703 53.6531C191.782 53.6871 191.855 53.7365 191.915 53.7985C191.976 53.8605 192.024 53.9338 192.056 54.0143C192.089 54.0948 192.105 54.1809 192.103 54.2676C192.102 54.3543 192.084 54.4399 192.05 54.5195C191.689 55.3227 191.25 56.0887 190.74 56.8066C190.15 57.6389 189.507 58.4318 188.813 59.1803L188.796 59.1543Z" fill="#181F39"/>
<path d="M185.795 58.5912C185.714 58.7403 185.577 58.8513 185.415 58.9C185.252 58.9487 185.077 58.9311 184.927 58.8511C184.779 58.7688 184.67 58.6323 184.621 58.4706C184.573 58.3089 184.589 58.1347 184.667 57.9848C185.427 56.5838 186.01 55.0938 186.402 53.5492C186.805 52.1411 187.001 50.6819 186.983 49.2175C186.975 49.0452 187.036 48.8767 187.152 48.7492C187.269 48.6217 187.431 48.5455 187.604 48.5375C187.776 48.5294 187.945 48.5902 188.073 48.7063C188.2 48.8225 188.277 48.9846 188.285 49.1569C188.306 50.7554 188.096 52.3487 187.66 53.887C187.235 55.5329 186.611 57.1212 185.803 58.6172L185.795 58.5912Z" fill="#181F39"/>
<path fill-rule="evenodd" clip-rule="evenodd" d="M262.543 270.833L266.222 301.363C281.752 300.852 296.987 289.39 299.989 284.365C315.727 282.191 319.943 296.494 327.309 286.453C328.177 287.016 334.649 293.652 341.512 284.799C336.792 278.639 330.346 271.665 327.023 269.439C332.81 270.002 341.347 279.063 345.963 268.347C344.887 267.385 342.874 265.601 341.581 264.63C343.672 264.258 345.052 261.823 344.713 260.455C327.448 246.957 301.264 242.816 288.588 251.999L262.56 270.851L262.543 270.833Z" fill="#FFC6B0"/>
<path d="M300.576 254.971C300.404 254.971 300.238 254.902 300.116 254.781C299.994 254.659 299.926 254.493 299.926 254.321C299.926 254.149 299.994 253.984 300.116 253.862C300.238 253.74 300.404 253.671 300.576 253.671C314.111 253.923 322.162 254.364 328.539 256.27C334.916 258.176 339.627 261.633 346.386 267.819C346.505 267.941 346.573 268.106 346.573 268.278C346.573 268.449 346.505 268.614 346.386 268.737C346.328 268.8 346.259 268.851 346.181 268.888C346.104 268.924 346.02 268.945 345.935 268.949C345.849 268.953 345.764 268.94 345.684 268.911C345.603 268.882 345.529 268.838 345.466 268.78C338.864 262.716 334.317 259.381 328.114 257.518C321.911 255.655 313.929 255.187 300.516 254.919L300.576 254.971Z" fill="#181F39"/>
<path d="M300.968 263.574C300.883 263.569 300.8 263.548 300.723 263.511C300.646 263.474 300.577 263.422 300.521 263.358C300.464 263.295 300.421 263.22 300.394 263.14C300.366 263.059 300.355 262.974 300.361 262.889C300.365 262.803 300.387 262.719 300.424 262.642C300.462 262.565 300.515 262.496 300.579 262.439C300.644 262.383 300.72 262.34 300.801 262.313C300.883 262.286 300.969 262.276 301.055 262.283C312.412 263.036 319.587 264.44 325.478 267.732C331.369 271.024 335.889 276.17 342.032 284.4C342.124 284.534 342.162 284.698 342.138 284.859C342.114 285.02 342.029 285.165 341.902 285.266C341.763 285.37 341.59 285.414 341.419 285.39C341.248 285.365 341.094 285.274 340.991 285.136C334.987 277.045 330.579 272.012 324.853 268.832C319.127 265.653 312.134 264.284 300.968 263.539V263.574Z" fill="#181F39"/>
<path d="M301.721 274.507C301.548 274.507 301.383 274.438 301.261 274.316C301.139 274.195 301.07 274.029 301.07 273.857C301.07 273.685 301.139 273.519 301.261 273.398C301.383 273.276 301.548 273.207 301.721 273.207C307.629 273.207 311.091 273.207 314.666 274.862C318.24 276.517 321.745 279.705 327.749 285.986C327.833 286.115 327.868 286.269 327.849 286.421C327.829 286.574 327.756 286.714 327.643 286.818C327.53 286.922 327.383 286.982 327.229 286.989C327.076 286.995 326.925 286.946 326.803 286.852C320.886 280.658 317.451 277.548 314.093 276.006C310.735 274.463 307.447 274.507 301.721 274.507Z" fill="#181F39"/>
<path fill-rule="evenodd" clip-rule="evenodd" d="M120.637 121.166C131.386 153.844 155.532 145.025 148.547 195.567C145.78 215.631 169.708 261.624 169.422 270.781C190.687 272.982 224.861 273.294 262.541 270.781L267.018 309.697C181.447 339.256 138.162 333.764 117.114 306.318C106.061 291.903 84.1456 249.461 84.5967 209.419C85.0479 169.785 85.6465 134.179 120.68 121.201L120.637 121.166Z" fill="#F28058"/>
<path d="M83.9044 209.471C83.8906 209.299 83.9459 209.128 84.0582 208.997C84.1705 208.865 84.3305 208.783 84.5031 208.77C84.6756 208.756 84.8466 208.811 84.9784 208.923C85.1102 209.035 85.192 209.195 85.2058 209.367C87.2187 232.758 91.1836 252.684 97.2481 269.551C103.313 286.419 111.433 300.124 121.801 311.135C131.232 321.141 149.174 328.973 177.675 328.609C200.362 328.323 229.73 322.831 266.751 309.108C266.833 309.073 266.922 309.056 267.011 309.057C267.1 309.059 267.188 309.078 267.27 309.115C267.351 309.151 267.424 309.204 267.484 309.27C267.544 309.336 267.59 309.413 267.618 309.498C267.655 309.579 267.673 309.667 267.673 309.756C267.673 309.845 267.655 309.933 267.619 310.015C267.583 310.096 267.53 310.17 267.465 310.23C267.399 310.29 267.321 310.336 267.237 310.364C230.051 324.139 200.553 329.649 177.727 329.934C148.809 330.307 130.538 322.293 120.89 312.053C110.401 300.938 102.176 287.042 96.0595 270.045C89.9429 253.048 85.9693 233.009 83.9131 209.532L83.9044 209.471Z" fill="#181F39"/>
<path fill-rule="evenodd" clip-rule="evenodd" d="M268.676 89.7531C272.242 88.5922 274.055 86.6516 275.781 80.9338C277.3 85.5167 279.642 88.4276 282.93 89.4672C278.931 90.6801 276.987 94.5526 275.434 98.2951C274.827 94.7345 272.892 90.784 268.676 89.7531Z" fill="#FAF5F2"/>
<path fill-rule="evenodd" clip-rule="evenodd" d="M374.312 137.843C371.588 136.977 370.209 135.478 368.89 131.129C367.736 134.594 365.949 136.838 363.441 137.627C366.495 138.553 367.979 141.499 369.159 144.358C369.619 141.646 371.094 138.631 374.312 137.843Z" fill="#E4A745"/>
<path fill-rule="evenodd" clip-rule="evenodd" d="M38.1189 153.065C41.4158 151.99 43.0903 150.197 44.6866 144.912C46.0835 149.149 48.2525 151.843 51.2891 152.796C47.5931 153.922 45.7972 157.491 44.3483 160.957C43.7843 157.665 41.9971 154.026 38.1016 153.065H38.1189Z" fill="#FAF5F2"/>
<path fill-rule="evenodd" clip-rule="evenodd" d="M28.4792 183.923C29.0361 183.231 29.786 182.72 30.634 182.453C31.4821 182.187 32.3902 182.178 33.2435 182.427C34.0968 182.676 34.8569 183.172 35.4278 183.853C35.9986 184.533 36.3545 185.368 36.4504 186.25C36.5463 187.133 36.3779 188.024 35.9666 188.811C35.5552 189.598 34.9194 190.245 34.1394 190.671C33.3595 191.097 32.4705 191.283 31.585 191.204C30.6995 191.126 29.8572 190.787 29.1646 190.23C28.2366 189.484 27.643 188.401 27.5145 187.218C27.386 186.036 27.733 184.85 28.4792 183.923V183.923Z" fill="#E4A745"/>
<path fill-rule="evenodd" clip-rule="evenodd" d="M114.553 329.337C117.599 328.34 119.152 326.686 120.627 321.808C121.919 325.715 123.923 328.202 126.7 329.086C123.281 330.125 121.624 333.417 120.297 336.631C119.785 333.59 118.128 330.212 114.527 329.337H114.553Z" fill="#E4A745"/>
</svg>
