<svg width="721" height="648" viewBox="0 0 721 648" fill="none" xmlns="http://www.w3.org/2000/svg">
<g filter="url(#filter0_i_91_1470)">
<circle cx="279" cy="74" r="74" fill="#F79C0A" fill-opacity="0.1"/>
</g>
<g clip-path="url(#clip0_91_1470)">
<path d="M503.236 289.586C513.584 298.005 526.674 314.54 529.838 318.8C533.001 323.06 548.749 418.869 551.442 425.015C554.134 431.16 590.14 481.271 588.323 484.335C586.506 487.4 568.52 506.225 559.838 505.551C551.156 504.878 519.355 448.302 513.214 441.179C507.073 434.057 503.236 289.586 503.236 289.586Z" fill="white"/>
<path d="M462.585 266.061C441.806 265.337 410.426 303.862 406.152 320.212C401.879 336.562 426.343 399.722 424.526 417.873C422.709 436.024 416.113 453.233 420.404 460.574C424.694 467.916 468.912 481.841 485.738 480.544C502.563 479.248 517.016 456.045 520.92 450.943C524.823 445.841 519.136 400.866 520.062 398.004C520.987 395.142 535.878 383.624 533.522 368.201C531.167 352.777 512.524 304.62 507.375 297.733C502.227 290.846 482.793 266.751 462.585 266.061Z" fill="#BEC1DF"/>
<path d="M495.177 391.303C487.589 393.863 480.118 398.039 472.194 399.352C462.704 400.935 453.248 396.793 444.953 392.617C444.907 392.6 444.857 392.6 444.81 392.615C444.764 392.63 444.724 392.661 444.697 392.701C444.67 392.742 444.657 392.791 444.661 392.839C444.665 392.888 444.684 392.934 444.717 392.97C452.138 397.87 460.231 402.433 469.434 401.979C478.638 401.524 487.74 396.321 495.615 392.415C496.221 392.129 495.85 391.068 495.177 391.303Z" fill="#2F2962"/>
<path d="M510.69 394.366C503 393.979 495.321 395.314 488.211 398.273C487.875 398.407 488.094 399.013 488.447 398.896C495.67 396.827 503.129 395.695 510.64 395.528C510.767 395.496 510.88 395.425 510.963 395.323C511.046 395.222 511.093 395.097 511.099 394.966C511.105 394.835 511.068 394.706 510.994 394.598C510.921 394.49 510.814 394.409 510.69 394.366Z" fill="#2F2962"/>
<path d="M422.827 429.406C422.827 429.406 471.385 446.059 488.85 444.409C506.315 442.759 522.014 430.484 522.014 430.484C522.014 430.484 535.356 482.985 538.435 501.726C541.514 520.467 548.43 608.378 548.312 611.476C548.194 614.575 524.958 640.101 485.855 638.72C446.753 637.34 389.041 617.791 385.457 613.312C381.873 608.833 403.965 493.324 409.585 472.377C415.205 451.43 422.827 429.406 422.827 429.406Z" fill="#2F2962"/>
<path d="M469.098 645.001C469.434 652.478 423.332 644.261 407.768 638.755C392.205 633.249 378.946 621.917 377.482 617.387C376.018 612.858 403.478 495.934 405.16 484.029C406.843 472.125 419.714 431.377 420.606 423.934C421.498 416.492 399.187 336.663 395.216 331.544C391.851 327.284 420.573 292.395 434.925 279.514C436.8 277.598 438.991 276.02 441.403 274.85C442.16 274.598 443.186 276.534 444.465 280.053C450.892 298.154 462.872 358.754 468.273 389.938C470.831 404.604 471.436 446.161 471.285 491.573C471.016 561.417 468.896 640.472 469.098 645.001Z" fill="white"/>
<path d="M443.574 485.109C438.661 493.528 435.363 502.031 428.346 509.103C422.06 515.787 414.92 521.612 407.113 526.429C407.077 526.459 407.052 526.498 407.04 526.543C407.029 526.588 407.031 526.635 407.048 526.678C407.065 526.721 407.095 526.757 407.134 526.782C407.172 526.807 407.218 526.819 407.264 526.817C416.367 524.51 423.686 517.438 430.046 510.871C436.759 503.654 441.711 494.981 444.516 485.53C444.55 485.409 444.539 485.28 444.486 485.167C444.432 485.054 444.34 484.964 444.226 484.913C444.112 484.862 443.983 484.853 443.863 484.889C443.744 484.925 443.641 485.003 443.574 485.109Z" fill="#2F2962"/>
<path d="M447.224 496.879C441.251 512.488 430.297 522.624 416.5 531.548C416.383 531.633 416.5 531.818 416.601 531.734C430.062 524.055 443.758 512.791 447.796 497.047C447.804 496.976 447.786 496.905 447.747 496.846C447.708 496.787 447.649 496.743 447.58 496.723C447.512 496.703 447.439 496.708 447.374 496.736C447.309 496.765 447.256 496.815 447.224 496.879Z" fill="#2F2962"/>
<path d="M485.082 275.17C482.626 273.671 507.612 350.773 505.004 402.499C502.396 454.226 500.848 642.796 506.097 646.652C511.347 650.508 546.479 626.446 552.654 618.027C558.829 609.608 544.712 493.694 538.722 475.257C532.732 456.819 527.163 440.368 525.682 435.317C524.202 430.265 520.635 400.142 521.527 398.526C522.418 396.909 534.146 385.897 536.097 371.669C538.049 357.441 507.326 296.049 505.239 292.042C503.153 288.034 486.698 276.163 485.082 275.17Z" fill="white"/>
<path d="M529.233 445.826C525.464 432.238 522.923 408.193 522.301 399.791C529.67 391.456 538.066 379.417 537.006 367.681C536.417 361.266 533.641 354.665 531.286 348.603C530.651 343.431 529.191 338.394 526.961 333.685C526.961 333.533 526.642 333.685 526.692 333.786C527.631 336.733 528.384 339.736 528.947 342.777C526.678 337.207 524.094 331.771 521.207 326.495C521.18 326.463 521.142 326.441 521.101 326.433C521.06 326.425 521.017 326.431 520.98 326.451C520.943 326.471 520.913 326.502 520.896 326.541C520.879 326.58 520.876 326.623 520.887 326.663C525.817 338.147 530.983 349.765 534.163 361.872C537.848 375.544 529.99 388.56 521.157 398.545C520.803 398.949 521.157 425.89 526.574 442.981C531.706 459.196 537.292 475.259 542.155 491.559C542.17 491.617 542.208 491.666 542.261 491.696C542.313 491.726 542.374 491.734 542.432 491.719C542.49 491.703 542.54 491.665 542.57 491.613C542.6 491.561 542.608 491.499 542.592 491.441C539.093 475.967 533.473 461.099 529.233 445.826Z" fill="#2F2962"/>
<path d="M471.269 491.576C468.795 490.97 467.045 433.518 464.151 421.984C461.257 410.45 441.858 365.728 441.151 362.361C440.444 358.993 455.251 337.777 454.443 337.104C453.635 336.43 435.111 345.135 433.209 342.778C431.527 340.673 435.834 289.873 437.483 279.299C437.668 278.17 441.185 271.536 442.245 273.658C455.486 300.329 462.856 358.724 468.257 389.841C470.781 404.608 471.42 446.164 471.269 491.576Z" fill="white"/>
<path d="M467.163 452.761C466.372 442.659 466.776 432.185 464.471 422.217C461.022 407.316 441.807 364.008 441.908 363.772C444.112 358.721 452.828 341.479 454.409 337.707C454.611 337.185 454.847 336.663 453.736 337.05C450.472 338.162 436.07 343.651 434.252 342.809C432.839 342.135 436.036 282.276 439.3 276.096C439.485 275.777 438.879 275.659 438.711 275.995C433.966 285.896 430.87 339.728 433.176 344.156C433.27 344.332 433.421 344.473 433.603 344.555C433.786 344.637 433.99 344.657 434.185 344.611C440.693 343.177 447.024 341.031 453.063 338.212C450.388 341.58 439.754 363.116 439.889 363.469C447.225 383.119 458.162 402.55 462.89 423.699C465.329 434.661 465.211 446.228 466.255 457.375C467.247 467.478 468.543 477.699 470.411 487.768C470.411 488.105 470.966 487.97 470.932 487.633C469.502 476.049 468.072 464.447 467.163 452.761Z" fill="#2F2962"/>
<path d="M485.082 275.173C481.414 275.83 496.725 342.323 498.425 355.743C500.124 369.163 502.9 492.67 502.9 492.67C502.9 492.67 508.032 419.812 509.412 415.822C510.792 411.831 516.445 355.743 516.226 353.251C516.008 350.759 498.93 332.456 498.643 331.513C498.357 330.57 513.029 333.197 513.686 332.338C514.342 331.48 486.832 274.87 485.082 275.173Z" fill="white"/>
<path d="M517.488 352.811C517.488 352.508 506.433 337.657 499.888 331.814C504.095 332.286 514.123 333.498 514.56 332.892C515.418 331.679 498.475 294.787 487.353 278.168C487.353 278.168 487.168 278.168 487.219 278.168C496.759 295.427 504.768 313.427 512.575 331.528C508.099 331.136 503.606 330.979 499.114 331.056C499.043 331.041 498.968 331.05 498.902 331.081C498.836 331.112 498.781 331.163 498.747 331.228C498.713 331.293 498.701 331.367 498.712 331.439C498.724 331.512 498.759 331.578 498.812 331.629C504.28 338.768 515.89 353.266 516.176 353.283C513.349 375.442 510.354 397.55 507.409 419.692C504.465 441.834 502.093 464.599 503.691 486.809C503.691 486.831 503.7 486.852 503.716 486.868C503.731 486.884 503.753 486.893 503.775 486.893C503.797 486.893 503.819 486.884 503.835 486.868C503.85 486.852 503.859 486.831 503.859 486.809C503.944 464.364 505.659 441.955 508.991 419.759C512.053 397.6 516.445 375.239 517.488 352.811Z" fill="#2F2962"/>
<path d="M410.477 306.203C403.932 314.622 392.692 326.493 386.584 350.319C380.477 374.145 366.629 455.843 366.999 463.235C367.37 470.627 407.616 520.198 413.724 522.067C415.592 522.64 423.819 515.079 430.348 506.913C435.681 500.178 440.443 493.055 440.578 490.496C440.679 487.583 412.092 452.391 412.664 449.461C413.236 446.532 419.277 401.608 422.928 386.386C424.98 377.883 410.477 306.203 410.477 306.203Z" fill="white"/>
<path d="M403.999 323.748C403.915 323.647 403.764 323.748 403.848 323.899C416.871 339.424 419.378 358.922 422.053 378.303C422.053 378.471 422.356 378.455 422.339 378.303C420.572 359.074 417.645 338.464 403.999 323.748Z" fill="#2F2962"/>
<path d="M413.573 521.359C409.114 516.661 404.133 512.502 399.405 508.057C399.321 507.973 399.187 508.057 399.271 508.192C403.696 512.906 407.818 517.891 412.512 522.353C413.135 522.993 414.178 522.05 413.573 521.359Z" fill="#2F2962"/>
<path d="M602.177 416.117L530.383 393.188C526.762 392.031 522.89 394.031 521.735 397.655L490.648 495.136C489.492 498.759 491.491 502.634 495.111 503.79L566.906 526.72C570.526 527.876 574.398 525.876 575.554 522.253L606.641 424.772C607.796 421.148 605.798 417.273 602.177 416.117Z" fill="#FFE4BA"/>
<path d="M585.931 404.614L551.128 393.458C549.632 392.978 548.032 393.803 547.553 395.3L545.382 402.083C544.903 403.58 545.727 405.182 547.222 405.661L582.026 416.817C583.521 417.296 585.122 416.471 585.601 414.975L587.772 408.192C588.251 406.695 587.427 405.093 585.931 404.614Z" fill="#FFC400"/>
<path d="M581.458 396.319L579.456 402.583L574.509 401L575.435 398.121C575.663 397.391 575.595 396.6 575.246 395.92C574.896 395.239 574.293 394.723 573.567 394.484L567.022 392.396C566.292 392.163 565.5 392.229 564.819 392.579C564.138 392.93 563.623 393.536 563.388 394.265L562.462 397.145L557.516 395.545L559.518 389.281C559.684 388.758 559.952 388.273 560.306 387.853C560.66 387.433 561.093 387.088 561.581 386.836C562.068 386.584 562.601 386.431 563.148 386.386C563.694 386.34 564.245 386.403 564.767 386.57L578.766 391.066C579.819 391.406 580.694 392.15 581.199 393.135C581.704 394.12 581.797 395.266 581.458 396.319Z" fill="#FFC400"/>
<path d="M601.566 470.797C598.604 468.019 576.546 458.69 573.265 460.273C569.462 462.125 589.906 472.885 589.838 473.171C589.771 473.457 570.876 460.711 567.511 463.456C564.633 465.813 586.54 478.93 586.54 478.93C586.54 478.93 566.165 465.611 563.691 467.783C560.865 470.241 580.651 484.503 580.399 484.621C580.399 484.621 566.501 473.946 563.573 475.327C561.083 476.539 572.777 486.928 576.176 491.222C579.575 495.515 591.319 493.579 594.684 491.693C598.049 489.807 605.385 474.316 601.566 470.797Z" fill="#E1916E"/>
<path d="M427.269 294.352C426.832 279.366 450.337 274.011 461.543 272.462C475.811 270.509 488.178 271.839 494.588 285.781C500.999 299.723 503.691 315.5 505.744 330.453C505.822 331.023 506.122 331.539 506.578 331.89C507.034 332.24 507.609 332.397 508.18 332.327C508.751 332.256 509.27 331.963 509.627 331.511C509.983 331.06 510.148 330.486 510.085 329.914C507.712 312.688 504.919 280.039 487.925 270.627C470.932 261.214 422.188 269.465 422.928 294.874C423.012 297.686 427.353 297.13 427.269 294.335V294.352Z" fill="#2F2962"/>
<path d="M518.901 337.202C519.15 339.188 518.805 341.203 517.908 342.992C517.012 344.78 515.605 346.262 513.865 347.25C512.126 348.237 510.133 348.685 508.139 348.538C506.145 348.39 504.239 347.653 502.664 346.42C501.089 345.187 499.916 343.513 499.292 341.612C498.669 339.71 498.624 337.667 499.163 335.739C499.702 333.812 500.8 332.089 502.319 330.787C503.838 329.486 505.709 328.666 507.695 328.43C510.342 328.116 513.005 328.862 515.105 330.505C517.204 332.148 518.569 334.556 518.901 337.202Z" fill="#768FF6"/>
<path d="M514.93 337.657C515.078 338.848 514.87 340.056 514.331 341.128C513.793 342.201 512.948 343.089 511.904 343.68C510.861 344.271 509.666 344.54 508.47 344.45C507.274 344.361 506.131 343.919 505.187 343.179C504.242 342.44 503.538 341.436 503.164 340.296C502.79 339.156 502.763 337.93 503.086 336.774C503.408 335.618 504.067 334.584 504.977 333.803C505.888 333.022 507.009 332.529 508.2 332.387C509.79 332.196 511.391 332.644 512.652 333.632C513.914 334.619 514.733 336.067 514.93 337.657Z" fill="#E4EFF8"/>
<path d="M440.629 341.801C450.051 384.25 447.931 394.453 444.263 399.151C441.514 402.409 438.062 404.999 434.168 406.728L432.99 403.9L433.579 405.314L432.99 403.9C436.428 402.387 439.482 400.12 441.925 397.265C444.583 393.898 446.972 384.502 437.718 342.474L440.629 341.801Z" fill="#BEC1DF"/>
<path d="M427.636 406.664L428.876 409.131C429.34 410.053 430.463 410.425 431.384 409.961L437.486 406.888C438.408 406.424 438.779 405.3 438.315 404.378L437.075 401.912C436.611 400.989 435.489 400.618 434.567 401.082L428.465 404.155C427.544 404.619 427.172 405.742 427.636 406.664Z" fill="#768FF6"/>
<path d="M413.186 341.784C403.612 373.12 400.92 390.379 404.773 396.087C406.995 399.122 409.87 401.62 413.186 403.395L411.806 406.122C408.018 404.087 404.748 401.206 402.249 397.703C397.74 390.968 400.079 374.433 410.343 340.824L413.186 341.784Z" fill="#BEC1DF"/>
<path d="M409.083 401.062L407.654 403.425C407.12 404.308 407.402 405.457 408.284 405.991L414.128 409.532C415.01 410.066 416.159 409.784 416.693 408.901L418.122 406.538C418.656 405.655 418.374 404.506 417.491 403.972L411.648 400.431C410.765 399.897 409.617 400.179 409.083 401.062Z" fill="#768FF6"/>
<path d="M409.266 339.511C410.936 332.56 413.026 325.717 415.525 319.019C416.965 316.069 419.174 313.562 421.918 311.762C422.524 311.762 422.474 306.391 422.339 302.013C422.204 298.157 421.986 293.594 422.945 292.466C423.507 291.921 424.258 291.617 425.04 291.617C425.821 291.617 426.573 291.921 427.134 292.466C428.144 293.627 428.026 298.123 428.009 301.979C428.009 306.357 428.009 311.695 428.682 311.712C431.308 313.567 433.449 316.027 434.925 318.885C437.601 325.7 439.761 332.708 441.386 339.848C442.193 344.394 440.679 344.899 439.383 345.287C437.533 345.825 436.422 344.546 435.177 339.511C433.208 331.513 430.87 318.127 425.384 317.942C419.916 318.278 417.157 332.254 415.087 340.033C413.808 344.916 412.748 345.337 410.881 344.849C409.568 344.394 408.239 343.839 409.266 339.511Z" fill="#768FF6"/>
<path d="M469.653 134.237C469.653 134.237 451.885 120.447 425.906 137.605C396.394 157.137 405.716 189.18 397.909 207.5C390.102 225.819 371.56 230.113 375.766 250.757C379.384 268.437 436.338 273.05 464.942 269.279C500.191 264.581 525.514 252.087 529.182 237.185C532.85 222.283 511.666 213.191 510.152 201.825C508.638 190.46 510.203 132.823 469.653 134.237Z" fill="#EE6F14"/>
<path d="M410.881 153.838C405.892 162.978 402.479 172.894 400.786 183.17C399.692 190.175 399.457 197.196 396.428 203.729C393.466 209.611 389.549 214.96 384.836 219.557C379.064 225.619 372.435 232.253 373.579 241.447C374.041 245.1 375.706 248.496 378.311 251.097C380.916 253.697 384.313 255.356 387.965 255.809C388.15 255.809 388.201 255.54 387.965 255.506C384.888 254.848 382.057 253.339 379.793 251.152C377.53 248.964 375.925 246.185 375.161 243.13C373.579 236.21 377.062 230.418 381.504 225.518C386.905 219.557 392.744 214.354 396.647 207.215C400.837 199.654 401.156 191.656 402.351 183.305C403.822 173.167 406.681 163.28 410.848 153.922C410.848 153.922 410.898 153.804 410.881 153.838Z" fill="#EE6F14"/>
<path d="M531.117 223.612C526.523 214.62 517.084 209.737 512.844 200.375C505.105 183.217 509.479 161.816 496.019 147.133C495.901 147.015 495.733 147.133 495.834 147.318C507.056 161.9 504.331 180.995 510.236 197.479C512.702 203.954 516.704 209.733 521.896 214.317C529.889 221.995 536.871 232.991 528.997 243.548C528.761 243.885 529.283 244.188 529.535 243.885C534.516 237.958 534.566 230.381 531.117 223.612Z" fill="#EE6F14"/>
<path d="M419.058 144.018C407.7 151.932 403.629 163.668 400.852 176.734C399.321 183.958 398.093 191.266 395.939 198.338C393.334 206.015 389.725 213.313 385.205 220.042C379.669 228.949 373.427 240.82 378.727 251.31C384.599 262.794 399.035 262.777 410.106 262.255C410.409 262.255 410.426 261.767 410.106 261.784C396.646 262.272 377.33 260.436 377.583 242.403C377.768 229.606 387.358 220.328 392.894 209.585C403.881 188.235 399.002 160.604 419.26 144.321C419.428 144.102 419.226 143.816 419.058 144.018Z" fill="#EE6F14"/>
<path d="M481.599 279.534C481.599 279.534 484.51 320.703 479.26 322.37C469.165 325.569 449.378 280.359 447.897 277.463C445.739 269.659 444.126 261.715 443.068 253.687L442.614 250.32C442.462 249.208 442.328 248.131 442.227 247.07C442.059 245.639 441.924 244.224 441.789 242.827C440.696 232.202 439.854 223.109 439.854 223.109L444.902 224.591L480.421 236.496L481.161 263.74V265.423V265.962L481.346 274.179L481.599 279.534Z" fill="#E1916E"/>
<path d="M481.229 265.407C477.003 267.286 472.381 268.101 467.768 267.781C457.286 267.208 449.479 261.18 443.001 253.687L442.547 250.32C442.395 249.208 442.26 248.131 442.16 247.07C441.991 245.639 441.857 244.224 441.722 242.827C440.628 232.202 439.787 223.109 439.787 223.109L444.835 224.591L480.354 236.496L481.094 263.74L481.229 265.407Z" fill="#9A593B"/>
<path d="M490.214 147.473C490.214 147.473 505.946 150.285 510.253 169.951C513.854 186.318 503.691 201.809 501.655 203.341C498.071 206.052 481.044 157.946 490.214 147.473Z" fill="#EE6F14"/>
<path d="M506.114 200.581C507.123 248.838 480.168 252.071 471.991 253.621C462.704 255.304 426.327 254.715 420.337 206.811C414.347 158.906 436.472 143.18 458.043 141.614C479.613 140.048 505.121 152.306 506.114 200.581Z" fill="#E1916E"/>
<path d="M462.368 203.911C462.368 203.777 462.132 204.097 462.149 204.214C462.654 207.481 462.671 211.286 459.844 212.718C459.76 212.718 459.844 212.92 459.844 212.903C463.394 211.96 463.31 206.909 462.368 203.911Z" fill="#2F2962"/>
<path d="M459.003 200.847C453.703 201.066 454.561 211.657 459.457 211.438C464.353 211.219 463.445 200.645 459.003 200.847Z" fill="#2F2962"/>
<path d="M487.202 201.974C487.202 201.857 487.455 202.126 487.455 202.261C487.286 205.628 487.64 209.349 490.601 210.494C490.685 210.494 490.601 210.697 490.601 210.68C486.95 210.09 486.512 205.056 487.202 201.974Z" fill="#2F2962"/>
<path d="M490.197 198.592C495.497 198.305 495.699 208.913 490.803 209.183C485.907 209.452 485.772 198.844 490.197 198.592Z" fill="#2F2962"/>
<path d="M464.437 228.497C465.178 229.305 465.901 230.4 467.096 230.568C468.316 230.622 469.533 230.409 470.663 229.945C470.687 229.935 470.714 229.934 470.74 229.941C470.765 229.948 470.787 229.963 470.803 229.985C470.818 230.006 470.826 230.032 470.825 230.058C470.824 230.085 470.814 230.11 470.797 230.13C470.291 230.745 469.629 231.214 468.88 231.486C468.131 231.759 467.324 231.825 466.54 231.679C465.879 231.465 465.296 231.06 464.865 230.515C464.434 229.969 464.174 229.308 464.118 228.615C464.05 228.43 464.336 228.379 464.437 228.497Z" fill="#9A593B"/>
<path d="M492.065 189.939C490.937 189.804 489.911 189.501 488.8 189.265C487.618 189.185 486.495 188.717 485.604 187.935C485.369 187.638 485.241 187.27 485.241 186.891C485.241 186.512 485.369 186.144 485.604 185.847C486.147 185.318 486.822 184.944 487.559 184.763C488.295 184.582 489.067 184.602 489.793 184.82C491.332 185.046 492.734 185.831 493.73 187.026C493.941 187.312 494.064 187.653 494.084 188.008C494.104 188.363 494.021 188.716 493.845 189.024C493.668 189.333 493.406 189.584 493.09 189.746C492.774 189.908 492.418 189.975 492.065 189.939Z" fill="#2F2962"/>
<path d="M454.762 192.395C455.839 192.123 456.901 191.791 457.942 191.402C459.113 191.187 460.183 190.596 460.987 189.718C461.195 189.398 461.288 189.018 461.251 188.639C461.214 188.259 461.05 187.904 460.786 187.63C460.191 187.158 459.481 186.854 458.729 186.751C457.977 186.647 457.212 186.747 456.512 187.041C455.008 187.415 453.695 188.332 452.827 189.617C452.633 189.922 452.534 190.278 452.541 190.64C452.549 191.002 452.664 191.354 452.87 191.651C453.077 191.947 453.367 192.177 453.704 192.309C454.04 192.442 454.408 192.471 454.762 192.395Z" fill="#2F2962"/>
<path d="M477.343 222.94C476.085 224.887 474.346 226.476 472.295 227.554C471.169 228.107 469.899 228.295 468.661 228.093C465.952 227.621 465.666 225.18 465.985 223.041C466.164 221.916 466.469 220.815 466.894 219.758C469.949 221.906 473.61 223.021 477.343 222.94Z" fill="#2F2962"/>
<path d="M472.311 227.552C471.185 228.105 469.914 228.293 468.676 228.09C465.967 227.619 465.681 225.177 466.001 223.039C468.861 223.157 471.84 224.841 472.311 227.552Z" fill="#FADAD4"/>
<path d="M478.167 216.609C478.167 216.609 478.857 221.509 478.857 223.833C478.857 224.052 478.285 224.153 477.511 224.203H477.41C475.424 224.563 473.377 224.37 471.493 223.646C469.609 222.921 467.96 221.693 466.726 220.095C466.683 220.048 466.661 219.986 466.664 219.923C466.668 219.86 466.696 219.8 466.742 219.758C466.789 219.715 466.851 219.693 466.914 219.697C466.977 219.7 467.037 219.728 467.079 219.775C470.045 221.799 473.587 222.809 477.174 222.654C477.343 221.997 475.727 214.235 476.097 214.235C477.893 214.386 479.659 214.783 481.347 215.414C480.237 205.159 477.477 195.208 476.518 184.903C476.516 184.83 476.539 184.759 476.583 184.701C476.627 184.643 476.689 184.601 476.76 184.584C476.831 184.566 476.905 184.573 476.971 184.604C477.038 184.634 477.091 184.686 477.124 184.752C480.741 195.04 482.289 206.826 483.719 217.401C483.871 218.731 479.092 216.996 478.167 216.609Z" fill="#9A593B"/>
<path d="M423.669 209.771C431.644 210.495 436.776 189.043 436.776 189.043C436.776 189.043 490.383 181.618 490.164 147.47C490.164 147.47 459.659 123.897 430.315 147.639C400.971 171.38 416.451 209.114 423.669 209.771Z" fill="#EE6F14"/>
<path d="M428.279 212.347C428.279 212.347 418.756 196.62 411.689 199.92C404.622 203.22 411.1 225.548 418.907 229.05C419.877 229.568 420.942 229.884 422.037 229.98C423.132 230.076 424.235 229.949 425.28 229.608C426.325 229.267 427.29 228.718 428.118 227.994C428.945 227.27 429.618 226.387 430.096 225.396L428.279 212.347Z" fill="#E1916E"/>
<path d="M413.708 206.32C413.686 206.329 413.667 206.344 413.654 206.364C413.641 206.383 413.634 206.406 413.634 206.43C413.634 206.453 413.641 206.476 413.654 206.496C413.667 206.515 413.686 206.53 413.708 206.539C419.176 209.183 421.784 214.588 423.5 220.128C421.969 217.939 419.765 216.642 416.854 218.444C416.703 218.545 416.854 218.78 416.989 218.764C417.996 218.517 419.055 218.586 420.021 218.963C420.988 219.34 421.815 220.005 422.39 220.868C423.332 222.33 424.116 223.888 424.729 225.516C424.964 226.021 425.89 225.819 425.738 225.229C425.731 225.185 425.731 225.139 425.738 225.095C426.243 217.888 421.347 207.499 413.708 206.32Z" fill="#9A593B"/>
<path d="M410.04 215.785C411.586 222.556 414.704 228.867 419.143 234.206C425.015 241.783 433.646 245.572 442.177 248.805C443.035 249.108 443.321 247.66 442.446 247.357C433.153 244.058 425.142 237.898 419.563 229.761C419.227 229.525 418.907 229.272 418.587 229.003C415.593 227.42 412.816 223.11 410.982 218.26C410.982 218.26 410.982 218.126 410.982 218.058C410.578 217.301 410.292 216.543 410.04 215.785Z" fill="white"/>
<path d="M418.385 201.27C420.542 202.613 422.511 204.238 424.24 206.102C425.397 207.192 426.45 208.387 427.386 209.672C427.723 210.093 428.043 210.531 428.362 210.968C428.682 211.406 429.153 212.029 429.153 212.029C431.458 215.397 433.41 218.764 434.302 219.741C434.362 219.803 434.442 219.842 434.528 219.851C434.614 219.86 434.701 219.839 434.773 219.791C434.845 219.743 434.897 219.671 434.922 219.588C434.947 219.505 434.942 219.416 434.907 219.337C432.417 214.69 427.858 202.499 420.976 201.219C420.116 201.084 419.239 201.101 418.385 201.27Z" fill="white"/>
<path d="M431.324 214.083C430.18 211.742 447.578 219.437 465.312 215.194C468.946 214.319 478.991 209.89 484.661 209.705C490.331 209.52 497.112 213.914 504.97 214.521C507.662 214.723 506.08 238.01 499.552 248.365C497.398 251.733 488.026 258.923 482.188 259.714C468.475 261.549 444.583 252.474 440.847 247.927C437.852 244.391 442.177 236.259 431.324 214.083Z" fill="white"/>
<path d="M503.843 221.929C498.797 219.915 493.56 218.42 488.212 217.467C483.585 216.709 479.496 218.511 475.189 220.212C463.646 224.724 451.868 224.623 440.006 221.643C439.872 221.643 439.821 221.845 440.006 221.896C449.417 225.596 459.775 226.134 469.518 223.428C474.835 222.013 480.102 218.949 485.654 219.134C491.711 219.319 497.684 222.013 503.708 222.872C504.162 222.94 504.431 222.131 503.843 221.929Z" fill="#BEC1DF"/>
<path d="M496.019 249.04C492.368 250.943 488.784 253.687 484.965 255.068C480.405 256.752 474.869 255.371 470.31 254.445C461.611 252.677 453.232 249.394 444.718 246.75C444.634 246.75 444.617 246.851 444.718 246.885C454.052 251.33 463.955 254.463 474.146 256.196C477.511 256.684 481.28 257.425 484.611 256.314C488.616 254.967 492.57 251.818 496.086 249.276C496.187 249.208 496.103 248.973 496.019 249.04Z" fill="#BEC1DF"/>
<path d="M501.066 229.895C492.216 227.571 484.072 228.48 475.189 229.895C465.14 231.522 454.906 231.652 444.818 230.282C444.734 230.282 444.684 230.45 444.818 230.467C453.778 232.04 462.925 232.227 471.941 231.023C476.299 230.417 480.623 229.457 485.015 229.019C490.382 228.63 495.778 229.096 500.999 230.4C501.336 230.467 501.453 229.895 501.066 229.895Z" fill="#BEC1DF"/>
<path d="M499.384 238.783C491.758 243.52 482.852 245.774 473.893 245.232C464.74 244.677 455.873 241.511 447.073 238.783C446.955 238.783 446.905 238.952 447.073 239.002C464.773 245.822 482.625 250.25 499.686 239.305C499.939 239.086 499.686 238.598 499.384 238.783Z" fill="#BEC1DF"/>
</g>
<g filter="url(#filter1_i_91_1470)">
<circle cx="74" cy="201" r="74" fill="#F79C0A" fill-opacity="0.1"/>
</g>
<g filter="url(#filter2_i_91_1470)">
<circle cx="138" cy="445" r="74" fill="#F79C0A" fill-opacity="0.1"/>
</g>
<g filter="url(#filter3_ii_91_1470)">
<circle cx="279" cy="74" r="53" fill="#F79C0A" fill-opacity="0.1"/>
</g>
<g filter="url(#filter4_ii_91_1470)">
<circle cx="74" cy="201" r="53" fill="#F79C0A" fill-opacity="0.1"/>
</g>
<g filter="url(#filter5_ii_91_1470)">
<circle cx="138" cy="445" r="53" fill="#F79C0A" fill-opacity="0.1"/>
</g>
<g clip-path="url(#clip1_91_1470)">
<path d="M291 78.8636C292.424 78.8636 293.816 78.4438 295 77.6571C296.184 76.8705 297.107 75.7524 297.652 74.4442C298.197 73.1361 298.339 71.6966 298.062 70.3079C297.784 68.9191 297.098 67.6435 296.091 66.6423C295.084 65.6411 293.801 64.9593 292.405 64.683C291.008 64.4068 289.56 64.5486 288.245 65.0904C286.929 65.6323 285.805 66.5499 285.013 67.7272C284.222 68.9045 283.8 70.2886 283.8 71.7045C283.8 73.6033 284.559 75.4242 285.909 76.7668C287.259 78.1094 289.09 78.8636 291 78.8636ZM294.6 81.25C294.42 81.2494 294.242 81.2768 294.071 81.3313C292.082 82.0184 289.918 82.0184 287.929 81.3313C287.758 81.2768 287.579 81.2494 287.4 81.25C286.293 81.25 285.197 81.4675 284.175 81.8902C283.153 82.3128 282.224 82.9322 281.444 83.7127C280.663 84.4931 280.045 85.4193 279.626 86.438C279.207 87.4567 278.994 88.5478 279 89.6485C279.011 91.6068 280.63 93.1818 282.6 93.1818H299.4C301.37 93.1818 302.99 91.6068 303 89.6485C303.006 88.5478 302.793 87.4567 302.374 86.438C301.955 85.4193 301.337 84.4931 300.556 83.7127C299.776 82.9322 298.847 82.3128 297.825 81.8902C296.803 81.4675 295.707 81.25 294.6 81.25ZM279.743 82.0293C280.25 81.5333 280.805 81.088 281.4 80.6996V64.5455C281.4 63.9126 281.147 63.3056 280.697 62.858C280.247 62.4105 279.637 62.1591 279 62.1591H276.6V57.3864C276.6 56.7535 276.347 56.1465 275.897 55.6989C275.447 55.2514 274.837 55 274.2 55H262.2C261.563 55 260.953 55.2514 260.503 55.6989C260.053 56.1465 259.8 56.7535 259.8 57.3864V62.1591H257.4C256.763 62.1591 256.153 62.4105 255.703 62.858C255.253 63.3056 255 63.9126 255 64.5455V91.9886C255 92.3051 255.126 92.6086 255.351 92.8323C255.577 93.0561 255.882 93.1818 256.2 93.1818H277.823C277.041 92.1717 276.612 90.9357 276.6 89.6612C276.588 88.2453 276.86 86.8413 277.4 85.531C277.94 84.2207 278.736 83.0304 279.743 82.0293ZM265.8 85.1278C265.8 85.3652 265.705 85.5928 265.536 85.7606C265.368 85.9284 265.139 86.0227 264.9 86.0227H261.9C261.661 86.0227 261.432 85.9284 261.264 85.7606C261.095 85.5928 261 85.3652 261 85.1278V82.1449C261 81.9075 261.095 81.6799 261.264 81.5121C261.432 81.3443 261.661 81.25 261.9 81.25H264.9C265.139 81.25 265.368 81.3443 265.536 81.5121C265.705 81.6799 265.8 81.9075 265.8 82.1449V85.1278ZM265.8 75.5824C265.8 75.8197 265.705 76.0473 265.536 76.2152C265.368 76.383 265.139 76.4773 264.9 76.4773H261.9C261.661 76.4773 261.432 76.383 261.264 76.2152C261.095 76.0473 261 75.8197 261 75.5824V72.5994C261 72.3621 261.095 72.1345 261.264 71.9667C261.432 71.7988 261.661 71.7045 261.9 71.7045H264.9C265.139 71.7045 265.368 71.7988 265.536 71.9667C265.705 72.1345 265.8 72.3621 265.8 72.5994V75.5824ZM269.4 66.4844C269.4 66.603 269.353 66.7169 269.268 66.8008C269.184 66.8847 269.069 66.9318 268.95 66.9318H267.45C267.331 66.9318 267.216 66.8847 267.132 66.8008C267.047 66.7169 267 66.603 267 66.4844V64.5455H265.05C264.931 64.5455 264.816 64.4983 264.732 64.4144C264.647 64.3305 264.6 64.2167 264.6 64.098V62.6065C264.6 62.4879 264.647 62.3741 264.732 62.2901C264.816 62.2062 264.931 62.1591 265.05 62.1591H267V60.2202C267 60.1015 267.047 59.9877 267.132 59.9038C267.216 59.8199 267.331 59.7727 267.45 59.7727H268.95C269.069 59.7727 269.184 59.8199 269.268 59.9038C269.353 59.9877 269.4 60.1015 269.4 60.2202V62.1591H271.35C271.469 62.1591 271.584 62.2062 271.668 62.2901C271.753 62.3741 271.8 62.4879 271.8 62.6065V64.098C271.8 64.2167 271.753 64.3305 271.668 64.4144C271.584 64.4983 271.469 64.5455 271.35 64.5455H269.4V66.4844ZM275.4 85.1278C275.4 85.3652 275.305 85.5928 275.136 85.7606C274.968 85.9284 274.739 86.0227 274.5 86.0227H271.5C271.261 86.0227 271.032 85.9284 270.864 85.7606C270.695 85.5928 270.6 85.3652 270.6 85.1278V82.1449C270.6 81.9075 270.695 81.6799 270.864 81.5121C271.032 81.3443 271.261 81.25 271.5 81.25H274.5C274.739 81.25 274.968 81.3443 275.136 81.5121C275.305 81.6799 275.4 81.9075 275.4 82.1449V85.1278ZM275.4 75.5824C275.4 75.8197 275.305 76.0473 275.136 76.2152C274.968 76.383 274.739 76.4773 274.5 76.4773H271.5C271.261 76.4773 271.032 76.383 270.864 76.2152C270.695 76.0473 270.6 75.8197 270.6 75.5824V72.5994C270.6 72.3621 270.695 72.1345 270.864 71.9667C271.032 71.7988 271.261 71.7045 271.5 71.7045H274.5C274.739 71.7045 274.968 71.7988 275.136 71.9667C275.305 72.1345 275.4 72.3621 275.4 72.5994V75.5824Z" fill="#F79C0A"/>
</g>
<path d="M77.6663 190.335C80.6119 190.335 82.9997 187.947 82.9997 185.001C82.9997 182.056 80.6119 179.668 77.6663 179.668C74.7208 179.668 72.333 182.056 72.333 185.001C72.333 187.947 74.7208 190.335 77.6663 190.335Z" fill="#F79C0A"/>
<path d="M83.1196 211.973C82.9722 211.874 82.8066 211.805 82.6323 211.771C82.4581 211.737 82.2788 211.738 82.1049 211.774C81.931 211.81 81.7661 211.88 81.6198 211.981C81.4735 212.081 81.3487 212.21 81.2529 212.36C79.964 214.269 78.385 215.965 76.5729 217.386C76.1329 217.72 74.4929 218.986 73.7996 218.72C73.3196 218.573 73.5996 217.626 73.6929 217.226L74.3996 215.133C74.6929 214.28 79.7996 199.133 80.3596 197.4C81.1862 194.866 80.8262 192.373 77.0529 192.973C76.0262 193.08 65.6129 194.426 65.4262 194.44C65.2511 194.451 65.08 194.497 64.9226 194.574C64.7652 194.652 64.6246 194.76 64.5088 194.892C64.393 195.023 64.3044 195.177 64.2479 195.343C64.1914 195.509 64.1682 195.685 64.1796 195.86C64.191 196.035 64.2367 196.206 64.3142 196.363C64.3918 196.521 64.4995 196.661 64.6314 196.777C64.7632 196.893 64.9166 196.982 65.0827 197.038C65.2489 197.095 65.4245 197.118 65.5996 197.106C65.5996 197.106 69.5996 196.586 70.0396 196.546C70.2649 196.524 70.4919 196.568 70.693 196.672C70.8941 196.776 71.0608 196.936 71.1729 197.133C71.4145 197.88 71.3814 198.689 71.0796 199.413C70.7329 200.746 65.2529 216.186 65.0796 217.08C64.8937 217.827 64.9453 218.614 65.2272 219.331C65.5092 220.048 66.0075 220.659 66.6529 221.08C67.8643 221.887 69.3066 222.276 70.7596 222.186C72.1723 222.169 73.5695 221.889 74.8796 221.36C78.1996 220.026 81.6662 216.48 83.4929 213.693C83.6502 213.41 83.6991 213.079 83.6304 212.763C83.5617 212.446 83.3801 212.166 83.1196 211.973Z" fill="#F79C0A"/>
<rect x="238" y="492" width="482" height="156" fill="url(#paint0_linear_91_1470)"/>
<path d="M695.966 75.683L684.996 133.662L632.826 161.235L578.741 137.638L563.468 80.6407L598.509 33.1628L657.476 30.9564L695.966 75.683Z" fill="url(#paint1_linear_91_1470)" fill-opacity="0.2"/>
<path d="M711.261 384.067L705.571 414.138L678.513 428.439L650.462 416.2L642.541 386.638L660.714 362.013L691.298 360.869L711.261 384.067Z" fill="url(#paint2_linear_91_1470)" fill-opacity="0.2"/>
<path fill-rule="evenodd" clip-rule="evenodd" d="M143.587 437.464C143.892 437.159 143.956 436.694 143.822 436.284C143.118 434.135 143.86 431.381 145.902 429.339C148.589 426.651 152.511 426.216 154.662 428.366C156.812 430.516 156.376 434.438 153.688 437.126C151.67 439.143 148.958 439.892 146.82 439.23C146.414 439.104 145.958 439.173 145.657 439.474L145.417 439.715C145.072 440.089 144.651 440.384 144.181 440.581C143.712 440.777 143.206 440.871 142.698 440.855L139.474 440.735C137.01 440.644 135.166 443.125 135.984 445.434L136.257 446.208C137.547 449.855 134.613 453.77 130.723 453.588L128.759 453.498C127.791 453.453 127.011 454.35 127.193 455.301L127.503 456.929C127.99 459.478 126.163 461.975 123.569 462.307L122.109 462.495C121.918 462.52 121.724 462.506 121.538 462.456C121.352 462.405 121.178 462.318 121.025 462.201C120.873 462.083 120.745 461.936 120.649 461.769C120.553 461.602 120.491 461.417 120.467 461.226C120.442 461.035 120.456 460.841 120.506 460.655C120.557 460.469 120.644 460.295 120.761 460.142C120.879 459.99 121.026 459.862 121.193 459.766C121.36 459.67 121.545 459.609 121.736 459.584L123.306 459.382C124.171 459.272 124.78 458.439 124.618 457.59L124.308 455.961C123.763 453.108 126.1 450.417 129.005 450.551L130.97 450.643C132.738 450.725 134.072 448.945 133.485 447.288L133.211 446.514C131.694 442.227 135.119 437.618 139.694 437.788L142.918 437.908C142.991 437.911 143.063 437.897 143.13 437.869C143.197 437.841 143.258 437.799 143.307 437.746L143.587 437.464Z" fill="#F79C0A"/>
<path d="M86.5 285L109 366.5" stroke="#F79C0A" stroke-dasharray="6 6"/>
<path d="M143.824 152.75L201.507 114" stroke="#F79C0A" stroke-dasharray="6 6"/>
<defs>
<filter id="filter0_i_91_1470" x="205" y="0" width="148" height="148" filterUnits="userSpaceOnUse" color-interpolation-filters="sRGB">
<feFlood flood-opacity="0" result="BackgroundImageFix"/>
<feBlend mode="normal" in="SourceGraphic" in2="BackgroundImageFix" result="shape"/>
<feColorMatrix in="SourceAlpha" type="matrix" values="0 0 0 0 0 0 0 0 0 0 0 0 0 0 0 0 0 0 127 0" result="hardAlpha"/>
<feOffset/>
<feGaussianBlur stdDeviation="9"/>
<feComposite in2="hardAlpha" operator="arithmetic" k2="-1" k3="1"/>
<feColorMatrix type="matrix" values="0 0 0 0 0.933333 0 0 0 0 0.435294 0 0 0 0 0.0784314 0 0 0 0.1 0"/>
<feBlend mode="normal" in2="shape" result="effect1_innerShadow_91_1470"/>
</filter>
<filter id="filter1_i_91_1470" x="0" y="127" width="148" height="148" filterUnits="userSpaceOnUse" color-interpolation-filters="sRGB">
<feFlood flood-opacity="0" result="BackgroundImageFix"/>
<feBlend mode="normal" in="SourceGraphic" in2="BackgroundImageFix" result="shape"/>
<feColorMatrix in="SourceAlpha" type="matrix" values="0 0 0 0 0 0 0 0 0 0 0 0 0 0 0 0 0 0 127 0" result="hardAlpha"/>
<feOffset/>
<feGaussianBlur stdDeviation="9"/>
<feComposite in2="hardAlpha" operator="arithmetic" k2="-1" k3="1"/>
<feColorMatrix type="matrix" values="0 0 0 0 0.933333 0 0 0 0 0.435294 0 0 0 0 0.0784314 0 0 0 0.1 0"/>
<feBlend mode="normal" in2="shape" result="effect1_innerShadow_91_1470"/>
</filter>
<filter id="filter2_i_91_1470" x="64" y="371" width="148" height="148" filterUnits="userSpaceOnUse" color-interpolation-filters="sRGB">
<feFlood flood-opacity="0" result="BackgroundImageFix"/>
<feBlend mode="normal" in="SourceGraphic" in2="BackgroundImageFix" result="shape"/>
<feColorMatrix in="SourceAlpha" type="matrix" values="0 0 0 0 0 0 0 0 0 0 0 0 0 0 0 0 0 0 127 0" result="hardAlpha"/>
<feOffset/>
<feGaussianBlur stdDeviation="9"/>
<feComposite in2="hardAlpha" operator="arithmetic" k2="-1" k3="1"/>
<feColorMatrix type="matrix" values="0 0 0 0 0.933333 0 0 0 0 0.435294 0 0 0 0 0.0784314 0 0 0 0.1 0"/>
<feBlend mode="normal" in2="shape" result="effect1_innerShadow_91_1470"/>
</filter>
<filter id="filter3_ii_91_1470" x="221" y="18" width="114" height="114" filterUnits="userSpaceOnUse" color-interpolation-filters="sRGB">
<feFlood flood-opacity="0" result="BackgroundImageFix"/>
<feBlend mode="normal" in="SourceGraphic" in2="BackgroundImageFix" result="shape"/>
<feColorMatrix in="SourceAlpha" type="matrix" values="0 0 0 0 0 0 0 0 0 0 0 0 0 0 0 0 0 0 127 0" result="hardAlpha"/>
<feMorphology radius="6" operator="dilate" in="SourceAlpha" result="effect1_innerShadow_91_1470"/>
<feOffset dx="3" dy="5"/>
<feGaussianBlur stdDeviation="8"/>
<feComposite in2="hardAlpha" operator="arithmetic" k2="-1" k3="1"/>
<feColorMatrix type="matrix" values="0 0 0 0 1 0 0 0 0 0.768627 0 0 0 0 0 0 0 0 0.2 0"/>
<feBlend mode="normal" in2="shape" result="effect1_innerShadow_91_1470"/>
<feColorMatrix in="SourceAlpha" type="matrix" values="0 0 0 0 0 0 0 0 0 0 0 0 0 0 0 0 0 0 127 0" result="hardAlpha"/>
<feOffset dx="-5" dy="-3"/>
<feGaussianBlur stdDeviation="5.5"/>
<feComposite in2="hardAlpha" operator="arithmetic" k2="-1" k3="1"/>
<feColorMatrix type="matrix" values="0 0 0 0 0.933333 0 0 0 0 0.435294 0 0 0 0 0.0784314 0 0 0 0.4 0"/>
<feBlend mode="normal" in2="effect1_innerShadow_91_1470" result="effect2_innerShadow_91_1470"/>
</filter>
<filter id="filter4_ii_91_1470" x="16" y="145" width="114" height="114" filterUnits="userSpaceOnUse" color-interpolation-filters="sRGB">
<feFlood flood-opacity="0" result="BackgroundImageFix"/>
<feBlend mode="normal" in="SourceGraphic" in2="BackgroundImageFix" result="shape"/>
<feColorMatrix in="SourceAlpha" type="matrix" values="0 0 0 0 0 0 0 0 0 0 0 0 0 0 0 0 0 0 127 0" result="hardAlpha"/>
<feMorphology radius="6" operator="dilate" in="SourceAlpha" result="effect1_innerShadow_91_1470"/>
<feOffset dx="3" dy="5"/>
<feGaussianBlur stdDeviation="8"/>
<feComposite in2="hardAlpha" operator="arithmetic" k2="-1" k3="1"/>
<feColorMatrix type="matrix" values="0 0 0 0 0.933333 0 0 0 0 0.435294 0 0 0 0 0.0784314 0 0 0 0.2 0"/>
<feBlend mode="normal" in2="shape" result="effect1_innerShadow_91_1470"/>
<feColorMatrix in="SourceAlpha" type="matrix" values="0 0 0 0 0 0 0 0 0 0 0 0 0 0 0 0 0 0 127 0" result="hardAlpha"/>
<feOffset dx="-5" dy="-3"/>
<feGaussianBlur stdDeviation="5.5"/>
<feComposite in2="hardAlpha" operator="arithmetic" k2="-1" k3="1"/>
<feColorMatrix type="matrix" values="0 0 0 0 0.933333 0 0 0 0 0.435294 0 0 0 0 0.0784314 0 0 0 0.4 0"/>
<feBlend mode="normal" in2="effect1_innerShadow_91_1470" result="effect2_innerShadow_91_1470"/>
</filter>
<filter id="filter5_ii_91_1470" x="80" y="389" width="114" height="114" filterUnits="userSpaceOnUse" color-interpolation-filters="sRGB">
<feFlood flood-opacity="0" result="BackgroundImageFix"/>
<feBlend mode="normal" in="SourceGraphic" in2="BackgroundImageFix" result="shape"/>
<feColorMatrix in="SourceAlpha" type="matrix" values="0 0 0 0 0 0 0 0 0 0 0 0 0 0 0 0 0 0 127 0" result="hardAlpha"/>
<feMorphology radius="6" operator="dilate" in="SourceAlpha" result="effect1_innerShadow_91_1470"/>
<feOffset dx="3" dy="5"/>
<feGaussianBlur stdDeviation="8"/>
<feComposite in2="hardAlpha" operator="arithmetic" k2="-1" k3="1"/>
<feColorMatrix type="matrix" values="0 0 0 0 0.933333 0 0 0 0 0.435294 0 0 0 0 0.0784314 0 0 0 0.2 0"/>
<feBlend mode="normal" in2="shape" result="effect1_innerShadow_91_1470"/>
<feColorMatrix in="SourceAlpha" type="matrix" values="0 0 0 0 0 0 0 0 0 0 0 0 0 0 0 0 0 0 127 0" result="hardAlpha"/>
<feOffset dx="-5" dy="-3"/>
<feGaussianBlur stdDeviation="5.5"/>
<feComposite in2="hardAlpha" operator="arithmetic" k2="-1" k3="1"/>
<feColorMatrix type="matrix" values="0 0 0 0 0.933333 0 0 0 0 0.435294 0 0 0 0 0.0784314 0 0 0 0.4 0"/>
<feBlend mode="normal" in2="effect1_innerShadow_91_1470" result="effect2_innerShadow_91_1470"/>
</filter>
<linearGradient id="paint0_linear_91_1470" x1="479" y1="492" x2="479" y2="648" gradientUnits="userSpaceOnUse">
<stop stop-color="#FDF1E7" stop-opacity="0"/>
<stop offset="1" stop-color="#FEF8F3"/>
</linearGradient>
<linearGradient id="paint1_linear_91_1470" x1="687.283" y1="60.7827" x2="569.783" y2="129.783" gradientUnits="userSpaceOnUse">
<stop stop-color="#F79C0A"/>
<stop offset="1" stop-color="#F79C0A" stop-opacity="0"/>
</linearGradient>
<linearGradient id="paint2_linear_91_1470" x1="706.758" y1="376.339" x2="645.816" y2="412.126" gradientUnits="userSpaceOnUse">
<stop stop-color="#F79C0A"/>
<stop offset="1" stop-color="#F79C0A" stop-opacity="0"/>
</linearGradient>
<clipPath id="clip0_91_1470">
<rect width="240" height="519" fill="white" transform="translate(367 129)"/>
</clipPath>
<clipPath id="clip1_91_1470">
<rect width="48" height="38.1818" fill="white" transform="translate(255 55)"/>
</clipPath>
</defs>
</svg>
