<svg width="128" height="128" viewBox="0 0 128 128" fill="none" xmlns="http://www.w3.org/2000/svg">
<path d="M93.4726 109.705C85.144 115.568 75.2076 118.714 65.0226 118.714C54.8375 118.714 44.9011 115.568 36.5726 109.705C31.5998 106.205 27.5417 101.561 24.7403 96.1633C21.939 90.766 20.4766 84.7741 20.4766 78.6932V9.28516H109.567V78.6852C109.568 84.7673 108.106 90.7604 105.305 96.1592C102.504 101.558 98.4458 106.204 93.4726 109.705Z" fill="#EE6F14"/>
<path d="M20.4766 78.6931C20.4766 84.7741 21.939 90.766 24.7403 96.1633C27.5417 101.561 31.5998 106.205 36.5726 109.705C37.9595 110.668 39.3947 111.56 40.8726 112.377C52.0952 102.83 61.1069 90.9555 67.2829 77.5779C73.4588 64.2003 76.6512 49.6395 76.6386 34.9052C76.6441 26.2618 75.5506 17.6527 73.3846 9.28516H20.4766V78.6931Z" fill="#F79C0A"/>
<path d="M31.5322 78.2837C31.5313 82.6365 32.5772 86.9257 34.5819 90.7894C36.5865 94.6532 39.4909 97.9781 43.0502 100.484C45.0764 101.899 47.2352 103.114 49.4962 104.112C66.9703 85.3082 76.669 60.5811 76.6382 34.9117C76.6305 30.2335 76.3031 25.5613 75.6582 20.9277H31.5322V78.2837Z" fill="#E4EBEF"/>
<path d="M98.512 78.2839C98.5106 82.6339 97.4641 86.9199 95.4607 90.7812C93.4574 94.6424 90.5557 97.9659 87 100.472C80.568 104.999 72.8946 107.429 65.029 107.429C57.1635 107.429 49.49 104.999 43.058 100.472C39.4987 97.9662 36.5943 94.6413 34.5897 90.7776C32.585 86.9138 31.5391 82.6247 31.54 78.2719V20.9219H98.52L98.512 78.2839Z" fill="#F7E3C3"/>
<path d="M31.5322 78.2837C31.5313 82.6365 32.5772 86.9257 34.5819 90.7894C36.5865 94.6532 39.4909 97.9781 43.0502 100.484C45.0764 101.899 47.2352 103.114 49.4962 104.112C66.9703 85.3082 76.669 60.5811 76.6382 34.9117C76.6305 30.2335 76.3031 25.5613 75.6582 20.9277H31.5322V78.2837Z" fill="#FFF1DB"/>
<path d="M48.5782 100.478C45.0187 97.9723 42.1139 94.6475 40.109 90.7838C38.104 86.9201 37.0577 82.6308 37.0582 78.2779V20.9219H31.5322V78.2839C31.5313 82.6367 32.5772 86.9259 34.5819 90.7896C36.5865 94.6533 39.4909 97.9782 43.0502 100.484C50.2554 105.556 58.9943 107.977 67.7822 107.336C60.8769 106.836 54.238 104.465 48.5782 100.478Z" fill="#FFFAF8"/>
<path d="M42.0986 109.705C37.1257 106.205 33.0673 101.561 30.2657 96.1633C27.464 90.7661 26.0012 84.7743 26.0006 78.6932V9.28516H20.4766V78.6852C20.4766 84.7661 21.939 90.758 24.7403 96.1553C27.5417 101.553 31.5998 106.197 36.5726 109.697C45.6756 116.1 56.6756 119.238 67.7866 118.601C58.5597 118.1 49.6589 115.018 42.0986 109.705Z" fill="#FFB032"/>
<path d="M43.6193 30.5024C45.0509 30.5024 46.2113 29.3419 46.2113 27.9104C46.2113 26.4788 45.0509 25.3184 43.6193 25.3184C42.1878 25.3184 41.0273 26.4788 41.0273 27.9104C41.0273 29.3419 42.1878 30.5024 43.6193 30.5024Z" fill="#FFFAF8"/>
<path d="M50.2752 29.6852C51.2837 29.6852 52.1012 28.8677 52.1012 27.8592C52.1012 26.8507 51.2837 26.0332 50.2752 26.0332C49.2667 26.0332 48.4492 26.8507 48.4492 27.8592C48.4492 28.8677 49.2667 29.6852 50.2752 29.6852Z" fill="#FFFAF8"/>
<path d="M60.4655 77.564C60.055 77.9769 59.495 78.2072 58.9133 78.2072C58.3316 78.2072 57.7716 77.9769 57.3611 77.564L44.9648 65.1657C43.6784 63.8793 43.6784 61.7932 44.9648 60.5091L46.517 58.9566C47.8039 57.6701 49.8876 57.6701 51.174 58.9566L58.9133 66.6962L79.8259 45.7832C81.1128 44.4967 83.1984 44.4967 84.4829 45.7832L86.0351 47.3358C87.3215 48.6223 87.3215 50.7079 86.0351 51.9924L60.4655 77.564Z" fill="#D85738"/>
<path d="M60.5006 77.563C60.0902 77.9759 59.5302 78.2062 58.9484 78.2062C58.3667 78.2062 57.8067 77.9759 57.3962 77.563L45 65.1647C43.7135 63.8783 43.7135 61.7922 45 60.5082L46.5522 58.9556C47.8391 57.6691 49.9227 57.6691 51.2092 58.9556L58.9484 66.6952L75.5352 50C75.5352 50 75.1853 54.8935 74.5 58C73.8063 61.1447 72 66 72 66H72.0352L60.5006 77.563Z" fill="#EE6C4D"/>
</svg>
