<svg width="353" height="353" viewBox="0 0 353 353" fill="none" xmlns="http://www.w3.org/2000/svg">
<g clip-path="url(#clip0_49_3229)">
<path d="M215.109 209.594L296.741 232.208H234.414L148.922 209.594H215.109Z" fill="#C94747"/>
<path d="M27.5781 121.344H148.922V330.938H27.5781V121.344Z" fill="#F9F3D9"/>
<path d="M148.922 121.344H215.109V209.594H148.922V121.344Z" fill="#DBB471"/>
<path d="M115.828 44.125L6.06738 121.344H148.922L115.828 44.125Z" fill="#ED4C5C"/>
<path d="M159.953 55.1562H176.5V99.2812H159.953V55.1562Z" fill="#D0D0D0"/>
<path d="M176.5 55.1562H187.531V104.797H176.5V55.1562Z" fill="#94989B"/>
<path d="M115.828 44.125L237.172 121.344H148.922L115.828 44.125Z" fill="#C94747"/>
<path d="M154.438 44.125H182.016V55.1562H154.438V44.125Z" fill="#D0D0D0"/>
<path d="M182.016 44.125H193.047V55.1562H182.016V44.125Z" fill="#94989B"/>
<path d="M70.5996 153.334H105.9V188.634H70.5996V153.334Z" fill="#D6EEF0"/>
<path d="M66.1875 148.922V193.047H110.312V148.922H66.1875ZM105.9 153.334V168.778H90.4562V153.334H105.9ZM86.0438 153.334V168.778H70.6V153.334H86.0438ZM70.6 188.634V173.191H86.0438V188.634H70.6ZM90.4562 188.634V173.191H105.9V188.634H90.4562Z" fill="#89664C"/>
<path d="M168.778 151.128H195.253V190.84H168.778V151.128Z" fill="#D6EEF0"/>
<path d="M166.572 148.922V193.047H197.46V148.922H166.572ZM170.985 153.334H179.81V168.778H170.985V153.334ZM170.985 188.634V173.191H179.81V188.634H170.985ZM193.047 188.634H184.222V173.191H193.047V188.634ZM193.047 168.778H184.222V153.334H193.047V168.778ZM75.5645 270.817H109.761V330.938H75.5645V270.817ZM105.9 261.992H114.725V270.817H105.9V261.992Z" fill="#89664C"/>
<path d="M66.7393 270.817H75.5643V330.938H66.7393V270.817Z" fill="#594640"/>
<path d="M62.8779 261.992H105.9V270.817H62.8779V261.992Z" fill="#DBB471"/>
<path d="M102.591 300.05C104.418 300.05 105.9 298.569 105.9 296.741C105.9 294.913 104.418 293.432 102.591 293.432C100.763 293.432 99.2812 294.913 99.2812 296.741C99.2812 298.569 100.763 300.05 102.591 300.05Z" fill="#F9F3D9"/>
<path d="M0.551758 330.938H287.364V353H0.551758V330.938Z" fill="#83BF4F"/>
<path d="M220.073 232.208H271.369V330.938H220.073V232.208Z" fill="#DBB471"/>
<path d="M148.922 232.208H220.073V330.938H148.922V232.208Z" fill="#F9F3D9"/>
<path d="M148.922 209.594H27.5781L0 232.208H234.414L148.922 209.594Z" fill="#ED4C5C"/>
<path d="M156.092 263.646H191.392V298.946H156.092V263.646Z" fill="#D6EEF0"/>
<path d="M151.68 259.234V303.359H195.805V259.234H151.68ZM191.392 263.647V279.091H175.948V263.647H191.392ZM171.536 263.647V279.091H156.092V263.647H171.536ZM156.092 298.947V283.503H171.536V298.947H156.092ZM175.948 298.947V283.503H191.392V298.947H175.948Z" fill="#89664C"/>
<path d="M232.208 261.44H258.683V301.153H232.208V261.44Z" fill="#D6EEF0"/>
<path d="M230.002 259.234V303.359H260.889V259.234H230.002ZM234.414 263.647H243.239V279.091H234.414V263.647ZM234.414 298.947V283.503H243.239V298.947H234.414ZM256.477 298.947H247.652V283.503H256.477V298.947ZM256.477 279.091H247.652V263.647H256.477V279.091Z" fill="#89664C"/>
<path d="M286.261 330.938H352.448V353H286.261V330.938Z" fill="#699635"/>
<path d="M287.916 187.531H309.979V330.938H287.916V187.531Z" fill="#D3976E"/>
<path d="M309.978 187.531H301.704V190.289C301.704 202.975 297.292 202.975 297.292 215.661C297.292 228.347 301.704 228.347 301.704 240.481C301.704 253.167 297.292 253.167 297.292 265.853C297.292 278.539 301.704 278.539 301.704 290.673C301.704 303.359 297.292 303.359 297.292 315.494C297.292 323.216 298.395 326.525 299.498 330.386H309.426C309.978 330.938 309.978 187.531 309.978 187.531Z" fill="#89664C"/>
<path d="M293.431 15.9927C282.951 30.8849 270.265 3.8583 253.718 27.0239C237.171 50.1895 245.996 70.5974 250.96 85.4895C260.888 115.825 240.481 125.202 254.27 150.574C267.507 175.946 248.202 188.08 273.574 201.869C298.946 215.658 286.26 185.874 312.184 203.524C338.107 221.174 341.416 191.39 338.659 180.358C333.143 159.95 348.035 154.986 352.448 137.888C359.618 107.552 335.349 91.0052 343.071 62.3239C349.69 34.1942 324.87 -29.787 293.431 15.9927Z" fill="#83BF4F"/>
<path d="M341.969 62.8781C348.036 41.3672 335.35 0 315.494 0C315.494 0 328.732 17.65 309.978 39.7125C291.225 61.775 325.974 72.8062 309.978 93.2141C293.983 113.622 324.871 133.478 312.736 149.473C297.844 169.33 274.127 166.572 287.916 204.63V205.181C293.432 201.872 293.983 192.495 311.082 204.078C337.005 221.728 340.314 191.944 337.557 180.912C332.041 160.505 346.933 155.541 351.346 138.442C359.068 108.106 334.799 91.5594 341.969 62.8781Z" fill="#699635"/>
<path d="M318.803 61.7748C314.942 61.7748 321.009 58.4654 321.009 54.0529C321.009 49.6404 314.942 46.3311 318.803 46.3311C322.664 46.3311 326.525 49.6404 326.525 54.0529C326.525 58.4654 323.215 61.7748 318.803 61.7748ZM328.731 128.514C322.664 128.514 332.04 123.55 332.04 117.483C332.04 111.415 322.664 106.451 328.731 106.451C334.798 106.451 339.762 111.415 339.762 117.483C339.762 123.55 334.798 128.514 328.731 128.514ZM318.803 184.773C314.39 184.773 318.803 180.912 318.803 176.5C318.803 172.087 314.39 168.226 318.803 168.226C323.215 168.226 327.076 172.087 327.076 176.5C327.076 180.912 323.215 184.773 318.803 184.773ZM271.92 66.7389C276.332 66.7389 270.817 70.5998 270.817 75.0123C270.817 79.4248 276.884 83.2858 271.92 83.2858C266.956 83.2858 263.646 79.4248 263.646 75.0123C263.646 70.5998 267.507 66.7389 271.92 66.7389ZM290.121 35.2998C296.189 35.2998 287.364 40.2639 287.364 46.3311C287.364 52.3982 296.74 57.3623 290.121 57.3623C284.054 57.3623 279.09 52.3982 279.09 46.3311C279.09 40.2639 283.503 35.2998 290.121 35.2998Z" fill="#83BF4F"/>
<path d="M285.158 119.138C294.535 119.138 281.297 126.308 281.297 135.685C281.297 145.061 293.983 152.231 285.158 152.231C275.782 152.231 268.611 145.061 268.611 135.685C268.611 126.308 275.782 119.138 285.158 119.138ZM290.122 88.8018C294.535 88.8018 290.122 92.6627 290.122 97.0752C290.122 101.488 294.535 105.349 290.122 105.349C285.71 105.349 281.849 101.488 281.849 97.0752C281.849 92.6627 285.71 88.8018 290.122 88.8018Z" fill="#699635"/>
<path d="M320.458 314.391H322.664V330.938H320.458V314.391Z" fill="#83BF4F"/>
<path d="M315.494 297.292V309.978C315.494 312.184 317.149 314.39 319.907 314.39H324.319V305.565C323.768 299.498 315.494 297.292 315.494 297.292Z" fill="#C94747"/>
<path d="M328.179 297.292V309.978C328.179 312.184 326.525 314.39 323.767 314.39H319.354V305.565C319.354 299.498 328.179 297.292 328.179 297.292Z" fill="#ED4C5C"/>
<path d="M344.727 301.705H346.933V330.938H344.727V301.705Z" fill="#83BF4F"/>
<path d="M339.763 284.055V296.741C339.763 298.947 341.417 301.153 344.175 301.153H348.588V292.328C348.036 286.813 339.763 284.055 339.763 284.055Z" fill="#C94747"/>
<path d="M352.448 284.055V296.741C352.448 298.947 350.793 301.153 348.036 301.153H343.623V292.328C343.623 286.813 352.448 284.055 352.448 284.055Z" fill="#ED4C5C"/>
<path d="M323.768 276.885V289.571C323.768 291.777 325.422 293.983 328.18 293.983H332.593V285.158C332.593 279.643 323.768 276.885 323.768 276.885Z" fill="#F2B200"/>
<path d="M337.005 276.885V289.571C337.005 291.777 335.35 293.983 332.592 293.983H328.18V285.158C328.18 279.643 337.005 276.885 337.005 276.885Z" fill="#FFCE31"/>
<path d="M329.283 294.534H331.489V330.937H329.283V294.534Z" fill="#83BF4F"/>
<path d="M306.117 283.503V296.189C306.117 298.395 308.323 300.601 310.53 300.601H314.391V292.328C314.391 285.709 306.117 283.503 306.117 283.503Z" fill="#F2B200"/>
<path d="M318.804 283.503V296.189C318.804 298.395 317.149 300.601 314.391 300.601H309.979V292.328C309.979 285.709 318.804 283.503 318.804 283.503Z" fill="#FFCE31"/>
<path d="M311.081 300.602H313.287V330.938H311.081V300.602ZM270.266 314.391H272.472V330.938H270.266V314.391Z" fill="#83BF4F"/>
<path d="M264.75 297.292V309.978C264.75 312.184 266.405 314.39 269.162 314.39H273.575V305.565C273.575 299.498 264.75 297.292 264.75 297.292Z" fill="#C94747"/>
<path d="M277.987 297.292V309.978C277.987 312.184 276.332 314.39 273.575 314.39H269.162V305.565C269.162 299.498 277.987 297.292 277.987 297.292Z" fill="#ED4C5C"/>
<path d="M294.534 301.705H296.74V330.938H294.534V301.705Z" fill="#83BF4F"/>
<path d="M289.019 284.055V296.741C289.019 298.947 290.673 301.153 293.431 301.153H297.844V292.328C297.844 286.813 289.019 284.055 289.019 284.055Z" fill="#C94747"/>
<path d="M302.257 284.055V296.741C302.257 298.947 300.602 301.153 297.844 301.153H293.432V292.328C293.432 286.813 302.257 284.055 302.257 284.055Z" fill="#ED4C5C"/>
<path d="M273.575 276.885V289.571C273.575 291.777 275.23 293.983 277.988 293.983H282.4V285.158C282.4 279.643 273.575 276.885 273.575 276.885Z" fill="#F2B200"/>
<path d="M286.261 276.885V289.571C286.261 291.777 284.606 293.983 281.848 293.983H277.436V285.158C277.987 279.643 286.261 276.885 286.261 276.885Z" fill="#FFCE31"/>
<path d="M279.091 294.534H281.297V330.937H279.091V294.534Z" fill="#83BF4F"/>
<path d="M255.373 283.503V296.189C255.373 298.395 257.028 300.601 259.786 300.601H264.198V292.328C264.198 285.709 255.373 283.503 255.373 283.503Z" fill="#C94747"/>
<path d="M268.611 283.503V296.189C268.611 298.395 266.956 300.601 264.199 300.601H259.786V292.328C259.786 285.709 268.611 283.503 268.611 283.503Z" fill="#ED4C5C"/>
<path d="M260.889 300.602H263.095V330.938H260.889V300.602Z" fill="#83BF4F"/>
</g>
<defs>
<clipPath id="clip0_49_3229">
<rect width="353" height="353" fill="white"/>
</clipPath>
</defs>
</svg>
