<svg width="128" height="128" viewBox="0 0 128 128" fill="none" xmlns="http://www.w3.org/2000/svg">
<path d="M50.9883 74.2988H42.8003C36.7932 74.2991 30.8701 75.7104 25.5083 78.4188C20.9162 80.739 17.0576 84.2875 14.3618 88.6696C11.666 93.0518 10.2386 98.0959 10.2383 103.241V122.573H120.856V103.241C120.857 98.0956 119.431 93.0509 116.735 88.6685C114.039 84.2861 110.179 80.7379 105.586 78.4188C100.225 75.7104 94.3027 74.2991 88.2963 74.2988H50.9883Z" fill="#EE6F14"/>
<path d="M100.942 76.4568C96.8779 75.0329 92.6028 74.3034 88.2963 74.2988H42.8003C36.7932 74.2991 30.8701 75.7104 25.5083 78.4188C20.9162 80.739 17.0576 84.2875 14.3618 88.6696C11.666 93.0518 10.2386 98.0959 10.2383 103.241V122.573H74.4003C86.8538 109.579 95.9625 93.7525 100.942 76.4568Z" fill="#F79C0A"/>
<path d="M50.9883 61V74.298L65.5483 96.214L80.1063 74.298L80.1083 61H50.9883Z" fill="#D88D68"/>
<path d="M41.6982 29.6289V39.6629V39.6909C41.6982 54.5149 52.3762 66.5309 65.5482 66.5309C78.5242 66.5309 89.0562 54.8629 89.3682 40.3429H89.4002V29.6289" fill="#F4BC8E"/>
<path d="M41.6982 40.1773H45.2002C46.4698 40.1746 47.6866 39.6691 48.5844 38.7714C49.4821 37.8737 49.9876 36.6569 49.9902 35.3873V29.6273H81.0902V35.3873C81.0929 36.6586 81.5998 37.8769 82.4997 38.7749C83.3995 39.6729 84.6189 40.1773 85.8902 40.1773H89.3862L89.4002 17.0633C89.4002 14.6233 88.431 12.2832 86.7056 10.5579C84.9803 8.83256 82.6402 7.86328 80.2002 7.86328H56.4842C55.3288 7.86328 54.2206 8.32215 53.4034 9.139C52.5862 9.95585 52.1268 11.0638 52.1262 12.2193V14.7193H48.2702C47.4072 14.7193 46.5526 14.8893 45.7552 15.2195C44.9579 15.5498 44.2334 16.0339 43.6231 16.6442C43.0129 17.2544 42.5288 17.9789 42.1985 18.7763C41.8682 19.5736 41.6982 20.4282 41.6982 21.2913V40.1773Z" fill="#EE6C4D"/>
<path d="M32.6523 78.4188C38.0134 75.7104 43.9358 74.2991 49.9423 74.2988H42.8003C36.7932 74.2991 30.8701 75.7104 25.5083 78.4188C20.9162 80.739 17.0576 84.2875 14.3618 88.6696C11.666 93.0518 10.2386 98.0959 10.2383 103.241V122.573H17.3823V103.241C17.3812 98.0956 18.808 93.0509 21.504 88.6685C24.2 84.2861 28.0593 80.7379 32.6523 78.4188Z" fill="#FFB032"/>
<path d="M78.6002 7.85742H56.4842C55.3288 7.85742 54.2206 8.31629 53.4034 9.13314C52.5862 9.94999 52.1268 11.058 52.1262 12.2134V14.7134H48.2702C46.5272 14.7134 44.8556 15.4058 43.6231 16.6383C42.3906 17.8708 41.6982 19.5424 41.6982 21.2854V40.1774H45.2002C46.4698 40.1748 47.6866 39.6693 48.5844 38.7715C49.4821 37.8738 49.9876 36.657 49.9902 35.3874V29.6274H67.7102C72.9119 23.2696 76.632 15.8328 78.6002 7.85742Z" fill="#F98E5F"/>
<path d="M45.6002 23.1074C45.6002 22.2437 45.7705 21.3885 46.1013 20.5906C46.432 19.7927 46.9168 19.0679 47.528 18.4575C48.1391 17.8471 48.8645 17.3632 49.6628 17.0334C50.4611 16.7036 51.3165 16.5344 52.1802 16.5354H56.0382V14.0354C56.0382 13.4628 56.1511 12.8958 56.3704 12.3668C56.5896 11.8378 56.911 11.3572 57.3161 10.9524C57.7212 10.5477 58.2021 10.2268 58.7313 10.008C59.2605 9.78923 59.8276 9.6769 60.4002 9.67742H78.0942C78.2662 9.07742 78.4462 8.47742 78.5982 7.85742H56.4842C55.3288 7.85742 54.2206 8.31629 53.4034 9.13314C52.5862 9.94999 52.1268 11.058 52.1262 12.2134V14.7134H48.2702C46.5272 14.7134 44.8556 15.4058 43.6231 16.6383C42.3906 17.8708 41.6982 19.5424 41.6982 21.2854V40.1774H45.2002C45.3442 40.1774 45.4782 40.1474 45.6162 40.1354L45.6002 23.1074Z" fill="#FFB399"/>
<path d="M29.214 119.026C30.7129 119.026 31.928 117.811 31.928 116.312C31.928 114.813 30.7129 113.598 29.214 113.598C27.7151 113.598 26.5 114.813 26.5 116.312C26.5 117.811 27.7151 119.026 29.214 119.026Z" fill="#83AACC"/>
<path d="M23.108 118.009C23.9961 118.009 24.716 117.289 24.716 116.401C24.716 115.513 23.9961 114.793 23.108 114.793C22.2199 114.793 21.5 115.513 21.5 116.401C21.5 117.289 22.2199 118.009 23.108 118.009Z" fill="#83AACC"/>
<path d="M39.4121 74.4648C38.0699 74.5842 36.7348 74.7731 35.4121 75.0308V95.6648H39.4121V74.4648Z" fill="#294360"/>
<path d="M50.1119 111.306H46.1119V96.9258H28.7119V111.306H24.7119V94.9258C24.7119 94.3953 24.9226 93.8866 25.2977 93.5116C25.6728 93.1365 26.1815 92.9258 26.7119 92.9258H48.1119C48.6423 92.9258 49.1511 93.1365 49.5261 93.5116C49.9012 93.8866 50.1119 94.3953 50.1119 94.9258V111.306Z" fill="#294360"/>
<path d="M94.8955 74.8745C93.5716 74.644 92.2364 74.4844 90.8955 74.3965V96.2165H94.8955V74.8745Z" fill="#294360"/>
<path d="M92.8987 108.213C96.3571 108.213 99.1607 105.41 99.1607 101.951C99.1607 98.493 96.3571 95.6895 92.8987 95.6895C89.4403 95.6895 86.6367 98.493 86.6367 101.951C86.6367 105.41 89.4403 108.213 92.8987 108.213Z" fill="white"/>
<path d="M67.9537 92.5898L65.5537 96.2058L73.2497 107.792L76.5817 105.576L67.9537 92.5898Z" fill="#3D5A80"/>
</svg>
