<svg width="128" height="128" viewBox="0 0 128 128" fill="none" xmlns="http://www.w3.org/2000/svg">
<path d="M64.8575 79.3278L31.5255 45.9998C6.53152 20.9998 39.8655 -12.3282 64.8575 12.6638C90.2295 -12.7082 123.562 20.6238 98.1995 45.9998L64.8575 79.3278Z" fill="#EE6F14"/>
<path d="M91.3385 4.67351C83.4065 2.13551 73.6565 3.87351 64.8585 12.6635C39.8665 -12.3285 6.5325 20.9995 31.5265 45.9995L44.2285 58.7035C55.9694 54.3499 66.4323 47.1239 74.6617 37.6857C82.8911 28.2476 88.6246 16.8979 91.3385 4.67351Z" fill="#EE6F14"/>
<path d="M36.8674 20.9556C38.162 20.9556 39.2114 19.9061 39.2114 18.6116C39.2114 17.317 38.162 16.2676 36.8674 16.2676C35.5729 16.2676 34.5234 17.317 34.5234 18.6116C34.5234 19.9061 35.5729 20.9556 36.8674 20.9556Z" fill="#FFB399"/>
<path d="M40.5504 15.4993C41.4628 15.4993 42.2024 14.7597 42.2024 13.8473C42.2024 12.9349 41.4628 12.1953 40.5504 12.1953C39.6381 12.1953 38.8984 12.9349 38.8984 13.8473C38.8984 14.7597 39.6381 15.4993 40.5504 15.4993Z" fill="#FFB399"/>
<path d="M81.4994 32.4273H70.5174V21.4453H59.4234V32.4273H48.4414V43.5213H59.4234V54.5053H70.5174V43.5213H81.4994V32.4273Z" fill="#CCD7DD"/>
<path d="M78.7994 32.4273H70.5174V21.4453H59.4234V32.4273H48.4414V43.5213H59.4234V50.9633C66.9409 45.9959 73.5039 39.7174 78.7994 32.4273Z" fill="#E4EBEF"/>
<path d="M73.916 115.928H98.514V126.286H73.916V115.928Z" fill="#3D5A80"/>
<path d="M53.472 115.929H33.686V106.787L7.70996 75.5066L8.19996 53.5566C8.23498 51.9762 8.88734 50.4724 10.0174 49.3671C11.1474 48.2617 12.6652 47.6427 14.246 47.6426C15.0434 47.6426 15.833 47.8002 16.5692 48.1066C17.3055 48.4129 17.9739 48.8618 18.536 49.4274C19.0981 49.9931 19.5428 50.6643 19.8445 51.4024C20.1462 52.1406 20.299 52.9312 20.294 53.7286L20.224 65.6426L31.112 77.7666C30.2488 76.8088 29.788 75.5553 29.8253 74.2665C29.8625 72.9777 30.395 71.7529 31.312 70.8466C31.7887 70.3748 32.3552 70.0036 32.978 69.7548C33.6009 69.5061 34.2673 69.3849 34.9378 69.3986C35.6084 69.4122 36.2693 69.5603 36.8816 69.8341C37.4938 70.1079 38.0448 70.5018 38.502 70.9926L52.318 85.8246C53.0658 86.6264 53.4818 87.6821 53.482 88.7786V115.929" fill="#F4BC8E"/>
<path d="M55.8555 126.285H31.2575V115.927H55.8555V126.285Z" fill="#3D5A80"/>
<path d="M37.6683 45.2738C20.8683 28.4738 30.4403 7.91976 46.1083 3.83976C27.1083 3.40976 12.6103 27.0818 31.5263 45.9998L64.8583 79.3278L68.2903 75.8958L37.6683 45.2738Z" fill="#F79C0A"/>
<path d="M76.3 115.929H96.084V106.787L122.062 75.5066L121.574 53.5566C121.538 51.9761 120.886 50.4722 119.755 49.3669C118.625 48.2616 117.107 47.6427 115.526 47.6426C114.729 47.6426 113.939 47.8002 113.203 48.1066C112.466 48.4129 111.798 48.8618 111.236 49.4274C110.674 49.9931 110.229 50.6643 109.927 51.4024C109.626 52.1406 109.473 52.9312 109.478 53.7286L109.55 65.6426L98.66 77.7666C99.5259 76.8101 99.9886 75.556 99.9513 74.2664C99.914 72.9767 99.3797 71.7514 98.46 70.8466C97.984 70.3739 97.4178 70.0018 96.795 69.7524C96.1723 69.5031 95.5057 69.3816 94.835 69.3952C94.1643 69.4088 93.5033 69.5573 92.8911 69.8317C92.279 70.1061 91.7284 70.5009 91.272 70.9926L77.454 85.8246C76.7067 86.6266 76.2914 87.6823 76.292 88.7786V115.929" fill="#F4BC8E"/>
<path d="M121.588 54.2009C121.579 53.0351 121.271 51.8911 120.694 50.8784C120.116 49.8656 119.289 49.0181 118.29 48.4169C117.068 47.6785 115.603 47.4541 114.216 47.7929C114.89 48.7659 115.263 49.9156 115.288 51.0989L115.748 71.7909C115.766 72.6006 115.491 73.3895 114.974 74.0129L89.7998 104.329V115.929H96.0838V106.787L122.062 75.5069L121.588 54.2009Z" fill="#D88D68"/>
<path d="M39.972 115.929V104.329L14.8 74.0151C14.2834 73.3945 14.0079 72.6084 14.024 71.8011L14.484 51.1091C14.5079 49.9249 14.8808 48.7742 15.556 47.8011C14.1682 47.4617 12.7026 47.6861 11.48 48.4251C10.4828 49.0259 9.65623 49.8723 9.07922 50.8835C8.50221 51.8947 8.19398 53.0369 8.18396 54.2011L7.70996 75.5071L33.686 106.787V115.929H39.972Z" fill="#D88D68"/>
</svg>
