<svg width="177" height="47" viewBox="0 0 177 47" fill="none" xmlns="http://www.w3.org/2000/svg">
<path d="M13.7456 33.8052C13.7753 33.8586 13.8049 33.9106 13.8361 33.9626L3.12542 41.1827L3.02148 41.0342L13.7456 33.8052Z" fill="url(#paint0_linear_64_3448)"/>
<path d="M64 0.157379L34.1677 20.2589L34.0549 20.1104L63.8976 0L64 0.157379Z" fill="url(#paint1_linear_64_3448)"/>
<path d="M14.2948 34.6694L14.4017 34.8179L0.103932 44.4181L0 44.2696L14.2948 34.6694Z" fill="url(#paint2_linear_64_3448)"/>
<path d="M54.6699 7.7681L34.7748 21.1305C34.7436 21.0771 34.7109 21.0281 34.6768 20.982L54.5719 7.61963L54.6699 7.7681Z" fill="url(#paint3_linear_64_3448)"/>
<path d="M47.7662 16.0511C50.1606 16.0511 52.1016 14.1101 52.1016 11.7157C52.1016 9.32138 50.1606 7.38037 47.7662 7.38037C45.3719 7.38037 43.4308 9.32138 43.4308 11.7157C43.4308 14.1101 45.3719 16.0511 47.7662 16.0511Z" fill="url(#paint4_linear_64_3448)"/>
<path d="M59.1287 4.55635C59.7273 4.55635 60.2125 4.0711 60.2125 3.47251C60.2125 2.87392 59.7273 2.38867 59.1287 2.38867C58.5301 2.38867 58.0449 2.87392 58.0449 3.47251C58.0449 4.0711 58.5301 4.55635 59.1287 4.55635Z" fill="url(#paint5_linear_64_3448)"/>
<path d="M24.8081 34.0951C26.7708 34.0333 28.6362 33.2261 30.0247 31.8376C31.4132 30.4491 32.2205 28.5837 32.2822 26.621C32.2822 26.5423 32.2822 26.4622 32.2822 26.3835C32.2822 26.3048 32.2822 26.2231 32.2822 26.1444C32.2153 22.4796 30.7166 18.9865 28.1067 16.4127C25.4969 13.8389 21.9833 12.3889 18.3179 12.373C14.6524 12.3571 11.1264 13.7765 8.49429 16.3276C5.86221 18.8786 4.33321 22.3585 4.2345 26.0227C4.32827 20.7545 6.46271 15.7282 10.1884 12.0023C13.914 8.27634 18.9401 6.14153 24.2083 6.04736C24.3271 6.04736 24.4489 6.04736 24.5691 6.04736C24.6894 6.04736 24.8111 6.04736 24.9314 6.04736C28.5955 6.14623 32.0754 7.6754 34.6263 10.3076C37.1773 12.9398 38.5966 16.466 38.5804 20.1315C38.5643 23.7969 37.1141 27.3104 34.5402 29.9201C31.9662 32.5299 28.473 34.0284 24.8081 34.0951V34.0951Z" fill="url(#paint6_linear_64_3448)"/>
<path d="M16.6837 26.6181C16.7458 28.5803 17.553 30.4451 18.9411 31.8332C20.3293 33.2214 22.1941 34.0286 24.1563 34.0907H24.3953H24.6329C28.2976 34.0231 31.7904 32.5237 34.3636 29.9135C36.9369 27.3033 38.3863 23.7895 38.4016 20.1241C38.417 16.4588 36.997 12.933 34.4457 10.3014C31.8943 7.6697 28.4142 6.1412 24.7502 6.04297C30.0194 6.13561 35.047 8.26975 38.7739 11.9958C42.5008 15.7219 44.6361 20.7491 44.7299 26.0183C44.7299 26.1371 44.7299 26.2573 44.7299 26.3791C44.7299 26.5008 44.7299 26.6211 44.7299 26.7398C44.6402 30.4098 43.1151 33.8984 40.4822 36.4566C37.8492 39.0148 34.3182 40.4387 30.6472 40.4228C26.9761 40.4069 23.4576 38.9523 20.847 36.3713C18.2363 33.7904 16.7416 30.2887 16.6837 26.6181V26.6181Z" fill="url(#paint7_linear_64_3448)"/>
<path d="M24.1563 18.4922C22.1936 18.5539 20.3282 19.3612 18.9397 20.7497C17.5512 22.1382 16.744 24.0036 16.6823 25.9662C16.6823 26.0449 16.6823 26.1251 16.6823 26.2038C16.6823 26.2825 16.6823 26.3641 16.6823 26.4428C16.7489 30.1077 18.2474 33.6009 20.8572 36.1749C23.4669 38.7488 26.9804 40.199 30.6459 40.2151C34.3113 40.2312 37.8375 38.8119 40.4697 36.261C43.1019 33.7101 44.6311 30.2302 44.7299 26.5661C44.6377 31.8337 42.5042 36.8599 38.7791 40.5855C35.054 44.3111 30.0282 46.4453 24.7606 46.5384C24.6418 46.5384 24.52 46.5384 24.3998 46.5384C24.2795 46.5384 24.1578 46.5384 24.0375 46.5384C20.3791 46.432 16.9071 44.8999 14.3625 42.2692C11.818 39.6384 10.4024 36.1173 10.4179 32.4574C10.4334 28.7974 11.8788 25.2884 14.4455 22.6793C17.0122 20.0702 20.4971 18.5676 24.1563 18.4922V18.4922Z" fill="url(#paint8_linear_64_3448)"/>
<path d="M32.2855 25.9708C32.2238 24.0084 31.4167 22.1432 30.0285 20.7547C28.6403 19.3662 26.7753 18.5588 24.8129 18.4967H24.5739H24.3363C20.6914 18.5921 17.2269 20.1029 14.6769 22.709C12.1269 25.3151 10.6918 28.8117 10.6758 32.4579C10.6597 36.104 12.064 39.613 14.591 42.2415C17.118 44.8699 20.5692 46.4111 24.2131 46.5385C18.9454 46.4466 13.9191 44.3135 10.1932 40.5887C6.46728 36.8639 4.33271 31.8382 4.23926 26.5706C4.23926 26.4503 4.23926 26.3301 4.23926 26.2083C4.23926 26.0866 4.23926 25.9663 4.23926 25.8476C4.32918 22.1775 5.85439 18.6891 8.48749 16.131C11.1206 13.5728 14.6517 12.149 18.3227 12.1652C21.9938 12.1813 25.5123 13.6361 28.1228 16.2172C30.7333 18.7984 32.2278 22.3001 32.2855 25.9708V25.9708Z" fill="url(#paint9_linear_64_3448)"/>
<path d="M74.208 16.6211V31.7411H72V16.6211H74.208Z" fill="#1B413E"/>
<path d="M79.8474 31.7411H77.7354V20.4611H79.3914L79.7034 22.0211C80.2634 21.4611 80.8474 21.0371 81.4554 20.7491C82.0794 20.4451 82.7914 20.2931 83.5914 20.2931C84.7434 20.2931 85.6474 20.6211 86.3034 21.2771C86.9594 21.9171 87.2874 22.8131 87.2874 23.9651V31.7411H85.1754V24.2771C85.1754 23.5891 84.9914 23.0451 84.6234 22.6451C84.2714 22.2291 83.7274 22.0211 82.9914 22.0211C81.8714 22.0211 80.8234 22.5251 79.8474 23.5331V31.7411Z" fill="#1B413E"/>
<path d="M97.4918 20.4611H99.7478L95.5478 31.7411H93.4837L89.2358 20.4611H91.5158L94.0597 28.2131L94.4918 29.9891H94.5877L94.9958 28.2371L97.4918 20.4611Z" fill="#1B413E"/>
<path d="M102.001 31.7411V20.4611H104.113V31.7411H102.001ZM103.057 17.5571C102.689 17.5571 102.369 17.4371 102.097 17.1971C101.841 16.9411 101.713 16.6291 101.713 16.2611C101.713 15.8931 101.841 15.5811 102.097 15.3251C102.369 15.0691 102.689 14.9411 103.057 14.9411C103.409 14.9411 103.721 15.0691 103.993 15.3251C104.265 15.5811 104.401 15.8931 104.401 16.2611C104.401 16.6291 104.265 16.9411 103.993 17.1971C103.721 17.4371 103.409 17.5571 103.057 17.5571Z" fill="#1B413E"/>
<path d="M113.499 22.0451H110.187V28.5971C110.187 29.1571 110.323 29.5331 110.595 29.7251C110.883 29.9171 111.251 30.0131 111.699 30.0131C112.019 30.0131 112.371 29.9811 112.755 29.9171C113.139 29.8371 113.475 29.7491 113.763 29.6531L114.099 31.2611C113.779 31.3891 113.371 31.5011 112.875 31.5971C112.379 31.6931 111.859 31.7411 111.315 31.7411C110.195 31.7411 109.379 31.5011 108.867 31.0211C108.355 30.5251 108.099 29.8131 108.099 28.8851V22.0451H106.419V20.4611H108.099V16.8611H110.187V20.4611H113.499V22.0451Z" fill="#1B413E"/>
<path d="M116.266 31.7411V20.4611H117.85L118.21 22.7171C118.482 21.9971 118.93 21.4131 119.554 20.9651C120.178 20.5171 120.898 20.2931 121.714 20.2931C122.13 20.2931 122.474 20.3251 122.746 20.3891C123.018 20.4531 123.266 20.5331 123.49 20.6291L123.082 22.4771C122.89 22.3811 122.674 22.3011 122.434 22.2371C122.21 22.1731 121.938 22.1411 121.618 22.1411C121.154 22.1411 120.722 22.2211 120.322 22.3811C119.938 22.5411 119.594 22.7811 119.29 23.1011C119.002 23.4211 118.77 23.8211 118.594 24.3011C118.434 24.7651 118.354 25.3011 118.354 25.9091V31.7411H116.266Z" fill="#1B413E"/>
<path d="M134.978 25.9811C134.978 26.9251 134.834 27.7731 134.546 28.5251C134.258 29.2611 133.858 29.8851 133.346 30.3971C132.85 30.9091 132.266 31.3011 131.594 31.5731C130.922 31.8291 130.194 31.9571 129.41 31.9571C128.626 31.9571 127.898 31.8371 127.226 31.5971C126.57 31.3411 125.994 30.9731 125.498 30.4931C125.018 29.9971 124.634 29.3971 124.346 28.6931C124.074 27.9731 123.938 27.1491 123.938 26.2211C123.938 25.2771 124.082 24.4371 124.37 23.7011C124.658 22.9651 125.05 22.3491 125.546 21.8531C126.058 21.3411 126.65 20.9571 127.322 20.7011C127.994 20.4291 128.722 20.2931 129.506 20.2931C130.29 20.2931 131.01 20.4131 131.666 20.6531C132.338 20.8931 132.914 21.2531 133.394 21.7331C133.89 22.2131 134.274 22.8131 134.546 23.5331C134.834 24.2371 134.978 25.0531 134.978 25.9811ZM132.77 26.1011C132.77 25.3491 132.674 24.7091 132.482 24.1811C132.29 23.6531 132.034 23.2211 131.714 22.8851C131.41 22.5491 131.058 22.3091 130.658 22.1651C130.258 22.0051 129.85 21.9251 129.434 21.9251C129.018 21.9251 128.61 21.9891 128.21 22.1171C127.81 22.2451 127.458 22.4691 127.154 22.7891C126.85 23.1091 126.602 23.5411 126.41 24.0851C126.234 24.6131 126.146 25.2851 126.146 26.1011C126.146 26.8531 126.242 27.5011 126.434 28.0451C126.626 28.5731 126.874 29.0051 127.178 29.3411C127.498 29.6771 127.858 29.9251 128.258 30.0851C128.658 30.2451 129.066 30.3251 129.482 30.3251C129.898 30.3251 130.306 30.2611 130.706 30.1331C131.106 29.9891 131.458 29.7571 131.762 29.4371C132.066 29.1011 132.306 28.6691 132.482 28.1411C132.674 27.5971 132.77 26.9171 132.77 26.1011Z" fill="#1B413E"/>
<path d="M143.156 16.6211H145.364V29.8691H151.82V31.7411H143.156V16.6211Z" fill="#1B413E"/>
<path d="M154.15 31.7411V20.4611H156.262V31.7411H154.15ZM155.206 17.5571C154.838 17.5571 154.518 17.4371 154.246 17.1971C153.99 16.9411 153.862 16.6291 153.862 16.2611C153.862 15.8931 153.99 15.5811 154.246 15.3251C154.518 15.0691 154.838 14.9411 155.206 14.9411C155.558 14.9411 155.87 15.0691 156.142 15.3251C156.414 15.5811 156.55 15.8931 156.55 16.2611C156.55 16.6291 156.414 16.9411 156.142 17.1971C155.87 17.4371 155.558 17.5571 155.206 17.5571Z" fill="#1B413E"/>
<path d="M163.968 14.5811C164.416 14.5811 164.88 14.6451 165.36 14.7731C165.856 14.9011 166.296 15.0611 166.68 15.2531L166.248 16.7171C165.928 16.5891 165.624 16.4931 165.336 16.4291C165.048 16.3491 164.744 16.3091 164.424 16.3091C163.656 16.3091 163.104 16.5251 162.768 16.9571C162.448 17.3891 162.288 18.1251 162.288 19.1651V20.4611H165.72V22.0451H162.288V31.7411H160.2V22.0451H158.544V20.4611H160.2V18.4691C160.2 17.2211 160.52 16.2611 161.16 15.5891C161.816 14.9171 162.752 14.5811 163.968 14.5811Z" fill="#1B413E"/>
<path d="M176.937 26.3411H168.849V26.4371C168.849 27.6851 169.185 28.6451 169.857 29.3171C170.545 29.9891 171.473 30.3251 172.641 30.3251C173.249 30.3251 173.785 30.2771 174.249 30.1811C174.729 30.0851 175.249 29.9251 175.809 29.7011L176.241 31.2611C175.777 31.4691 175.225 31.6371 174.585 31.7651C173.961 31.8931 173.289 31.9571 172.569 31.9571C171.753 31.9571 170.985 31.8451 170.265 31.6211C169.561 31.3971 168.937 31.0531 168.393 30.5891C167.849 30.1091 167.417 29.5011 167.097 28.7651C166.793 28.0291 166.641 27.1491 166.641 26.1251C166.641 25.2451 166.769 24.4451 167.025 23.7251C167.297 23.0051 167.673 22.3971 168.153 21.9011C168.633 21.3891 169.209 20.9971 169.881 20.7251C170.569 20.4371 171.337 20.2931 172.185 20.2931C172.905 20.2931 173.553 20.4131 174.129 20.6531C174.721 20.8931 175.225 21.2291 175.641 21.6611C176.057 22.0931 176.377 22.6131 176.601 23.2211C176.825 23.8291 176.937 24.5011 176.937 25.2371V26.3411ZM174.753 24.8291C174.753 24.4131 174.697 24.0291 174.585 23.6771C174.489 23.3091 174.329 22.9891 174.105 22.7171C173.897 22.4451 173.625 22.2291 173.289 22.0691C172.953 21.9091 172.545 21.8291 172.065 21.8291C171.185 21.8291 170.465 22.1091 169.905 22.6691C169.361 23.2291 169.025 23.9651 168.897 24.8771L174.753 24.8291Z" fill="#1B413E"/>
<defs>
<linearGradient id="paint0_linear_64_3448" x1="3.02148" y1="37.4932" x2="13.8361" y2="37.4932" gradientUnits="userSpaceOnUse">
<stop stop-color="#F4D86C"/>
<stop offset="0.52" stop-color="#ED7C78"/>
<stop offset="1" stop-color="#CD4F7D"/>
</linearGradient>
<linearGradient id="paint1_linear_64_3448" x1="34.0549" y1="10.1332" x2="64" y2="10.1332" gradientUnits="userSpaceOnUse">
<stop stop-color="#F4D86C"/>
<stop offset="0.52" stop-color="#ED7C78"/>
<stop offset="1" stop-color="#CD4F7D"/>
</linearGradient>
<linearGradient id="paint2_linear_64_3448" x1="0.00593885" y1="39.5437" x2="14.4017" y2="39.5437" gradientUnits="userSpaceOnUse">
<stop stop-color="#F4D86C"/>
<stop offset="0.52" stop-color="#ED7C78"/>
<stop offset="1" stop-color="#CD4F7D"/>
</linearGradient>
<linearGradient id="paint3_linear_64_3448" x1="34.6708" y1="14.3766" x2="54.6699" y2="14.3766" gradientUnits="userSpaceOnUse">
<stop stop-color="#F4D86C"/>
<stop offset="0.52" stop-color="#ED7C78"/>
<stop offset="1" stop-color="#CD4F7D"/>
</linearGradient>
<linearGradient id="paint4_linear_64_3448" x1="43.4294" y1="11.7157" x2="52.103" y2="11.7157" gradientUnits="userSpaceOnUse">
<stop stop-color="#FFAE00"/>
<stop offset="1" stop-color="#F9E866"/>
</linearGradient>
<linearGradient id="paint5_linear_64_3448" x1="58.0449" y1="3.47251" x2="60.2125" y2="3.47251" gradientUnits="userSpaceOnUse">
<stop stop-color="#FFAE00"/>
<stop offset="1" stop-color="#F9E866"/>
</linearGradient>
<linearGradient id="paint6_linear_64_3448" x1="20.8306" y1="5.63758" x2="21.7615" y2="33.127" gradientUnits="userSpaceOnUse">
<stop stop-color="#FFC400"/>
<stop offset="0.04" stop-color="#FEBF01"/>
<stop offset="0.31" stop-color="#F79C09"/>
<stop offset="0.57" stop-color="#F2830F"/>
<stop offset="0.81" stop-color="#EF7413"/>
<stop offset="1" stop-color="#EE6F14"/>
</linearGradient>
<linearGradient id="paint7_linear_64_3448" x1="16.6837" y1="23.2255" x2="44.7359" y2="23.2255" gradientUnits="userSpaceOnUse">
<stop stop-color="#EE6F14"/>
<stop offset="0.24" stop-color="#EF7213"/>
<stop offset="0.45" stop-color="#F17D11"/>
<stop offset="0.65" stop-color="#F48F0D"/>
<stop offset="0.84" stop-color="#F9A807"/>
<stop offset="1" stop-color="#FFC400"/>
</linearGradient>
<linearGradient id="paint8_linear_64_3448" x1="27.5533" y1="47.2125" x2="27.5533" y2="19.2093" gradientUnits="userSpaceOnUse">
<stop stop-color="#FFC400"/>
<stop offset="0.14" stop-color="#FBAE05"/>
<stop offset="0.35" stop-color="#F5930C"/>
<stop offset="0.57" stop-color="#F17F10"/>
<stop offset="0.78" stop-color="#EF7313"/>
<stop offset="1" stop-color="#EE6F14"/>
</linearGradient>
<linearGradient id="paint9_linear_64_3448" x1="4.23332" y1="29.3619" x2="32.6047" y2="29.3619" gradientUnits="userSpaceOnUse">
<stop stop-color="#FFC400"/>
<stop offset="0.04" stop-color="#FEBF01"/>
<stop offset="0.31" stop-color="#F79C09"/>
<stop offset="0.57" stop-color="#F2830F"/>
<stop offset="0.81" stop-color="#EF7413"/>
<stop offset="1" stop-color="#EE6F14"/>
</linearGradient>
</defs>
</svg>
