<svg width="180" height="47" viewBox="0 0 180 47" fill="none" xmlns="http://www.w3.org/2000/svg">
<path d="M13.7456 34.0352C13.7753 34.0886 13.8049 34.1406 13.8361 34.1925L3.12542 41.4127L3.02148 41.2642L13.7456 34.0352Z" fill="url(#paint0_linear_49_3094)"/>
<path d="M63.9998 0.387848L34.1675 20.4894L34.0547 20.3409L63.8974 0.230469L63.9998 0.387848Z" fill="url(#paint1_linear_49_3094)"/>
<path d="M14.2948 34.9004L14.4017 35.0489L0.103932 44.649L0 44.5005L14.2948 34.9004Z" fill="url(#paint2_linear_49_3094)"/>
<path d="M54.6699 7.99808L34.7748 21.3605C34.7436 21.307 34.7109 21.258 34.6768 21.212L54.5719 7.84961L54.6699 7.99808Z" fill="url(#paint3_linear_49_3094)"/>
<path d="M47.766 16.282C50.1604 16.282 52.1014 14.341 52.1014 11.9467C52.1014 9.55233 50.1604 7.61133 47.766 7.61133C45.3717 7.61133 43.4307 9.55233 43.4307 11.9467C43.4307 14.341 45.3717 16.282 47.766 16.282Z" fill="url(#paint4_linear_49_3094)"/>
<path d="M59.1288 4.78682C59.7273 4.78682 60.2126 4.30157 60.2126 3.70298C60.2126 3.10439 59.7273 2.61914 59.1288 2.61914C58.5302 2.61914 58.0449 3.10439 58.0449 3.70298C58.0449 4.30157 58.5302 4.78682 59.1288 4.78682Z" fill="url(#paint5_linear_49_3094)"/>
<path d="M24.808 34.325C26.7707 34.2633 28.6361 33.4561 30.0246 32.0676C31.4131 30.6791 32.2203 28.8137 32.2821 26.851C32.2821 26.7723 32.2821 26.6921 32.2821 26.6134C32.2821 26.5348 32.2821 26.4531 32.2821 26.3744C32.2152 22.7096 30.7164 19.2165 28.1066 16.6427C25.4968 14.0689 21.9832 12.6189 18.3177 12.603C14.6523 12.5871 11.1263 14.0065 8.49417 16.5575C5.86208 19.1086 4.33308 22.5885 4.23438 26.2527C4.32815 20.9844 6.46258 15.9582 10.1882 12.2322C13.9139 8.50632 18.94 6.37151 24.2082 6.27734C24.327 6.27734 24.4487 6.27734 24.569 6.27734C24.6893 6.27734 24.811 6.27734 24.9313 6.27734C28.5954 6.37621 32.0753 7.90538 34.6262 10.5376C37.1771 13.1698 38.5964 16.696 38.5803 20.3614C38.5642 24.0269 37.114 27.5404 34.5401 30.1501C31.9661 32.7598 28.4729 34.2584 24.808 34.325Z" fill="url(#paint6_linear_49_3094)"/>
<path d="M16.6836 26.8486C16.7457 28.8107 17.5529 30.6756 18.941 32.0637C20.3292 33.4518 22.194 34.2591 24.1561 34.3211H24.3952H24.6327C28.2975 34.2535 31.7902 32.7542 34.3635 30.144C36.9368 27.5337 38.3862 24.02 38.4015 20.3546C38.4169 16.6893 36.9969 13.1635 34.4455 10.5318C31.8942 7.90017 28.4141 6.37167 24.75 6.27344C30.0193 6.36608 35.0469 8.50022 38.7738 12.2263C42.5007 15.9524 44.636 20.9795 44.7298 26.2487C44.7298 26.3675 44.7298 26.4878 44.7298 26.6095C44.7298 26.7313 44.7298 26.8515 44.7298 26.9703C44.64 30.6403 43.115 34.1288 40.482 36.687C37.8491 39.2452 34.3181 40.6692 30.647 40.6533C26.976 40.6373 23.4575 39.1828 20.8468 36.6018C18.2362 34.0208 16.7415 30.5192 16.6836 26.8486Z" fill="url(#paint7_linear_49_3094)"/>
<path d="M24.1565 18.7227C22.1938 18.7844 20.3284 19.5916 18.9399 20.9801C17.5514 22.3686 16.7441 24.234 16.6824 26.1967C16.6824 26.2754 16.6824 26.3556 16.6824 26.4342C16.6824 26.5129 16.6824 26.5946 16.6824 26.6733C16.7491 30.3382 18.2476 33.8314 20.8573 36.4053C23.467 38.9793 26.9806 40.4295 30.646 40.4456C34.3115 40.4617 37.8376 39.0424 40.4699 36.4915C43.1021 33.9406 44.6313 30.4607 44.7301 26.7965C44.6378 32.0642 42.5044 37.0903 38.7793 40.816C35.0542 44.5416 30.0284 46.6758 24.7608 46.7689C24.642 46.7689 24.5202 46.7689 24.4 46.7689C24.2797 46.7689 24.158 46.7689 24.0377 46.7689C20.3792 46.6625 16.9073 45.1304 14.3627 42.4996C11.8182 39.8689 10.4026 36.3478 10.4181 32.6878C10.4336 29.0279 11.8789 25.5189 14.4457 22.9098C17.0124 20.3007 20.4973 18.7981 24.1565 18.7227Z" fill="url(#paint8_linear_49_3094)"/>
<path d="M32.2855 26.2003C32.2238 24.2379 31.4167 22.3727 30.0285 20.9842C28.6403 19.5957 26.7753 18.7883 24.8129 18.7262H24.5739H24.3363C20.6914 18.8216 17.2269 20.3324 14.6769 22.9385C12.1269 25.5446 10.6918 29.0412 10.6758 32.6873C10.6597 36.3335 12.064 39.8425 14.591 42.471C17.118 45.0994 20.5692 46.6406 24.2131 46.768C18.9454 46.6761 13.9191 44.543 10.1932 40.8182C6.46728 37.0934 4.33271 32.0677 4.23926 26.8001C4.23926 26.6798 4.23926 26.5596 4.23926 26.4378C4.23926 26.3161 4.23926 26.1958 4.23926 26.077C4.32918 22.407 5.85439 18.9185 8.48749 16.3604C11.1206 13.8023 14.6517 12.3785 18.3227 12.3947C21.9938 12.4108 25.5123 13.8656 28.1228 16.4467C30.7333 19.0279 32.2278 22.5296 32.2855 26.2003Z" fill="url(#paint9_linear_49_3094)"/>
<path d="M76.128 15.88V31H73.92V15.88H76.128ZM81.7674 31H79.6554V19.72H81.3114L81.6234 21.28C82.1834 20.72 82.7674 20.296 83.3754 20.008C83.9994 19.704 84.7114 19.552 85.5114 19.552C86.6634 19.552 87.5674 19.88 88.2234 20.536C88.8794 21.176 89.2074 22.072 89.2074 23.224V31H87.0954V23.536C87.0954 22.848 86.9114 22.304 86.5434 21.904C86.1914 21.488 85.6474 21.28 84.9114 21.28C83.7914 21.28 82.7434 21.784 81.7674 22.792V31ZM99.4118 19.72H101.668L97.4678 31H95.4038L91.1558 19.72H93.4358L95.9798 27.472L96.4118 29.248H96.5078L96.9158 27.496L99.4118 19.72ZM103.921 31V19.72H106.033V31H103.921ZM104.977 16.816C104.609 16.816 104.289 16.696 104.017 16.456C103.761 16.2 103.633 15.888 103.633 15.52C103.633 15.152 103.761 14.84 104.017 14.584C104.289 14.328 104.609 14.2 104.977 14.2C105.329 14.2 105.641 14.328 105.913 14.584C106.185 14.84 106.321 15.152 106.321 15.52C106.321 15.888 106.185 16.2 105.913 16.456C105.641 16.696 105.329 16.816 104.977 16.816ZM115.419 21.304H112.107V27.856C112.107 28.416 112.243 28.792 112.515 28.984C112.803 29.176 113.171 29.272 113.619 29.272C113.939 29.272 114.291 29.24 114.675 29.176C115.059 29.096 115.395 29.008 115.683 28.912L116.019 30.52C115.699 30.648 115.291 30.76 114.795 30.856C114.299 30.952 113.779 31 113.235 31C112.115 31 111.299 30.76 110.787 30.28C110.275 29.784 110.019 29.072 110.019 28.144V21.304H108.339V19.72H110.019V16.12H112.107V19.72H115.419V21.304ZM118.186 31V19.72H119.77L120.13 21.976C120.402 21.256 120.85 20.672 121.474 20.224C122.098 19.776 122.818 19.552 123.634 19.552C124.05 19.552 124.394 19.584 124.666 19.648C124.938 19.712 125.186 19.792 125.41 19.888L125.002 21.736C124.81 21.64 124.594 21.56 124.354 21.496C124.13 21.432 123.858 21.4 123.538 21.4C123.074 21.4 122.642 21.48 122.242 21.64C121.858 21.8 121.514 22.04 121.21 22.36C120.922 22.68 120.69 23.08 120.514 23.56C120.354 24.024 120.274 24.56 120.274 25.168V31H118.186ZM136.898 25.24C136.898 26.184 136.754 27.032 136.466 27.784C136.178 28.52 135.778 29.144 135.266 29.656C134.77 30.168 134.186 30.56 133.514 30.832C132.842 31.088 132.114 31.216 131.33 31.216C130.546 31.216 129.818 31.096 129.146 30.856C128.49 30.6 127.914 30.232 127.418 29.752C126.938 29.256 126.554 28.656 126.266 27.952C125.994 27.232 125.858 26.408 125.858 25.48C125.858 24.536 126.002 23.696 126.29 22.96C126.578 22.224 126.97 21.608 127.466 21.112C127.978 20.6 128.57 20.216 129.242 19.96C129.914 19.688 130.642 19.552 131.426 19.552C132.21 19.552 132.93 19.672 133.586 19.912C134.258 20.152 134.834 20.512 135.314 20.992C135.81 21.472 136.194 22.072 136.466 22.792C136.754 23.496 136.898 24.312 136.898 25.24ZM134.69 25.36C134.69 24.608 134.594 23.968 134.402 23.44C134.21 22.912 133.954 22.48 133.634 22.144C133.33 21.808 132.978 21.568 132.578 21.424C132.178 21.264 131.77 21.184 131.354 21.184C130.938 21.184 130.53 21.248 130.13 21.376C129.73 21.504 129.378 21.728 129.074 22.048C128.77 22.368 128.522 22.8 128.33 23.344C128.154 23.872 128.066 24.544 128.066 25.36C128.066 26.112 128.162 26.76 128.354 27.304C128.546 27.832 128.794 28.264 129.098 28.6C129.418 28.936 129.778 29.184 130.178 29.344C130.578 29.504 130.986 29.584 131.402 29.584C131.818 29.584 132.226 29.52 132.626 29.392C133.026 29.248 133.378 29.016 133.682 28.696C133.986 28.36 134.226 27.928 134.402 27.4C134.594 26.856 134.69 26.176 134.69 25.36ZM145.076 15.88H147.284V29.128H153.74V31H145.076V15.88ZM156.07 31V19.72H158.182V31H156.07ZM157.126 16.816C156.758 16.816 156.438 16.696 156.166 16.456C155.91 16.2 155.782 15.888 155.782 15.52C155.782 15.152 155.91 14.84 156.166 14.584C156.438 14.328 156.758 14.2 157.126 14.2C157.478 14.2 157.79 14.328 158.062 14.584C158.334 14.84 158.47 15.152 158.47 15.52C158.47 15.888 158.334 16.2 158.062 16.456C157.79 16.696 157.478 16.816 157.126 16.816ZM165.888 13.84C166.336 13.84 166.8 13.904 167.28 14.032C167.776 14.16 168.216 14.32 168.6 14.512L168.168 15.976C167.848 15.848 167.544 15.752 167.256 15.688C166.968 15.608 166.664 15.568 166.344 15.568C165.576 15.568 165.024 15.784 164.688 16.216C164.368 16.648 164.208 17.384 164.208 18.424V19.72H167.64V21.304H164.208V31H162.12V21.304H160.464V19.72H162.12V17.728C162.12 16.48 162.44 15.52 163.08 14.848C163.736 14.176 164.672 13.84 165.888 13.84ZM178.857 25.6H170.769V25.696C170.769 26.944 171.105 27.904 171.777 28.576C172.465 29.248 173.393 29.584 174.561 29.584C175.169 29.584 175.705 29.536 176.169 29.44C176.649 29.344 177.169 29.184 177.729 28.96L178.161 30.52C177.697 30.728 177.145 30.896 176.505 31.024C175.881 31.152 175.209 31.216 174.489 31.216C173.673 31.216 172.905 31.104 172.185 30.88C171.481 30.656 170.857 30.312 170.313 29.848C169.769 29.368 169.337 28.76 169.017 28.024C168.713 27.288 168.561 26.408 168.561 25.384C168.561 24.504 168.689 23.704 168.945 22.984C169.217 22.264 169.593 21.656 170.073 21.16C170.553 20.648 171.129 20.256 171.801 19.984C172.489 19.696 173.257 19.552 174.105 19.552C174.825 19.552 175.473 19.672 176.049 19.912C176.641 20.152 177.145 20.488 177.561 20.92C177.977 21.352 178.297 21.872 178.521 22.48C178.745 23.088 178.857 23.76 178.857 24.496V25.6ZM176.673 24.088C176.673 23.672 176.617 23.288 176.505 22.936C176.409 22.568 176.249 22.248 176.025 21.976C175.817 21.704 175.545 21.488 175.209 21.328C174.873 21.168 174.465 21.088 173.985 21.088C173.105 21.088 172.385 21.368 171.825 21.928C171.281 22.488 170.945 23.224 170.817 24.136L176.673 24.088Z" fill="white"/>
<defs>
<linearGradient id="paint0_linear_49_3094" x1="3.02148" y1="37.7232" x2="13.8361" y2="37.7232" gradientUnits="userSpaceOnUse">
<stop stop-color="#F4D86C"/>
<stop offset="0.52" stop-color="#ED7C78"/>
<stop offset="1" stop-color="#CD4F7D"/>
</linearGradient>
<linearGradient id="paint1_linear_49_3094" x1="34.0547" y1="10.3636" x2="63.9998" y2="10.3636" gradientUnits="userSpaceOnUse">
<stop stop-color="#F4D86C"/>
<stop offset="0.52" stop-color="#ED7C78"/>
<stop offset="1" stop-color="#CD4F7D"/>
</linearGradient>
<linearGradient id="paint2_linear_49_3094" x1="0.00593885" y1="39.7747" x2="14.4017" y2="39.7747" gradientUnits="userSpaceOnUse">
<stop stop-color="#F4D86C"/>
<stop offset="0.52" stop-color="#ED7C78"/>
<stop offset="1" stop-color="#CD4F7D"/>
</linearGradient>
<linearGradient id="paint3_linear_49_3094" x1="34.6708" y1="14.6065" x2="54.6699" y2="14.6065" gradientUnits="userSpaceOnUse">
<stop stop-color="#F4D86C"/>
<stop offset="0.52" stop-color="#ED7C78"/>
<stop offset="1" stop-color="#CD4F7D"/>
</linearGradient>
<linearGradient id="paint4_linear_49_3094" x1="43.4292" y1="11.9467" x2="52.1029" y2="11.9467" gradientUnits="userSpaceOnUse">
<stop stop-color="#FFAE00"/>
<stop offset="1" stop-color="#F9E866"/>
</linearGradient>
<linearGradient id="paint5_linear_49_3094" x1="58.0449" y1="3.70298" x2="60.2126" y2="3.70298" gradientUnits="userSpaceOnUse">
<stop stop-color="#FFAE00"/>
<stop offset="1" stop-color="#F9E866"/>
</linearGradient>
<linearGradient id="paint6_linear_49_3094" x1="20.8305" y1="5.86756" x2="21.7614" y2="33.357" gradientUnits="userSpaceOnUse">
<stop stop-color="#FFC400"/>
<stop offset="0.04" stop-color="#FEBF01"/>
<stop offset="0.31" stop-color="#F79C09"/>
<stop offset="0.57" stop-color="#F2830F"/>
<stop offset="0.81" stop-color="#EF7413"/>
<stop offset="1" stop-color="#EE6F14"/>
</linearGradient>
<linearGradient id="paint7_linear_49_3094" x1="16.6836" y1="23.456" x2="44.7357" y2="23.456" gradientUnits="userSpaceOnUse">
<stop stop-color="#EE6F14"/>
<stop offset="0.24" stop-color="#EF7213"/>
<stop offset="0.45" stop-color="#F17D11"/>
<stop offset="0.65" stop-color="#F48F0D"/>
<stop offset="0.84" stop-color="#F9A807"/>
<stop offset="1" stop-color="#FFC400"/>
</linearGradient>
<linearGradient id="paint8_linear_49_3094" x1="27.5535" y1="47.4429" x2="27.5535" y2="19.4398" gradientUnits="userSpaceOnUse">
<stop stop-color="#FFC400"/>
<stop offset="0.14" stop-color="#FBAE05"/>
<stop offset="0.35" stop-color="#F5930C"/>
<stop offset="0.57" stop-color="#F17F10"/>
<stop offset="0.78" stop-color="#EF7313"/>
<stop offset="1" stop-color="#EE6F14"/>
</linearGradient>
<linearGradient id="paint9_linear_49_3094" x1="4.23332" y1="29.5914" x2="32.6047" y2="29.5914" gradientUnits="userSpaceOnUse">
<stop stop-color="#FFC400"/>
<stop offset="0.04" stop-color="#FEBF01"/>
<stop offset="0.31" stop-color="#F79C09"/>
<stop offset="0.57" stop-color="#F2830F"/>
<stop offset="0.81" stop-color="#EF7413"/>
<stop offset="1" stop-color="#EE6F14"/>
</linearGradient>
</defs>
</svg>
