<svg width="40" height="41" viewBox="0 0 40 41" fill="none" xmlns="http://www.w3.org/2000/svg">
<path fill-rule="evenodd" clip-rule="evenodd" d="M9.99968 5.66699H29.9997C33.6816 5.66699 36.6663 8.65176 36.6663 12.3337V29.0003C36.6663 32.6822 33.6816 35.667 29.9997 35.667H17.4997C16.5792 35.667 15.833 34.9208 15.833 34.0003V28.167C15.833 24.4851 12.8482 21.5003 9.16634 21.5003H4.99967C4.0792 21.5003 3.33301 20.7541 3.33301 19.8337V12.3337C3.33301 8.65176 6.31778 5.66699 9.99968 5.66699ZM10.6931 12.9602C10.1186 12.5773 9.34256 12.7325 8.95962 13.3069C8.57668 13.8813 8.73189 14.6574 9.30631 15.0403L15.6083 19.2417C18.2675 21.0145 21.7319 21.0145 24.3911 19.2416L30.6931 15.0403C31.2675 14.6574 31.4227 13.8813 31.0397 13.3069C30.6568 12.7325 29.8807 12.5773 29.3063 12.9602L23.0043 17.1615C21.1849 18.3745 18.8145 18.3745 16.9951 17.1615L10.6931 12.9602ZM2.08301 25.667C2.08301 24.9766 2.64265 24.417 3.33301 24.417H11.6663C12.3567 24.417 12.9163 24.9766 12.9163 25.667C12.9163 26.3573 12.3567 26.917 11.6663 26.917H3.33301C2.64265 26.917 2.08301 26.3573 2.08301 25.667ZM3.33301 29.417C2.64265 29.417 2.08301 29.9766 2.08301 30.667C2.08301 31.3573 2.64265 31.917 3.33301 31.917H11.6663C12.3567 31.917 12.9163 31.3573 12.9163 30.667C12.9163 29.9766 12.3567 29.417 11.6663 29.417H3.33301Z" fill="#EE6F14"/>
</svg>
