<svg width="333" height="360" viewBox="0 0 333 360" fill="none" xmlns="http://www.w3.org/2000/svg">
<path d="M173.718 320.978C245.88 320.978 304.378 262.598 304.378 190.583C304.378 118.567 245.88 60.1875 173.718 60.1875C101.557 60.1875 43.0586 118.567 43.0586 190.583C43.0586 262.598 101.557 320.978 173.718 320.978Z" fill="#F6D39B"/>
<path d="M153.77 336.397C153.626 336.815 153.438 337.216 153.208 337.593C152.344 339.018 150.907 340.071 149.113 340.296C146.285 340.651 143.508 340.921 140.783 341.105C131.048 341.767 121.969 341.38 113.507 340.143C112.142 339.945 110.792 339.724 109.457 339.48C108.157 339.243 106.872 338.987 105.601 338.71C89.5689 335.224 75.9593 328.653 64.51 320.62C62.9126 319.499 61.3569 318.351 59.8431 317.177C58.9548 316.488 59.2178 315.024 60.2811 314.718C63.325 313.847 66.632 312.81 69.9529 311.615C72.2752 310.78 74.603 309.867 76.8504 308.878C78.3115 308.236 79.7389 307.561 81.1093 306.855C81.4378 306.685 81.3901 306.272 81.1664 306.096C81.1118 306.053 81.0462 306.025 80.9769 306.017C80.9076 306.009 80.8374 306.02 80.7742 306.05C76.0189 307.976 71.0485 309.325 65.9702 310.066C62.489 310.579 58.9729 310.82 55.4541 310.785C53.3013 310.764 51.2421 309.897 49.6509 308.374C44.7425 303.659 40.1758 298.602 35.9851 293.241C35.3158 292.387 35.6378 291.093 36.6197 290.697C42.6776 288.253 47.221 285.746 49.8774 284.131C50.4624 283.777 50.1479 282.829 49.4805 282.937C43.6997 283.871 37.9498 284.372 32.8466 284.625C30.9259 284.718 29.0942 283.759 28.0037 282.09C23.2425 274.808 19.0714 267.158 15.5304 259.214C13.8606 255.444 16.2914 251.081 20.2273 250.771C24.7244 250.413 29.2371 250.289 33.7471 250.397C36.3679 250.461 38.6434 252.335 39.3388 255.003L41.2108 262.196C41.2347 262.306 41.294 262.406 41.3798 262.479C41.4656 262.553 41.5732 262.596 41.6862 262.603C41.7991 262.61 41.9112 262.58 42.0054 262.517C42.0996 262.455 42.1706 262.363 42.2077 262.256C42.8554 260.518 43.3524 257.736 43.7353 254.512C43.9636 252.595 45.6241 251.242 47.4428 251.488C51.457 252.036 55.4408 252.787 59.3788 253.738C60.3186 253.966 61.2505 254.204 62.1747 254.451C65.2585 255.274 68.2634 256.205 71.1894 257.244C74.1032 258.271 76.4666 260.41 77.8941 263.138C78.6938 264.672 79.1826 266.348 79.3327 268.07C79.8073 273.43 79.9992 278.187 80.075 281.516C80.0928 282.298 80.104 283.001 80.1105 283.615C80.1199 284.404 81.1345 284.643 81.4584 283.93C81.566 283.696 81.6681 283.463 81.7692 283.221C82.8156 280.723 83.5354 277.896 83.995 274.869C84.3761 272.266 84.5906 269.642 84.6371 267.012C84.6539 266.327 84.6608 265.635 84.6577 264.935C84.6564 264.784 84.6811 264.634 84.7307 264.491C84.9647 263.821 85.7144 263.453 86.3771 263.791C87.3755 264.301 88.3609 264.822 89.3331 265.354C96.5403 269.277 103.15 273.768 109.17 278.542C110.155 279.325 111.124 280.114 112.077 280.911C114.532 282.959 116.884 285.045 119.134 287.169C120.375 288.339 121.585 289.513 122.765 290.693C125.041 292.971 127.2 295.263 129.245 297.545C130.601 299.061 131.907 300.569 133.162 302.069C137.38 307.108 141.332 312.363 145.002 317.812C148.567 323.1 151.335 327.779 153.333 331.392C153.754 332.149 154.01 332.986 154.085 333.848C154.161 334.711 154.053 335.579 153.77 336.397V336.397Z" fill="#A1CFC4"/>
<path d="M16.3516 254.529C22.3271 257.688 28.267 260.911 34.2004 264.15L43.085 269.032C46.0447 270.663 48.9984 272.304 51.9462 273.955L56.3707 276.429L60.7868 278.916L69.605 283.918C75.4744 287.267 81.3279 290.645 87.1655 294.052C92.9969 297.47 98.8098 300.919 104.604 304.398C107.497 306.147 110.382 307.906 113.261 309.675C114.7 310.561 116.137 311.45 117.573 312.342C119.009 313.234 120.439 314.133 121.865 315.041C127.575 318.653 133.248 322.338 138.807 326.186C141.581 328.117 144.33 330.084 147.006 332.156C147.673 332.675 148.337 333.199 148.99 333.735C149.643 334.271 150.293 334.813 150.926 335.374C151.558 335.934 152.18 336.508 152.774 337.109C153.376 337.703 153.929 338.345 154.428 339.027C153.911 338.36 153.342 337.735 152.725 337.159C152.115 336.576 151.48 336.021 150.834 335.477C150.188 334.934 149.531 334.406 148.868 333.889C148.206 333.373 147.53 332.862 146.852 332.359C144.138 330.353 141.36 328.436 138.552 326.561C135.744 324.686 132.913 322.846 130.064 321.036C127.215 319.225 124.354 317.429 121.48 315.655C120.044 314.768 118.606 313.885 117.163 313.006L112.837 310.37C109.948 308.62 107.053 306.881 104.15 305.154C98.3508 301.69 92.5326 298.257 86.6956 294.855C80.868 291.438 75.0251 288.046 69.1669 284.679L60.3843 279.623L51.5905 274.584C39.8567 267.878 28.1104 261.193 16.3516 254.529Z" fill="#D3F2E9"/>
<path d="M161.369 340.681C112.941 314.6 88.2795 278.854 76.3088 244.573C75.8043 243.129 77.199 241.782 78.6488 242.309C87.5634 245.561 98.4483 248.991 108.392 250.633C109.123 250.754 109.328 249.692 108.609 249.512C100.173 247.377 88.3852 243.045 76.0533 234.264C73.6132 232.524 71.8879 229.96 71.1973 227.048C69.0999 218.15 67.641 209.115 66.8317 200.011C66.8012 199.676 66.8522 199.339 66.9805 199.028C67.1089 198.718 67.3106 198.443 67.5686 198.227C67.8266 198.011 68.1331 197.86 68.462 197.788C68.7908 197.716 69.1323 197.725 69.4572 197.813C78.2239 200.067 85.3076 201.036 89.5543 201.456C90.4903 201.549 90.8357 200.287 89.9905 199.868C82.6671 196.225 75.7032 192.155 69.6669 188.336C68.5525 187.635 67.6331 186.665 66.9936 185.516C66.3541 184.367 66.0152 183.075 66.008 181.761C65.9884 167.36 67.4467 155.384 68.7852 147.438C69.6865 142.091 75.7304 139.397 80.4731 142.221C86.0524 145.544 91.3103 149.022 96.2468 152.655C99.2065 154.827 100.412 158.641 99.2168 162.033L95.9941 171.188C95.7638 171.841 96.5107 172.43 97.0911 172.052C99.1288 170.721 101.777 168.16 104.622 165.037C106.315 163.181 109.23 163.076 111.128 164.793C119.556 172.425 127.232 180.846 134.049 189.94C138.029 195.249 138.522 202.316 135.302 207.978C131.033 215.486 126.958 221.672 124.591 225.135C124.012 225.981 124.997 227.046 125.902 226.549C132.479 222.928 138.476 216.47 143.747 208.91C144.44 207.915 145.962 207.999 146.571 209.072C174.711 258.621 174.549 311.897 172.85 334.603C172.433 340.176 166.372 343.377 161.369 340.681Z" fill="#A1CFC4"/>
<path d="M74.1484 142.168C78.4772 150.359 82.7541 158.576 86.9793 166.82L93.3105 179.191C95.4165 183.316 97.511 187.447 99.5939 191.585C103.775 199.852 107.917 208.138 112.019 216.444C116.122 224.751 120.192 233.073 124.23 241.411C128.253 249.755 132.233 258.121 136.169 266.508C138.13 270.706 140.074 274.909 142.004 279.119C143.933 283.329 145.838 287.551 147.719 291.787C151.48 300.254 155.144 308.766 158.577 317.375C160.28 321.684 161.934 326.014 163.423 330.402C163.611 330.949 163.79 331.501 163.974 332.05C164.157 332.599 164.332 333.152 164.502 333.706C164.849 334.811 165.176 335.922 165.482 337.04C165.785 338.161 166.066 339.282 166.295 340.419C166.538 341.552 166.69 342.702 166.747 343.86C166.668 342.705 166.496 341.559 166.233 340.432C165.983 339.302 165.682 338.185 165.359 337.074C165.036 335.964 164.694 334.859 164.329 333.761C164.152 333.21 163.962 332.664 163.777 332.116C163.593 331.569 163.403 331.022 163.203 330.478C161.65 326.118 159.951 321.811 158.193 317.53C156.435 313.249 154.621 308.987 152.764 304.746C151.836 302.628 150.902 300.511 149.963 298.394C149.025 296.276 148.077 294.164 147.12 292.058C146.166 289.948 145.205 287.842 144.239 285.738L141.337 279.429C139.392 275.226 137.43 271.032 135.452 266.847C131.503 258.469 127.51 250.112 123.471 241.776C119.45 233.431 115.393 225.104 111.302 216.795C107.229 208.476 103.13 200.17 99.0052 191.877C90.7683 175.285 82.4827 158.715 74.1484 142.168Z" fill="white"/>
<path d="M141.578 345.098C141.19 343.86 140.786 342.602 140.341 341.251C139.267 337.996 138.137 334.771 136.984 331.664L136.954 331.584C135.967 328.921 134.921 326.233 133.844 323.595L133.773 323.421C132.441 320.16 131.026 316.887 129.566 313.69L129.524 313.596C128.905 312.241 128.264 310.871 127.616 309.522C126.774 307.747 125.87 305.924 124.945 304.104C123.332 300.928 121.637 297.765 119.905 294.694C119.685 294.304 119.465 293.915 119.244 293.529C116.847 289.325 114.307 285.172 111.693 281.176C111.174 280.381 110.63 279.56 110.029 278.665C109.049 277.211 108.133 275.879 107.229 274.594L107.207 274.563C102.595 268.005 97.6386 261.694 92.3593 255.658C92.1035 255.366 91.8479 255.076 91.5927 254.788C88.1651 250.915 84.5829 247.147 80.9437 243.585L80.7565 243.398L80.6629 243.305C80.5993 243.243 80.5375 243.182 80.4757 243.118L80.2745 242.922C79.652 242.319 79.0258 241.718 78.4081 241.134H78.1273V240.868C74.7267 237.66 71.2083 234.561 67.6673 231.654L67.6449 231.635C58.3475 224.002 50.3876 218.91 45.3154 215.967L45.2162 215.91C41.0172 213.481 38.5096 212.353 38.4844 212.342L38.8672 211.489C38.8915 211.5 41.3944 212.624 45.5765 215.039L45.687 215.102C50.7882 218.056 58.8454 223.2 68.2608 230.931L68.2832 230.949C71.8841 233.908 75.4615 237.062 78.9163 240.327L79.0623 240.465C79.6801 241.049 80.3063 241.65 80.9269 242.252L81.1272 242.447C81.1918 242.508 81.2554 242.571 81.32 242.633L81.4136 242.727L81.6074 242.914C85.2578 246.488 88.8586 250.274 92.3004 254.162C92.5568 254.453 92.8133 254.743 93.0707 255.037C98.3794 261.107 103.363 267.453 108 274.049L108.022 274.079C108.923 275.36 109.837 276.688 110.814 278.138C111.417 279.037 111.962 279.862 112.484 280.66C115.104 284.671 117.658 288.844 120.065 293.061C120.286 293.449 120.507 293.838 120.729 294.229C122.466 297.312 124.169 300.488 125.783 303.676C126.713 305.506 127.614 307.336 128.465 309.115C129.129 310.5 129.787 311.907 130.422 313.299L130.463 313.393C131.926 316.6 133.344 319.883 134.675 323.151L134.712 323.245C135.802 325.918 136.865 328.642 137.862 331.34L137.891 331.419C139.039 334.513 140.162 337.723 141.231 340.961C141.678 342.316 142.083 343.577 142.472 344.821L141.578 345.098Z" fill="#3AA490"/>
<path d="M70.7107 232.303C70.7107 232.303 22.6746 215.676 34.0191 202.342C45.3635 189.009 70.7107 232.303 70.7107 232.303Z" fill="#3AA490"/>
<path d="M81.0318 242.914C79.5501 245.128 43.0803 247.947 44.8222 236.411C46.6802 224.101 81.0318 242.914 81.0318 242.914Z" fill="#3AA490"/>
<path d="M80.5911 228.387C80.5911 220.428 81.5486 213.535 76.3303 207.915C72.8521 204.167 65.7066 201.852 65.4941 209.112C65.0402 224.6 80.5948 243.265 80.5948 243.265L80.5911 228.387Z" fill="#3AA490"/>
<path d="M111.089 278.158C109.66 279.718 71.1127 277.616 83.3426 267.933C95.5725 258.25 111.089 278.158 111.089 278.158Z" fill="#3AA490"/>
<path d="M112.455 266.499C113.391 260.147 112.042 253.68 108.597 248.471C106.3 244.997 103.866 243.257 102.842 249.021C100.657 261.317 110.705 278.373 110.705 278.373L112.455 266.499Z" fill="#3AA490"/>
<path d="M93.2717 255.017C92.4162 256.366 84.1924 228.622 95.7446 223.372C107.297 218.122 101.185 242.535 93.2717 255.017Z" fill="#3AA490"/>
<path d="M92.8172 254.899C94.2512 255.618 71.3657 271.587 63.682 259.003C55.9983 246.419 79.5511 248.259 92.8172 254.899Z" fill="#3AA490"/>
<path d="M121.02 293.88C120.514 294.678 115.653 278.28 122.481 275.181C129.308 272.082 125.695 286.505 121.02 293.88Z" fill="#3AA490"/>
<path d="M120.752 293.811C121.594 294.235 108.075 303.672 103.535 296.24C98.994 288.807 112.912 289.887 120.752 293.811Z" fill="#3AA490"/>
<path d="M140.922 335.219C118.793 315.031 96.9631 306.737 82.5476 303.334C66.9471 299.651 56.4647 300.746 56.3608 300.757L56.2578 299.829C56.3636 299.817 67.007 298.708 82.7629 302.425C92.0078 304.608 101.187 308.001 110.048 312.513C121.118 318.149 131.718 325.557 141.553 334.529L140.922 335.219Z" fill="#3AA490"/>
<path d="M76.5647 301.081C76.5647 301.081 50.1018 306.386 51.5199 297.095C52.9379 287.805 76.5647 301.081 76.5647 301.081Z" fill="#3AA490"/>
<path d="M84.2197 303.219C84.1663 304.653 68.3964 315.876 65.959 310.029C63.3569 303.79 84.2197 303.219 84.2197 303.219Z" fill="#3AA490"/>
<path d="M79.9545 296.571C77.7259 292.864 76.2329 289.394 72.2905 288.193C69.6621 287.393 65.7693 288.256 67.704 291.695C71.8327 299.033 84.1188 303.5 84.1188 303.5L79.9545 296.571Z" fill="#3AA490"/>
<path d="M107.727 311.469C107.515 312.584 89.4252 322.079 92.2678 314.246C95.1105 306.412 107.727 311.469 107.727 311.469Z" fill="#3AA490"/>
<path d="M105.088 305.669C103.736 302.454 101.313 299.81 98.2896 298.318C96.2743 297.324 94.6831 297.176 95.8307 300.139C98.2793 306.459 107.614 311.674 107.614 311.674L105.088 305.669Z" fill="#3AA490"/>
<path d="M93.1631 305.531C93.1528 306.392 81.6501 295.704 85.4307 290.118C89.2112 284.532 93.2632 297.568 93.1631 305.531Z" fill="#3AA490"/>
<path d="M92.9285 305.601C93.7803 305.545 87.8591 319.202 80.8484 315.427C73.8376 311.653 85.0417 306.111 92.9285 305.601Z" fill="#3AA490"/>
<path d="M116.641 316.093C116.634 316.602 109.839 310.286 112.071 306.987C114.304 303.687 116.705 311.387 116.641 316.093Z" fill="#3AA490"/>
<path d="M116.501 316.134C117.004 316.102 113.505 324.168 109.362 321.941C105.218 319.714 111.843 316.436 116.501 316.134Z" fill="#3AA490"/>
<path d="M173.694 340.855C223.634 317.792 250.447 283.624 264.507 250.141C265.099 248.73 263.79 247.3 262.313 247.738C253.216 250.438 242.14 253.195 232.114 254.224C231.378 254.3 231.237 253.227 231.966 253.089C240.518 251.475 252.55 247.873 265.4 239.865C267.942 238.278 269.821 235.825 270.69 232.961C273.33 224.209 275.343 215.282 276.711 206.245C276.762 205.913 276.731 205.573 276.622 205.256C276.513 204.938 276.329 204.651 276.085 204.42C275.841 204.189 275.544 204.02 275.221 203.927C274.897 203.835 274.556 203.822 274.226 203.89C265.334 205.603 258.207 206.132 253.943 206.291C253.007 206.324 252.735 205.045 253.605 204.678C261.138 201.495 268.34 197.859 274.6 194.414C275.755 193.783 276.732 192.871 277.441 191.763C278.15 190.655 278.568 189.387 278.656 188.075C279.562 173.703 278.844 161.66 277.997 153.648C277.426 148.255 271.56 145.196 266.652 147.723C260.878 150.698 255.416 153.847 250.265 157.171C247.176 159.157 245.74 162.89 246.723 166.351L249.378 175.683C249.565 176.348 248.785 176.892 248.229 176.478C246.277 175.027 243.792 172.308 241.144 169.017C239.569 167.061 236.666 166.775 234.665 168.373C225.784 175.475 217.605 183.409 210.241 192.068C205.941 197.123 205.015 204.148 207.88 209.995C211.679 217.749 215.368 224.175 217.515 227.776C218.041 228.657 216.992 229.659 216.121 229.107C209.779 225.091 204.19 218.272 199.395 210.408C198.764 209.372 197.242 209.363 196.566 210.396C165.426 258.136 162.308 311.32 162.608 334.089C162.681 339.669 168.534 343.234 173.694 340.855Z" fill="#A1CFC4"/>
<path d="M274.603 146.701C265.064 162.586 255.568 178.496 246.114 194.429C241.397 202.401 236.691 210.38 231.997 218.368C227.302 226.356 222.638 234.358 218.005 242.375C213.361 250.39 208.759 258.428 204.197 266.489C201.914 270.518 199.645 274.555 197.391 278.601L194.022 284.677C192.902 286.704 191.788 288.734 190.678 290.766C189.569 292.798 188.467 294.835 187.372 296.877C186.277 298.916 185.189 300.959 184.108 303.006C181.943 307.098 179.821 311.214 177.743 315.353C175.67 319.493 173.656 323.666 171.782 327.894C171.545 328.422 171.32 328.955 171.088 329.482C170.856 330.009 170.633 330.546 170.415 331.081C169.97 332.15 169.546 333.226 169.141 334.31C168.736 335.393 168.354 336.486 168.018 337.593C167.67 338.697 167.414 339.828 167.25 340.974C167.376 339.823 167.645 338.691 167.956 337.575C168.267 336.46 168.633 335.36 169.019 334.267C169.405 333.174 169.816 332.09 170.244 331.014C170.455 330.474 170.678 329.94 170.894 329.402C171.11 328.864 171.337 328.331 171.565 327.799C173.377 323.534 175.349 319.338 177.368 315.168C181.428 306.836 185.716 298.62 190.098 290.454C192.286 286.371 194.502 282.301 196.744 278.245C198.986 274.188 201.238 270.14 203.501 266.101C208.041 258.024 212.633 249.977 217.275 241.958C221.918 233.94 226.596 225.942 231.31 217.965C236.031 209.994 240.778 202.037 245.55 194.095C247.942 190.127 250.338 186.162 252.738 182.201L259.972 170.338C264.818 162.438 269.695 154.559 274.603 146.701Z" fill="white"/>
<path d="M317.738 241.304C315.907 247.304 312.758 256.157 307.736 266.18C307.274 267.093 306.588 267.875 305.743 268.454C304.898 269.033 303.92 269.391 302.9 269.493C297.366 270.063 291.098 270.489 284.73 270.488C283.995 270.488 283.794 271.485 284.483 271.744C287.585 272.927 292.858 274.705 299.75 276.17C300.006 276.222 300.247 276.334 300.451 276.499C300.655 276.663 300.816 276.874 300.92 277.114C301.025 277.354 301.07 277.615 301.051 277.876C301.033 278.137 300.951 278.389 300.814 278.612C297.083 284.674 292.924 290.464 288.369 295.936C286.873 297.726 284.778 298.915 282.472 299.281C270.826 301.127 261.107 300.063 254.485 298.627C253.923 298.506 253.695 299.317 254.246 299.487C261.745 301.786 270.521 303.166 277.863 303.988C278.128 304.013 278.381 304.114 278.591 304.277C278.801 304.441 278.96 304.662 279.049 304.913C279.137 305.164 279.152 305.435 279.091 305.694C279.03 305.953 278.896 306.189 278.705 306.375C271.78 313.138 264.114 319.101 255.852 324.152V324.152C242.589 332.244 226.722 338.579 207.778 341.746C205.429 342.138 203.031 342.481 200.587 342.774C195.912 343.334 191.059 343.699 186.028 343.868C184.944 343.908 183.868 343.663 182.908 343.158C182.34 342.857 181.823 342.468 181.376 342.006V342.006C181.092 341.713 180.839 341.392 180.621 341.048C180.111 340.255 179.801 339.35 179.718 338.411C179.635 337.472 179.78 336.527 180.142 335.657C181.793 331.621 184.152 326.329 187.32 320.275C189.324 316.446 191.65 312.307 194.327 307.99C198.236 301.672 202.523 295.595 207.164 289.792C208.724 287.843 210.355 285.896 212.058 283.95C214.586 281.067 217.264 278.201 220.108 275.385C221.583 273.924 223.101 272.479 224.663 271.049C225.322 270.446 225.988 269.847 226.663 269.252C230.645 265.729 234.813 262.421 239.149 259.343C239.337 259.209 239.526 259.075 239.717 258.942C240.504 258.388 241.301 257.84 242.107 257.299C242.249 257.203 242.408 257.136 242.575 257.1C242.888 257.034 243.215 257.086 243.493 257.245C243.77 257.404 243.979 257.659 244.08 257.962C244.102 258.028 244.119 258.096 244.129 258.165C244.47 260.537 244.939 262.888 245.533 265.209C246.656 269.547 248.242 273.475 250.428 276.634C250.436 276.645 250.443 276.656 250.453 276.667C250.921 277.279 251.94 276.88 251.833 276.102C251.777 275.702 251.72 275.261 251.658 274.794C251.436 273.093 251.181 270.934 250.941 268.452C250.709 266.046 250.494 263.336 250.337 260.444C250.27 259.214 250.385 257.981 250.678 256.784C251.297 254.272 252.662 252.004 254.593 250.278C254.81 250.085 255.032 249.897 255.262 249.718C255.953 249.177 256.697 248.705 257.482 248.311C260.93 246.579 264.511 244.968 268.224 243.476C272.794 241.649 277.458 240.065 282.196 238.731C284.118 238.19 286.111 239.275 286.644 241.155C287.541 244.316 288.495 247.017 289.452 248.65C289.515 248.752 289.607 248.832 289.716 248.879C289.825 248.926 289.947 248.939 290.063 248.914C290.18 248.89 290.286 248.83 290.368 248.743C290.449 248.657 290.501 248.547 290.518 248.429L291.454 240.935C291.787 238.281 293.778 236.118 296.414 235.506C296.538 235.476 296.663 235.451 296.789 235.43C301.493 234.615 306.366 234.013 311.408 233.624C312.397 233.542 313.392 233.701 314.306 234.089C315.22 234.476 316.026 235.079 316.655 235.846C317.274 236.595 317.698 237.486 317.887 238.439C318.076 239.392 318.025 240.376 317.738 241.304V241.304Z" fill="#A1CFC4"/>
<path d="M317.416 235.3C305.768 243.825 294.136 252.369 282.519 260.932C276.716 265.224 270.919 269.521 265.128 273.823C259.338 278.125 253.561 282.449 247.8 286.795C242.032 291.131 236.287 295.496 230.565 299.888C227.701 302.082 224.846 304.286 221.999 306.501L217.736 309.833C216.316 310.945 214.899 312.06 213.484 313.179C210.655 315.416 207.842 317.672 205.044 319.949C202.246 322.225 199.471 324.527 196.719 326.856C193.97 329.192 191.255 331.564 188.62 334.023C187.961 334.638 187.309 335.261 186.665 335.891C186.021 336.521 185.388 337.162 184.766 337.814C184.146 338.468 183.537 339.132 182.959 339.823C182.373 340.508 181.843 341.239 181.375 342.009C181.826 341.227 182.339 340.482 182.91 339.783C183.472 339.077 184.066 338.396 184.674 337.728C185.281 337.059 185.903 336.406 186.537 335.766C187.171 335.126 187.81 334.486 188.459 333.858C191.051 331.344 193.736 328.929 196.449 326.547C201.886 321.797 207.453 317.199 213.073 312.67C214.478 311.536 215.886 310.407 217.297 309.283C218.708 308.159 220.123 307.039 221.543 305.925C224.379 303.692 227.224 301.471 230.078 299.262C235.787 294.846 241.526 290.468 247.293 286.127C253.06 281.786 258.847 277.473 264.654 273.189C270.466 268.909 276.292 264.649 282.132 260.408C285.055 258.291 287.981 256.178 290.91 254.07L299.714 247.77C305.596 243.589 311.497 239.432 317.416 235.3Z" fill="white"/>
<path d="M183.057 344.005L182.195 343.641C191.585 321.462 203.355 301.319 217.175 283.772C228.233 269.73 240.622 257.31 253.999 246.856C265.903 237.552 276.402 231.56 283.113 228.173C290.397 224.496 294.932 222.999 294.977 222.984L295.268 223.872C295.224 223.887 290.733 225.366 283.5 229.025C276.824 232.397 266.381 238.366 254.538 247.624C233.62 263.977 204.239 293.976 183.057 344.005Z" fill="#3AA490"/>
<path d="M262.855 239.723C262.855 239.723 309.64 228.98 300.562 214.559C291.483 200.137 262.855 239.723 262.855 239.723Z" fill="#3AA490"/>
<path d="M252.004 248.946C253.136 251.293 286.894 258.306 286.583 246.772C286.251 234.459 252.004 248.946 252.004 248.946Z" fill="#3AA490"/>
<path d="M254.071 234.722C254.982 226.902 254.871 220.022 260.389 215.106C264.067 211.829 271.008 210.386 270.379 217.542C269.036 232.811 252.371 249.337 252.371 249.337L254.071 234.722Z" fill="#3AA490"/>
<path d="M219.895 280.073C221.051 281.771 257.313 284.192 246.988 273.254C236.664 262.315 219.895 280.073 219.895 280.073Z" fill="#3AA490"/>
<path d="M219.946 268.461C219.794 262.109 221.794 255.916 225.609 251.196C228.152 248.051 230.624 246.626 230.923 252.411C231.563 264.741 220.23 280.332 220.23 280.332L219.946 268.461Z" fill="#3AA490"/>
<path d="M239.183 259.412C239.828 260.836 250.679 234.537 240.482 228.036C230.284 221.534 233.212 246.229 239.183 259.412Z" fill="#3AA490"/>
<path d="M239.62 259.349C238.199 259.887 257.762 278.24 266.379 266.77C274.996 255.3 252.775 254.369 239.62 259.349Z" fill="#3AA490"/>
<path d="M208.817 294.362C209.198 295.203 215.611 279.664 209.585 275.822C203.559 271.98 205.289 286.572 208.817 294.362Z" fill="#3AA490"/>
<path d="M209.075 294.326C208.233 294.644 219.796 305.488 224.887 298.716C229.978 291.944 216.848 291.383 209.075 294.326Z" fill="#3AA490"/>
<path d="M187.06 337.733L186.344 337.132C194.437 327.511 203.403 319.276 212.994 312.645C220.669 307.337 228.759 303.042 237.039 299.879C251.153 294.486 261.081 294.252 261.179 294.25L261.196 295.184C261.102 295.184 251.3 295.423 237.327 300.768C224.438 305.701 205.249 316.119 187.06 337.733Z" fill="#3AA490"/>
<path d="M242.625 297.892C242.625 297.892 267.561 299.702 265.257 291.136C262.952 282.569 242.625 297.892 242.625 297.892Z" fill="#3AA490"/>
<path d="M235.805 300.822C236.008 302.164 251.733 310.817 253.35 305.026C255.075 298.852 235.805 300.822 235.805 300.822Z" fill="#3AA490"/>
<path d="M239.021 294.056C240.675 290.302 241.677 286.863 245.178 285.259C247.513 284.191 251.189 284.534 249.776 288C246.763 295.393 235.93 301.07 235.93 301.07L239.021 294.056Z" fill="#3AA490"/>
<path d="M215.047 311.403C215.361 312.426 233.038 319.178 229.578 312.156C226.119 305.134 215.047 311.403 215.047 311.403Z" fill="#3AA490"/>
<path d="M216.857 305.632C217.756 302.449 219.704 299.671 222.327 297.906C224.076 296.729 225.525 296.398 224.787 299.321C223.21 305.557 215.176 311.582 215.176 311.582L216.857 305.632Z" fill="#3AA490"/>
<path d="M227.819 304.07C227.921 304.878 237.361 293.449 233.284 288.653C229.208 283.856 226.873 296.596 227.819 304.07Z" fill="#3AA490"/>
<path d="M228.046 304.107C227.256 304.157 234.174 316.284 240.225 311.894C246.275 307.503 235.359 303.64 228.046 304.107Z" fill="#3AA490"/>
<path d="M207.335 316.821C207.396 317.298 212.974 310.545 210.565 307.711C208.156 304.876 206.775 312.405 207.335 316.821Z" fill="#3AA490"/>
<path d="M207.47 316.843C207.002 316.872 211.091 324.035 214.666 321.444C218.242 318.853 211.791 316.568 207.47 316.843Z" fill="#3AA490"/>
<path d="M151.336 190.263C151.142 190.263 150.951 190.263 150.759 190.257C146.985 190.163 143.27 189.141 139.72 187.215C135.891 185.138 132.129 181.944 128.539 177.722L128.518 177.698L128.502 177.67C128.481 177.63 126.243 173.61 124.974 168.22C124.225 165.044 123.956 162.024 124.166 159.234C124.43 155.733 125.459 152.591 127.223 149.893C128.166 148.452 129.074 147.131 129.951 145.854C136.047 136.98 139.405 132.098 129.867 122.414C119.746 112.138 122.472 102.323 125.637 90.9582C125.988 89.6981 126.351 88.3941 126.699 87.0761C127.572 83.7824 126.277 79.293 124.778 74.0918C123.699 70.3554 122.477 66.1191 121.921 61.7288C121.281 56.6715 121.625 52.1952 122.973 48.044C124.631 42.9381 127.752 38.3852 132.514 34.1257C137.892 29.3159 145.456 24.919 154.994 21.0574C162.026 18.2092 168.581 17.9421 174.477 20.2634C179.843 22.3754 184.707 26.6462 188.931 32.9552C194.099 40.6729 198.265 51.2779 201.312 64.4751C203.979 76.0236 205.679 89.2441 206.227 102.708C206.734 115.131 206.216 127.345 204.77 137.105C203.273 147.233 200.906 154.177 197.933 157.188C196.154 158.988 194.269 160.998 192.272 163.127C186.615 169.156 180.203 175.99 173.216 181.309C165.317 187.333 158.152 190.263 151.336 190.263ZM129.059 177.324C135.838 185.285 143.145 189.417 150.774 189.603C157.607 189.769 164.815 186.889 172.818 180.8C179.763 175.516 186.156 168.697 191.794 162.69C193.794 160.558 195.683 158.545 197.467 156.74C200.301 153.869 202.665 146.866 204.123 137.019C205.563 127.298 206.078 115.126 205.574 102.744C204.385 73.5753 197.961 47.6255 188.387 33.3279C179.621 20.2372 168.47 16.3158 155.241 21.672C115.033 37.9527 121.03 58.7406 125.409 73.919C126.935 79.2099 128.253 83.7796 127.335 87.2479C126.985 88.5697 126.622 89.8756 126.271 91.1385C123.163 102.307 120.48 111.953 130.336 121.964C135.01 126.71 136.888 130.583 136.432 134.521C136.003 138.217 133.571 141.755 130.494 146.234C129.618 147.508 128.715 148.826 127.773 150.26C123.915 156.153 124.467 163.192 125.61 168.058C126.801 173.13 128.865 176.968 129.059 177.324Z" fill="#452321"/>
<path d="M256.952 201.111C243.853 211.896 198.778 203.656 185.166 203.777C171.554 203.899 214.574 124.399 214.574 124.399C214.574 124.399 270.05 190.326 256.952 201.111Z" fill="#281313"/>
<path d="M138.086 179.849C138.086 179.849 128.031 164.732 134.733 152.589C141.435 140.447 147.149 134.994 135.23 124.585C123.311 114.177 127.035 103.274 129.52 89.8914C132.006 76.5093 99.921 48.2588 152.589 22.1754C205.258 -3.90789 220.403 136.357 205.252 154.2C190.101 172.042 166.766 208.844 138.086 179.849Z" fill="#452321"/>
<path d="M221.706 286.632C221.509 287.099 220.621 289.284 219.383 292.643C219.149 293.272 218.905 293.941 218.65 294.65C218.061 296.29 217.417 298.132 216.746 300.131C215.43 304.055 214.012 308.583 212.698 313.39L212.688 313.427C212.526 314.022 212.366 314.622 212.206 315.226C212.029 315.894 211.856 316.565 211.687 317.241C211.593 317.624 211.495 318.006 211.4 318.391C211.174 319.312 210.956 320.237 210.744 321.166C209.186 327.985 208.03 335.004 207.797 341.371C207.791 341.496 207.788 341.621 207.785 341.744C205.435 342.137 203.038 342.479 200.593 342.772C192.338 344.223 184.003 345.184 175.634 345.649L166.164 345.974C166.65 345.085 167.527 343.517 168.774 341.437C168.972 341.108 169.18 340.765 169.396 340.409C170.356 338.832 171.498 337.014 172.814 335.01C175.554 330.84 179.048 325.873 183.225 320.632C186.515 316.503 190.228 312.204 194.332 307.989C198.837 303.361 203.811 298.835 209.215 294.751C209.487 294.543 209.761 294.338 210.036 294.136C210.152 294.048 210.268 293.961 210.385 293.877C213.989 291.208 217.772 288.787 221.706 286.632V286.632Z" fill="#CD8003"/>
<path d="M143.361 36.5487C143.361 36.5487 123.124 44.4794 129.58 67.5259C136.035 90.5724 140.999 86.2362 138.022 108.044C136.525 119.027 152.426 122.913 152.426 136.543C152.426 144.691 133.057 149.801 137.651 171.114C142.245 192.427 242.317 155.377 241.82 140.632C241.323 125.887 159.875 22.4239 143.361 36.5487Z" fill="#281313"/>
<path d="M171.423 97.3876C171.423 97.3876 185.576 109.905 184.832 114.611C184.088 119.317 167.077 139.765 160.248 145.093C153.419 150.421 231.391 154.262 231.391 154.262C231.391 154.262 237.227 123.53 228.164 113.496C219.101 103.463 215.748 101.353 211.65 98.8747C207.552 96.3965 190.915 74.214 191.661 63.5651C192.406 52.9161 171.423 97.3876 171.423 97.3876Z" fill="#F79071"/>
<path d="M192.477 67.2203C189.551 78.0243 182.098 88.3426 182.098 88.3426C182.098 88.3426 171.917 103.459 165.585 106.184C163.755 106.973 162.256 107.159 161.042 106.992C158.055 106.579 156.785 104.02 156.522 102.962C156.147 101.476 156.147 100.361 155.901 100.733C155.655 101.104 154.163 101.971 152.673 101.848C151.183 101.725 151.058 98.998 151.058 98.998C150.562 98.998 149.692 98.502 148.576 98.0069C147.459 97.5119 147.954 94.9085 147.706 94.0416C147.458 93.1748 144 94.2228 142.371 93.7941C140.012 93.1738 141.253 83.0134 141.253 83.0134C141.735 80.3727 139.451 78.27 138.301 77.4629C137.179 76.6734 136.216 75.6814 135.459 74.5382C131.915 69.1941 130.896 63.4512 130.838 58.7843C130.817 56.9256 130.94 55.068 131.205 53.2282C131.567 50.7322 132.062 49.1863 132.062 49.1863C190.895 33.1811 196.933 50.7659 192.477 67.2203Z" fill="#F9AE8F"/>
<path d="M224.668 271.052C224.655 271.793 224.633 272.541 224.602 273.294C224.568 274.079 224.525 274.872 224.472 275.673C224.466 275.785 224.458 275.898 224.45 276.01C224.417 276.481 224.38 276.954 224.34 277.429C224.236 278.636 224.06 279.836 223.813 281.022C223.454 282.737 222.985 284.426 222.409 286.081C221.626 288.324 220.708 290.519 219.66 292.652C219.338 293.315 219.002 293.98 218.652 294.647C217.773 296.328 216.813 298.017 215.789 299.706C214.174 302.365 212.398 305.022 210.515 307.646C209.505 309.057 208.465 310.456 207.396 311.844C205.849 313.857 204.259 315.838 202.648 317.769C197.849 323.528 192.889 328.857 188.489 333.334C187.736 334.099 187.001 334.839 186.284 335.555C184.197 337.634 182.281 339.484 180.624 341.051C178.442 343.113 176.71 344.688 175.63 345.654L166.161 345.98C165.225 345.993 164.289 345.999 163.353 345.998C156.119 345.998 149.01 345.651 142.027 344.957C132.421 344.018 122.893 342.409 113.512 340.141C112.147 339.943 110.797 339.722 109.462 339.478C108.162 339.241 106.877 338.985 105.605 338.708C105.699 338.518 105.793 338.325 105.886 338.131C108.798 332.212 113 324.708 117.444 317.12C118.073 316.045 118.707 314.969 119.345 313.893C119.745 313.218 120.145 312.545 120.547 311.872C120.886 311.303 121.225 310.737 121.564 310.173C122.844 308.036 124.118 305.929 125.363 303.888C126.705 301.686 128.012 299.559 129.253 297.551C134.924 288.378 139.215 281.707 139.215 281.707C137.144 280.231 119.7 263.716 119.7 263.716C118.924 262.364 118.207 261.034 117.547 259.726C116.998 258.635 116.487 257.56 116.013 256.501C109.289 241.462 110.023 229.363 113.205 219.757C115.789 211.945 119.987 205.784 123.101 201.031C125.333 197.625 127.837 195.266 130.27 193.051C131.499 191.93 132.71 190.85 133.86 189.688C135.537 187.991 137.082 186.123 138.353 183.723C140.318 180.029 141.64 175.074 141.823 167.535C142.373 145.099 164.756 140.684 174.531 130.382C178.846 125.834 181.185 121.975 182.357 118.799C184.994 111.667 181.722 108.044 181.722 108.044C184.798 107.009 187.67 105.605 190.273 104.054C194.554 101.501 198.11 98.5423 200.646 96.1622C203.387 93.5924 204.939 91.6877 204.939 91.6877L207.531 93.9352L220.64 105.306C220.64 105.306 219.985 113.541 219.054 125.349C217.638 143.295 215.577 169.493 214.187 187.569C213.741 193.367 213.366 198.329 213.102 201.915C212.505 210.027 214.237 217.828 216.529 226.109C216.792 227.056 217.061 228.01 217.336 228.969C218.187 231.953 219.084 235.008 219.948 238.173C221.322 243.217 222.612 248.528 223.495 254.26C224.367 259.813 224.76 265.431 224.668 271.052V271.052Z" fill="#F79C0A"/>
<path d="M130.27 193.05C134.528 193.364 141.819 194.897 147.586 201.223C156.278 210.764 179.209 237.358 196.505 239.015C218.481 241.122 226.968 263.907 222.411 286.084C223.44 283.107 224.11 280.205 224.344 277.432C227.172 243.848 211.486 224.04 213.112 201.915C214.738 179.791 220.649 105.307 220.649 105.307L207.539 93.936C205.199 94.5298 202.899 95.2733 200.655 96.162C196.885 97.6417 192.874 99.6183 188.606 102.132C189.198 102.741 189.755 103.383 190.273 104.056C204.318 113.864 197.466 134.802 195.627 154.264C192.772 184.498 204.8 197.084 182.271 195.561C161.822 194.178 145.953 182.152 138.353 183.724L130.27 193.05Z" fill="#CD8003"/>
<path d="M192.478 67.2205C189.552 78.0245 182.1 88.3427 182.1 88.3427C182.1 88.3427 171.919 103.46 165.587 106.184C163.757 106.973 162.258 107.16 161.044 106.992H161.052C166.076 107.179 170.801 100.98 173.033 96.2724C175.264 91.5645 163.974 73.4734 159.255 73.5977C154.535 73.7219 143.984 70.7477 135.106 63.3495C132.965 61.5653 131.63 60.053 130.838 58.7854C130.817 56.9267 130.94 55.0691 131.205 53.2293C133.077 49.5862 171.793 47.8245 171.793 47.8245C171.793 47.8245 185.479 60.5882 192.478 67.2205Z" fill="#F79071"/>
<path d="M169.435 256.734C168.912 257.594 167.984 258.82 166.715 260.385C162.473 265.617 154.424 274.653 144.988 286.534C141.218 291.281 137.227 296.482 133.167 302.077C131.466 304.423 129.756 306.838 128.036 309.32C127.412 310.228 126.785 311.144 126.154 312.068C125.477 313.068 124.8 314.077 124.125 315.095C123.846 315.514 123.568 315.936 123.291 316.36C122.614 317.391 121.937 318.432 121.263 319.482C117.253 325.733 113.326 332.312 109.63 339.161L109.458 339.48C108.158 339.243 106.873 338.987 105.602 338.71C105.695 338.52 105.789 338.327 105.882 338.133C108.794 332.213 112.996 324.71 117.44 317.122C118.069 316.047 118.703 314.971 119.341 313.894C119.741 313.22 120.141 312.547 120.543 311.874C120.882 311.305 121.221 310.738 121.56 310.175C122.84 308.038 124.114 305.931 125.359 303.89C126.701 301.687 128.008 299.56 129.249 297.553C134.92 288.38 139.211 281.709 139.211 281.709C137.143 280.231 119.699 263.716 119.699 263.716C118.923 262.364 118.206 261.034 117.546 259.726C120.389 262.528 127.409 264.77 135.024 265.016C139.671 265.169 144.541 264.581 148.82 262.929C156.463 259.978 161.89 257.343 165.471 255.562C171.667 252.479 172.345 251.946 169.435 256.734Z" fill="#CD8003"/>
<path d="M233.501 164.298C227.68 211.397 221.9 231.6 214.291 235.396C207.492 238.789 189.833 235.175 168.107 215.853C146.381 196.531 142.243 192.402 142.243 192.402C142.243 192.402 131.971 193.336 130.058 190.265C129.957 190.104 129.88 189.929 129.829 189.747C128.799 186.06 131.306 185.322 130.858 183.848C130.411 182.374 131.672 179.792 132.262 178.758C132.262 178.758 131.672 176.399 134.331 174.776C134.331 174.776 135.514 170.647 137.287 169.909C139.06 169.171 141.721 167.106 143.198 167.255C144.219 167.357 146.785 167.107 148.424 166.992C149.162 166.939 149.711 166.914 149.849 166.96C149.849 166.96 150.879 167.987 150.879 170.647C150.879 173.306 149.254 176.251 156.495 180.234C162.286 183.418 186.607 198.175 196.126 203.961C197.713 204.926 199.727 203.692 199.582 201.843C198.35 186.178 195.337 133.518 208.474 113.564C208.588 113.39 208.703 113.221 208.821 113.052C211.84 108.691 215.684 106.017 220.56 105.821C220.573 105.824 240.455 108.044 233.501 164.298Z" fill="#F9AE8F"/>
<path d="M233.502 164.299C227.681 211.398 221.901 231.6 214.292 235.396C207.493 238.789 189.833 235.176 168.107 215.853C146.382 196.531 142.244 192.402 142.244 192.402C142.244 192.402 131.972 193.336 130.059 190.265C132.39 190.423 142.584 186.369 146.094 193.045C150.067 200.604 195.609 236.514 212.551 232.311C222.061 229.951 228.079 190.193 224.626 172.434C220.975 153.658 225.802 149.182 224.685 129.604C223.901 115.881 214.213 113.665 208.486 113.567C211.556 108.904 215.506 106.027 220.572 105.824C220.574 105.824 240.456 108.044 233.502 164.299Z" fill="#F79071"/>
<path d="M114.926 256.714C114.655 256.725 114.39 256.803 114.156 256.942C113.923 257.08 113.727 257.275 113.588 257.507C112.933 258.597 113.481 260.358 114.555 262.186C116.665 265.779 116.714 266.623 118.031 268.877C119.089 270.688 119.703 272.417 120.145 273.597C120.588 274.776 123.101 276.547 123.101 276.547C123.101 276.547 123.989 279.644 126.945 280.234C126.945 280.234 129.013 283.037 131.378 282.742C131.378 282.742 135.221 288.346 138.177 285.692C141.133 283.037 140.985 279.201 138.619 279.644C138.619 279.644 143.053 277.137 141.133 274.63C139.212 272.123 137.437 273.892 137.437 273.892C137.437 273.892 140.985 271.68 139.803 269.615C138.62 267.549 136.699 267.992 135.517 268.73C135.517 268.73 135.811 267.403 134.186 266.369C132.56 265.336 130.787 266.075 128.717 266.812C126.648 267.549 123.884 267.632 122.997 266.894C122.176 266.21 119.003 256.577 114.926 256.714Z" fill="#F9AE8F"/>
<path d="M134.78 269.172C134.78 269.172 132.268 270.794 131.38 269.172C130.493 267.549 133.302 266.812 133.302 266.812C133.302 266.812 134.632 268.435 134.78 269.172Z" fill="#F79071"/>
<path d="M139.656 271.089C139.656 271.089 137.878 272.864 136.7 271.974C135.523 271.084 137.291 269.025 137.883 268.877C138.474 268.73 139.656 271.089 139.656 271.089Z" fill="#F79071"/>
<path d="M140.986 276.694C140.986 276.694 139.361 278.469 138.031 277.579C136.7 276.689 138.917 274.776 138.917 274.776C138.917 274.776 140.543 275.809 140.986 276.694Z" fill="#F79071"/>
<path d="M139.36 280.399C139.36 280.399 137.882 280.989 138.03 281.726C138.178 282.463 138.909 283.156 139.947 282.442C140.985 281.727 139.36 280.399 139.36 280.399Z" fill="#F79071"/>
<path d="M126.831 53.4366C126.831 53.4366 139.325 69.4464 155.466 70.4375C171.607 71.4286 169.869 90.3875 179.678 92.8657C189.486 95.3439 192.619 121.646 206.558 110.647C217.236 102.221 238.405 117.279 230.397 143.11C227.506 152.434 221.27 193.851 237.229 203.701C251.88 212.746 286.769 188.089 263.365 146.146C254.912 130.996 245.487 131.773 252.563 117.399C259.639 103.026 260.894 78.5401 244.005 73.4174C229.654 69.0653 219.58 64.9431 220.033 53.4628C220.716 36.1816 192.78 6.81112 159.877 15.6086C130.99 23.3319 125.759 38.7897 126.831 53.4366Z" fill="#452321"/>
<path d="M147.83 97.6361C147.83 97.6361 147.581 95.653 150.313 96.149C152.756 96.5918 156.273 95.4017 157.018 94.9094C157.018 94.9094 156.44 99.3867 155.9 100.734C155.152 102.593 150.809 103.088 151.058 99.1223C151.055 99.1223 147.83 98.8748 147.83 97.6361Z" fill="#CD8003"/>
<path d="M138.486 74.7578C138.26 74.7139 138.272 74.713 137.9 74.4654C137.35 74.0993 137.577 72.6626 139.265 71.2437C141.624 69.2605 143.487 68.0219 147.584 67.5259C147.584 67.5259 144.728 68.6412 142.248 70.5001C139.769 72.359 139.766 73.9694 139.394 74.3412C139.17 74.5616 138.889 74.8363 138.486 74.7578Z" fill="#452321"/>
<path d="M143.439 79.9309C143.801 79.7226 144.54 79.2462 144.697 78.7399C144.735 78.611 144.82 78.5012 144.935 78.4326C145.843 77.9011 149.441 75.7386 150.293 74.386C150.301 74.3747 150.312 74.3661 150.325 74.3618C150.338 74.3575 150.351 74.3576 150.364 74.3621C150.377 74.3666 150.388 74.3753 150.395 74.3867C150.403 74.3982 150.406 74.4117 150.405 74.4252C150.289 75.3836 149.812 78.1561 148.079 79.1733C146.138 80.313 144.407 80.2999 143.465 80.0972C143.448 80.0921 143.433 80.0824 143.421 80.0691C143.41 80.0559 143.402 80.0396 143.4 80.0223C143.397 80.0049 143.399 79.9871 143.406 79.9709C143.413 79.9548 143.424 79.9409 143.439 79.9309V79.9309Z" fill="#452321"/>
<path d="M144.332 93.3318C144.284 93.3429 144.235 93.3387 144.19 93.3198C144.145 93.3009 144.108 93.2682 144.083 93.2265C144.058 93.1849 144.047 93.1364 144.052 93.0881C144.056 93.0399 144.076 92.9943 144.109 92.9582C144.692 92.3192 145.922 91.2665 147.581 91.4402C149.539 91.6457 145.856 92.96 144.332 93.3318Z" fill="#F79071"/>
<path d="M126.926 53.4963L127.503 54.2922C127.701 54.5624 127.902 54.8308 128.105 55.0974C128.511 55.6317 128.923 56.161 129.342 56.6854C130.179 57.7328 131.041 58.7604 131.927 59.768C133.694 61.7859 135.563 63.7121 137.527 65.5389C139.486 67.3706 141.577 69.0565 143.783 70.5832C145.993 72.0908 148.344 73.4117 150.851 74.3411C152.1 74.8071 153.39 75.1546 154.705 75.3789C155.362 75.4904 156.024 75.5656 156.689 75.604C157.368 75.6461 158.043 75.7284 158.711 75.8506C160.054 76.0911 161.355 76.5257 162.572 77.1407C163.787 77.7647 164.901 78.5663 165.878 79.5189C166.849 80.4741 167.716 81.5286 168.464 82.665C169.208 83.7918 169.893 84.9563 170.516 86.1539C171.148 87.3421 171.745 88.5453 172.372 89.726C172.999 90.9067 173.657 92.0706 174.432 93.143C175.206 94.2154 176.116 95.1915 177.219 95.8865C177.769 96.2332 178.363 96.5032 178.986 96.6889C179.064 96.7132 179.142 96.7338 179.221 96.7543L179.47 96.8225C179.554 96.8468 179.638 96.8748 179.721 96.901C179.804 96.9271 179.887 96.9589 179.968 96.9944C180.294 97.1199 180.609 97.2695 180.912 97.4418C181.512 97.7869 182.071 98.1963 182.581 98.6627C183.087 99.1209 183.562 99.6121 184.002 100.133C184.867 101.176 185.666 102.271 186.395 103.413C187.867 105.671 189.186 108.013 190.688 110.219C191.437 111.318 192.237 112.387 193.145 113.342C193.593 113.819 194.08 114.259 194.601 114.656C195.113 115.048 195.674 115.374 196.269 115.625C196.857 115.871 197.483 116.015 198.12 116.051C198.759 116.084 199.398 116.014 200.015 115.846C201.259 115.513 202.416 114.858 203.478 114.084C203.611 113.991 203.742 113.887 203.872 113.787L204.269 113.476C204.542 113.264 204.826 113.065 205.121 112.878C205.71 112.509 206.335 112.199 206.986 111.953C207.638 111.711 208.312 111.532 208.998 111.419C209.684 111.309 210.378 111.26 211.072 111.274C212.456 111.312 213.826 111.564 215.132 112.022C216.433 112.472 217.673 113.084 218.821 113.843C221.118 115.35 223.054 117.362 224.565 119.635C226.069 121.92 227.176 124.443 227.841 127.095C228.505 129.741 228.791 132.467 228.691 135.192C228.592 137.909 228.185 140.607 227.48 143.233C227.394 143.562 227.302 143.887 227.209 144.214L227.064 144.702C227.018 144.859 226.971 145.014 226.931 145.169C226.762 145.799 226.626 146.446 226.512 147.096C226.284 148.398 226.132 149.721 226.024 151.046C225.818 153.704 225.76 156.371 225.849 159.036C225.932 161.702 226.144 164.359 226.484 167.008C226.822 169.649 227.311 172.269 227.948 174.855C228.577 177.435 229.411 179.962 230.442 182.41C230.958 183.627 231.542 184.815 232.191 185.967C232.834 187.115 233.559 188.216 234.359 189.262C235.153 190.302 236.04 191.268 237.01 192.147C237.494 192.583 238.001 192.993 238.528 193.377C239.051 193.756 239.598 194.104 240.164 194.417C241.295 195.031 242.512 195.469 243.775 195.718C245.04 195.962 246.335 196.023 247.617 195.898C250.187 195.65 252.672 194.683 254.805 193.21C256.938 191.737 258.736 189.782 260.106 187.566C261.475 185.351 262.436 182.877 263.027 180.324C263.603 177.755 263.86 175.125 263.793 172.493C263.73 169.85 263.425 167.218 262.882 164.63C261.809 159.439 259.944 154.42 257.649 149.623C256.5 147.221 255.234 144.876 253.892 142.568C253.223 141.413 252.535 140.269 251.828 139.135C251.125 137.996 250.402 136.869 249.698 135.707C249.347 135.124 249 134.533 248.681 133.911C248.346 133.278 248.068 132.618 247.848 131.937C247.623 131.232 247.496 130.5 247.469 129.761C247.455 129.396 247.462 129.03 247.491 128.666C247.519 128.304 247.567 127.949 247.625 127.599C247.744 126.911 247.9 126.229 248.093 125.558C248.28 124.893 248.487 124.242 248.704 123.596C249.14 122.307 249.614 121.044 250.092 119.785C250.33 119.157 250.582 118.522 250.805 117.917C251.029 117.311 251.239 116.679 251.429 116.048C251.809 114.789 252.125 113.51 252.376 112.219C252.876 109.632 253.146 107.006 253.182 104.372C253.222 101.736 253.034 99.1019 252.62 96.4984C252.213 93.9008 251.555 91.3486 250.655 88.8778C249.75 86.4202 248.577 84.0615 247.09 81.9308C245.604 79.8001 243.798 77.9048 241.68 76.4522C240.625 75.7257 239.493 75.1161 238.305 74.6344C237.712 74.3935 237.106 74.1859 236.49 74.0123L236 73.8722C235.834 73.8264 235.669 73.7788 235.504 73.7255C235.174 73.6265 234.849 73.5182 234.519 73.4098C231.895 72.5263 229.4 71.3014 227.097 69.7667C224.789 68.2273 222.714 66.3661 220.935 64.2396C219.148 62.1083 217.712 59.7061 216.682 57.1235C216.17 55.8264 215.777 54.4853 215.508 53.117C215.236 51.7421 215.11 50.3421 215.134 48.9406L215.145 48.4362C215.151 48.2765 215.145 48.1167 215.15 47.957C215.15 47.6366 215.138 47.3162 215.117 46.9967C215.078 46.3546 215.006 45.7149 214.903 45.0799C214.692 43.8014 214.372 42.5433 213.947 41.3192C213.099 38.8596 211.877 36.5206 210.406 34.3497C208.924 32.1757 207.211 30.1687 205.295 28.3639C201.469 24.7479 196.887 21.9017 191.9 20.1838C189.407 19.3209 186.82 18.7537 184.194 18.494C181.565 18.238 178.915 18.3008 176.302 18.6808C174.994 18.8708 173.698 19.1368 172.421 19.4776C171.143 19.8214 169.885 20.2352 168.653 20.7172C168.344 20.8368 168.039 20.9638 167.732 21.0909C167.426 21.2179 167.125 21.3515 166.817 21.4897L164.975 22.308L161.294 23.9474C156.393 26.1454 151.505 28.3714 146.741 30.8328C144.362 32.0639 142.014 33.3549 139.747 34.7766C138.614 35.4884 137.5 36.231 136.424 37.0185C135.888 37.4155 135.354 37.8162 134.837 38.2375C134.574 38.4439 134.323 38.6625 134.066 38.8746C133.809 39.0866 133.561 39.3089 133.317 39.5359C132.326 40.4249 131.407 41.391 130.569 42.4251C130.151 42.9416 129.761 43.4804 129.402 44.0393C129.044 44.5952 128.721 45.1723 128.433 45.7674C127.552 47.564 127.04 49.5187 126.928 51.516C126.894 52.1756 126.893 52.8366 126.926 53.4963V53.4963ZM126.767 53.5523C126.709 52.8727 126.69 52.1903 126.712 51.5085C126.781 49.473 127.259 47.472 128.116 45.6236C128.401 45.0082 128.724 44.4111 129.084 43.8357C129.44 43.2584 129.827 42.7008 130.243 42.1655C131.078 41.0957 131.997 40.0934 132.99 39.1679C134.962 37.3099 137.156 35.7116 139.415 34.2376C141.675 32.7636 144.022 31.4259 146.394 30.149C151.148 27.6054 156.015 25.3103 160.892 23.0376L164.555 21.3487L166.388 20.508C166.692 20.3678 167.005 20.2277 167.316 20.0904C167.627 19.9531 167.942 19.8214 168.259 19.6943C169.524 19.1811 170.816 18.7383 172.131 18.3679C173.447 17.9987 174.784 17.7065 176.135 17.4926C178.844 17.0648 181.595 16.9685 184.328 17.2059C187.061 17.4496 189.756 18.014 192.357 18.8873C197.557 20.6266 202.343 23.5289 206.352 27.2579C208.364 29.1258 210.167 31.2061 211.729 33.4623C213.306 35.7267 214.576 38.19 215.505 40.7876C215.968 42.0974 216.319 43.4443 216.553 44.8137C216.669 45.5026 216.751 46.1969 216.797 46.894C216.822 47.2433 216.834 47.5936 216.838 47.9439C216.838 48.1195 216.838 48.2951 216.838 48.4707L216.829 48.9724C216.787 51.5318 217.326 54.1016 218.277 56.5032C219.245 58.9149 220.592 61.1569 222.268 63.1448C223.945 65.1404 225.899 66.886 228.072 68.3282C230.252 69.7721 232.612 70.9258 235.092 71.7601C235.402 71.8629 235.712 71.9657 236.028 72.0591C236.184 72.1086 236.34 72.1525 236.496 72.1992L236.975 72.3356C237.653 72.5261 238.32 72.7541 238.973 73.0184C240.279 73.5472 241.522 74.2162 242.683 75.0137C245.001 76.6017 246.96 78.6567 248.538 80.935C250.116 83.2133 251.351 85.7056 252.296 88.2837C253.23 90.8616 253.909 93.5248 254.322 96.2349C254.74 98.9365 254.923 101.669 254.871 104.402C254.825 107.136 254.532 109.861 253.997 112.543C253.728 113.886 253.391 115.214 252.988 116.523C252.786 117.178 252.565 117.827 252.326 118.471C252.083 119.125 251.836 119.732 251.595 120.359C251.113 121.606 250.639 122.853 250.208 124.104C249.993 124.73 249.791 125.356 249.611 125.983C249.43 126.6 249.282 127.227 249.167 127.859C249.115 128.171 249.074 128.481 249.046 128.794C249.021 129.098 249.013 129.403 249.021 129.708C249.041 130.311 249.142 130.908 249.323 131.483C249.514 132.08 249.756 132.66 250.046 133.217C250.337 133.79 250.666 134.359 251.005 134.928C251.685 136.066 252.409 137.202 253.108 138.351C253.807 139.5 254.506 140.659 255.178 141.829C256.524 144.164 257.799 146.558 258.955 149.005C260.118 151.453 261.151 153.96 262.05 156.515C262.95 159.079 263.675 161.7 264.218 164.362C264.764 167.033 265.067 169.747 265.123 172.472C265.165 175.2 264.919 177.946 264.291 180.619C263.662 183.293 262.646 185.887 261.181 188.231C259.716 190.576 257.804 192.657 255.504 194.225C254.354 195.012 253.112 195.658 251.807 196.148C250.497 196.641 249.127 196.957 247.733 197.09C246.335 197.221 244.926 197.149 243.548 196.877C242.17 196.6 240.841 196.116 239.608 195.44C237.162 194.073 235.126 192.13 233.462 189.951C232.632 188.861 231.881 187.712 231.216 186.515C230.553 185.323 229.957 184.097 229.431 182.84C228.389 180.333 227.55 177.748 226.919 175.109C226.285 172.48 225.802 169.818 225.472 167.134C225.138 164.457 224.937 161.766 224.869 159.062C224.792 156.361 224.864 153.658 225.086 150.966C225.203 149.619 225.366 148.273 225.605 146.932C225.726 146.262 225.869 145.595 226.05 144.93C226.096 144.764 226.143 144.596 226.194 144.433L226.338 143.956C226.432 143.638 226.525 143.318 226.607 142.998C227.307 140.439 227.715 137.809 227.823 135.159C227.932 132.513 227.666 129.866 227.034 127.294C226.403 124.727 225.343 122.284 223.899 120.067C222.451 117.866 220.596 115.921 218.402 114.462C217.309 113.732 216.129 113.142 214.889 112.705C213.655 112.268 212.36 112.025 211.051 111.984C210.4 111.968 209.749 112.01 209.106 112.11C208.465 112.212 207.834 112.376 207.225 112.6C206.616 112.826 206.032 113.112 205.48 113.454C205.205 113.626 204.938 113.811 204.681 114.009L204.283 114.319C204.146 114.422 204.009 114.525 203.871 114.625C203.315 115.031 202.73 115.395 202.12 115.715C201.503 116.04 200.851 116.295 200.177 116.475C199.494 116.658 198.785 116.731 198.079 116.691C197.37 116.648 196.674 116.485 196.02 116.208C195.376 115.933 194.77 115.578 194.217 115.15C193.671 114.73 193.161 114.265 192.692 113.761C191.756 112.763 190.946 111.667 190.188 110.548C188.678 108.307 187.37 105.957 185.921 103.711C185.211 102.585 184.431 101.505 183.586 100.476C183.163 99.969 182.708 99.4906 182.222 99.0438C181.742 98.601 181.215 98.2114 180.651 97.8818C180.371 97.7211 180.079 97.5809 179.778 97.4624C179.703 97.4334 179.627 97.4073 179.551 97.3792C179.476 97.3512 179.399 97.3297 179.322 97.3064L179.085 97.241C179.002 97.2176 178.918 97.1961 178.835 97.17C178.169 96.9675 177.533 96.6752 176.947 96.3013C176.366 95.9271 175.83 95.4883 175.348 94.9935C174.871 94.5032 174.433 93.9766 174.037 93.4186C173.244 92.3107 172.585 91.1272 171.958 89.9362C171.331 88.7452 170.741 87.5392 170.118 86.3538C169.508 85.1677 168.836 84.0141 168.106 82.8976C167.38 81.7846 166.538 80.7513 165.594 79.815C164.649 78.8849 163.57 78.1007 162.393 77.4881C161.211 76.8843 159.946 76.4554 158.639 76.2149C157.985 76.0917 157.325 76.0072 156.661 75.9618C155.984 75.9193 155.31 75.8398 154.642 75.7236C153.308 75.486 151.999 75.1232 150.733 74.64C148.198 73.6863 145.834 72.343 143.619 70.8148C141.41 69.2719 139.317 67.5694 137.358 65.7211C135.398 63.878 133.533 61.9356 131.773 59.9015C130.891 58.8883 130.032 57.8546 129.197 56.8003C128.779 56.2734 128.369 55.7416 127.965 55.2048C127.763 54.9358 127.563 54.6655 127.365 54.394L127.069 53.9848L126.923 53.7793L126.851 53.6756C126.825 53.6392 126.804 53.614 126.767 53.5523Z" fill="#452321"/>
<path d="M130.911 42.8398C131.518 43.8391 132.19 44.7977 132.923 45.7095C134.379 47.5433 136.022 49.2218 137.825 50.7182C138.725 51.4627 139.668 52.1541 140.649 52.7891C141.135 53.1133 141.641 53.4056 142.147 53.7008L142.916 54.1184C143.043 54.1903 143.174 54.2538 143.305 54.3183L143.698 54.5107L144.09 54.7041L144.491 54.8797L144.891 55.0553C145.025 55.1123 145.156 55.1758 145.294 55.2253L146.109 55.5401C146.244 55.5952 146.383 55.641 146.521 55.6868L146.936 55.825L147.35 55.9633C147.488 56.0109 147.631 56.0445 147.77 56.0856L148.612 56.322L149.464 56.5172C149.606 56.5489 149.745 56.5835 149.89 56.6106L150.319 56.6863C150.607 56.7358 150.893 56.789 151.181 56.8357L152.046 56.9431L152.48 56.9955L152.919 57.0384L153.796 57.1234C156.136 57.3513 158.476 57.5727 160.816 57.8707C161.986 58.0155 163.156 58.193 164.317 58.3864C165.479 58.5797 166.642 58.8198 167.795 59.0897C168.948 59.3597 170.088 59.6904 171.214 60.0715C172.34 60.4595 173.443 60.9127 174.516 61.4288C175.588 61.9604 176.618 62.5711 177.599 63.2559L178.321 63.7893C178.558 63.9761 178.789 64.1704 179.017 64.36L179.189 64.5039C179.248 64.5501 179.304 64.5993 179.358 64.6515L179.687 64.9588C179.904 65.1652 180.131 65.3614 180.333 65.5847L180.952 66.2385L181.532 66.926C181.73 67.1512 181.906 67.3931 182.083 67.636L182.352 67.9965C182.396 68.0573 182.445 68.1161 182.484 68.1778L182.608 68.3646L183.101 69.1119C183.187 69.2352 183.256 69.3678 183.332 69.4967L183.556 69.8853L183.781 70.2739C183.857 70.4028 183.918 70.5392 183.987 70.6719L184.391 71.4724C184.521 71.7414 184.635 72.017 184.756 72.2897C184.878 72.5625 185.003 72.8343 185.103 73.1146C185.313 73.675 185.532 74.2355 185.72 74.782C186.111 75.888 186.506 76.9912 186.905 78.0915C187.708 80.2914 188.542 82.4772 189.45 84.6304C190.345 86.7802 191.349 88.8826 192.461 90.9291C192.741 91.4391 193.031 91.9389 193.326 92.4368C193.622 92.9347 193.932 93.4223 194.256 93.9005C194.58 94.3788 194.911 94.8524 195.254 95.311C195.425 95.5427 195.606 95.766 195.782 95.992C195.959 96.2181 196.144 96.4367 196.334 96.6459C196.708 97.0818 197.098 97.4984 197.505 97.8958C197.706 98.0975 197.917 98.2881 198.125 98.4805C198.334 98.6729 198.552 98.8542 198.775 99.0288C199.647 99.7402 200.604 100.34 201.624 100.816C202.132 101.047 202.655 101.242 203.191 101.399C203.325 101.435 203.457 101.479 203.593 101.509L204 101.602L204.41 101.68C204.545 101.709 204.685 101.722 204.822 101.743C205.932 101.891 207.057 101.886 208.165 101.73C208.304 101.715 208.446 101.69 208.582 101.667C208.719 101.643 208.863 101.625 208.998 101.594L209.412 101.508L209.844 101.415C210.427 101.286 211.013 101.172 211.601 101.068C212.189 100.964 212.78 100.881 213.372 100.796C213.963 100.711 214.558 100.651 215.15 100.601C217.535 100.383 219.935 100.383 222.319 100.601C224.718 100.814 227.086 101.298 229.376 102.043C231.667 102.804 233.884 103.871 235.854 105.327C236.844 106.054 237.759 106.878 238.585 107.787C238.795 108.013 238.991 108.254 239.189 108.486C239.387 108.717 239.573 108.968 239.751 109.219C240.116 109.717 240.452 110.235 240.758 110.771C241.065 111.305 241.343 111.857 241.589 112.422C241.838 112.986 242.057 113.562 242.244 114.148C242.343 114.44 242.42 114.738 242.505 115.033C242.59 115.328 242.661 115.621 242.717 115.938C242.746 116.094 242.781 116.251 242.805 116.405L242.868 116.872C242.879 116.95 242.891 117.027 242.899 117.105L242.919 117.335L242.958 117.796C243.027 119.004 243.02 120.216 242.937 121.423C242.863 122.618 242.744 123.802 242.597 124.979C242.002 129.682 241.083 134.295 240.196 138.903C239.744 141.207 239.292 143.507 238.856 145.808C238.42 148.11 237.997 150.412 237.604 152.721C237.212 155.03 236.856 157.336 236.545 159.652C236.396 160.81 236.254 161.97 236.133 163.13L236.039 164L235.958 164.871C235.899 165.452 235.858 166.033 235.81 166.614C235.63 168.94 235.552 171.268 235.576 173.598C235.598 174.76 235.634 175.924 235.731 177.083C235.769 177.664 235.839 178.24 235.896 178.818C235.931 179.107 235.973 179.395 236.01 179.682L236.068 180.114L236.139 180.544C236.316 181.691 236.559 182.827 236.864 183.948C237.165 185.068 237.546 186.165 238.006 187.231L238.18 187.63L238.267 187.83L238.361 188.024L238.752 188.802L239.185 189.557C239.255 189.685 239.335 189.805 239.416 189.931L239.654 190.296C240.301 191.266 241.046 192.166 241.878 192.984L241.764 193.108C239.99 191.524 238.557 189.597 237.552 187.443C237.035 186.373 236.601 185.266 236.253 184.131C235.898 182.999 235.607 181.848 235.381 180.684L235.293 180.247L235.22 179.809C235.173 179.517 235.12 179.225 235.076 178.932C234.998 178.346 234.909 177.759 234.852 177.17C234.716 175.994 234.641 174.813 234.58 173.631C234.561 173.041 234.53 172.449 234.529 171.856L234.518 170.97V170.083V169.641L234.528 169.198L234.548 168.312C234.57 167.723 234.59 167.132 234.619 166.543C234.85 161.826 235.434 157.143 236.128 152.488C236.823 147.834 237.685 143.21 238.533 138.595C238.962 136.289 239.389 133.985 239.786 131.683L240.081 129.955C240.175 129.378 240.273 128.803 240.362 128.227C240.543 127.075 240.709 125.922 240.85 124.77C240.992 123.619 241.115 122.468 241.19 121.321C241.273 120.187 241.286 119.049 241.227 117.914L241.193 117.499L241.177 117.291C241.17 117.223 241.16 117.155 241.152 117.087L241.099 116.679C241.081 116.544 241.052 116.415 241.028 116.281C240.987 116.02 240.909 115.743 240.848 115.472C240.772 115.204 240.705 114.931 240.617 114.667C240.454 114.134 240.261 113.609 240.041 113.097C239.823 112.585 239.577 112.086 239.304 111.602C238.202 109.648 236.704 107.945 234.905 106.601C233.109 105.241 231.053 104.209 228.895 103.468C226.717 102.735 224.464 102.251 222.177 102.025C219.879 101.791 217.564 101.767 215.261 101.954C214.684 101.997 214.11 102.061 213.535 102.128C212.96 102.195 212.389 102.281 211.818 102.378C211.247 102.474 210.679 102.579 210.114 102.7L209.684 102.793L209.235 102.887C209.085 102.918 208.932 102.936 208.782 102.962C208.631 102.989 208.479 103.012 208.327 103.028C207.103 103.189 205.862 103.183 204.64 103.01C204.487 102.986 204.333 102.969 204.181 102.936L203.726 102.843L203.275 102.733C203.124 102.697 202.978 102.648 202.83 102.606C202.238 102.428 201.66 102.207 201.1 101.946C199.992 101.419 198.955 100.757 198.011 99.9751C197.773 99.7883 197.543 99.5818 197.319 99.3819C197.096 99.182 196.875 98.969 196.664 98.7533C196.235 98.3261 195.827 97.8827 195.438 97.4231C195.24 97.1961 195.055 96.956 194.865 96.7272C194.675 96.4983 194.491 96.2545 194.319 96.0126C193.962 95.5324 193.623 95.0402 193.295 94.5413C192.968 94.0425 192.656 93.5353 192.35 93.0243C192.044 92.5134 191.754 91.9968 191.475 91.4718C190.366 89.3813 189.366 87.2349 188.48 85.0414C187.584 82.8593 186.766 80.651 185.981 78.4334C185.59 77.3249 185.204 76.2149 184.825 75.1033C184.638 74.5428 184.436 74.0066 184.238 73.4639C184.144 73.1902 184.022 72.9287 183.91 72.6634C183.798 72.3981 183.688 72.1309 183.566 71.8703L183.184 71.095C183.118 70.967 183.061 70.8344 182.989 70.7102L182.777 70.3365L182.565 69.9629C182.493 69.8386 182.428 69.7088 182.347 69.5892L181.879 68.8643L181.763 68.6831C181.722 68.6233 181.679 68.5664 181.636 68.5084L181.383 68.16C181.212 67.9283 181.05 67.693 180.861 67.4753L180.312 66.8102L179.725 66.1797C179.538 65.9639 179.32 65.7733 179.114 65.5734L178.802 65.2755C178.751 65.2248 178.698 65.1768 178.642 65.1316L178.477 64.9915C178.257 64.8047 178.042 64.6178 177.822 64.4366L177.133 63.9163C176.194 63.2428 175.206 62.6405 174.176 62.1144C173.137 61.6004 172.068 61.1469 170.976 60.7562C169.88 60.3714 168.762 60.0453 167.632 59.7548C166.502 59.4643 165.356 59.2317 164.206 59.0206C163.056 58.8095 161.899 58.6274 160.736 58.4695C158.415 58.1435 156.079 57.8959 153.742 57.6409L152.865 57.5475L152.427 57.4999L151.986 57.441L151.105 57.3215C150.812 57.271 150.522 57.2131 150.23 57.1599L149.792 57.0777C149.647 57.045 149.504 57.0085 149.36 56.9749L148.495 56.7657L147.641 56.5153C147.5 56.4714 147.361 56.4359 147.217 56.3855L146.796 56.2407L146.377 56.0894C146.237 56.0417 146.096 55.9959 145.959 55.9362L145.135 55.6064C144.996 55.5541 144.863 55.4887 144.728 55.4289L144.323 55.2421L143.919 55.0553L143.523 54.8554L143.126 54.6546C142.994 54.5882 142.862 54.5228 142.734 54.4481L141.959 54.0156C141.453 53.7102 140.944 53.4094 140.461 53.074C139.478 52.4189 138.534 51.7074 137.634 50.9433C135.839 49.4124 134.208 47.7004 132.766 45.8346C132.04 44.9055 131.376 43.9297 130.777 42.9136L130.911 42.8398Z" fill="#2D1716"/>
<path d="M136.343 36.6887C137.68 37.4136 139.058 38.0647 140.452 38.6831C141.847 39.3014 143.26 39.8694 144.687 40.4C146.113 40.9305 147.559 41.4144 149.015 41.8534L149.562 42.0169L149.835 42.0991L150.11 42.1748L151.21 42.4784C151.948 42.6652 152.682 42.8586 153.426 43.0183C154.165 43.1948 154.913 43.3331 155.657 43.4854L156.78 43.6778C156.967 43.7086 157.155 43.7441 157.342 43.7712L157.903 43.8506L158.465 43.9291C158.652 43.9561 158.839 43.9832 159.027 44.0019L160.157 44.1243C160.345 44.1467 160.532 44.1607 160.724 44.1738L161.291 44.2158C161.665 44.2439 162.046 44.2765 162.425 44.284L163.56 44.327C163.934 44.3317 164.317 44.327 164.695 44.327H165.262L165.83 44.3027C166.204 44.285 166.585 44.2737 166.962 44.2504L168.085 44.1514L168.366 44.1271L168.507 44.114L168.647 44.0953L169.209 44.0197L169.77 43.9431C169.957 43.9178 170.145 43.8964 170.332 43.8571L171.443 43.6498L171.724 43.5984C171.817 43.5788 171.911 43.5545 171.999 43.533L172.547 43.4003L173.096 43.2677L173.371 43.2014L173.652 43.1295C174.401 42.9296 175.161 42.7717 175.925 42.6362C176.69 42.5008 177.465 42.4102 178.241 42.3476C179.019 42.2864 179.801 42.2686 180.581 42.2944C181.364 42.319 182.146 42.3885 182.921 42.5027C183.697 42.6205 184.465 42.7859 185.221 42.9977C186.735 43.4255 188.19 44.0403 189.552 44.8277C190.907 45.6184 192.172 46.5546 193.324 47.6198C194.47 48.6795 195.522 49.8359 196.469 51.076C198.367 53.5449 199.887 56.2669 201.16 59.0767C201.48 59.7791 201.783 60.4891 202.074 61.2027L202.289 61.7408C202.36 61.9276 202.432 62.1088 202.497 62.2929C202.633 62.6665 202.753 63.0336 202.871 63.4045C203.339 64.8897 203.704 66.3834 204.06 67.8705C204.416 69.3576 204.758 70.8391 205.131 72.3047C205.503 73.7704 205.908 75.2192 206.395 76.625C206.638 77.3275 206.903 78.0196 207.197 78.6913C207.485 79.3576 207.815 80.005 208.186 80.6296C208.914 81.8626 209.839 82.948 210.976 83.6505C211.047 83.6935 211.12 83.7336 211.192 83.7757L211.3 83.8373L211.411 83.8924L211.635 84.0036L211.864 84.097C211.903 84.1129 211.94 84.1306 211.98 84.1446L212.098 84.1848C212.176 84.2119 212.254 84.2409 212.332 84.2661C212.494 84.3072 212.652 84.3595 212.816 84.3903L213.063 84.4426L213.312 84.4791L213.437 84.4977C213.478 84.5033 213.521 84.5052 213.563 84.509L213.816 84.5314C213.986 84.5398 214.158 84.5445 214.329 84.5463L214.587 84.5398C214.673 84.5398 214.76 84.5398 214.846 84.5276C215.02 84.5136 215.193 84.5061 215.367 84.4791L215.627 84.4464C215.714 84.4361 215.801 84.4165 215.888 84.4025L216.15 84.3558C216.237 84.3389 216.324 84.3175 216.411 84.2988L216.672 84.2399L216.953 84.1736C217.722 83.9868 218.497 83.8457 219.275 83.7308C222.387 83.289 225.523 83.3124 228.611 83.6524C230.152 83.8278 231.684 84.0869 233.197 84.4286C233.953 84.6005 234.707 84.7901 235.452 85.0059C236.197 85.2217 236.936 85.4664 237.666 85.7308C239.131 86.2531 240.552 86.8916 241.915 87.6401C243.286 88.3875 244.566 89.2909 245.729 90.3322C246.878 91.3887 247.888 92.6246 248.563 94.0407C248.898 94.7464 249.141 95.492 249.286 96.2592C249.427 97.021 249.466 97.7982 249.401 98.5702L249.233 98.5637C249.235 97.06 248.852 95.5808 248.12 94.2667C247.391 92.9692 246.376 91.852 245.225 90.9123C244.062 89.9735 242.796 89.1705 241.451 88.5191C240.106 87.8579 238.712 87.2999 237.282 86.8498C234.415 85.9514 231.456 85.374 228.461 85.1283C226.967 85.0021 225.467 84.9572 223.968 84.9938C222.479 85.0261 220.993 85.1593 219.522 85.3926C218.79 85.5094 218.065 85.6542 217.351 85.8326L216.782 85.9699C216.683 85.9923 216.585 86.0185 216.485 86.039L216.183 86.096C216.082 86.1138 215.982 86.1362 215.88 86.1502L215.574 86.1932C215.371 86.2259 215.162 86.2389 214.955 86.2586C214.109 86.3285 213.258 86.2734 212.428 86.0951C211.584 85.9132 210.777 85.5898 210.041 85.1385C209.322 84.6882 208.673 84.1356 208.114 83.4982C207.572 82.8829 207.092 82.2151 206.683 81.5048C206.281 80.8131 205.927 80.0953 205.621 79.3564C205.313 78.6278 205.045 77.8907 204.8 77.15C203.84 74.1804 203.248 71.166 202.59 68.2002C202.261 66.7178 201.92 65.2456 201.498 63.8145C201.39 63.4577 201.281 63.1027 201.159 62.7534C201.1 62.5787 201.037 62.4059 200.972 62.234L200.772 61.7072C200.498 61.0047 200.21 60.306 199.913 59.6185C198.706 56.8638 197.264 54.209 195.47 51.8158C194.586 50.621 193.601 49.5038 192.526 48.4763C191.449 47.4545 190.262 46.5533 188.988 45.7889C187.077 44.6434 184.966 43.8674 182.767 43.5012C182.032 43.3822 181.292 43.3052 180.548 43.2705C179.803 43.2346 179.056 43.2402 178.311 43.2873C177.562 43.3359 176.82 43.4106 176.08 43.5311C175.339 43.6516 174.602 43.7917 173.872 43.9748L173.598 44.0412L173.317 44.1047L172.749 44.2326L172.183 44.3606C172.09 44.3812 171.996 44.4045 171.902 44.4232L171.616 44.4718L170.472 44.6651C170.285 44.7016 170.09 44.7203 169.898 44.7436L169.323 44.8109L168.748 44.8781L168.604 44.8949L168.46 44.9052L168.171 44.9258L167.016 45.0061C166.631 45.0238 166.245 45.0276 165.86 45.0397L165.283 45.0537L164.704 45.0453C164.32 45.0379 163.935 45.0351 163.55 45.0238L162.397 44.9603C162.013 44.9444 161.631 44.9052 161.248 44.8669L160.673 44.8137C160.486 44.7969 160.291 44.7791 160.1 44.753L158.957 44.6091C158.77 44.5876 158.576 44.5559 158.387 44.526L157.818 44.4325L157.249 44.3391C157.062 44.3092 156.875 44.27 156.688 44.2354L155.557 44.0206C154.808 43.8562 154.059 43.703 153.31 43.5124C152.562 43.3378 151.827 43.1285 151.086 42.9286L149.985 42.6035L149.71 42.5223L149.435 42.4354L148.889 42.2607C147.43 41.7924 145.988 41.2796 144.562 40.7222C143.137 40.1649 141.733 39.5611 140.35 38.911C138.966 38.2618 137.597 37.5827 136.266 36.8242L136.343 36.6887Z" fill="#2D1716"/>
<path d="M217.349 115.781C217.198 115.703 210.556 112.396 205.73 124.4C200.848 136.543 203.291 197.813 202.14 204.38C200.476 213.862 177.478 195.038 177.478 195.038C177.478 195.038 152.237 181.997 150.407 177.546C149.084 174.327 149.628 169.419 148.43 166.991C149.167 166.937 149.717 166.912 149.854 166.958C149.854 166.958 150.884 167.985 150.884 170.645C150.884 173.304 149.259 176.25 156.5 180.233C162.291 183.416 186.612 198.173 196.132 203.959C197.718 204.924 199.732 203.69 199.587 201.842C198.356 186.176 195.343 133.517 208.479 113.562C208.594 113.388 208.709 113.219 208.827 113.05C212.129 113.013 215.022 113.844 217.349 115.781Z" fill="#F79071"/>
</svg>
