<svg width="494" height="639" viewBox="0 0 494 639" fill="none" xmlns="http://www.w3.org/2000/svg">
<g clip-path="url(#clip0_64_2531)">
<path d="M372.491 530.251C372.491 530.251 363.87 557.303 329.899 584.18C312.978 597.567 310.056 638.999 310.056 638.999H1.46143C1.46143 638.999 51.1405 560.08 51.1405 537.939C51.1405 537.515 51.1405 537.091 51.1405 536.638C71.1583 512.29 94.975 442.08 115.665 352.492V504.266C115.663 507.677 116.333 511.054 117.636 514.206C118.939 517.357 120.85 520.221 123.259 522.634C125.669 525.047 128.53 526.962 131.68 528.269C134.829 529.576 138.205 530.249 141.615 530.251H372.491Z" fill="#F7D2BA"/>
<path d="M405.615 38.5979V544.385C405.674 551.47 402.918 558.29 397.954 563.345C392.99 568.401 386.223 571.279 379.139 571.349H117.593C110.509 571.279 103.742 568.401 98.7783 563.345C93.8143 558.29 91.059 551.47 91.1174 544.385V38.5979C91.0846 35.0876 91.7435 31.6052 93.0563 28.3496C94.3691 25.094 96.3103 22.1289 98.7688 19.6236C101.227 17.1184 104.155 15.122 107.385 13.7486C110.615 12.3752 114.084 11.6516 117.593 11.6191H379.139C382.649 11.6516 386.117 12.3752 389.347 13.7486C392.577 15.122 395.505 17.1184 397.964 19.6236C400.422 22.1289 402.363 25.094 403.676 28.3496C404.989 31.6052 405.648 35.0876 405.615 38.5979Z" fill="#3F3F4C"/>
<path d="M389.075 63.9822V527.722C389.075 541.899 378.467 553.371 365.375 553.371H131.401C118.251 553.371 107.672 541.899 107.672 527.722V63.9822C107.672 35.0888 118.28 28.7168 131.401 28.7168H178.275C180.993 28.7168 183.214 31.8005 183.214 35.6296V37.281C183.214 46.2837 188.138 46.3129 194.187 46.3129H302.604C308.683 46.3129 313.578 46.3129 313.578 37.281V35.6296C313.578 31.8005 315.769 28.7168 318.516 28.7168H365.419C378.467 28.7168 389.075 37.5295 389.075 63.9822Z" fill="#FFE4B9"/>
<path d="M263.138 35.0892H233.565C233.08 35.0892 232.616 34.8968 232.273 34.5542C231.931 34.2116 231.738 33.7469 231.738 33.2624C231.738 32.7779 231.931 32.3132 232.273 31.9706C232.616 31.628 233.08 31.4355 233.565 31.4355H263.138C263.623 31.4355 264.087 31.628 264.43 31.9706C264.772 32.3132 264.965 32.7779 264.965 33.2624C264.965 33.7469 264.772 34.2116 264.43 34.5542C264.087 34.8968 263.623 35.0892 263.138 35.0892Z" fill="#DCEFFF"/>
<path d="M131.635 217.218C105.729 261.662 140.636 323.731 218.515 315.78C296.394 307.83 339.922 223.824 334.53 154.682C328.686 79.9714 301.684 50.3035 273.615 59.3061C245.546 68.3088 224.915 127.133 203.144 152.037C181.373 176.94 149.111 187.214 131.635 217.218Z" stroke="white" stroke-miterlimit="10"/>
<path d="M348.134 226.602C333.113 235.824 339.367 258.565 336.24 265.945C333.113 273.325 323.236 301.02 339.893 308.255C356.55 315.489 378.336 286.903 379.636 259.018C380.761 236.423 363.724 217.044 348.134 226.602Z" stroke="white" stroke-miterlimit="10"/>
<path d="M178.275 90.1294C184.295 96.6475 194.903 91.3716 198.848 92.1754C202.793 92.9792 217.449 95.0984 219.304 86.2418C221.16 77.3853 205.043 69.391 191.148 71.4225C179.956 73.074 172.051 83.392 178.275 90.1294Z" fill="white"/>
<path d="M141.994 104.774C128.099 116.465 131.313 160.938 146.188 161.552C161.062 162.166 175.323 137.598 172.693 118.57C170.56 103.137 153.932 94.7625 141.994 104.774Z" stroke="white" stroke-miterlimit="10"/>
<path d="M346.365 190.02C353.773 193.162 370.723 182.874 367.961 176.867C365.2 170.86 352.59 170.203 345.606 175.099C339.936 179.059 339.995 187.404 346.365 190.02Z" fill="white"/>
<path d="M340.126 552.087H170.852C166.776 549.164 147.225 346.662 168.719 326.114C184.952 310.607 200.864 291.038 207.659 282.459C209.85 279.653 211.107 278.002 211.107 278.002L245.079 301.868L261.253 278.017C262.505 280.482 263.905 282.869 265.447 285.163C275.675 300.479 293.998 317.316 301.508 324.623C310.202 333.085 317.201 348.606 320.065 367.239C322.929 385.873 340.126 552.087 340.126 552.087Z" fill="#A7CBD0"/>
<path d="M231.943 552.086H170.852C166.776 549.163 147.225 346.662 168.719 326.113C184.952 310.607 200.864 291.038 207.659 282.459C207.498 295.159 209.602 426.926 231.943 552.086Z" fill="white"/>
<path d="M340.127 552.087H294.656C283.595 494.504 265.433 285.148 265.433 285.148C275.661 300.465 293.983 317.301 301.494 324.608C310.188 333.07 317.186 348.591 320.05 367.225C322.914 385.859 340.127 552.087 340.127 552.087Z" fill="white"/>
<path d="M199.111 292.908L176.916 381.415H201.39L186.413 400.063L226.61 519.7" stroke="#D5EEEF" stroke-miterlimit="10"/>
<path d="M274.097 296.475L306.009 376.724H282.338L299.433 393.4L289.629 519.7" stroke="#D5EEEF" stroke-miterlimit="10"/>
<path d="M250.967 301.867C251.975 303.226 255.19 311.922 255.877 314.363C256.563 316.803 252.954 328.51 251.698 329.416C250.441 330.322 239.351 331.228 237.89 330.497C236.429 329.766 230.935 320.998 230.204 318.075C229.474 315.152 234.047 302.846 234.968 301.867C235.888 300.888 249.667 300.113 250.967 301.867Z" fill="#3F3F4C"/>
<path d="M237.89 330.497C236.093 335.144 227.487 452.851 228.027 458.99C228.568 465.128 256.461 525.794 257.674 526.144C258.887 526.495 273.747 461.723 274.097 453.641C274.448 445.559 252.37 330.804 251.698 329.415C251.026 328.027 238.796 328.115 237.89 330.497Z" fill="#3F3F4C"/>
<path d="M294.67 437.053C299.682 439.742 305.789 445.252 310.743 450.966C314.354 454.871 317.345 459.307 319.612 464.119C321.606 463.96 323.57 463.542 325.456 462.877C327.397 462.355 329.164 461.328 330.578 459.901C331.992 458.473 333.003 456.696 333.507 454.751L345.313 456.68C349.916 454.167 343.019 447.546 343.019 447.546C342.829 444.623 337.014 441.54 337.014 441.54C336.006 438.617 328.744 436.702 328.744 436.702C328.744 436.702 326.245 434.086 318.078 433.501C312.964 433.019 302.063 435.284 294.67 437.053Z" fill="#F7D2BA"/>
<path d="M319.013 468.402C312.584 470.667 184.003 553.269 152.179 561.103C132.862 565.926 99.0806 524.376 99.0806 502.337C99.0806 495.629 101.769 481.584 106.05 464.339V464.105C117.243 418.799 139.174 351.352 152.062 334.297C170.107 310.387 190.607 300.493 199.885 291.914C198.789 293.259 181.08 315.605 167.404 380.494C159.061 420.071 164.905 469.147 168.558 467.992C201.785 457.528 281.432 433.867 290.462 435.518C291.92 435.823 293.323 436.346 294.626 437.068C299.162 439.743 303.29 443.055 306.885 446.903V446.903C308.171 448.204 309.413 449.563 310.582 450.922C314.193 454.827 317.185 459.263 319.451 464.076C320.386 466.312 320.342 467.89 319.013 468.402Z" fill="white"/>
<path d="M168.397 467.788L166.235 468.533C165.607 450.777 165.183 432.859 165.709 415C165.763 414.97 165.809 414.928 165.845 414.877C165.88 414.826 165.904 414.768 165.914 414.707C167.518 407.967 168.703 401.134 169.464 394.247C169.464 393.852 168.909 393.867 168.865 394.247C168.142 398.77 167.167 403.249 165.943 407.663C166.337 398.69 167.009 389.745 168.032 380.845C168.032 380.494 167.521 380.494 167.477 380.845C163.912 410.177 161.822 439.421 164.555 468.943V469.103C154.67 472.548 145.437 477.637 137.246 484.157C128.83 491.201 121.904 500.993 116.556 510.536C116.351 510.902 116.877 511.34 117.155 511.004C124.095 502.776 130.086 494.022 138.181 486.802C146.948 478.954 158.242 473.649 168.646 468.285C168.712 468.252 168.762 468.194 168.785 468.124C168.808 468.055 168.803 467.978 168.77 467.912C168.737 467.846 168.679 467.796 168.609 467.773C168.54 467.75 168.463 467.755 168.397 467.788V467.788Z" fill="#D5EEEF"/>
<path d="M296.38 437.871C295.357 437.272 293.107 435.328 290.783 435.124C287.029 435.006 283.279 435.464 279.664 436.483C279.629 436.486 279.596 436.496 279.566 436.514C279.536 436.531 279.51 436.555 279.491 436.584C279.471 436.613 279.458 436.646 279.453 436.68C279.448 436.714 279.45 436.75 279.46 436.783C279.47 436.816 279.487 436.847 279.511 436.873C279.534 436.898 279.563 436.919 279.595 436.932C279.627 436.945 279.662 436.951 279.696 436.949C279.731 436.947 279.765 436.938 279.796 436.921C283.309 436.173 286.904 435.883 290.491 436.059C292.487 436.332 294.387 437.085 296.029 438.251C296.307 438.412 296.613 438.003 296.38 437.871Z" fill="#D5EEEF"/>
<path d="M227.559 522.463C218.193 526.745 209.149 532.181 200.192 537.282C191.601 542.154 182.985 546.981 174.344 551.765C174.326 551.781 174.313 551.803 174.307 551.827C174.302 551.851 174.304 551.877 174.314 551.899C174.323 551.922 174.34 551.941 174.361 551.954C174.383 551.967 174.407 551.972 174.432 551.97C183.55 549.047 192.229 543.975 200.601 539.372C209.987 534.418 219.103 528.969 227.91 523.047C227.988 523.001 228.043 522.925 228.065 522.838C228.087 522.75 228.073 522.657 228.027 522.58C227.98 522.502 227.905 522.446 227.817 522.424C227.73 522.402 227.637 522.416 227.559 522.463V522.463Z" fill="#D5EEEF"/>
<path d="M394.569 480.168C394.101 494.914 380.863 530.559 360.29 536.58C351.933 539.007 262.715 511.092 210.552 494.198C189.044 487.256 173.833 482.199 173.176 481.936C172.518 481.673 171.437 478.867 170.794 474.76C169.114 464.428 169.625 445.911 182.264 437.624C183.335 436.928 184.458 436.318 185.625 435.797C188.927 434.336 302.736 445.034 329.738 453.598C329.738 453.598 322.943 401.175 317.449 383.783C303.802 340.582 271.452 293.45 270.444 291.988C277.239 297.25 302.02 313.311 312.54 323.79C324.843 336.052 344.408 369.3 361.342 402.154C379.636 437.624 394.817 472.524 394.569 480.168Z" fill="white"/>
<path d="M329.796 452.75C329.606 452.75 329.256 453.568 329.431 453.642C334.522 455.866 339.432 458.485 344.116 461.475C348.475 464.221 352.509 467.452 356.141 471.106C363.405 478.687 369.523 487.289 374.303 496.638C374.493 496.989 375.107 496.755 374.975 496.36C368.268 476.601 351.071 456.842 329.796 452.75Z" fill="#D5EEEF"/>
<path d="M328.876 437.535C328.145 431.923 327.254 426.34 326.275 420.758C324.317 409.533 321.146 398.835 318.268 387.801C318.25 387.737 318.208 387.683 318.151 387.65C318.093 387.617 318.025 387.609 317.961 387.626C317.897 387.643 317.843 387.686 317.81 387.743C317.777 387.801 317.768 387.869 317.786 387.933C319.349 394.276 320.547 400.779 321.658 407.268C320.562 404.623 319.422 401.978 318.414 399.303C318.282 398.952 317.698 399.099 317.844 399.464C319.495 403.951 320.869 408.569 322.637 413.012C323.06 415.584 323.484 418.127 323.937 420.67C324.911 426.019 325.749 431.378 326.45 436.746C327.21 442.227 327.502 448.116 329.226 453.392C329.25 453.469 329.299 453.534 329.366 453.577C329.433 453.621 329.513 453.638 329.592 453.628C329.672 453.617 329.744 453.579 329.798 453.52C329.851 453.461 329.882 453.384 329.884 453.305C330.483 448.16 329.548 442.665 328.876 437.535Z" fill="#D5EEEF"/>
<path d="M338.271 532.311C321.658 529.067 305.95 522.286 289.279 519.158C289.251 519.158 289.225 519.169 289.206 519.188C289.187 519.207 289.176 519.233 289.176 519.261C289.176 519.288 289.187 519.314 289.206 519.333C289.225 519.352 289.251 519.363 289.279 519.363C297.286 521.774 304.986 524.975 312.949 527.489C321.216 529.841 329.612 531.71 338.096 533.086C338.563 533.203 338.797 532.414 338.271 532.311Z" fill="#D5EEEF"/>
<path d="M253.217 507.833C246.379 506.123 187.1 485.224 172.854 482.316C171.316 477.854 170.435 473.192 170.239 468.476C170.239 467.482 169.318 467.204 169.362 468.213C169.596 473.123 170.487 482.126 172.401 483.105C178.889 486.423 245.911 507.395 252.983 508.491C253.466 508.55 253.656 507.95 253.217 507.833Z" fill="#D5EEEF"/>
<path d="M309.793 448.92C301.231 445.997 266.587 441.612 257.834 441.963C257.659 441.963 257.615 442.226 257.834 442.255C266.82 443.965 301.055 448.598 309.734 449.665C310.144 449.724 310.187 449.007 309.793 448.92Z" fill="#D5EEEF"/>
<path d="M216.513 437.725C211.662 436.527 190.3 434.569 186.984 435.065C185.014 435.44 183.202 436.397 181.782 437.813C181.607 438.003 181.782 438.135 181.986 437.974C183.454 437.013 185.106 436.371 186.837 436.089C186.837 436.089 210.347 437.36 216.309 438.178C216.908 438.266 217.142 437.886 216.513 437.725Z" fill="#D5EEEF"/>
<path d="M127.193 471.821C127.193 471.821 126.083 475.431 127.383 476.863C129.045 478.201 130.878 479.312 132.833 480.166C132.833 480.166 152.544 474.174 156.285 472.859C156.621 472.61 162.129 470.783 170.735 468.036C169.625 450.644 178.041 441.729 183.491 437.871C179.195 438.441 161.691 440.794 151.127 443.015C148.662 443.448 146.241 444.103 143.894 444.974C137.845 447.634 124.505 466.56 124.987 468.679C125.316 469.96 126.1 471.077 127.193 471.821Z" fill="#F7D2BA"/>
<path d="M271.496 285.323C267.741 269.642 241.835 270.709 229.781 272.258C214.424 274.245 202.019 279.097 199.213 295.364C196.408 311.63 198.118 328.758 200.178 344.849C200.558 347.845 195.911 348.532 195.517 345.521C193.135 326.975 186.881 292.309 201.873 277.782C216.864 263.255 269.787 258.082 276.157 284.651C276.859 287.574 272.198 288.246 271.496 285.323V285.323Z" fill="#3F3F4C"/>
<path d="M188.386 355.475C188.691 357.592 189.617 359.571 191.046 361.162C192.476 362.752 194.345 363.883 196.417 364.412C198.489 364.94 200.671 364.842 202.688 364.13C204.704 363.418 206.464 362.124 207.745 360.411C209.026 358.699 209.771 356.644 209.885 354.509C209.999 352.373 209.477 350.251 208.386 348.412C207.294 346.572 205.682 345.098 203.753 344.175C201.823 343.253 199.664 342.923 197.547 343.228C196.142 343.43 194.79 343.907 193.569 344.632C192.348 345.357 191.281 346.316 190.43 347.453C189.58 348.59 188.961 349.884 188.611 351.26C188.26 352.637 188.183 354.069 188.386 355.475V355.475Z" fill="#60AABF"/>
<path d="M192.667 354.861C192.851 356.137 193.408 357.33 194.27 358.289C195.131 359.247 196.257 359.929 197.506 360.248C198.755 360.567 200.07 360.508 201.286 360.079C202.501 359.65 203.562 358.87 204.334 357.838C205.107 356.806 205.556 355.568 205.625 354.281C205.694 352.994 205.379 351.715 204.722 350.606C204.064 349.498 203.093 348.609 201.93 348.052C200.767 347.496 199.466 347.297 198.19 347.48C197.343 347.602 196.528 347.89 195.792 348.327C195.056 348.763 194.413 349.341 193.9 350.026C193.387 350.712 193.014 351.491 192.803 352.321C192.591 353.15 192.545 354.013 192.667 354.861V354.861Z" fill="#D5EEEF"/>
<path d="M270.956 338.257C273.133 384.951 278.159 394.933 283.361 398.777C287.148 401.386 291.481 403.096 296.029 403.775L296.453 400.516L296.233 402.138L296.453 400.516C292.46 399.907 288.655 398.409 285.319 396.132C281.607 393.355 276.42 384.323 274.287 338.082L270.956 338.257Z" fill="#D5EEEF"/>
<path d="M291.554 399.216L290.805 402.881C290.625 403.759 291.191 404.616 292.068 404.796L300.028 406.424C300.905 406.604 301.762 406.038 301.942 405.16L302.691 401.494C302.871 400.617 302.305 399.76 301.427 399.58L293.468 397.952C292.591 397.772 291.734 398.338 291.554 399.216Z" fill="#60AABF"/>
<path d="M299.434 330.512C318.166 360.34 325.807 377.483 323.47 384.469C322.024 388.241 319.752 391.642 316.821 394.422L319.013 396.848C322.379 393.704 324.97 389.822 326.582 385.507C329.358 377.191 322.301 360.749 302.21 328.758L299.434 330.512Z" fill="#D5EEEF"/>
<path d="M312.209 398.848L314.915 401.431C315.563 402.049 316.59 402.025 317.208 401.377L322.817 395.499C323.435 394.85 323.411 393.824 322.763 393.205L320.057 390.622C319.409 390.003 318.382 390.028 317.764 390.676L312.155 396.554C311.537 397.202 311.561 398.229 312.209 398.848Z" fill="#60AABF"/>
<path d="M302.867 327.064C299.201 320.323 295.126 313.812 290.667 307.568C288.341 304.909 285.343 302.926 281.988 301.824C281.345 301.956 279.898 296.402 278.817 291.828C277.867 287.794 276.844 283.059 275.5 282.094C274.767 281.674 273.898 281.556 273.08 281.766C272.261 281.976 271.557 282.498 271.117 283.219C270.401 284.681 271.789 289.358 272.885 293.347C274.141 297.878 275.544 303.446 274.916 303.578C272.737 306.245 271.234 309.399 270.532 312.77C269.66 320.596 269.382 328.476 269.699 336.344C270.152 341.284 271.847 341.372 273.308 341.415C275.383 341.415 276.231 339.822 276.041 334.24C275.836 325.398 274.58 310.856 280.161 309.117C285.933 307.933 292.727 321.671 297.052 329.168C299.755 333.86 300.968 334.006 302.765 332.968C303.949 332.267 305.161 331.258 302.867 327.064Z" fill="#60AABF"/>
<path d="M260.844 276.423L245.02 301.867L211.034 278.016C212.261 274.713 212.714 262.261 212.846 248.552C213.021 228.253 212.436 205.234 212.436 205.234H259.851C259.851 205.234 259.266 228.253 259.456 248.552C259.558 260.595 259.982 271.688 260.844 276.423Z" fill="#F7D2BA"/>
<path d="M259.442 248.539C255.979 252.923 248.366 259.441 241.908 259.441C235.45 259.441 219.991 253.595 212.875 248.539C213.05 228.239 212.466 205.221 212.466 205.221H259.88C259.88 205.221 259.266 228.239 259.442 248.539Z" fill="#DBAE95"/>
<path d="M286.02 162.325C286.02 162.325 293.019 152.431 300.412 156.128C309.515 160.703 302.502 193.308 290.082 194.126C288.635 194.314 287.166 194.041 285.884 193.345C284.601 192.65 283.57 191.568 282.937 190.254L286.02 162.325Z" fill="#F7D2BA"/>
<path d="M299.024 160.777C299.127 160.689 299.244 160.777 299.185 160.923C292.844 170.408 288.636 180.069 284.018 190.372C283.968 190.495 283.875 190.596 283.756 190.657C283.637 190.717 283.501 190.733 283.372 190.701C283.242 190.669 283.129 190.592 283.052 190.483C282.974 190.374 282.939 190.242 282.952 190.109C284.281 179.075 291.003 168.201 299.024 160.777Z" fill="#DBAE95"/>
<path d="M290.141 159.753C289.498 180.842 287.73 198.438 285.158 204.343C280.205 215.728 262.087 237.957 242.785 237.957C223.483 237.957 196.291 219.337 191.309 207.953C188.752 202.107 186.925 181.018 186.341 160.031C185.712 140.345 186.063 120.717 187.67 113.658C190.958 99.0435 216.513 84.0488 238.212 84.0488C258.872 84.0488 285.48 99.0728 288.782 113.658C290.389 120.688 290.754 140.155 290.141 159.753Z" fill="#F7D2BA"/>
<path d="M224.301 171.328C224.304 172.126 224.07 172.907 223.629 173.573C223.187 174.238 222.559 174.757 221.822 175.065C221.085 175.372 220.274 175.454 219.491 175.3C218.708 175.146 217.988 174.763 217.422 174.2C216.857 173.636 216.471 172.917 216.314 172.135C216.158 171.352 216.237 170.54 216.541 169.802C216.846 169.064 217.363 168.433 218.027 167.989C218.69 167.546 219.47 167.309 220.269 167.309C221.336 167.309 222.359 167.732 223.115 168.485C223.871 169.238 224.297 170.26 224.301 171.328V171.328Z" fill="#3F3F4C"/>
<path d="M268.545 171.328C268.548 172.126 268.314 172.907 267.872 173.573C267.431 174.238 266.802 174.757 266.066 175.065C265.329 175.372 264.518 175.454 263.734 175.3C262.951 175.146 262.231 174.763 261.666 174.2C261.1 173.636 260.715 172.917 260.558 172.135C260.401 171.352 260.48 170.54 260.785 169.802C261.09 169.064 261.607 168.433 262.27 167.989C262.934 167.546 263.714 167.309 264.512 167.309C265.579 167.309 266.603 167.732 267.359 168.485C268.115 169.238 268.541 170.26 268.545 171.328V171.328Z" fill="#3F3F4C"/>
<path d="M226.084 195.122C227.424 195.687 228.795 196.175 230.19 196.584C231.558 197.03 232.948 197.406 234.354 197.709C237.16 198.311 240.018 198.639 242.887 198.688C244.348 198.761 245.736 198.6 247.168 198.542C248.6 198.483 250.003 198.191 251.391 197.84C254.213 197.206 256.964 196.29 259.603 195.107C258.989 195.487 258.361 195.882 257.732 196.247C257.11 196.639 256.461 196.986 255.789 197.285L253.758 198.162C253.071 198.44 252.297 198.615 251.639 198.834C250.206 199.27 248.74 199.592 247.256 199.799C245.801 199.964 244.337 200.038 242.873 200.018C239.904 199.986 236.953 199.543 234.106 198.703C231.27 197.912 228.566 196.705 226.084 195.122V195.122Z" fill="#3F3F4C"/>
<path d="M234.266 204.343C237.045 205.26 239.946 205.753 242.872 205.804C244.308 205.841 245.743 205.723 247.153 205.453C248.606 205.169 250.036 204.784 251.435 204.299C250.246 205.27 248.882 206.004 247.416 206.462C246.682 206.707 245.93 206.893 245.166 207.017C244.395 207.105 243.619 207.149 242.843 207.149C241.3 207.121 239.77 206.87 238.299 206.403C236.844 205.959 235.479 205.261 234.266 204.343V204.343Z" fill="#DBAE95"/>
<path d="M227.837 148.353C224.403 145.255 217.93 145.211 213.489 146.892C210.04 148.222 206.285 151.276 208.053 154.287C209.397 156.523 214.76 155.105 217.478 154.652C220.677 154.111 223.994 154.374 227.077 153.191C227.521 152.991 227.908 152.685 228.203 152.298C228.498 151.912 228.692 151.458 228.767 150.978C228.843 150.497 228.797 150.006 228.635 149.548C228.472 149.089 228.198 148.679 227.837 148.353Z" fill="#3F3F4C"/>
<path d="M257.06 148.353C260.494 145.255 266.967 145.211 271.394 146.892C274.842 148.222 278.598 151.276 276.83 154.287C275.5 156.523 270.123 155.105 267.405 154.652C264.205 154.111 260.903 154.374 257.805 153.191C257.363 152.99 256.978 152.682 256.684 152.295C256.39 151.908 256.198 151.454 256.124 150.974C256.05 150.493 256.097 150.002 256.26 149.545C256.424 149.087 256.699 148.678 257.06 148.353V148.353Z" fill="#3F3F4C"/>
<path style="mix-blend-mode:multiply" opacity="0.5" d="M249.067 183.589C248.62 184.414 247.978 185.116 247.197 185.635C246.279 186.407 245.167 186.912 243.983 187.097C242.794 186.91 241.679 186.405 240.754 185.635C239.975 185.111 239.338 184.404 238.898 183.575C238.197 181.982 242.989 143.969 243.983 143.969C244.976 143.94 249.754 181.982 249.067 183.589Z" fill="url(#paint0_linear_64_2531)"/>
<path d="M186.37 162.018C184.222 160.22 181.183 127.6 182.556 115.251C183.929 102.901 197.767 93.5334 210.318 87.7167C210.318 87.7167 212.656 76.478 225.967 70.8075C238.05 65.6631 251.215 78.3633 255.19 79.8686C259.164 81.3739 267.273 79.5325 272.139 81.5493C277.005 83.5661 280.731 87.3952 280.205 92.6419C280.205 92.6419 291.353 101.776 294.962 111.773C300.412 126.884 290.403 161.463 290.097 162.661C289.936 163.231 288.109 162.15 288.124 161.346C288.139 160.542 288.606 124.619 286.531 118.554C283.609 110.033 275.383 103.603 275.383 103.603C275.383 103.603 258.93 122.748 235.932 120.512C217.711 118.729 212.057 102.492 212.057 102.492C212.057 102.492 200.484 111.919 197.168 120.03C194.45 126.621 188.722 160.878 188.737 161.243C188.751 161.609 186.925 162.559 186.37 162.018Z" fill="#3F3F4C"/>
<path d="M263.372 118.117C252.983 122.253 242.814 125.088 230.788 121.04C221.51 117.912 215.68 109.202 211.37 100.711C211.107 100.185 210.318 100.55 210.449 101.091C216.674 125.936 242.434 129.151 263.372 118.775C263.927 118.511 263.957 117.883 263.372 118.117Z" fill="#3F3F4C"/>
<path d="M298.966 119.928C297.183 107.243 290.272 98.7806 280.088 92.1602C291.105 100.651 298.25 110.019 298.206 125.014C298.206 137.451 294.714 150.224 290.068 161.668C289.936 161.975 290.447 162.121 290.564 161.799C295.474 149.158 300.895 133.783 298.966 119.928Z" fill="#3F3F4C"/>
<path d="M259.982 81.8273C250.017 76.2737 244.041 67.1249 231.329 68.4402C220.823 69.5217 213.182 77.3406 210.654 87.3079C210.654 87.3079 210.654 87.3955 210.727 87.3079C215.505 76.8145 223.132 68.4549 235.669 69.5071C245.751 70.3548 251.215 78.1006 259.485 82.6604C259.982 82.9527 260.508 82.1781 259.982 81.8273Z" fill="#3F3F4C"/>
<path d="M189.044 162.325C189.044 162.325 182.045 152.431 174.651 156.128C165.548 160.703 172.562 193.308 184.982 194.126C186.428 194.314 187.897 194.041 189.18 193.345C190.463 192.65 191.494 191.568 192.127 190.254L189.044 162.325Z" fill="#F7D2BA"/>
<path d="M176.039 160.777C175.952 160.689 175.82 160.777 175.879 160.923C182.22 170.408 186.428 180.069 191.045 190.372C191.096 190.495 191.189 190.596 191.308 190.657C191.426 190.717 191.563 190.733 191.692 190.701C191.822 190.669 191.935 190.592 192.012 190.483C192.089 190.374 192.125 190.242 192.112 190.109C190.782 179.075 184.003 168.201 176.039 160.777Z" fill="#DBAE95"/>
<path d="M211.034 278.002L245.02 301.868L215.417 326.421L211.034 278.002Z" fill="#A7CBD0"/>
<path d="M266.733 318.076L245.021 301.868L260.845 276.424L260.859 276.453L261.137 277.666L261.152 277.725L266.733 318.076Z" fill="#A7CBD0"/>
<path d="M329.066 206.199V215.012H317.99V226.09H309.194V215.012H298.119V206.199H309.194V195.121H317.99V206.199H329.066Z" stroke="#FFC400" stroke-miterlimit="10"/>
<path d="M164.087 295.904V304.717H153.012V315.795H144.201V304.717H133.125V295.904H144.201V284.826H153.012V295.904H164.087Z" stroke="#FFC400" stroke-miterlimit="10"/>
<path d="M174.213 70.6483V79.461H163.137V90.5389H154.326V79.461H143.251V70.6483H154.326V59.5703H163.137V70.6483H174.213Z" stroke="#FFC400" stroke-miterlimit="10"/>
<path d="M113.867 365.382C95.1501 446.552 69.2293 515.914 51.0379 537.938C49.9713 516.469 14.9476 461.62 24.2697 412.149C31.8531 371.871 72.4876 291.256 68.5425 238.117C64.5974 184.978 111.12 236.042 117.053 283.539C124.095 339.762 113.867 365.382 113.867 365.382Z" fill="#F7D2BA"/>
<path d="M82.1023 231.249C81.5762 229.334 71.8742 230.226 68.499 231.38C68.0606 231.541 68.0752 231.935 68.499 231.935C71.7866 231.935 79.706 231.468 80.0421 232.915C80.4512 234.683 79.4868 268.341 72.9847 268.604C70.0624 268.721 68.4551 262.48 68.1337 261.209C67.973 260.551 67.5785 260.288 67.6515 260.99C68.0314 264.804 69.6971 272.272 74.0659 271.088C78.8147 269.788 80.3489 260.405 80.9626 255.699C81.4886 251.987 83.0666 234.727 82.1023 231.249Z" fill="#FFE7D9"/>
<path d="M455.776 364.71C481.463 386.136 482.764 416.388 470.651 433.4C442.042 473.678 407.734 534.797 395.153 521.015C387.044 512.115 397.097 456.856 426.846 421.313C433.83 412.968 396.907 338.623 396.907 338.623C396.907 338.623 429.476 342.803 455.776 364.71Z" fill="#F7D2BA"/>
<path d="M402.707 504.997C402.152 506.62 410.379 511.735 413.739 512.977C414.177 513.138 414.367 512.846 414.002 512.582C411.343 510.653 404.724 506.254 405.235 505.071C405.834 503.609 424.011 481.146 429.373 484.829C431.799 486.481 429.856 491.713 429.461 492.765C429.257 493.306 429.461 493.729 429.739 493.203C431.404 490.353 433.932 484.259 429.739 482.476C425.253 480.547 419.16 486.071 416.238 488.921C413.944 491.172 403.73 502.045 402.707 504.997Z" fill="#FFE7D9"/>
<path d="M444.555 286.462C473.281 305.462 497.667 318.439 492.29 352.726C488.389 377.571 427.708 421.064 405.6 442.986C395.08 453.421 386.123 423.665 410.948 389.262C435.189 355.649 446.527 344.293 446.527 344.293L405.615 271.848C405.615 271.848 423.894 272.841 444.555 286.462Z" fill="#F7D2BA"/>
<path d="M400.574 428.358C399.712 429.82 406.843 436.426 409.896 438.267C410.305 438.501 410.554 438.267 410.232 437.931C407.982 435.534 402.328 429.981 403.014 428.899C403.876 427.569 425.954 408.95 430.542 413.568C432.603 415.658 429.724 420.408 429.081 421.373C428.774 421.869 428.877 422.308 429.271 421.855C431.434 419.385 435.116 413.875 431.331 411.347C427.284 408.599 420.27 412.808 416.866 415.117C414.207 416.857 402.138 425.625 400.574 428.358Z" fill="#FFE7D9"/>
<path d="M405.674 203.305C405.674 203.305 474.508 228.486 480.85 277.153C484.094 302.115 448.705 333.873 409.677 401.378C396.22 424.659 381.755 399.171 393.897 353.983C400.881 327.968 442.422 266.455 442.422 266.455L405.674 203.305Z" fill="#F7D2BA"/>
<path d="M398.514 393.473C398.149 395.153 406.959 399.216 410.437 400.02C410.89 400.137 411.051 399.83 410.641 399.611C407.719 398.018 400.662 394.467 400.998 393.239C401.407 391.777 416.676 367.181 422.462 370.177C425.063 371.521 423.792 376.943 423.514 378.04C423.383 378.595 423.616 378.99 423.85 378.434C425.151 375.409 426.904 369.052 422.579 367.795C417.874 366.435 412.526 372.661 409.969 375.847C407.953 378.39 399.171 390.433 398.514 393.473Z" fill="#FFE7D9"/>
<path d="M462.045 219.28C462.045 219.967 464.412 239.989 449.406 263.563C428.73 296.051 405.673 345.098 396.22 342.789C371.804 336.812 405.673 225.871 405.673 225.871V137.102C405.673 137.102 462.045 174.954 462.045 219.28Z" fill="#F7D2BA"/>
<path d="M394.993 327.91C394.642 329.591 403.453 333.654 406.916 334.458C407.383 334.575 407.544 334.268 407.135 334.048C404.212 332.455 397.155 328.919 397.491 327.676C397.9 326.215 413.169 301.618 418.955 304.614C421.556 305.959 420.27 311.381 420.007 312.477C419.876 313.047 420.11 313.427 420.344 312.872C421.644 309.846 423.397 303.489 419.072 302.232C414.367 300.873 409.005 307.099 406.463 310.285C404.446 312.813 395.65 324.856 394.993 327.91Z" fill="#FFE7D9"/>
<path d="M482.505 84.2452C487.581 49.1443 463.247 16.5738 428.154 11.4969C393.061 6.42005 360.498 30.7593 355.422 65.8602C350.346 100.961 374.68 133.532 409.773 138.609C444.866 143.685 477.43 119.346 482.505 84.2452Z" stroke="white" stroke-width="2" stroke-miterlimit="10"/>
<path d="M470.985 127.07C499.715 98.3329 499.715 51.7413 470.985 23.0045C442.255 -5.73227 395.673 -5.73227 366.943 23.0045C338.212 51.7413 338.212 98.3329 366.943 127.07C395.673 155.806 442.255 155.806 470.985 127.07Z" stroke="white" stroke-width="2" stroke-linecap="round" stroke-linejoin="round" stroke-dasharray="2.01 7.03"/>
<path d="M443.065 61.2505L401.115 103.209C396.559 107.741 390.393 110.281 383.968 110.273C377.542 110.264 371.383 107.707 366.839 103.163C362.296 98.6184 359.74 92.4574 359.731 86.0307C359.722 79.604 362.262 73.4362 366.793 68.8794L408.742 26.9205C410.994 24.6563 413.67 22.8586 416.617 21.6305C419.564 20.4024 422.724 19.768 425.917 19.7637C429.11 19.7593 432.272 20.3851 435.223 21.6052C438.173 22.8252 440.854 24.6156 443.112 26.8737C445.369 29.1318 447.159 31.8132 448.379 34.7644C449.599 37.7155 450.224 40.8784 450.22 44.0718C450.216 47.2652 449.581 50.4264 448.353 53.3742C447.126 56.3221 445.328 58.9986 443.065 61.2505V61.2505Z" fill="white"/>
<path d="M443.064 61.2505L422.082 82.1788L387.76 47.9073L408.742 26.9205C410.993 24.6563 413.669 22.8586 416.616 21.6305C419.564 20.4024 422.724 19.768 425.917 19.7637C429.109 19.7593 432.272 20.3851 435.222 21.6052C438.173 22.8252 440.854 24.6156 443.111 26.8737C445.369 29.1318 447.159 31.8132 448.378 34.7644C449.598 37.7155 450.224 40.8784 450.219 44.0718C450.215 47.2652 449.581 50.4264 448.353 53.3742C447.125 56.3221 445.328 58.9986 443.064 61.2505V61.2505Z" fill="#EE6F14"/>
<path d="M469.161 68.5566C469.862 69.2582 470.505 70.0181 471.119 70.705C476.032 76.6634 478.55 84.2394 478.18 91.9543C477.81 99.6692 474.579 106.969 469.117 112.43C463.656 117.891 456.357 121.12 448.643 121.487C440.93 121.855 433.357 119.334 427.401 114.418C426.67 113.818 425.94 113.161 425.253 112.474C424.566 111.787 423.909 111.012 423.31 110.326C418.394 104.369 415.874 96.7936 416.242 89.0786C416.609 81.3636 419.838 74.0623 425.297 68.5999C430.757 63.1374 438.055 59.9058 445.768 59.5357C453.481 59.1656 461.056 61.6836 467.013 66.5983C467.743 67.2121 468.459 67.8551 469.161 68.5566Z" fill="white"/>
<path d="M469.16 68.558C469.862 69.2595 470.505 70.0195 471.118 70.7064L427.401 114.419C426.67 113.82 425.94 113.162 425.253 112.475C424.566 111.788 423.909 111.014 423.31 110.327L467.013 66.5996C467.743 67.2134 468.459 67.8565 469.16 68.558Z" fill="#D5EEEF"/>
<path d="M407.281 242.283H348.353C344.358 242.283 341.12 245.522 341.12 249.517V331.769C341.12 335.765 344.358 339.004 348.353 339.004H407.281C411.275 339.004 414.514 335.765 414.514 331.769V249.517C414.514 245.522 411.275 242.283 407.281 242.283Z" fill="#FFD694"/>
<path d="M390.785 237.27H364.849C363.268 237.27 361.985 238.552 361.985 240.134V245.629C361.985 247.211 363.268 248.494 364.849 248.494H390.785C392.366 248.494 393.648 247.211 393.648 245.629V240.134C393.648 238.552 392.366 237.27 390.785 237.27Z" fill="#F79C0A"/>
<path d="M386.854 232.914H368.75C367.532 232.914 366.544 233.902 366.544 235.121V239.418C366.544 240.636 367.532 241.624 368.75 241.624H386.854C388.072 241.624 389.06 240.636 389.06 239.418V235.121C389.06 233.902 388.072 232.914 386.854 232.914Z" fill="#F79C0A"/>
<path d="M405.644 251.197H349.989V330.073H405.644V251.197Z" fill="white"/>
<path d="M397.667 261.852H357.953V263.225H397.667V261.852Z" fill="#3F3F4C"/>
<path d="M397.667 268.268H357.953V269.641H397.667V268.268Z" fill="#3F3F4C"/>
<path d="M397.667 274.67H357.953V276.044H397.667V274.67Z" fill="#3F3F4C"/>
<path d="M380.279 281.086H357.953V282.46H380.279V281.086Z" fill="#3F3F4C"/>
<path d="M397.667 293.902H357.953V295.276H397.667V293.902Z" fill="#3F3F4C"/>
<path d="M397.667 300.303H357.953V301.677H397.667V300.303Z" fill="#3F3F4C"/>
<path d="M397.667 306.719H357.953V308.093H397.667V306.719Z" fill="#3F3F4C"/>
<path d="M397.667 313.121H357.953V314.495H397.667V313.121Z" fill="#3F3F4C"/>
<path d="M397.667 319.537H357.953V320.911H397.667V319.537Z" fill="#3F3F4C"/>
<path d="M377.795 352.141C413.253 352.141 441.998 323.39 441.998 287.924C441.998 252.458 413.253 223.707 377.795 223.707C342.336 223.707 313.592 252.458 313.592 287.924C313.592 323.39 342.336 352.141 377.795 352.141Z" stroke="white" stroke-width="2" stroke-miterlimit="10"/>
<path d="M377.795 361.51C418.426 361.51 451.364 328.565 451.364 287.925C451.364 247.285 418.426 214.34 377.795 214.34C337.164 214.34 304.226 247.285 304.226 287.925C304.226 328.565 337.164 361.51 377.795 361.51Z" stroke="white" stroke-width="2" stroke-linecap="round" stroke-linejoin="round" stroke-dasharray="2.01 7.03"/>
<path d="M115.943 161.522C105.005 176.162 91.0536 188.282 75.0304 197.065C59.0084 188.28 45.0571 176.16 34.1182 161.522C19.6967 142.435 20.4126 112.548 41.0441 106.088C63.8526 98.9417 75.0596 133.272 75.0596 133.272C75.0596 133.272 86.442 98.7078 109.104 106.088C129.575 112.767 130.35 142.435 115.943 161.522Z" fill="#EE6F14"/>
<path d="M23.4956 163.758H47.663L53.0839 151.555L58.607 174.602L65.2699 133.93L70.8076 164.211L76.0093 149.202L83.5635 171.884L86.2958 163.744H126.492" stroke="#D5EEEF" stroke-width="2" stroke-linecap="round" stroke-linejoin="round"/>
<path d="M138.426 153.794C144.028 118.773 120.185 85.8413 85.1722 80.2381C50.1592 74.635 17.2343 98.4827 11.6324 133.503C6.0305 168.524 29.8729 201.456 64.8859 207.059C99.8989 212.663 132.824 188.815 138.426 153.794Z" stroke="white" stroke-width="2" stroke-miterlimit="10"/>
<path d="M127.06 195.697C155.79 166.96 155.79 120.368 127.06 91.6315C98.3293 62.8947 51.748 62.8947 23.0176 91.6315C-5.71281 120.368 -5.7128 166.96 23.0176 195.697C51.7481 224.433 98.3293 224.433 127.06 195.697Z" stroke="white" stroke-width="2" stroke-linecap="round" stroke-linejoin="round" stroke-dasharray="2.01 7.03"/>
</g>
<defs>
<linearGradient id="paint0_linear_64_2531" x1="243.983" y1="159.431" x2="243.983" y2="182.113" gradientUnits="userSpaceOnUse">
<stop stop-color="#B8835A" stop-opacity="0"/>
<stop offset="1" stop-color="#B8835A"/>
</linearGradient>
<clipPath id="clip0_64_2531">
<rect width="494" height="639" fill="white"/>
</clipPath>
</defs>
</svg>
