<svg width="40" height="40" viewBox="0 0 40 40" fill="none" xmlns="http://www.w3.org/2000/svg">
<path fill-rule="evenodd" clip-rule="evenodd" d="M31.6673 6.33399C31.6673 4.67713 30.3242 3.33398 28.6673 3.33398H11.334C9.67713 3.33398 8.33398 4.67713 8.33398 6.33398V33.6673C8.33398 35.3242 9.67713 36.6673 11.334 36.6673H28.6673C30.3242 36.6673 31.6673 35.3242 31.6673 33.6673L31.6673 6.33399ZM20.0007 24.584C20.691 24.584 21.2507 24.0243 21.2507 23.334C21.2507 22.6436 20.691 22.084 20.0007 22.084C19.3103 22.084 18.7507 22.6436 18.7507 23.334C18.7507 24.0243 19.3103 24.584 20.0007 24.584ZM20.0006 14.584C17.584 14.584 15.3982 15.562 13.8134 17.1468C13.3253 17.635 12.5338 17.635 12.0456 17.1468C11.5575 16.6586 11.5575 15.8672 12.0456 15.379C14.0801 13.3446 16.8943 12.084 20.0006 12.084C23.1068 12.084 25.9211 13.3446 27.9555 15.379C28.4437 15.8672 28.4437 16.6586 27.9555 17.1468C27.4674 17.635 26.6759 17.635 26.1878 17.1468C24.603 15.562 22.4172 14.584 20.0006 14.584ZM20.0006 19.584C18.9647 19.584 18.0289 20.0023 17.3489 20.6823C16.8608 21.1705 16.0693 21.1705 15.5812 20.6823C15.093 20.1942 15.093 19.4027 15.5812 18.9146C16.7108 17.7849 18.275 17.084 20.0006 17.084C21.7261 17.084 23.2904 17.7849 24.42 18.9146C24.9082 19.4027 24.9082 20.1942 24.42 20.6823C23.9319 21.1705 23.1404 21.1705 22.6522 20.6823C21.9723 20.0023 21.0365 19.584 20.0006 19.584ZM18.334 30.418C17.6436 30.418 17.084 30.9776 17.084 31.668C17.084 32.3583 17.6436 32.918 18.334 32.918H21.6673C22.3577 32.918 22.9173 32.3583 22.9173 31.668C22.9173 30.9776 22.3577 30.418 21.6673 30.418H18.334Z" fill="#EE6F14"/>
</svg>
