<svg width="128" height="128" viewBox="0 0 128 128" fill="none" xmlns="http://www.w3.org/2000/svg">
<path d="M10.8913 117.111C9.02662 115.247 8 112.768 8 110.131C8 107.495 9.02662 105.016 10.8913 103.151L83.0502 30.9923C84.3315 29.7108 86.4092 29.711 87.6907 30.9923L97.0105 40.3119C97.6259 40.9273 97.9718 41.7618 97.9718 42.632C97.9718 43.5022 97.6261 44.3368 97.0105 44.9522L24.8514 117.111C22.927 119.036 20.3991 119.998 17.8713 119.998C15.3436 119.998 12.8157 119.036 10.8913 117.111Z" fill="#393021"/>
<path d="M97.0099 40.3123C97.6252 40.9276 97.9711 41.7622 97.9711 42.6324C97.9711 43.5026 97.6255 44.3372 97.0099 44.9525L24.8507 117.112C22.9263 119.036 20.3984 119.998 17.8707 119.998C15.343 119.998 12.815 119.036 10.8906 117.112L92.3499 35.6523L97.0099 40.3123Z" fill="#393021"/>
<path d="M77.1818 93.6428C100.831 93.6428 120.003 74.471 120.003 50.8214C120.003 27.1718 100.831 8 77.1818 8C53.5321 8 34.3604 27.1718 34.3604 50.8214C34.3604 74.471 53.5321 93.6428 77.1818 93.6428Z" fill="#F79C0A"/>
<path d="M107.446 20.5566C115.2 28.3107 120.002 39.0159 120.002 50.8219C120.002 74.4337 100.793 93.6433 77.1811 93.6433C65.3753 93.6433 54.6698 88.841 46.916 81.087L107.446 20.5566Z" fill="#EE6F14"/>
<path d="M77.1814 80.4624C93.5519 80.4624 106.823 67.1916 106.823 50.8211C106.823 34.4506 93.5519 21.1797 77.1814 21.1797C60.8109 21.1797 47.54 34.4506 47.54 50.8211C47.54 67.1916 60.8109 80.4624 77.1814 80.4624Z" fill="#E1FAFF"/>
<path d="M77.1822 80.4642C69.0102 80.4642 61.5998 77.14 56.2324 71.7726L98.132 29.873C103.499 35.2404 106.824 42.6508 106.824 50.8228C106.824 67.1672 93.5265 80.4642 77.1822 80.4642Z" fill="#C7F5FF"/>
</svg>
