<svg width="19" height="19" viewBox="0 0 19 19" fill="none" xmlns="http://www.w3.org/2000/svg">
<path fill-rule="evenodd" clip-rule="evenodd" d="M13.4583 3.16658V4.05753C12.3476 3.24824 10.9795 2.77075 9.50001 2.77075C8.02048 2.77075 6.65247 3.24824 5.54168 4.05753L5.54168 3.16659C5.54168 2.29213 6.25056 1.58325 7.12501 1.58325L11.875 1.58325C12.7495 1.58325 13.4583 2.29213 13.4583 3.16658ZM9.50001 16.2291C8.02048 16.2291 6.65247 15.7516 5.54168 14.9423L5.54168 15.8333C5.54168 16.7077 6.25056 17.4166 7.12501 17.4166H11.875C12.7495 17.4166 13.4583 16.7077 13.4583 15.8333V14.9423C12.3476 15.7516 10.9795 16.2291 9.50001 16.2291ZM15.0417 9.49992C15.0417 12.5605 12.5606 15.0416 9.50001 15.0416C6.43943 15.0416 3.95834 12.5605 3.95834 9.49992C3.95834 6.43934 6.43943 3.95825 9.50001 3.95825C12.5606 3.95825 15.0417 6.43934 15.0417 9.49992ZM9.50004 6.53117C9.82796 6.53117 10.0938 6.797 10.0938 7.12492V9.49992C10.0938 9.72481 9.96673 9.93041 9.76558 10.031L8.18224 10.8227C7.88894 10.9693 7.53229 10.8504 7.38564 10.5571C7.23899 10.2638 7.35788 9.90717 7.65118 9.76052L8.90629 9.13296V7.12492C8.90629 6.797 9.17212 6.53117 9.50004 6.53117Z" fill="#948C7E"/>
</svg>
