<svg width="16" height="16" viewBox="0 0 16 16" fill="none" xmlns="http://www.w3.org/2000/svg">
<g clip-path="url(#clip0_49_3333)">
<path d="M15.6462 3.95333L15.6662 4.08399C15.4729 3.39799 14.9509 2.86866 14.2875 2.67599L14.2735 2.67266C13.0262 2.33399 8.00686 2.33399 8.00686 2.33399C8.00686 2.33399 3.0002 2.32733 1.7402 2.67266C1.0642 2.86866 0.541529 3.39799 0.351529 4.06999L0.348196 4.08399C-0.117804 6.51799 -0.121137 9.44266 0.368863 12.0487L0.348196 11.9167C0.541529 12.6027 1.06353 13.132 1.72686 13.3247L1.74086 13.328C2.98686 13.6673 8.00753 13.6673 8.00753 13.6673C8.00753 13.6673 13.0135 13.6673 14.2742 13.328C14.9509 13.132 15.4735 12.6027 15.6635 11.9307L15.6669 11.9167C15.8789 10.7847 16.0002 9.48199 16.0002 8.15133C16.0002 8.10266 16.0002 8.05333 15.9995 8.00399C16.0002 7.95866 16.0002 7.90466 16.0002 7.85066C16.0002 6.51933 15.8789 5.21666 15.6462 3.95333ZM6.40553 10.4347V5.57266L10.5829 8.00733L6.40553 10.4347Z" fill="#568A9F"/>
</g>
<defs>
<clipPath id="clip0_49_3333">
<rect width="16" height="16" fill="white"/>
</clipPath>
</defs>
</svg>
